<svg width="94" height="95" viewBox="0 0 94 95" fill="none" xmlns="http://www.w3.org/2000/svg">
<path d="M38.2744 23.0029C36.1757 23.4156 33.8777 24.7837 32.0721 27.9915C31.8819 28.3283 31.6277 28.6242 31.3239 28.8622C31.02 29.1002 30.6726 29.2757 30.3013 29.3786C29.9301 29.4816 29.5423 29.5099 29.1601 29.4621C28.778 29.4143 28.4089 29.2913 28.074 29.1C27.7392 28.9088 27.445 28.653 27.2084 28.3474C26.9718 28.0418 26.7973 27.6923 26.695 27.3189C26.5926 26.9454 26.5644 26.5554 26.6119 26.171C26.6595 25.7866 26.7818 25.4153 26.9719 25.0785C29.5572 20.5027 33.2328 17.9848 37.1488 17.2183C40.7925 16.5261 44.5609 17.2897 47.654 19.3469C50.4913 21.2339 52.7835 24.3178 52.8538 28.015C52.93 31.8773 50.5968 35.3623 46.2939 37.9214C43.3745 39.655 42.2373 40.8344 41.7507 41.6186C41.3403 42.2791 41.2465 42.8805 41.2465 44.225C41.2465 45.0069 40.9377 45.7568 40.388 46.3097C39.8383 46.8627 39.0928 47.1733 38.3154 47.1733C37.538 47.1733 36.7925 46.8627 36.2428 46.3097C35.6931 45.7568 35.3843 45.0069 35.3843 44.225C35.3843 42.6211 35.4664 40.628 36.7736 38.5052C38.0047 36.518 40.1093 34.749 43.3101 32.8444C46.4464 30.9752 47.015 29.2003 46.9974 28.1389C46.9681 26.9183 46.165 25.4264 44.418 24.2648C42.6093 23.0611 40.4074 22.6089 38.2744 23.0029ZM39.781 61.9149C40.9471 61.9149 42.0654 61.449 42.8899 60.6196C43.7144 59.7902 44.1777 58.6654 44.1777 57.4924C44.1777 56.3195 43.7144 55.1947 42.8899 54.3653C42.0654 53.5359 40.9471 53.07 39.781 53.07C38.6149 53.07 37.4966 53.5359 36.672 54.3653C35.8475 55.1947 35.3843 56.3195 35.3843 57.4924C35.3843 58.6654 35.8475 59.7902 36.672 60.6196C37.4966 61.449 38.6149 61.9149 39.781 61.9149ZM38.3154 1.04346e-06C31.6705 -0.00155838 25.1406 1.7448 19.3739 5.06576C13.6072 8.38672 8.80417 13.1668 5.44139 18.9317C2.07862 24.6966 0.273054 31.2457 0.203883 37.9293C0.134712 44.6129 1.80434 51.1985 5.04707 57.0325L0.386576 69.3094C-0.00133574 70.3299 -0.0997345 71.4388 0.102357 72.5123C0.304449 73.5858 0.799084 74.5817 1.53108 75.3889C2.26308 76.1962 3.20364 76.783 4.24786 77.0838C5.29207 77.3847 6.39885 77.3879 7.44474 77.0929L22.0242 72.983C27.1888 75.4375 32.8359 76.6928 38.5478 76.6558C44.2598 76.6189 49.8904 75.2907 55.0232 72.7695C60.1559 70.2483 64.6595 66.5987 68.2008 62.0905C71.7421 57.5824 74.2305 52.3311 75.4818 46.7251C76.7332 41.1191 76.7156 35.3018 75.4302 29.7036C74.1449 24.1053 71.6247 18.8694 68.0562 14.3831C64.4876 9.89672 59.962 6.27478 54.814 3.78515C49.666 1.29552 44.0275 0.00190614 38.3154 1.04346e-06ZM6.07297 38.3283C6.07558 31.2607 8.37335 24.3875 12.6167 18.7543C16.86 13.1211 22.8166 9.0364 29.5801 7.12162C36.3437 5.20685 43.544 5.56684 50.0854 8.14683C56.6268 10.7268 62.1514 15.3856 65.8184 21.4142C69.4855 27.4429 71.0943 34.5115 70.4001 41.5445C69.7059 48.5775 66.7467 55.1899 61.9728 60.3756C57.1988 65.5613 50.8715 69.0364 43.9534 70.2723C37.0353 71.5081 29.9052 70.437 23.648 67.2219L22.628 66.6912L5.86193 71.4145L11.5425 56.4605L10.7921 55.2222C7.69766 50.1376 6.06421 44.29 6.07297 38.3283ZM55.6853 94.3466C50.2001 94.3527 44.7786 93.1648 39.793 90.8645C34.8073 88.5641 30.3755 85.2058 26.8019 81.0201C30.1687 81.9376 33.6325 82.4463 37.1195 82.5356C42.5498 86.3935 49.0371 88.4602 55.6853 88.4499C60.9731 88.4499 65.956 87.1703 70.3527 84.9119L71.3727 84.3812L88.1388 89.1044L82.4582 74.1505L83.2086 72.9122C86.1984 67.9944 87.9277 62.2157 87.9277 56.0183C87.9368 49.4703 85.9659 43.0745 82.2765 37.6797C82.2285 34.1717 81.7661 30.682 80.8989 27.2839C84.9549 30.8763 88.2028 35.2975 90.4257 40.2525C92.6486 45.2074 93.7956 50.5822 93.79 56.0183C93.79 62.8053 92.0313 69.1855 88.9478 74.7225L93.6141 86.9993C94.0014 88.0193 94.0996 89.1274 93.8977 90.2002C93.6958 91.273 93.2017 92.2683 92.4706 93.0753C91.7394 93.8823 90.7998 94.4692 89.7566 94.7707C88.7133 95.0722 87.6073 95.0764 86.5618 94.7829L71.9765 90.673C67.0346 93.0316 61.5065 94.3466 55.6794 94.3466H55.6853Z" fill="#A71BA7"/>
</svg>
