<svg width="392" height="195" viewBox="0 0 392 195" fill="none" xmlns="http://www.w3.org/2000/svg">
<path d="M195.443 17.6484C87.5018 17.6484 0 46.7613 0 82.6718C0 102.815 27.5196 120.813 70.7192 132.741C65.3844 141.504 50.0535 152.509 11.2088 162.872C11.2088 162.872 0 166.635 11.2088 171.241C11.2088 171.241 86.338 173.45 139.711 145.008C157.363 146.76 176.039 147.71 195.449 147.71C303.371 147.71 390.867 118.597 390.867 82.684C390.867 46.7613 303.371 17.6484 195.455 17.6484" fill="#EBE3D6" fill-opacity="0.33"/>
<path d="M44.5905 78.48C43.8039 78.8133 43.4105 79.3333 43.4105 80.04C43.4105 80.36 43.4639 80.5667 43.5705 80.66C43.6905 80.74 43.8572 80.78 44.0705 80.78C44.4305 80.78 44.6839 80.8733 44.8305 81.06C44.9772 81.2467 45.0505 81.4733 45.0505 81.74C45.0505 82.0867 44.9439 82.3667 44.7305 82.58C44.5172 82.78 44.2172 82.88 43.8305 82.88C42.8972 82.88 42.4305 82.3867 42.4305 81.4V80.68C42.4305 79.88 42.6305 79.2467 43.0305 78.78C43.4305 78.3 43.9505 77.96 44.5905 77.76V78.48ZM40.1305 78.54C39.3439 78.9 38.9505 79.42 38.9505 80.1C38.9505 80.34 38.9839 80.5133 39.0505 80.62C39.1172 80.7267 39.1905 80.7933 39.2705 80.82C39.3639 80.8333 39.4972 80.8467 39.6705 80.86C40.0039 80.8733 40.2372 80.9733 40.3705 81.16C40.5172 81.3333 40.5905 81.5467 40.5905 81.8C40.5905 82.1467 40.4839 82.4267 40.2705 82.64C40.0572 82.84 39.7572 82.94 39.3705 82.94C38.4372 82.94 37.9705 82.4467 37.9705 81.46V80.74C37.9705 79.94 38.1705 79.3067 38.5705 78.84C38.9705 78.36 39.4905 78.0267 40.1305 77.84V78.54ZM56.1877 91.44V93H47.9277V79H49.6677L49.6477 91.44H56.1877ZM62.9537 93.14C61.8737 93.14 60.9603 92.88 60.2137 92.36C59.4803 91.84 58.9337 91.16 58.5737 90.32C58.2137 89.48 58.0337 88.5933 58.0337 87.66C58.0337 86.7133 58.2137 85.8267 58.5737 85C58.9337 84.16 59.487 83.48 60.2337 82.96C60.9803 82.44 61.8937 82.18 62.9737 82.18C64.387 82.18 65.5137 82.6533 66.3537 83.6C67.207 84.5467 67.6337 85.9067 67.6337 87.68V88.16H59.7537V88.3C59.7537 88.8867 59.887 89.44 60.1537 89.96C60.4203 90.48 60.7937 90.9 61.2737 91.22C61.7537 91.54 62.307 91.7 62.9337 91.7C63.6137 91.7 64.2003 91.5267 64.6937 91.18C65.187 90.8333 65.5537 90.3667 65.7937 89.78H67.4937C67.2137 90.74 66.687 91.54 65.9137 92.18C65.1537 92.82 64.167 93.14 62.9537 93.14ZM65.9337 86.94C65.8803 85.74 65.587 84.8733 65.0537 84.34C64.5203 83.8067 63.8203 83.54 62.9537 83.54C62.007 83.54 61.2537 83.8533 60.6937 84.48C60.1337 85.1067 59.8337 85.9267 59.7937 86.94H65.9337ZM73.7738 93.14C72.9205 93.14 72.1805 92.9733 71.5538 92.64C70.9272 92.2933 70.4472 91.8533 70.1138 91.32C69.7938 90.7867 69.6338 90.2267 69.6338 89.64V89.54H71.3538V89.62C71.3538 89.9533 71.4472 90.2867 71.6338 90.62C71.8205 90.94 72.1005 91.2067 72.4738 91.42C72.8472 91.62 73.3005 91.72 73.8338 91.72C74.4738 91.72 75.0005 91.5667 75.4138 91.26C75.8405 90.94 76.0538 90.5067 76.0538 89.96C76.0538 89.5067 75.8872 89.1467 75.5538 88.88C75.2338 88.6133 74.8272 88.44 74.3338 88.36L72.9538 88.16C72.0872 88.0267 71.3605 87.7333 70.7738 87.28C70.1872 86.8133 69.8938 86.14 69.8938 85.26C69.8938 84.2867 70.2405 83.5333 70.9338 83C71.6405 82.4533 72.5405 82.18 73.6338 82.18C74.4472 82.18 75.1405 82.3333 75.7138 82.64C76.3005 82.9333 76.7472 83.3267 77.0538 83.82C77.3605 84.3 77.5138 84.8267 77.5138 85.4V85.48H75.7938V85.44C75.7938 85.1733 75.7205 84.8933 75.5738 84.6C75.4405 84.3067 75.2072 84.0533 74.8738 83.84C74.5405 83.6267 74.1138 83.52 73.5938 83.52C72.9538 83.52 72.4405 83.68 72.0538 84C71.6672 84.3067 71.4738 84.7133 71.4738 85.22C71.4738 85.6333 71.6272 85.9733 71.9338 86.24C72.2405 86.5067 72.6272 86.68 73.0938 86.76L74.5938 87C75.4738 87.1467 76.2138 87.4533 76.8138 87.92C77.4138 88.3733 77.7138 89.0467 77.7138 89.94C77.7138 90.58 77.5405 91.14 77.1938 91.62C76.8605 92.1 76.3938 92.4733 75.7938 92.74C75.1938 93.0067 74.5205 93.14 73.7738 93.14ZM83.6957 93.14C82.8424 93.14 82.1024 92.9733 81.4757 92.64C80.849 92.2933 80.369 91.8533 80.0357 91.32C79.7157 90.7867 79.5557 90.2267 79.5557 89.64V89.54H81.2757V89.62C81.2757 89.9533 81.369 90.2867 81.5557 90.62C81.7424 90.94 82.0224 91.2067 82.3957 91.42C82.769 91.62 83.2224 91.72 83.7557 91.72C84.3957 91.72 84.9224 91.5667 85.3357 91.26C85.7624 90.94 85.9757 90.5067 85.9757 89.96C85.9757 89.5067 85.809 89.1467 85.4757 88.88C85.1557 88.6133 84.749 88.44 84.2557 88.36L82.8757 88.16C82.009 88.0267 81.2824 87.7333 80.6957 87.28C80.109 86.8133 79.8157 86.14 79.8157 85.26C79.8157 84.2867 80.1624 83.5333 80.8557 83C81.5624 82.4533 82.4624 82.18 83.5557 82.18C84.369 82.18 85.0624 82.3333 85.6357 82.64C86.2224 82.9333 86.669 83.3267 86.9757 83.82C87.2824 84.3 87.4357 84.8267 87.4357 85.4V85.48H85.7157V85.44C85.7157 85.1733 85.6424 84.8933 85.4957 84.6C85.3624 84.3067 85.129 84.0533 84.7957 83.84C84.4624 83.6267 84.0357 83.52 83.5157 83.52C82.8757 83.52 82.3624 83.68 81.9757 84C81.589 84.3067 81.3957 84.7133 81.3957 85.22C81.3957 85.6333 81.549 85.9733 81.8557 86.24C82.1624 86.5067 82.549 86.68 83.0157 86.76L84.5157 87C85.3957 87.1467 86.1357 87.4533 86.7357 87.92C87.3357 88.3733 87.6357 89.0467 87.6357 89.94C87.6357 90.58 87.4624 91.14 87.1157 91.62C86.7824 92.1 86.3157 92.4733 85.7157 92.74C85.1157 93.0067 84.4424 93.14 83.6957 93.14ZM99.127 93.14C98.0336 93.14 97.107 92.88 96.347 92.36C95.6003 91.84 95.047 91.1667 94.687 90.34C94.327 89.5 94.147 88.6067 94.147 87.66C94.147 86.7133 94.327 85.8267 94.687 85C95.047 84.16 95.6003 83.48 96.347 82.96C97.107 82.44 98.0336 82.18 99.127 82.18C100.487 82.18 101.554 82.5733 102.327 83.36C103.114 84.1467 103.587 85.1133 103.747 86.26H102.067C101.947 85.4867 101.64 84.86 101.147 84.38C100.654 83.8867 99.987 83.64 99.147 83.64C98.0803 83.64 97.267 84.0267 96.707 84.8C96.1603 85.56 95.887 86.5133 95.887 87.66C95.887 88.8067 96.1603 89.7667 96.707 90.54C97.267 91.3 98.0803 91.68 99.147 91.68C99.987 91.68 100.654 91.44 101.147 90.96C101.64 90.48 101.947 89.8467 102.067 89.06H103.747C103.587 90.2067 103.114 91.1733 102.327 91.96C101.554 92.7467 100.487 93.14 99.127 93.14ZM108.85 93.08C108.064 93.08 107.477 92.9533 107.09 92.7C106.704 92.4467 106.457 92.12 106.35 91.72C106.257 91.3067 106.21 90.7733 106.21 90.12L106.23 78H107.95V89.86C107.95 90.3667 107.97 90.7467 108.01 91C108.064 91.24 108.19 91.4333 108.39 91.58C108.604 91.7267 108.937 91.8 109.39 91.8C109.67 91.8 109.917 91.78 110.13 91.74V92.98C109.77 93.0467 109.344 93.08 108.85 93.08ZM112.579 82.46H114.299V93H112.579V82.46ZM113.419 80.5C113.099 80.5 112.833 80.3933 112.619 80.18C112.406 79.9533 112.299 79.6867 112.299 79.38C112.299 79.0733 112.406 78.8133 112.619 78.6C112.833 78.3733 113.099 78.26 113.419 78.26C113.739 78.26 114.006 78.3733 114.219 78.6C114.446 78.8133 114.559 79.0733 114.559 79.38C114.559 79.6867 114.446 79.9533 114.219 80.18C114.006 80.3933 113.739 80.5 113.419 80.5ZM121.939 93.14C120.846 93.14 119.919 92.88 119.159 92.36C118.413 91.84 117.859 91.1667 117.499 90.34C117.139 89.5 116.959 88.6067 116.959 87.66C116.959 86.7133 117.139 85.8267 117.499 85C117.859 84.16 118.413 83.48 119.159 82.96C119.919 82.44 120.846 82.18 121.939 82.18C123.299 82.18 124.366 82.5733 125.139 83.36C125.926 84.1467 126.399 85.1133 126.559 86.26H124.879C124.759 85.4867 124.453 84.86 123.959 84.38C123.466 83.8867 122.799 83.64 121.959 83.64C120.893 83.64 120.079 84.0267 119.519 84.8C118.973 85.56 118.699 86.5133 118.699 87.66C118.699 88.8067 118.973 89.7667 119.519 90.54C120.079 91.3 120.893 91.68 121.959 91.68C122.799 91.68 123.466 91.44 123.959 90.96C124.453 90.48 124.759 89.8467 124.879 89.06H126.559C126.399 90.2067 125.926 91.1733 125.139 91.96C124.366 92.7467 123.299 93.14 121.939 93.14ZM129.023 78.06H130.763V86.46H130.843L134.843 82.46H136.803L132.143 87.2L137.003 93H135.023L130.843 87.86H130.763V93H129.023V78.06ZM142.329 93.14C141.475 93.14 140.735 92.9733 140.109 92.64C139.482 92.2933 139.002 91.8533 138.669 91.32C138.349 90.7867 138.189 90.2267 138.189 89.64V89.54H139.909V89.62C139.909 89.9533 140.002 90.2867 140.189 90.62C140.375 90.94 140.655 91.2067 141.029 91.42C141.402 91.62 141.855 91.72 142.389 91.72C143.029 91.72 143.555 91.5667 143.969 91.26C144.395 90.94 144.609 90.5067 144.609 89.96C144.609 89.5067 144.442 89.1467 144.109 88.88C143.789 88.6133 143.382 88.44 142.889 88.36L141.509 88.16C140.642 88.0267 139.915 87.7333 139.329 87.28C138.742 86.8133 138.449 86.14 138.449 85.26C138.449 84.2867 138.795 83.5333 139.489 83C140.195 82.4533 141.095 82.18 142.189 82.18C143.002 82.18 143.695 82.3333 144.269 82.64C144.855 82.9333 145.302 83.3267 145.609 83.82C145.915 84.3 146.069 84.8267 146.069 85.4V85.48H144.349V85.44C144.349 85.1733 144.275 84.8933 144.129 84.6C143.995 84.3067 143.762 84.0533 143.429 83.84C143.095 83.6267 142.669 83.52 142.149 83.52C141.509 83.52 140.995 83.68 140.609 84C140.222 84.3067 140.029 84.7133 140.029 85.22C140.029 85.6333 140.182 85.9733 140.489 86.24C140.795 86.5067 141.182 86.68 141.649 86.76L143.149 87C144.029 87.1467 144.769 87.4533 145.369 87.92C145.969 88.3733 146.269 89.0467 146.269 89.94C146.269 90.58 146.095 91.14 145.749 91.62C145.415 92.1 144.949 92.4733 144.349 92.74C143.749 93.0067 143.075 93.14 142.329 93.14ZM149.11 95.48C149.924 95.12 150.33 94.5867 150.33 93.88C150.33 93.5467 150.27 93.3333 150.15 93.24C150.044 93.16 149.877 93.12 149.65 93.12C148.984 93.12 148.65 92.7933 148.65 92.14C148.65 91.78 148.757 91.4933 148.97 91.28C149.197 91.0667 149.51 90.96 149.91 90.96C150.857 90.96 151.33 91.4733 151.33 92.5V93.22C151.33 94.0467 151.124 94.7 150.71 95.18C150.31 95.6733 149.777 96.02 149.11 96.22V95.48ZM163.442 93.14C162.376 93.14 161.469 92.8867 160.722 92.38C159.989 91.86 159.436 91.1867 159.062 90.36C158.689 89.52 158.502 88.62 158.502 87.66C158.502 86.7 158.689 85.8067 159.062 84.98C159.436 84.14 159.989 83.4667 160.722 82.96C161.469 82.44 162.376 82.18 163.442 82.18C164.509 82.18 165.409 82.44 166.142 82.96C166.889 83.4667 167.442 84.14 167.802 84.98C168.176 85.82 168.362 86.7133 168.362 87.66C168.362 88.6067 168.176 89.5 167.802 90.34C167.429 91.18 166.869 91.86 166.122 92.38C165.389 92.8867 164.496 93.14 163.442 93.14ZM163.442 91.66C164.096 91.66 164.662 91.48 165.142 91.12C165.636 90.76 166.009 90.28 166.262 89.68C166.516 89.0667 166.642 88.3867 166.642 87.64C166.642 86.4933 166.356 85.54 165.782 84.78C165.209 84.02 164.429 83.64 163.442 83.64C162.776 83.64 162.196 83.82 161.702 84.18C161.222 84.54 160.856 85.0267 160.602 85.64C160.349 86.24 160.222 86.9067 160.222 87.64C160.222 88.7867 160.509 89.7467 161.082 90.52C161.656 91.28 162.442 91.66 163.442 91.66ZM170.877 82.46H172.597V84.36H172.757C173.024 83.7467 173.457 83.2333 174.057 82.82C174.657 82.3933 175.39 82.18 176.257 82.18C177.15 82.18 177.897 82.3933 178.497 82.82C179.097 83.2333 179.537 83.7867 179.817 84.48C180.11 85.16 180.257 85.9 180.257 86.7V93H178.537V86.92C178.537 85.88 178.264 85.0867 177.717 84.54C177.184 83.9933 176.484 83.72 175.617 83.72C174.697 83.72 173.964 84.02 173.417 84.62C172.87 85.2067 172.597 85.9733 172.597 86.92V93H170.877V82.46ZM185.882 93.08C185.095 93.08 184.508 92.9533 184.122 92.7C183.735 92.4467 183.488 92.12 183.382 91.72C183.288 91.3067 183.242 90.7733 183.242 90.12L183.262 78H184.982V89.86C184.982 90.3667 185.002 90.7467 185.042 91C185.095 91.24 185.222 91.4333 185.422 91.58C185.635 91.7267 185.968 91.8 186.422 91.8C186.702 91.8 186.948 91.78 187.162 91.74V92.98C186.802 93.0467 186.375 93.08 185.882 93.08ZM192.765 94.46C192.552 94.9667 192.345 95.38 192.145 95.7C191.959 96.0333 191.645 96.3467 191.205 96.64C190.765 96.9333 190.192 97.08 189.485 97.08C189.112 97.08 188.712 97.0267 188.285 96.92V95.64C188.605 95.6933 188.885 95.72 189.125 95.72C189.565 95.72 189.919 95.6333 190.185 95.46C190.452 95.3 190.659 95.0867 190.805 94.82C190.965 94.5533 191.152 94.1667 191.365 93.66L191.845 92.48L187.945 82.46H189.745L192.685 90.58H192.805L195.885 82.46H197.685L192.765 94.46ZM204.357 82.46H206.077V93H204.357V82.46ZM205.197 80.5C204.877 80.5 204.61 80.3933 204.397 80.18C204.183 79.9533 204.077 79.6867 204.077 79.38C204.077 79.0733 204.183 78.8133 204.397 78.6C204.61 78.3733 204.877 78.26 205.197 78.26C205.517 78.26 205.783 78.3733 205.997 78.6C206.223 78.8133 206.337 79.0733 206.337 79.38C206.337 79.6867 206.223 79.9533 205.997 80.18C205.783 80.3933 205.517 80.5 205.197 80.5ZM209.275 82.46H210.975V84.4H211.135C211.162 84.2667 211.295 84.0267 211.535 83.68C211.775 83.32 212.142 82.98 212.635 82.66C213.129 82.34 213.742 82.18 214.475 82.18C215.249 82.18 215.889 82.36 216.395 82.72C216.915 83.08 217.302 83.4667 217.555 83.88C217.809 84.2933 217.935 84.5533 217.935 84.66H218.095C218.282 84.1933 218.649 83.6667 219.195 83.08C219.755 82.48 220.609 82.18 221.755 82.18C222.609 82.18 223.322 82.4 223.895 82.84C224.469 83.2667 224.889 83.82 225.155 84.5C225.435 85.18 225.575 85.9067 225.575 86.68V93H223.875V86.84C223.875 85.8267 223.609 85.06 223.075 84.54C222.555 84.02 221.909 83.76 221.135 83.76C220.335 83.76 219.655 84.0333 219.095 84.58C218.549 85.1133 218.275 85.8667 218.275 86.84V93H216.575V86.84C216.575 85.8267 216.309 85.06 215.775 84.54C215.255 84.02 214.609 83.76 213.835 83.76C213.035 83.76 212.355 84.0333 211.795 84.58C211.249 85.1133 210.975 85.8667 210.975 86.84V93H209.275V82.46ZM233.974 93.14C233.054 93.14 232.301 92.9133 231.714 92.46C231.127 92.0067 230.674 91.4667 230.354 90.84H230.214V97.06H228.474V82.46H230.214V84.42H230.354C230.647 83.8067 231.081 83.28 231.654 82.84C232.227 82.4 232.981 82.18 233.914 82.18C234.861 82.18 235.667 82.42 236.334 82.9C237.014 83.3667 237.527 84.02 237.874 84.86C238.221 85.6867 238.394 86.62 238.394 87.66C238.394 88.7 238.221 89.6333 237.874 90.46C237.527 91.2867 237.021 91.94 236.354 92.42C235.687 92.9 234.894 93.14 233.974 93.14ZM233.434 91.66C234.474 91.66 235.261 91.28 235.794 90.52C236.341 89.76 236.614 88.8067 236.614 87.66C236.614 86.5267 236.347 85.58 235.814 84.82C235.281 84.06 234.487 83.68 233.434 83.68C232.394 83.68 231.601 84.06 231.054 84.82C230.521 85.58 230.254 86.5267 230.254 87.66C230.254 88.7933 230.527 89.7467 231.074 90.52C231.621 91.28 232.407 91.66 233.434 91.66ZM245.396 93.14C244.329 93.14 243.422 92.8867 242.676 92.38C241.942 91.86 241.389 91.1867 241.016 90.36C240.642 89.52 240.456 88.62 240.456 87.66C240.456 86.7 240.642 85.8067 241.016 84.98C241.389 84.14 241.942 83.4667 242.676 82.96C243.422 82.44 244.329 82.18 245.396 82.18C246.462 82.18 247.362 82.44 248.096 82.96C248.842 83.4667 249.396 84.14 249.756 84.98C250.129 85.82 250.316 86.7133 250.316 87.66C250.316 88.6067 250.129 89.5 249.756 90.34C249.382 91.18 248.822 91.86 248.076 92.38C247.342 92.8867 246.449 93.14 245.396 93.14ZM245.396 91.66C246.049 91.66 246.616 91.48 247.096 91.12C247.589 90.76 247.962 90.28 248.216 89.68C248.469 89.0667 248.596 88.3867 248.596 87.64C248.596 86.4933 248.309 85.54 247.736 84.78C247.162 84.02 246.382 83.64 245.396 83.64C244.729 83.64 244.149 83.82 243.656 84.18C243.176 84.54 242.809 85.0267 242.556 85.64C242.302 86.24 242.176 86.9067 242.176 87.64C242.176 88.7867 242.462 89.7467 243.036 90.52C243.609 91.28 244.396 91.66 245.396 91.66ZM252.75 82.46H254.47V84.14H254.59C254.763 83.6733 255.07 83.28 255.51 82.96C255.963 82.6267 256.53 82.46 257.21 82.46C257.423 82.46 257.59 82.4733 257.71 82.5C257.843 82.5133 257.99 82.5467 258.15 82.6L258.09 84.28C257.877 84.2133 257.69 84.1667 257.53 84.14C257.383 84.1133 257.19 84.1 256.95 84.1C255.297 84.1 254.47 85.08 254.47 87.04V93H252.75V82.46ZM262.701 83.84V89.96C262.701 90.4533 262.721 90.82 262.761 91.06C262.814 91.2867 262.941 91.4667 263.141 91.6C263.354 91.7333 263.694 91.8 264.161 91.8C264.481 91.8 264.828 91.7533 265.201 91.66V92.9C265.108 92.94 264.901 92.98 264.581 93.02C264.274 93.06 263.954 93.08 263.621 93.08C262.848 93.08 262.268 92.9733 261.881 92.76C261.508 92.5333 261.261 92.2333 261.141 91.86C261.034 91.4733 260.981 90.9667 260.981 90.34V83.84H259.021V82.46H260.981V79H262.701V82.46H265.201V83.84H262.701ZM271.592 93.14C270.659 93.14 269.859 92.9 269.192 92.42C268.539 91.94 268.039 91.2867 267.692 90.46C267.346 89.6333 267.172 88.7 267.172 87.66C267.172 86.62 267.346 85.6867 267.692 84.86C268.052 84.02 268.566 83.3667 269.232 82.9C269.912 82.42 270.719 82.18 271.652 82.18C272.586 82.18 273.339 82.4 273.912 82.84C274.486 83.28 274.919 83.8067 275.212 84.42H275.352V82.46H277.092V93H275.352V90.84H275.212C274.892 91.4667 274.439 92.0067 273.852 92.46C273.266 92.9133 272.512 93.14 271.592 93.14ZM272.132 91.66C273.159 91.66 273.946 91.28 274.492 90.52C275.039 89.7467 275.312 88.7933 275.312 87.66C275.312 86.5267 275.039 85.58 274.492 84.82C273.946 84.0467 273.159 83.66 272.132 83.66C271.079 83.66 270.279 84.04 269.732 84.8C269.199 85.56 268.932 86.5067 268.932 87.64C268.932 88.7867 269.199 89.7467 269.732 90.52C270.279 91.28 271.079 91.66 272.132 91.66ZM280.135 82.46H281.855V84.36H282.015C282.281 83.7467 282.715 83.2333 283.315 82.82C283.915 82.3933 284.648 82.18 285.515 82.18C286.408 82.18 287.155 82.3933 287.755 82.82C288.355 83.2333 288.795 83.7867 289.075 84.48C289.368 85.16 289.515 85.9 289.515 86.7V93H287.795V86.92C287.795 85.88 287.521 85.0867 286.975 84.54C286.441 83.9933 285.741 83.72 284.875 83.72C283.955 83.72 283.221 84.02 282.675 84.62C282.128 85.2067 281.855 85.9733 281.855 86.92V93H280.135V82.46ZM294.81 83.84V89.96C294.81 90.4533 294.83 90.82 294.87 91.06C294.924 91.2867 295.05 91.4667 295.25 91.6C295.464 91.7333 295.804 91.8 296.27 91.8C296.59 91.8 296.937 91.7533 297.31 91.66V92.9C297.217 92.94 297.01 92.98 296.69 93.02C296.384 93.06 296.064 93.08 295.73 93.08C294.957 93.08 294.377 92.9733 293.99 92.76C293.617 92.5333 293.37 92.2333 293.25 91.86C293.144 91.4733 293.09 90.9667 293.09 90.34V83.84H291.13V82.46H293.09V79H294.81V82.46H297.31V83.84H294.81ZM304.591 82.46H306.311V93H304.591V82.46ZM305.431 80.5C305.111 80.5 304.845 80.3933 304.631 80.18C304.418 79.9533 304.311 79.6867 304.311 79.38C304.311 79.0733 304.418 78.8133 304.631 78.6C304.845 78.3733 305.111 78.26 305.431 78.26C305.751 78.26 306.018 78.3733 306.231 78.6C306.458 78.8133 306.571 79.0733 306.571 79.38C306.571 79.6867 306.458 79.9533 306.231 80.18C306.018 80.3933 305.751 80.5 305.431 80.5ZM309.51 82.46H311.23V84.36H311.39C311.656 83.7467 312.09 83.2333 312.69 82.82C313.29 82.3933 314.023 82.18 314.89 82.18C315.783 82.18 316.53 82.3933 317.13 82.82C317.73 83.2333 318.17 83.7867 318.45 84.48C318.743 85.16 318.89 85.9 318.89 86.7V93H317.17V86.92C317.17 85.88 316.896 85.0867 316.35 84.54C315.816 83.9933 315.116 83.72 314.25 83.72C313.33 83.72 312.596 84.02 312.05 84.62C311.503 85.2067 311.23 85.9733 311.23 86.92V93H309.51V82.46ZM325.876 79.5C325.409 79.5 325.063 79.5933 324.836 79.78C324.623 79.9533 324.489 80.1667 324.436 80.42C324.396 80.66 324.376 80.9733 324.376 81.36V82.46H326.876V83.84H324.376V93H322.656L322.636 83.84H321.196V82.46H322.636V81.08C322.636 79.1867 323.576 78.24 325.456 78.24C325.723 78.24 325.989 78.26 326.256 78.3C326.536 78.3267 326.743 78.36 326.876 78.4V79.6C326.583 79.5333 326.249 79.5 325.876 79.5ZM332.817 93.14C331.751 93.14 330.844 92.8867 330.097 92.38C329.364 91.86 328.811 91.1867 328.437 90.36C328.064 89.52 327.877 88.62 327.877 87.66C327.877 86.7 328.064 85.8067 328.437 84.98C328.811 84.14 329.364 83.4667 330.097 82.96C330.844 82.44 331.751 82.18 332.817 82.18C333.884 82.18 334.784 82.44 335.517 82.96C336.264 83.4667 336.817 84.14 337.177 84.98C337.551 85.82 337.737 86.7133 337.737 87.66C337.737 88.6067 337.551 89.5 337.177 90.34C336.804 91.18 336.244 91.86 335.497 92.38C334.764 92.8867 333.871 93.14 332.817 93.14ZM332.817 91.66C333.471 91.66 334.037 91.48 334.517 91.12C335.011 90.76 335.384 90.28 335.637 89.68C335.891 89.0667 336.017 88.3867 336.017 87.64C336.017 86.4933 335.731 85.54 335.157 84.78C334.584 84.02 333.804 83.64 332.817 83.64C332.151 83.64 331.571 83.82 331.077 84.18C330.597 84.54 330.231 85.0267 329.977 85.64C329.724 86.24 329.597 86.9067 329.597 87.64C329.597 88.7867 329.884 89.7467 330.457 90.52C331.031 91.28 331.817 91.66 332.817 91.66ZM341.492 93.14C341.159 93.14 340.879 93.0267 340.652 92.8C340.439 92.56 340.332 92.28 340.332 91.96C340.332 91.64 340.439 91.3733 340.652 91.16C340.879 90.9333 341.159 90.82 341.492 90.82C341.825 90.82 342.099 90.9333 342.312 91.16C342.539 91.3733 342.652 91.64 342.652 91.96C342.652 92.28 342.539 92.56 342.312 92.8C342.085 93.0267 341.812 93.14 341.492 93.14ZM346.301 82.84C347.087 82.5067 347.481 81.9867 347.481 81.28C347.481 80.96 347.421 80.76 347.301 80.68C347.194 80.5867 347.034 80.54 346.821 80.54C346.461 80.54 346.207 80.4467 346.061 80.26C345.914 80.0733 345.841 79.8467 345.841 79.58C345.841 79.2333 345.947 78.96 346.161 78.76C346.374 78.5467 346.674 78.44 347.061 78.44C347.994 78.44 348.461 78.9333 348.461 79.92V80.64C348.461 81.44 348.261 82.08 347.861 82.56C347.461 83.0267 346.941 83.36 346.301 83.56V82.84ZM350.741 82.86C351.527 82.5267 351.921 82.0133 351.921 81.32C351.921 80.9867 351.861 80.78 351.741 80.7C351.634 80.6067 351.474 80.56 351.261 80.56C350.901 80.56 350.647 80.4733 350.501 80.3C350.354 80.1133 350.281 79.8867 350.281 79.62C350.281 79.2733 350.387 78.9933 350.601 78.78C350.814 78.5667 351.114 78.46 351.501 78.46C352.434 78.46 352.901 78.96 352.901 79.96V80.66C352.901 82.1533 352.181 83.1267 350.741 83.58V82.86Z" fill="#A71BA7"/>
</svg>
