<svg width="427" height="271" viewBox="0 0 427 271" fill="none" xmlns="http://www.w3.org/2000/svg">
<path d="M212.893 24.5254C95.3144 24.5254 0 64.9848 0 114.891C0 142.885 29.9767 167.897 77.0335 184.475C71.2223 196.653 54.5226 211.947 12.2095 226.348C12.2095 226.348 0 231.578 12.2095 237.98C12.2095 237.98 94.0467 241.05 152.185 201.522C171.414 203.957 191.756 205.278 212.9 205.278C330.458 205.278 425.766 164.819 425.766 114.908C425.766 64.9848 330.458 24.5254 212.906 24.5254" fill="#EBE3D6" fill-opacity="0.33"/>
<path d="M38.1179 92.42C37.3312 92.78 36.9379 93.3 36.9379 93.98C36.9379 94.22 36.9712 94.3933 37.0379 94.5C37.1046 94.6067 37.1779 94.6733 37.2579 94.7C37.3512 94.7133 37.4846 94.7267 37.6579 94.74C37.9912 94.7533 38.2246 94.8533 38.3579 95.04C38.5046 95.2133 38.5779 95.4267 38.5779 95.68C38.5779 96.0267 38.4712 96.3067 38.2579 96.52C38.0446 96.72 37.7446 96.82 37.3579 96.82C36.4246 96.82 35.9579 96.3267 35.9579 95.34V94.62C35.9579 93.82 36.1579 93.1867 36.5579 92.72C36.9579 92.24 37.4779 91.9067 38.1179 91.72V92.42ZM33.6579 92.46C32.8712 92.82 32.4779 93.34 32.4779 94.02C32.4779 94.26 32.5112 94.4333 32.5779 94.54C32.6446 94.6467 32.7179 94.7133 32.7979 94.74C32.8912 94.7533 33.0246 94.7667 33.1979 94.78C33.5312 94.7933 33.7646 94.8933 33.8979 95.08C34.0446 95.2533 34.1179 95.4667 34.1179 95.72C34.1179 96.0667 34.0112 96.3467 33.7979 96.56C33.5846 96.76 33.2846 96.86 32.8979 96.86C31.9646 96.86 31.4979 96.3667 31.4979 95.38V94.66C31.4979 93.86 31.6979 93.2267 32.0979 92.76C32.4979 92.28 33.0179 91.9467 33.6579 91.76V92.46ZM41.6713 93H43.4113V107H41.6713V93ZM49.1579 97.84V103.96C49.1579 104.453 49.1779 104.82 49.2179 105.06C49.2712 105.287 49.3979 105.467 49.5979 105.6C49.8112 105.733 50.1512 105.8 50.6179 105.8C50.9379 105.8 51.2846 105.753 51.6579 105.66V106.9C51.5646 106.94 51.3579 106.98 51.0379 107.02C50.7312 107.06 50.4112 107.08 50.0779 107.08C49.3046 107.08 48.7246 106.973 48.3379 106.76C47.9646 106.533 47.7179 106.233 47.5979 105.86C47.4912 105.473 47.4379 104.967 47.4379 104.34V97.84H45.4779V96.46H47.4379V93H49.1579V96.46H51.6579V97.84H49.1579ZM54.8895 97.12C55.6895 96.7733 56.0895 96.2533 56.0895 95.56C56.0895 95.24 56.0295 95.04 55.9095 94.96C55.8028 94.8667 55.6428 94.82 55.4295 94.82C55.0828 94.82 54.8295 94.7267 54.6695 94.54C54.5095 94.34 54.4295 94.1133 54.4295 93.86C54.4295 93.5133 54.5361 93.24 54.7495 93.04C54.9628 92.8267 55.2695 92.72 55.6695 92.72C56.5895 92.72 57.0495 93.2133 57.0495 94.2V94.92C57.0495 95.72 56.8495 96.36 56.4495 96.84C56.0495 97.3067 55.5295 97.64 54.8895 97.84V97.12ZM63.102 107.14C62.2486 107.14 61.5086 106.973 60.882 106.64C60.2553 106.293 59.7753 105.853 59.442 105.32C59.122 104.787 58.962 104.227 58.962 103.64V103.54H60.682V103.62C60.682 103.953 60.7753 104.287 60.962 104.62C61.1486 104.94 61.4286 105.207 61.802 105.42C62.1753 105.62 62.6286 105.72 63.162 105.72C63.802 105.72 64.3286 105.567 64.742 105.26C65.1686 104.94 65.382 104.507 65.382 103.96C65.382 103.507 65.2153 103.147 64.882 102.88C64.562 102.613 64.1553 102.44 63.662 102.36L62.282 102.16C61.4153 102.027 60.6886 101.733 60.102 101.28C59.5153 100.813 59.222 100.14 59.222 99.26C59.222 98.2867 59.5686 97.5333 60.262 97C60.9686 96.4533 61.8686 96.18 62.962 96.18C63.7753 96.18 64.4686 96.3333 65.042 96.64C65.6286 96.9333 66.0753 97.3267 66.382 97.82C66.6886 98.3 66.842 98.8267 66.842 99.4V99.48H65.122V99.44C65.122 99.1733 65.0486 98.8933 64.902 98.6C64.7686 98.3067 64.5353 98.0533 64.202 97.84C63.8686 97.6267 63.442 97.52 62.922 97.52C62.282 97.52 61.7686 97.68 61.382 98C60.9953 98.3067 60.802 98.7133 60.802 99.22C60.802 99.6333 60.9553 99.9733 61.262 100.24C61.5686 100.507 61.9553 100.68 62.422 100.76L63.922 101C64.802 101.147 65.542 101.453 66.142 101.92C66.742 102.373 67.042 103.047 67.042 103.94C67.042 104.58 66.8686 105.14 66.522 105.62C66.1886 106.1 65.722 106.473 65.122 106.74C64.522 107.007 63.8486 107.14 63.102 107.14ZM74.0332 96.46H75.7532V98.36H75.9132C76.1799 97.7467 76.6132 97.2333 77.2132 96.82C77.8132 96.3933 78.5465 96.18 79.4132 96.18C80.3065 96.18 81.0532 96.3933 81.6532 96.82C82.2532 97.2333 82.6932 97.7867 82.9732 98.48C83.2665 99.16 83.4132 99.9 83.4132 100.7V107H81.6932V100.92C81.6932 99.88 81.4199 99.0867 80.8732 98.54C80.3399 97.9933 79.6399 97.72 78.7732 97.72C77.8532 97.72 77.1199 98.02 76.5732 98.62C76.0265 99.2067 75.7532 99.9733 75.7532 100.92V107H74.0332V96.46ZM90.7979 107.14C89.7312 107.14 88.8246 106.887 88.0779 106.38C87.3446 105.86 86.7912 105.187 86.4179 104.36C86.0446 103.52 85.8579 102.62 85.8579 101.66C85.8579 100.7 86.0446 99.8067 86.4179 98.98C86.7912 98.14 87.3446 97.4667 88.0779 96.96C88.8246 96.44 89.7312 96.18 90.7979 96.18C91.8646 96.18 92.7646 96.44 93.4979 96.96C94.2446 97.4667 94.7979 98.14 95.1579 98.98C95.5312 99.82 95.7179 100.713 95.7179 101.66C95.7179 102.607 95.5312 103.5 95.1579 104.34C94.7846 105.18 94.2246 105.86 93.4779 106.38C92.7446 106.887 91.8512 107.14 90.7979 107.14ZM90.7979 105.66C91.4512 105.66 92.0179 105.48 92.4979 105.12C92.9912 104.76 93.3646 104.28 93.6179 103.68C93.8712 103.067 93.9979 102.387 93.9979 101.64C93.9979 100.493 93.7112 99.54 93.1379 98.78C92.5646 98.02 91.7846 97.64 90.7979 97.64C90.1312 97.64 89.5512 97.82 89.0579 98.18C88.5779 98.54 88.2112 99.0267 87.9579 99.64C87.7046 100.24 87.5779 100.907 87.5779 101.64C87.5779 102.787 87.8646 103.747 88.4379 104.52C89.0112 105.28 89.7979 105.66 90.7979 105.66ZM101.052 97.84V103.96C101.052 104.453 101.072 104.82 101.112 105.06C101.166 105.287 101.292 105.467 101.492 105.6C101.706 105.733 102.046 105.8 102.512 105.8C102.832 105.8 103.179 105.753 103.552 105.66V106.9C103.459 106.94 103.252 106.98 102.932 107.02C102.626 107.06 102.306 107.08 101.972 107.08C101.199 107.08 100.619 106.973 100.232 106.76C99.8591 106.533 99.6124 106.233 99.4924 105.86C99.3858 105.473 99.3324 104.967 99.3324 104.34V97.84H97.3724V96.46H99.3324V93H101.052V96.46H103.552V97.84H101.052ZM113.513 97.84V103.96C113.513 104.453 113.533 104.82 113.573 105.06C113.627 105.287 113.753 105.467 113.953 105.6C114.167 105.733 114.507 105.8 114.973 105.8C115.293 105.8 115.64 105.753 116.013 105.66V106.9C115.92 106.94 115.713 106.98 115.393 107.02C115.087 107.06 114.767 107.08 114.433 107.08C113.66 107.08 113.08 106.973 112.693 106.76C112.32 106.533 112.073 106.233 111.953 105.86C111.847 105.473 111.793 104.967 111.793 104.34V97.84H109.833V96.46H111.793V93H113.513V96.46H116.013V97.84H113.513ZM118.465 96.46H120.185V98.14H120.305C120.478 97.6733 120.785 97.28 121.225 96.96C121.678 96.6267 122.245 96.46 122.925 96.46C123.138 96.46 123.305 96.4733 123.425 96.5C123.558 96.5133 123.705 96.5467 123.865 96.6L123.805 98.28C123.592 98.2133 123.405 98.1667 123.245 98.14C123.098 98.1133 122.905 98.1 122.665 98.1C121.012 98.1 120.185 99.08 120.185 101.04V107H118.465V96.46ZM129.652 108.46C129.439 108.967 129.232 109.38 129.032 109.7C128.845 110.033 128.532 110.347 128.092 110.64C127.652 110.933 127.079 111.08 126.372 111.08C125.999 111.08 125.599 111.027 125.172 110.92V109.64C125.492 109.693 125.772 109.72 126.012 109.72C126.452 109.72 126.805 109.633 127.072 109.46C127.339 109.3 127.545 109.087 127.692 108.82C127.852 108.553 128.039 108.167 128.252 107.66L128.732 106.48L124.832 96.46H126.632L129.572 104.58H129.692L132.772 96.46H134.572L129.652 108.46ZM136.634 96.46H138.354V107H136.634V96.46ZM137.474 94.5C137.154 94.5 136.887 94.3933 136.674 94.18C136.461 93.9533 136.354 93.6867 136.354 93.38C136.354 93.0733 136.461 92.8133 136.674 92.6C136.887 92.3733 137.154 92.26 137.474 92.26C137.794 92.26 138.061 92.3733 138.274 92.6C138.501 92.8133 138.614 93.0733 138.614 93.38C138.614 93.6867 138.501 93.9533 138.274 94.18C138.061 94.3933 137.794 94.5 137.474 94.5ZM141.553 96.46H143.273V98.36H143.433C143.699 97.7467 144.133 97.2333 144.733 96.82C145.333 96.3933 146.066 96.18 146.933 96.18C147.826 96.18 148.573 96.3933 149.173 96.82C149.773 97.2333 150.213 97.7867 150.493 98.48C150.786 99.16 150.933 99.9 150.933 100.7V107H149.213V100.92C149.213 99.88 148.939 99.0867 148.393 98.54C147.859 97.9933 147.159 97.72 146.293 97.72C145.373 97.72 144.639 98.02 144.093 98.62C143.546 99.2067 143.273 99.9733 143.273 100.92V107H141.553V96.46ZM158.577 111.22C158.177 111.22 157.851 111.193 157.597 111.14C157.357 111.087 157.111 111.013 156.857 110.92V109.48C157.031 109.533 157.264 109.58 157.557 109.62C157.851 109.673 158.137 109.7 158.417 109.7C159.457 109.7 160.237 109.407 160.757 108.82C161.291 108.233 161.557 107.453 161.557 106.48V104.58H161.397C161.117 105.207 160.664 105.74 160.037 106.18C159.424 106.607 158.677 106.82 157.797 106.82C156.917 106.82 156.144 106.593 155.477 106.14C154.811 105.687 154.291 105.06 153.917 104.26C153.557 103.447 153.377 102.52 153.377 101.48C153.377 100.44 153.557 99.52 153.917 98.72C154.291 97.9067 154.811 97.2733 155.477 96.82C156.144 96.3667 156.917 96.14 157.797 96.14C158.717 96.14 159.484 96.38 160.097 96.86C160.724 97.3267 161.164 97.8733 161.417 98.5H161.557V96.48H163.297V106.48C163.297 107.227 163.144 107.96 162.837 108.68C162.544 109.4 162.044 110 161.337 110.48C160.631 110.973 159.711 111.22 158.577 111.22ZM158.357 105.34C159.037 105.34 159.617 105.16 160.097 104.8C160.577 104.427 160.931 103.947 161.157 103.36C161.397 102.76 161.517 102.12 161.517 101.44C161.517 100.773 161.397 100.153 161.157 99.58C160.931 99.0067 160.577 98.54 160.097 98.18C159.631 97.82 159.051 97.64 158.357 97.64C157.331 97.64 156.544 98.0133 155.997 98.76C155.464 99.4933 155.197 100.387 155.197 101.44C155.197 102.133 155.311 102.78 155.537 103.38C155.777 103.967 156.131 104.44 156.597 104.8C157.077 105.16 157.664 105.34 158.357 105.34ZM173.728 97.84V103.96C173.728 104.453 173.748 104.82 173.788 105.06C173.842 105.287 173.968 105.467 174.168 105.6C174.382 105.733 174.722 105.8 175.188 105.8C175.508 105.8 175.855 105.753 176.228 105.66V106.9C176.135 106.94 175.928 106.98 175.608 107.02C175.302 107.06 174.982 107.08 174.648 107.08C173.875 107.08 173.295 106.973 172.908 106.76C172.535 106.533 172.288 106.233 172.168 105.86C172.062 105.473 172.008 104.967 172.008 104.34V97.84H170.048V96.46H172.008V93H173.728V96.46H176.228V97.84H173.728ZM183.22 107.14C182.153 107.14 181.246 106.887 180.5 106.38C179.766 105.86 179.213 105.187 178.84 104.36C178.466 103.52 178.28 102.62 178.28 101.66C178.28 100.7 178.466 99.8067 178.84 98.98C179.213 98.14 179.766 97.4667 180.5 96.96C181.246 96.44 182.153 96.18 183.22 96.18C184.286 96.18 185.186 96.44 185.92 96.96C186.666 97.4667 187.22 98.14 187.58 98.98C187.953 99.82 188.14 100.713 188.14 101.66C188.14 102.607 187.953 103.5 187.58 104.34C187.206 105.18 186.646 105.86 185.9 106.38C185.166 106.887 184.273 107.14 183.22 107.14ZM183.22 105.66C183.873 105.66 184.44 105.48 184.92 105.12C185.413 104.76 185.786 104.28 186.04 103.68C186.293 103.067 186.42 102.387 186.42 101.64C186.42 100.493 186.133 99.54 185.56 98.78C184.986 98.02 184.206 97.64 183.22 97.64C182.553 97.64 181.973 97.82 181.48 98.18C181 98.54 180.633 99.0267 180.38 99.64C180.126 100.24 180 100.907 180 101.64C180 102.787 180.286 103.747 180.86 104.52C181.433 105.28 182.22 105.66 183.22 105.66ZM199.764 107.14C198.67 107.14 197.744 106.88 196.984 106.36C196.237 105.84 195.684 105.167 195.324 104.34C194.964 103.5 194.784 102.607 194.784 101.66C194.784 100.713 194.964 99.8267 195.324 99C195.684 98.16 196.237 97.48 196.984 96.96C197.744 96.44 198.67 96.18 199.764 96.18C201.124 96.18 202.19 96.5733 202.964 97.36C203.75 98.1467 204.224 99.1133 204.384 100.26H202.704C202.584 99.4867 202.277 98.86 201.784 98.38C201.29 97.8867 200.624 97.64 199.784 97.64C198.717 97.64 197.904 98.0267 197.344 98.8C196.797 99.56 196.524 100.513 196.524 101.66C196.524 102.807 196.797 103.767 197.344 104.54C197.904 105.3 198.717 105.68 199.784 105.68C200.624 105.68 201.29 105.44 201.784 104.96C202.277 104.48 202.584 103.847 202.704 103.06H204.384C204.224 104.207 203.75 105.173 202.964 105.96C202.19 106.747 201.124 107.14 199.764 107.14ZM211.247 107.14C210.18 107.14 209.274 106.887 208.527 106.38C207.794 105.86 207.24 105.187 206.867 104.36C206.494 103.52 206.307 102.62 206.307 101.66C206.307 100.7 206.494 99.8067 206.867 98.98C207.24 98.14 207.794 97.4667 208.527 96.96C209.274 96.44 210.18 96.18 211.247 96.18C212.314 96.18 213.214 96.44 213.947 96.96C214.694 97.4667 215.247 98.14 215.607 98.98C215.98 99.82 216.167 100.713 216.167 101.66C216.167 102.607 215.98 103.5 215.607 104.34C215.234 105.18 214.674 105.86 213.927 106.38C213.194 106.887 212.3 107.14 211.247 107.14ZM211.247 105.66C211.9 105.66 212.467 105.48 212.947 105.12C213.44 104.76 213.814 104.28 214.067 103.68C214.32 103.067 214.447 102.387 214.447 101.64C214.447 100.493 214.16 99.54 213.587 98.78C213.014 98.02 212.234 97.64 211.247 97.64C210.58 97.64 210 97.82 209.507 98.18C209.027 98.54 208.66 99.0267 208.407 99.64C208.154 100.24 208.027 100.907 208.027 101.64C208.027 102.787 208.314 103.747 208.887 104.52C209.46 105.28 210.247 105.66 211.247 105.66ZM218.682 96.46H220.402V98.36H220.562C220.828 97.7467 221.262 97.2333 221.862 96.82C222.462 96.3933 223.195 96.18 224.062 96.18C224.955 96.18 225.702 96.3933 226.302 96.82C226.902 97.2333 227.342 97.7867 227.622 98.48C227.915 99.16 228.062 99.9 228.062 100.7V107H226.342V100.92C226.342 99.88 226.068 99.0867 225.522 98.54C224.988 97.9933 224.288 97.72 223.422 97.72C222.502 97.72 221.768 98.02 221.222 98.62C220.675 99.2067 220.402 99.9733 220.402 100.92V107H218.682V96.46ZM235.048 93.5C234.581 93.5 234.234 93.5933 234.008 93.78C233.794 93.9533 233.661 94.1667 233.608 94.42C233.568 94.66 233.548 94.9733 233.548 95.36V96.46H236.048V97.84H233.548V107H231.828L231.808 97.84H230.368V96.46H231.808V95.08C231.808 93.1867 232.748 92.24 234.628 92.24C234.894 92.24 235.161 92.26 235.428 92.3C235.708 92.3267 235.914 92.36 236.048 92.4V93.6C235.754 93.5333 235.421 93.5 235.048 93.5ZM247.725 107H245.985V105H245.865C245.585 105.613 245.152 106.133 244.565 106.56C243.992 106.973 243.285 107.18 242.445 107.18C241.565 107.18 240.832 106.967 240.245 106.54C239.658 106.113 239.225 105.56 238.945 104.88C238.678 104.2 238.545 103.46 238.545 102.66V96.46H240.265V102.44C240.265 103.467 240.525 104.26 241.045 104.82C241.565 105.367 242.245 105.64 243.085 105.64C243.965 105.64 244.665 105.347 245.185 104.76C245.718 104.16 245.985 103.387 245.985 102.44V96.46H247.725V107ZM254.176 107.14C253.323 107.14 252.583 106.973 251.956 106.64C251.33 106.293 250.85 105.853 250.516 105.32C250.196 104.787 250.036 104.227 250.036 103.64V103.54H251.756V103.62C251.756 103.953 251.85 104.287 252.036 104.62C252.223 104.94 252.503 105.207 252.876 105.42C253.25 105.62 253.703 105.72 254.236 105.72C254.876 105.72 255.403 105.567 255.816 105.26C256.243 104.94 256.456 104.507 256.456 103.96C256.456 103.507 256.29 103.147 255.956 102.88C255.636 102.613 255.23 102.44 254.736 102.36L253.356 102.16C252.49 102.027 251.763 101.733 251.176 101.28C250.59 100.813 250.296 100.14 250.296 99.26C250.296 98.2867 250.643 97.5333 251.336 97C252.043 96.4533 252.943 96.18 254.036 96.18C254.85 96.18 255.543 96.3333 256.116 96.64C256.703 96.9333 257.15 97.3267 257.456 97.82C257.763 98.3 257.916 98.8267 257.916 99.4V99.48H256.196V99.44C256.196 99.1733 256.123 98.8933 255.976 98.6C255.843 98.3067 255.61 98.0533 255.276 97.84C254.943 97.6267 254.516 97.52 253.996 97.52C253.356 97.52 252.843 97.68 252.456 98C252.07 98.3067 251.876 98.7133 251.876 99.22C251.876 99.6333 252.03 99.9733 252.336 100.24C252.643 100.507 253.03 100.68 253.496 100.76L254.996 101C255.876 101.147 256.616 101.453 257.216 101.92C257.816 102.373 258.116 103.047 258.116 103.94C258.116 104.58 257.943 105.14 257.596 105.62C257.263 106.1 256.796 106.473 256.196 106.74C255.596 107.007 254.923 107.14 254.176 107.14ZM264.938 107.14C263.858 107.14 262.945 106.88 262.198 106.36C261.465 105.84 260.918 105.16 260.558 104.32C260.198 103.48 260.018 102.593 260.018 101.66C260.018 100.713 260.198 99.8267 260.558 99C260.918 98.16 261.471 97.48 262.218 96.96C262.965 96.44 263.878 96.18 264.958 96.18C266.371 96.18 267.498 96.6533 268.338 97.6C269.191 98.5467 269.618 99.9067 269.618 101.68V102.16H261.738V102.3C261.738 102.887 261.871 103.44 262.138 103.96C262.405 104.48 262.778 104.9 263.258 105.22C263.738 105.54 264.291 105.7 264.918 105.7C265.598 105.7 266.185 105.527 266.678 105.18C267.171 104.833 267.538 104.367 267.778 103.78H269.478C269.198 104.74 268.671 105.54 267.898 106.18C267.138 106.82 266.151 107.14 264.938 107.14ZM267.918 100.94C267.865 99.74 267.571 98.8733 267.038 98.34C266.505 97.8067 265.805 97.54 264.938 97.54C263.991 97.54 263.238 97.8533 262.678 98.48C262.118 99.1067 261.818 99.9267 261.778 100.94H267.918ZM281.228 107.14C280.161 107.14 279.254 106.887 278.508 106.38C277.774 105.86 277.221 105.187 276.848 104.36C276.474 103.52 276.288 102.62 276.288 101.66C276.288 100.7 276.474 99.8067 276.848 98.98C277.221 98.14 277.774 97.4667 278.508 96.96C279.254 96.44 280.161 96.18 281.228 96.18C282.294 96.18 283.194 96.44 283.928 96.96C284.674 97.4667 285.228 98.14 285.588 98.98C285.961 99.82 286.148 100.713 286.148 101.66C286.148 102.607 285.961 103.5 285.588 104.34C285.214 105.18 284.654 105.86 283.908 106.38C283.174 106.887 282.281 107.14 281.228 107.14ZM281.228 105.66C281.881 105.66 282.448 105.48 282.928 105.12C283.421 104.76 283.794 104.28 284.048 103.68C284.301 103.067 284.428 102.387 284.428 101.64C284.428 100.493 284.141 99.54 283.568 98.78C282.994 98.02 282.214 97.64 281.228 97.64C280.561 97.64 279.981 97.82 279.488 98.18C279.008 98.54 278.641 99.0267 278.388 99.64C278.134 100.24 278.008 100.907 278.008 101.64C278.008 102.787 278.294 103.747 278.868 104.52C279.441 105.28 280.228 105.66 281.228 105.66ZM288.582 96.46H290.302V98.14H290.422C290.595 97.6733 290.902 97.28 291.342 96.96C291.795 96.6267 292.362 96.46 293.042 96.46C293.255 96.46 293.422 96.4733 293.542 96.5C293.675 96.5133 293.822 96.5467 293.982 96.6L293.922 98.28C293.709 98.2133 293.522 98.1667 293.362 98.14C293.215 98.1133 293.022 98.1 292.782 98.1C291.129 98.1 290.302 99.08 290.302 101.04V107H288.582V96.46ZM300.462 96.46H302.182V107H300.462V96.46ZM301.302 94.5C300.982 94.5 300.716 94.3933 300.502 94.18C300.289 93.9533 300.182 93.6867 300.182 93.38C300.182 93.0733 300.289 92.8133 300.502 92.6C300.716 92.3733 300.982 92.26 301.302 92.26C301.622 92.26 301.889 92.3733 302.102 92.6C302.329 92.8133 302.442 93.0733 302.442 93.38C302.442 93.6867 302.329 93.9533 302.102 94.18C301.889 94.3933 301.622 94.5 301.302 94.5ZM305.381 96.46H307.101V98.36H307.261C307.528 97.7467 307.961 97.2333 308.561 96.82C309.161 96.3933 309.894 96.18 310.761 96.18C311.654 96.18 312.401 96.3933 313.001 96.82C313.601 97.2333 314.041 97.7867 314.321 98.48C314.614 99.16 314.761 99.9 314.761 100.7V107H313.041V100.92C313.041 99.88 312.768 99.0867 312.221 98.54C311.688 97.9933 310.988 97.72 310.121 97.72C309.201 97.72 308.468 98.02 307.921 98.62C307.374 99.2067 307.101 99.9733 307.101 100.92V107H305.381V96.46ZM320.056 97.84V103.96C320.056 104.453 320.076 104.82 320.116 105.06C320.17 105.287 320.296 105.467 320.496 105.6C320.71 105.733 321.05 105.8 321.516 105.8C321.836 105.8 322.183 105.753 322.556 105.66V106.9C322.463 106.94 322.256 106.98 321.936 107.02C321.63 107.06 321.31 107.08 320.976 107.08C320.203 107.08 319.623 106.973 319.236 106.76C318.863 106.533 318.616 106.233 318.496 105.86C318.39 105.473 318.336 104.967 318.336 104.34V97.84H316.376V96.46H318.336V93H320.056V96.46H322.556V97.84H320.056ZM325.228 96.46H326.948V107H325.228V96.46ZM326.068 94.5C325.748 94.5 325.481 94.3933 325.268 94.18C325.055 93.9533 324.948 93.6867 324.948 93.38C324.948 93.0733 325.055 92.8133 325.268 92.6C325.481 92.3733 325.748 92.26 326.068 92.26C326.388 92.26 326.655 92.3733 326.868 92.6C327.095 92.8133 327.208 93.0733 327.208 93.38C327.208 93.6867 327.095 93.9533 326.868 94.18C326.655 94.3933 326.388 94.5 326.068 94.5ZM330.146 96.46H331.846V98.4H332.006C332.033 98.2667 332.166 98.0267 332.406 97.68C332.646 97.32 333.013 96.98 333.506 96.66C334 96.34 334.613 96.18 335.346 96.18C336.12 96.18 336.76 96.36 337.266 96.72C337.786 97.08 338.173 97.4667 338.426 97.88C338.68 98.2933 338.806 98.5533 338.806 98.66H338.966C339.153 98.1933 339.52 97.6667 340.066 97.08C340.626 96.48 341.48 96.18 342.626 96.18C343.48 96.18 344.193 96.4 344.766 96.84C345.34 97.2667 345.76 97.82 346.026 98.5C346.306 99.18 346.446 99.9067 346.446 100.68V107H344.746V100.84C344.746 99.8267 344.48 99.06 343.946 98.54C343.426 98.02 342.78 97.76 342.006 97.76C341.206 97.76 340.526 98.0333 339.966 98.58C339.42 99.1133 339.146 99.8667 339.146 100.84V107H337.446V100.84C337.446 99.8267 337.18 99.06 336.646 98.54C336.126 98.02 335.48 97.76 334.706 97.76C333.906 97.76 333.226 98.0333 332.666 98.58C332.12 99.1133 331.846 99.8667 331.846 100.84V107H330.146V96.46ZM349.447 96.46H351.167V107H349.447V96.46ZM350.287 94.5C349.967 94.5 349.7 94.3933 349.487 94.18C349.273 93.9533 349.167 93.6867 349.167 93.38C349.167 93.0733 349.273 92.8133 349.487 92.6C349.7 92.3733 349.967 92.26 350.287 92.26C350.607 92.26 350.873 92.3733 351.087 92.6C351.313 92.8133 351.427 93.0733 351.427 93.38C351.427 93.6867 351.313 93.9533 351.087 94.18C350.873 94.3933 350.607 94.5 350.287 94.5ZM358.207 107.14C357.273 107.14 356.473 106.9 355.807 106.42C355.153 105.94 354.653 105.287 354.307 104.46C353.96 103.633 353.787 102.7 353.787 101.66C353.787 100.607 353.96 99.6667 354.307 98.84C354.653 98.0133 355.16 97.3667 355.827 96.9C356.493 96.42 357.3 96.18 358.247 96.18C359.18 96.18 359.933 96.4067 360.507 96.86C361.093 97.3 361.527 97.82 361.807 98.42H361.967V92H363.687V107H361.967V104.84H361.807C361.487 105.48 361.033 106.027 360.447 106.48C359.873 106.92 359.127 107.14 358.207 107.14ZM358.727 105.66C359.767 105.66 360.56 105.28 361.107 104.52C361.653 103.747 361.927 102.793 361.927 101.66C361.927 100.527 361.653 99.58 361.107 98.82C360.56 98.06 359.767 97.68 358.727 97.68C357.673 97.68 356.88 98.06 356.347 98.82C355.813 99.58 355.547 100.527 355.547 101.66C355.547 102.807 355.813 103.76 356.347 104.52C356.893 105.28 357.687 105.66 358.727 105.66ZM370.549 107.14C369.616 107.14 368.816 106.9 368.149 106.42C367.496 105.94 366.996 105.287 366.649 104.46C366.303 103.633 366.129 102.7 366.129 101.66C366.129 100.62 366.303 99.6867 366.649 98.86C367.009 98.02 367.523 97.3667 368.189 96.9C368.869 96.42 369.676 96.18 370.609 96.18C371.543 96.18 372.296 96.4 372.869 96.84C373.443 97.28 373.876 97.8067 374.169 98.42H374.309V96.46H376.049V107H374.309V104.84H374.169C373.849 105.467 373.396 106.007 372.809 106.46C372.223 106.913 371.469 107.14 370.549 107.14ZM371.089 105.66C372.116 105.66 372.903 105.28 373.449 104.52C373.996 103.747 374.269 102.793 374.269 101.66C374.269 100.527 373.996 99.58 373.449 98.82C372.903 98.0467 372.116 97.66 371.089 97.66C370.036 97.66 369.236 98.04 368.689 98.8C368.156 99.56 367.889 100.507 367.889 101.64C367.889 102.787 368.156 103.747 368.689 104.52C369.236 105.28 370.036 105.66 371.089 105.66ZM381.97 97.84V103.96C381.97 104.453 381.99 104.82 382.03 105.06C382.084 105.287 382.21 105.467 382.41 105.6C382.624 105.733 382.964 105.8 383.43 105.8C383.75 105.8 384.097 105.753 384.47 105.66V106.9C384.377 106.94 384.17 106.98 383.85 107.02C383.544 107.06 383.224 107.08 382.89 107.08C382.117 107.08 381.537 106.973 381.15 106.76C380.777 106.533 380.53 106.233 380.41 105.86C380.304 105.473 380.25 104.967 380.25 104.34V97.84H378.29V96.46H380.25V93H381.97V96.46H384.47V97.84H381.97ZM391.442 107.14C390.362 107.14 389.449 106.88 388.702 106.36C387.969 105.84 387.422 105.16 387.062 104.32C386.702 103.48 386.522 102.593 386.522 101.66C386.522 100.713 386.702 99.8267 387.062 99C387.422 98.16 387.975 97.48 388.722 96.96C389.469 96.44 390.382 96.18 391.462 96.18C392.875 96.18 394.002 96.6533 394.842 97.6C395.695 98.5467 396.122 99.9067 396.122 101.68V102.16H388.242V102.3C388.242 102.887 388.375 103.44 388.642 103.96C388.909 104.48 389.282 104.9 389.762 105.22C390.242 105.54 390.795 105.7 391.422 105.7C392.102 105.7 392.689 105.527 393.182 105.18C393.675 104.833 394.042 104.367 394.282 103.78H395.982C395.702 104.74 395.175 105.54 394.402 106.18C393.642 106.82 392.655 107.14 391.442 107.14ZM394.422 100.94C394.369 99.74 394.075 98.8733 393.542 98.34C393.009 97.8067 392.309 97.54 391.442 97.54C390.495 97.54 389.742 97.8533 389.182 98.48C388.622 99.1067 388.322 99.9267 388.282 100.94H394.422ZM70.2441 125.46H71.9441V127.4H72.1041C72.1308 127.267 72.2641 127.027 72.5041 126.68C72.7441 126.32 73.1108 125.98 73.6041 125.66C74.0975 125.34 74.7108 125.18 75.4441 125.18C76.2175 125.18 76.8575 125.36 77.3641 125.72C77.8841 126.08 78.2708 126.467 78.5241 126.88C78.7775 127.293 78.9041 127.553 78.9041 127.66H79.0641C79.2508 127.193 79.6175 126.667 80.1641 126.08C80.7241 125.48 81.5775 125.18 82.7241 125.18C83.5775 125.18 84.2908 125.4 84.8641 125.84C85.4375 126.267 85.8575 126.82 86.1241 127.5C86.4041 128.18 86.5441 128.907 86.5441 129.68V136H84.8441V129.84C84.8441 128.827 84.5775 128.06 84.0441 127.54C83.5241 127.02 82.8775 126.76 82.1041 126.76C81.3041 126.76 80.6241 127.033 80.0641 127.58C79.5175 128.113 79.2441 128.867 79.2441 129.84V136H77.5441V129.84C77.5441 128.827 77.2775 128.06 76.7441 127.54C76.2241 127.02 75.5775 126.76 74.8041 126.76C74.0041 126.76 73.3241 127.033 72.7641 127.58C72.2175 128.113 71.9441 128.867 71.9441 129.84V136H70.2441V125.46ZM93.9029 136.14C92.8229 136.14 91.9096 135.88 91.1629 135.36C90.4296 134.84 89.8829 134.16 89.5229 133.32C89.1629 132.48 88.9829 131.593 88.9829 130.66C88.9829 129.713 89.1629 128.827 89.5229 128C89.8829 127.16 90.4362 126.48 91.1829 125.96C91.9296 125.44 92.8429 125.18 93.9229 125.18C95.3362 125.18 96.4629 125.653 97.3029 126.6C98.1562 127.547 98.5829 128.907 98.5829 130.68V131.16H90.7029V131.3C90.7029 131.887 90.8362 132.44 91.1029 132.96C91.3696 133.48 91.7429 133.9 92.2229 134.22C92.7029 134.54 93.2562 134.7 93.8829 134.7C94.5629 134.7 95.1496 134.527 95.6429 134.18C96.1362 133.833 96.5029 133.367 96.7429 132.78H98.4429C98.1629 133.74 97.6362 134.54 96.8629 135.18C96.1029 135.82 95.1162 136.14 93.9029 136.14ZM96.8829 129.94C96.8296 128.74 96.5362 127.873 96.0029 127.34C95.4696 126.807 94.7696 126.54 93.9029 126.54C92.9562 126.54 92.2029 126.853 91.6429 127.48C91.0829 128.107 90.7829 128.927 90.7429 129.94H96.8829ZM102.363 136.14C102.03 136.14 101.75 136.027 101.523 135.8C101.31 135.56 101.203 135.28 101.203 134.96C101.203 134.64 101.31 134.373 101.523 134.16C101.75 133.933 102.03 133.82 102.363 133.82C102.696 133.82 102.97 133.933 103.183 134.16C103.41 134.373 103.523 134.64 103.523 134.96C103.523 135.28 103.41 135.56 103.183 135.8C102.956 136.027 102.683 136.14 102.363 136.14ZM120.561 123.56H116.441V136H114.721V123.56H110.601V122H120.561V123.56ZM122.842 121.06H124.562V127.36H124.722C124.988 126.747 125.422 126.233 126.022 125.82C126.622 125.393 127.355 125.18 128.222 125.18C129.115 125.18 129.862 125.393 130.462 125.82C131.062 126.233 131.502 126.787 131.782 127.48C132.075 128.16 132.222 128.9 132.222 129.7V136H130.502V129.92C130.502 128.88 130.228 128.087 129.682 127.54C129.148 126.993 128.435 126.72 127.542 126.72C126.688 126.72 125.975 127.007 125.402 127.58C124.842 128.153 124.562 128.933 124.562 129.92V136H122.842V121.06ZM139.586 136.14C138.506 136.14 137.593 135.88 136.846 135.36C136.113 134.84 135.566 134.16 135.206 133.32C134.846 132.48 134.666 131.593 134.666 130.66C134.666 129.713 134.846 128.827 135.206 128C135.566 127.16 136.12 126.48 136.866 125.96C137.613 125.44 138.526 125.18 139.606 125.18C141.02 125.18 142.146 125.653 142.986 126.6C143.84 127.547 144.266 128.907 144.266 130.68V131.16H136.386V131.3C136.386 131.887 136.52 132.44 136.786 132.96C137.053 133.48 137.426 133.9 137.906 134.22C138.386 134.54 138.94 134.7 139.566 134.7C140.246 134.7 140.833 134.527 141.326 134.18C141.82 133.833 142.186 133.367 142.426 132.78H144.126C143.846 133.74 143.32 134.54 142.546 135.18C141.786 135.82 140.8 136.14 139.586 136.14ZM142.566 129.94C142.513 128.74 142.22 127.873 141.686 127.34C141.153 126.807 140.453 126.54 139.586 126.54C138.64 126.54 137.886 126.853 137.326 127.48C136.766 128.107 136.466 128.927 136.426 129.94H142.566ZM150.199 137.46C149.985 137.967 149.779 138.38 149.579 138.7C149.392 139.033 149.079 139.347 148.639 139.64C148.199 139.933 147.625 140.08 146.919 140.08C146.545 140.08 146.145 140.027 145.719 139.92V138.64C146.039 138.693 146.319 138.72 146.559 138.72C146.999 138.72 147.352 138.633 147.619 138.46C147.885 138.3 148.092 138.087 148.239 137.82C148.399 137.553 148.585 137.167 148.799 136.66L149.279 135.48L145.379 125.46H147.179L150.119 133.58H150.239L153.319 125.46H155.119L150.199 137.46ZM165.51 136.14C164.577 136.14 163.777 135.9 163.11 135.42C162.457 134.94 161.957 134.287 161.61 133.46C161.264 132.633 161.09 131.7 161.09 130.66C161.09 129.62 161.264 128.687 161.61 127.86C161.97 127.02 162.484 126.367 163.15 125.9C163.83 125.42 164.637 125.18 165.57 125.18C166.504 125.18 167.257 125.4 167.83 125.84C168.404 126.28 168.837 126.807 169.13 127.42H169.27V125.46H171.01V136H169.27V133.84H169.13C168.81 134.467 168.357 135.007 167.77 135.46C167.184 135.913 166.43 136.14 165.51 136.14ZM166.05 134.66C167.077 134.66 167.864 134.28 168.41 133.52C168.957 132.747 169.23 131.793 169.23 130.66C169.23 129.527 168.957 128.58 168.41 127.82C167.864 127.047 167.077 126.66 166.05 126.66C164.997 126.66 164.197 127.04 163.65 127.8C163.117 128.56 162.85 129.507 162.85 130.64C162.85 131.787 163.117 132.747 163.65 133.52C164.197 134.28 164.997 134.66 166.05 134.66ZM173.973 125.46H175.693V127.14H175.813C175.986 126.673 176.293 126.28 176.733 125.96C177.186 125.627 177.753 125.46 178.433 125.46C178.646 125.46 178.813 125.473 178.933 125.5C179.066 125.513 179.213 125.547 179.373 125.6L179.313 127.28C179.099 127.213 178.913 127.167 178.753 127.14C178.606 127.113 178.413 127.1 178.173 127.1C176.519 127.1 175.693 128.08 175.693 130.04V136H173.973V125.46ZM185.407 136.14C184.327 136.14 183.413 135.88 182.667 135.36C181.933 134.84 181.387 134.16 181.027 133.32C180.667 132.48 180.487 131.593 180.487 130.66C180.487 129.713 180.667 128.827 181.027 128C181.387 127.16 181.94 126.48 182.687 125.96C183.433 125.44 184.347 125.18 185.427 125.18C186.84 125.18 187.967 125.653 188.807 126.6C189.66 127.547 190.087 128.907 190.087 130.68V131.16H182.207V131.3C182.207 131.887 182.34 132.44 182.607 132.96C182.873 133.48 183.247 133.9 183.727 134.22C184.207 134.54 184.76 134.7 185.387 134.7C186.067 134.7 186.653 134.527 187.147 134.18C187.64 133.833 188.007 133.367 188.247 132.78H189.947C189.667 133.74 189.14 134.54 188.367 135.18C187.607 135.82 186.62 136.14 185.407 136.14ZM188.387 129.94C188.333 128.74 188.04 127.873 187.507 127.34C186.973 126.807 186.273 126.54 185.407 126.54C184.46 126.54 183.707 126.853 183.147 127.48C182.587 128.107 182.287 128.927 182.247 129.94H188.387ZM197.236 125.46H198.956V127.36H199.116C199.383 126.747 199.816 126.233 200.416 125.82C201.016 125.393 201.75 125.18 202.616 125.18C203.51 125.18 204.256 125.393 204.856 125.82C205.456 126.233 205.896 126.787 206.176 127.48C206.47 128.16 206.616 128.9 206.616 129.7V136H204.896V129.92C204.896 128.88 204.623 128.087 204.076 127.54C203.543 126.993 202.843 126.72 201.976 126.72C201.056 126.72 200.323 127.02 199.776 127.62C199.23 128.207 198.956 128.973 198.956 129.92V136H197.236V125.46ZM214.001 136.14C212.934 136.14 212.028 135.887 211.281 135.38C210.548 134.86 209.994 134.187 209.621 133.36C209.248 132.52 209.061 131.62 209.061 130.66C209.061 129.7 209.248 128.807 209.621 127.98C209.994 127.14 210.548 126.467 211.281 125.96C212.028 125.44 212.934 125.18 214.001 125.18C215.068 125.18 215.968 125.44 216.701 125.96C217.448 126.467 218.001 127.14 218.361 127.98C218.734 128.82 218.921 129.713 218.921 130.66C218.921 131.607 218.734 132.5 218.361 133.34C217.988 134.18 217.428 134.86 216.681 135.38C215.948 135.887 215.054 136.14 214.001 136.14ZM214.001 134.66C214.654 134.66 215.221 134.48 215.701 134.12C216.194 133.76 216.568 133.28 216.821 132.68C217.074 132.067 217.201 131.387 217.201 130.64C217.201 129.493 216.914 128.54 216.341 127.78C215.768 127.02 214.988 126.64 214.001 126.64C213.334 126.64 212.754 126.82 212.261 127.18C211.781 127.54 211.414 128.027 211.161 128.64C210.908 129.24 210.781 129.907 210.781 130.64C210.781 131.787 211.068 132.747 211.641 133.52C212.214 134.28 213.001 134.66 214.001 134.66ZM224.256 126.84V132.96C224.256 133.453 224.276 133.82 224.316 134.06C224.369 134.287 224.496 134.467 224.696 134.6C224.909 134.733 225.249 134.8 225.716 134.8C226.036 134.8 226.382 134.753 226.756 134.66V135.9C226.662 135.94 226.456 135.98 226.136 136.02C225.829 136.06 225.509 136.08 225.176 136.08C224.402 136.08 223.822 135.973 223.436 135.76C223.062 135.533 222.816 135.233 222.696 134.86C222.589 134.473 222.536 133.967 222.536 133.34V126.84H220.576V125.46H222.536V122H224.256V125.46H226.756V126.84H224.256ZM236.716 126.84V132.96C236.716 133.453 236.736 133.82 236.776 134.06C236.83 134.287 236.956 134.467 237.156 134.6C237.37 134.733 237.71 134.8 238.176 134.8C238.496 134.8 238.843 134.753 239.216 134.66V135.9C239.123 135.94 238.916 135.98 238.596 136.02C238.29 136.06 237.97 136.08 237.636 136.08C236.863 136.08 236.283 135.973 235.896 135.76C235.523 135.533 235.276 135.233 235.156 134.86C235.05 134.473 234.996 133.967 234.996 133.34V126.84H233.036V125.46H234.996V122H236.716V125.46H239.216V126.84H236.716ZM241.668 125.46H243.388V127.14H243.508C243.681 126.673 243.988 126.28 244.428 125.96C244.881 125.627 245.448 125.46 246.128 125.46C246.341 125.46 246.508 125.473 246.628 125.5C246.761 125.513 246.908 125.547 247.068 125.6L247.008 127.28C246.795 127.213 246.608 127.167 246.448 127.14C246.301 127.113 246.108 127.1 245.868 127.1C244.215 127.1 243.388 128.08 243.388 130.04V136H241.668V125.46ZM252.855 137.46C252.642 137.967 252.435 138.38 252.235 138.7C252.048 139.033 251.735 139.347 251.295 139.64C250.855 139.933 250.282 140.08 249.575 140.08C249.202 140.08 248.802 140.027 248.375 139.92V138.64C248.695 138.693 248.975 138.72 249.215 138.72C249.655 138.72 250.008 138.633 250.275 138.46C250.542 138.3 250.748 138.087 250.895 137.82C251.055 137.553 251.242 137.167 251.455 136.66L251.935 135.48L248.035 125.46H249.835L252.775 133.58H252.895L255.975 125.46H257.775L252.855 137.46ZM259.837 125.46H261.557V136H259.837V125.46ZM260.677 123.5C260.357 123.5 260.091 123.393 259.877 123.18C259.664 122.953 259.557 122.687 259.557 122.38C259.557 122.073 259.664 121.813 259.877 121.6C260.091 121.373 260.357 121.26 260.677 121.26C260.997 121.26 261.264 121.373 261.477 121.6C261.704 121.813 261.817 122.073 261.817 122.38C261.817 122.687 261.704 122.953 261.477 123.18C261.264 123.393 260.997 123.5 260.677 123.5ZM264.756 125.46H266.476V127.36H266.636C266.903 126.747 267.336 126.233 267.936 125.82C268.536 125.393 269.269 125.18 270.136 125.18C271.029 125.18 271.776 125.393 272.376 125.82C272.976 126.233 273.416 126.787 273.696 127.48C273.989 128.16 274.136 128.9 274.136 129.7V136H272.416V129.92C272.416 128.88 272.143 128.087 271.596 127.54C271.063 126.993 270.363 126.72 269.496 126.72C268.576 126.72 267.843 127.02 267.296 127.62C266.749 128.207 266.476 128.973 266.476 129.92V136H264.756V125.46ZM281.781 140.22C281.381 140.22 281.054 140.193 280.801 140.14C280.561 140.087 280.314 140.013 280.061 139.92V138.48C280.234 138.533 280.467 138.58 280.761 138.62C281.054 138.673 281.341 138.7 281.621 138.7C282.661 138.7 283.441 138.407 283.961 137.82C284.494 137.233 284.761 136.453 284.761 135.48V133.58H284.601C284.321 134.207 283.867 134.74 283.241 135.18C282.627 135.607 281.881 135.82 281.001 135.82C280.121 135.82 279.347 135.593 278.681 135.14C278.014 134.687 277.494 134.06 277.121 133.26C276.761 132.447 276.581 131.52 276.581 130.48C276.581 129.44 276.761 128.52 277.121 127.72C277.494 126.907 278.014 126.273 278.681 125.82C279.347 125.367 280.121 125.14 281.001 125.14C281.921 125.14 282.687 125.38 283.301 125.86C283.927 126.327 284.367 126.873 284.621 127.5H284.761V125.48H286.501V135.48C286.501 136.227 286.347 136.96 286.041 137.68C285.747 138.4 285.247 139 284.541 139.48C283.834 139.973 282.914 140.22 281.781 140.22ZM281.561 134.34C282.241 134.34 282.821 134.16 283.301 133.8C283.781 133.427 284.134 132.947 284.361 132.36C284.601 131.76 284.721 131.12 284.721 130.44C284.721 129.773 284.601 129.153 284.361 128.58C284.134 128.007 283.781 127.54 283.301 127.18C282.834 126.82 282.254 126.64 281.561 126.64C280.534 126.64 279.747 127.013 279.201 127.76C278.667 128.493 278.401 129.387 278.401 130.44C278.401 131.133 278.514 131.78 278.741 132.38C278.981 132.967 279.334 133.44 279.801 133.8C280.281 134.16 280.867 134.34 281.561 134.34ZM296.931 126.84V132.96C296.931 133.453 296.951 133.82 296.991 134.06C297.045 134.287 297.171 134.467 297.371 134.6C297.585 134.733 297.925 134.8 298.391 134.8C298.711 134.8 299.058 134.753 299.431 134.66V135.9C299.338 135.94 299.131 135.98 298.811 136.02C298.505 136.06 298.185 136.08 297.851 136.08C297.078 136.08 296.498 135.973 296.111 135.76C295.738 135.533 295.491 135.233 295.371 134.86C295.265 134.473 295.211 133.967 295.211 133.34V126.84H293.251V125.46H295.211V122H296.931V125.46H299.431V126.84H296.931ZM306.423 136.14C305.356 136.14 304.45 135.887 303.703 135.38C302.97 134.86 302.416 134.187 302.043 133.36C301.67 132.52 301.483 131.62 301.483 130.66C301.483 129.7 301.67 128.807 302.043 127.98C302.416 127.14 302.97 126.467 303.703 125.96C304.45 125.44 305.356 125.18 306.423 125.18C307.49 125.18 308.39 125.44 309.123 125.96C309.87 126.467 310.423 127.14 310.783 127.98C311.156 128.82 311.343 129.713 311.343 130.66C311.343 131.607 311.156 132.5 310.783 133.34C310.41 134.18 309.85 134.86 309.103 135.38C308.37 135.887 307.476 136.14 306.423 136.14ZM306.423 134.66C307.076 134.66 307.643 134.48 308.123 134.12C308.616 133.76 308.99 133.28 309.243 132.68C309.496 132.067 309.623 131.387 309.623 130.64C309.623 129.493 309.336 128.54 308.763 127.78C308.19 127.02 307.41 126.64 306.423 126.64C305.756 126.64 305.176 126.82 304.683 127.18C304.203 127.54 303.836 128.027 303.583 128.64C303.33 129.24 303.203 129.907 303.203 130.64C303.203 131.787 303.49 132.747 304.063 133.52C304.636 134.28 305.423 134.66 306.423 134.66ZM318.467 121.06H320.187V127.36H320.347C320.613 126.747 321.047 126.233 321.647 125.82C322.247 125.393 322.98 125.18 323.847 125.18C324.74 125.18 325.487 125.393 326.087 125.82C326.687 126.233 327.127 126.787 327.407 127.48C327.7 128.16 327.847 128.9 327.847 129.7V136H326.127V129.92C326.127 128.88 325.853 128.087 325.307 127.54C324.773 126.993 324.06 126.72 323.167 126.72C322.313 126.72 321.6 127.007 321.027 127.58C320.467 128.153 320.187 128.933 320.187 129.92V136H318.467V121.06ZM330.853 125.46H332.573V136H330.853V125.46ZM331.693 123.5C331.373 123.5 331.106 123.393 330.893 123.18C330.68 122.953 330.573 122.687 330.573 122.38C330.573 122.073 330.68 121.813 330.893 121.6C331.106 121.373 331.373 121.26 331.693 121.26C332.013 121.26 332.28 121.373 332.493 121.6C332.72 121.813 332.833 122.073 332.833 122.38C332.833 122.687 332.72 122.953 332.493 123.18C332.28 123.393 332.013 123.5 331.693 123.5ZM339.613 136.14C338.68 136.14 337.88 135.9 337.213 135.42C336.56 134.94 336.06 134.287 335.713 133.46C335.366 132.633 335.193 131.7 335.193 130.66C335.193 129.607 335.366 128.667 335.713 127.84C336.06 127.013 336.566 126.367 337.233 125.9C337.9 125.42 338.706 125.18 339.653 125.18C340.586 125.18 341.34 125.407 341.913 125.86C342.5 126.3 342.933 126.82 343.213 127.42H343.373V121H345.093V136H343.373V133.84H343.213C342.893 134.48 342.44 135.027 341.853 135.48C341.28 135.92 340.533 136.14 339.613 136.14ZM340.133 134.66C341.173 134.66 341.966 134.28 342.513 133.52C343.06 132.747 343.333 131.793 343.333 130.66C343.333 129.527 343.06 128.58 342.513 127.82C341.966 127.06 341.173 126.68 340.133 126.68C339.08 126.68 338.286 127.06 337.753 127.82C337.22 128.58 336.953 129.527 336.953 130.66C336.953 131.807 337.22 132.76 337.753 133.52C338.3 134.28 339.093 134.66 340.133 134.66ZM352.536 136.14C351.456 136.14 350.542 135.88 349.796 135.36C349.062 134.84 348.516 134.16 348.156 133.32C347.796 132.48 347.616 131.593 347.616 130.66C347.616 129.713 347.796 128.827 348.156 128C348.516 127.16 349.069 126.48 349.816 125.96C350.562 125.44 351.476 125.18 352.556 125.18C353.969 125.18 355.096 125.653 355.936 126.6C356.789 127.547 357.216 128.907 357.216 130.68V131.16H349.336V131.3C349.336 131.887 349.469 132.44 349.736 132.96C350.002 133.48 350.376 133.9 350.856 134.22C351.336 134.54 351.889 134.7 352.516 134.7C353.196 134.7 353.782 134.527 354.276 134.18C354.769 133.833 355.136 133.367 355.376 132.78H357.076C356.796 133.74 356.269 134.54 355.496 135.18C354.736 135.82 353.749 136.14 352.536 136.14ZM355.516 129.94C355.462 128.74 355.169 127.873 354.636 127.34C354.102 126.807 353.402 126.54 352.536 126.54C351.589 126.54 350.836 126.853 350.276 127.48C349.716 128.107 349.416 128.927 349.376 129.94H355.516ZM125.559 165.14C124.626 165.14 123.826 164.9 123.159 164.42C122.506 163.94 122.006 163.287 121.659 162.46C121.313 161.633 121.139 160.7 121.139 159.66C121.139 158.62 121.313 157.687 121.659 156.86C122.019 156.02 122.533 155.367 123.199 154.9C123.879 154.42 124.686 154.18 125.619 154.18C126.553 154.18 127.306 154.4 127.879 154.84C128.453 155.28 128.886 155.807 129.179 156.42H129.319V154.46H131.059V165H129.319V162.84H129.179C128.859 163.467 128.406 164.007 127.819 164.46C127.233 164.913 126.479 165.14 125.559 165.14ZM126.099 163.66C127.126 163.66 127.913 163.28 128.459 162.52C129.006 161.747 129.279 160.793 129.279 159.66C129.279 158.527 129.006 157.58 128.459 156.82C127.913 156.047 127.126 155.66 126.099 155.66C125.046 155.66 124.246 156.04 123.699 156.8C123.166 157.56 122.899 158.507 122.899 159.64C122.899 160.787 123.166 161.747 123.699 162.52C124.246 163.28 125.046 163.66 126.099 163.66ZM134.102 154.46H135.822V156.36H135.982C136.248 155.747 136.682 155.233 137.282 154.82C137.882 154.393 138.615 154.18 139.482 154.18C140.375 154.18 141.122 154.393 141.722 154.82C142.322 155.233 142.762 155.787 143.042 156.48C143.335 157.16 143.482 157.9 143.482 158.7V165H141.762V158.92C141.762 157.88 141.488 157.087 140.942 156.54C140.408 155.993 139.708 155.72 138.842 155.72C137.922 155.72 137.188 156.02 136.642 156.62C136.095 157.207 135.822 157.973 135.822 158.92V165H134.102V154.46ZM150.15 166.46C149.937 166.967 149.73 167.38 149.53 167.7C149.343 168.033 149.03 168.347 148.59 168.64C148.15 168.933 147.577 169.08 146.87 169.08C146.497 169.08 146.097 169.027 145.67 168.92V167.64C145.99 167.693 146.27 167.72 146.51 167.72C146.95 167.72 147.303 167.633 147.57 167.46C147.837 167.3 148.043 167.087 148.19 166.82C148.35 166.553 148.537 166.167 148.75 165.66L149.23 164.48L145.33 154.46H147.13L150.07 162.58H150.19L153.27 154.46H155.07L150.15 166.46ZM159.812 155.84V161.96C159.812 162.453 159.832 162.82 159.872 163.06C159.926 163.287 160.052 163.467 160.252 163.6C160.466 163.733 160.806 163.8 161.272 163.8C161.592 163.8 161.939 163.753 162.312 163.66V164.9C162.219 164.94 162.012 164.98 161.692 165.02C161.386 165.06 161.066 165.08 160.732 165.08C159.959 165.08 159.379 164.973 158.992 164.76C158.619 164.533 158.372 164.233 158.252 163.86C158.146 163.473 158.092 162.967 158.092 162.34V155.84H156.132V154.46H158.092V151H159.812V154.46H162.312V155.84H159.812ZM164.98 150.06H166.7V156.36H166.86C167.127 155.747 167.56 155.233 168.16 154.82C168.76 154.393 169.494 154.18 170.36 154.18C171.254 154.18 172 154.393 172.6 154.82C173.2 155.233 173.64 155.787 173.92 156.48C174.214 157.16 174.36 157.9 174.36 158.7V165H172.64V158.92C172.64 157.88 172.367 157.087 171.82 156.54C171.287 155.993 170.574 155.72 169.68 155.72C168.827 155.72 168.114 156.007 167.54 156.58C166.98 157.153 166.7 157.933 166.7 158.92V165H164.98V150.06ZM177.367 154.46H179.087V165H177.367V154.46ZM178.207 152.5C177.887 152.5 177.62 152.393 177.407 152.18C177.193 151.953 177.087 151.687 177.087 151.38C177.087 151.073 177.193 150.813 177.407 150.6C177.62 150.373 177.887 150.26 178.207 150.26C178.527 150.26 178.793 150.373 179.007 150.6C179.233 150.813 179.347 151.073 179.347 151.38C179.347 151.687 179.233 151.953 179.007 152.18C178.793 152.393 178.527 152.5 178.207 152.5ZM182.285 154.46H184.005V156.36H184.165C184.432 155.747 184.865 155.233 185.465 154.82C186.065 154.393 186.798 154.18 187.665 154.18C188.558 154.18 189.305 154.393 189.905 154.82C190.505 155.233 190.945 155.787 191.225 156.48C191.518 157.16 191.665 157.9 191.665 158.7V165H189.945V158.92C189.945 157.88 189.672 157.087 189.125 156.54C188.592 155.993 187.892 155.72 187.025 155.72C186.105 155.72 185.372 156.02 184.825 156.62C184.278 157.207 184.005 157.973 184.005 158.92V165H182.285V154.46ZM199.31 169.22C198.91 169.22 198.583 169.193 198.33 169.14C198.09 169.087 197.843 169.013 197.59 168.92V167.48C197.763 167.533 197.997 167.58 198.29 167.62C198.583 167.673 198.87 167.7 199.15 167.7C200.19 167.7 200.97 167.407 201.49 166.82C202.023 166.233 202.29 165.453 202.29 164.48V162.58H202.13C201.85 163.207 201.397 163.74 200.77 164.18C200.157 164.607 199.41 164.82 198.53 164.82C197.65 164.82 196.877 164.593 196.21 164.14C195.543 163.687 195.023 163.06 194.65 162.26C194.29 161.447 194.11 160.52 194.11 159.48C194.11 158.44 194.29 157.52 194.65 156.72C195.023 155.907 195.543 155.273 196.21 154.82C196.877 154.367 197.65 154.14 198.53 154.14C199.45 154.14 200.217 154.38 200.83 154.86C201.457 155.327 201.897 155.873 202.15 156.5H202.29V154.48H204.03V164.48C204.03 165.227 203.877 165.96 203.57 166.68C203.277 167.4 202.777 168 202.07 168.48C201.363 168.973 200.443 169.22 199.31 169.22ZM199.09 163.34C199.77 163.34 200.35 163.16 200.83 162.8C201.31 162.427 201.663 161.947 201.89 161.36C202.13 160.76 202.25 160.12 202.25 159.44C202.25 158.773 202.13 158.153 201.89 157.58C201.663 157.007 201.31 156.54 200.83 156.18C200.363 155.82 199.783 155.64 199.09 155.64C198.063 155.64 197.277 156.013 196.73 156.76C196.197 157.493 195.93 158.387 195.93 159.44C195.93 160.133 196.043 160.78 196.27 161.38C196.51 161.967 196.863 162.44 197.33 162.8C197.81 163.16 198.397 163.34 199.09 163.34ZM215.761 151.5C215.294 151.5 214.947 151.593 214.721 151.78C214.507 151.953 214.374 152.167 214.321 152.42C214.281 152.66 214.261 152.973 214.261 153.36V154.46H216.761V155.84H214.261V165H212.541L212.521 155.84H211.081V154.46H212.521V153.08C212.521 151.187 213.461 150.24 215.341 150.24C215.607 150.24 215.874 150.26 216.141 150.3C216.421 150.327 216.627 150.36 216.761 150.4V151.6C216.467 151.533 216.134 151.5 215.761 151.5ZM219.022 154.46H220.742V156.14H220.862C221.035 155.673 221.342 155.28 221.782 154.96C222.235 154.627 222.802 154.46 223.482 154.46C223.695 154.46 223.862 154.473 223.982 154.5C224.115 154.513 224.262 154.547 224.422 154.6L224.362 156.28C224.148 156.213 223.962 156.167 223.802 156.14C223.655 156.113 223.462 156.1 223.222 156.1C221.568 156.1 220.742 157.08 220.742 159.04V165H219.022V154.46ZM230.476 165.14C229.409 165.14 228.502 164.887 227.756 164.38C227.022 163.86 226.469 163.187 226.096 162.36C225.722 161.52 225.536 160.62 225.536 159.66C225.536 158.7 225.722 157.807 226.096 156.98C226.469 156.14 227.022 155.467 227.756 154.96C228.502 154.44 229.409 154.18 230.476 154.18C231.542 154.18 232.442 154.44 233.176 154.96C233.922 155.467 234.476 156.14 234.836 156.98C235.209 157.82 235.396 158.713 235.396 159.66C235.396 160.607 235.209 161.5 234.836 162.34C234.462 163.18 233.902 163.86 233.156 164.38C232.422 164.887 231.529 165.14 230.476 165.14ZM230.476 163.66C231.129 163.66 231.696 163.48 232.176 163.12C232.669 162.76 233.042 162.28 233.296 161.68C233.549 161.067 233.676 160.387 233.676 159.64C233.676 158.493 233.389 157.54 232.816 156.78C232.242 156.02 231.462 155.64 230.476 155.64C229.809 155.64 229.229 155.82 228.736 156.18C228.256 156.54 227.889 157.027 227.636 157.64C227.382 158.24 227.256 158.907 227.256 159.64C227.256 160.787 227.542 161.747 228.116 162.52C228.689 163.28 229.476 163.66 230.476 163.66ZM237.91 154.46H239.61V156.4H239.77C239.797 156.267 239.93 156.027 240.17 155.68C240.41 155.32 240.777 154.98 241.27 154.66C241.763 154.34 242.377 154.18 243.11 154.18C243.883 154.18 244.523 154.36 245.03 154.72C245.55 155.08 245.937 155.467 246.19 155.88C246.443 156.293 246.57 156.553 246.57 156.66H246.73C246.917 156.193 247.283 155.667 247.83 155.08C248.39 154.48 249.243 154.18 250.39 154.18C251.243 154.18 251.957 154.4 252.53 154.84C253.103 155.267 253.523 155.82 253.79 156.5C254.07 157.18 254.21 157.907 254.21 158.68V165H252.51V158.84C252.51 157.827 252.243 157.06 251.71 156.54C251.19 156.02 250.543 155.76 249.77 155.76C248.97 155.76 248.29 156.033 247.73 156.58C247.183 157.113 246.91 157.867 246.91 158.84V165H245.21V158.84C245.21 157.827 244.943 157.06 244.41 156.54C243.89 156.02 243.243 155.76 242.47 155.76C241.67 155.76 240.99 156.033 240.43 156.58C239.883 157.113 239.61 157.867 239.61 158.84V165H237.91V154.46ZM261.68 154.46H263.38V156.4H263.54C263.566 156.267 263.7 156.027 263.94 155.68C264.18 155.32 264.546 154.98 265.04 154.66C265.533 154.34 266.146 154.18 266.88 154.18C267.653 154.18 268.293 154.36 268.8 154.72C269.32 155.08 269.706 155.467 269.96 155.88C270.213 156.293 270.34 156.553 270.34 156.66H270.5C270.686 156.193 271.053 155.667 271.6 155.08C272.16 154.48 273.013 154.18 274.16 154.18C275.013 154.18 275.726 154.4 276.3 154.84C276.873 155.267 277.293 155.82 277.56 156.5C277.84 157.18 277.98 157.907 277.98 158.68V165H276.28V158.84C276.28 157.827 276.013 157.06 275.48 156.54C274.96 156.02 274.313 155.76 273.54 155.76C272.74 155.76 272.06 156.033 271.5 156.58C270.953 157.113 270.68 157.867 270.68 158.84V165H268.98V158.84C268.98 157.827 268.713 157.06 268.18 156.54C267.66 156.02 267.013 155.76 266.24 155.76C265.44 155.76 264.76 156.033 264.2 156.58C263.653 157.113 263.38 157.867 263.38 158.84V165H261.68V154.46ZM285.338 165.14C284.258 165.14 283.345 164.88 282.598 164.36C281.865 163.84 281.318 163.16 280.958 162.32C280.598 161.48 280.418 160.593 280.418 159.66C280.418 158.713 280.598 157.827 280.958 157C281.318 156.16 281.872 155.48 282.618 154.96C283.365 154.44 284.278 154.18 285.358 154.18C286.772 154.18 287.898 154.653 288.738 155.6C289.592 156.547 290.018 157.907 290.018 159.68V160.16H282.138V160.3C282.138 160.887 282.272 161.44 282.538 161.96C282.805 162.48 283.178 162.9 283.658 163.22C284.138 163.54 284.692 163.7 285.318 163.7C285.998 163.7 286.585 163.527 287.078 163.18C287.572 162.833 287.938 162.367 288.178 161.78H289.878C289.598 162.74 289.072 163.54 288.298 164.18C287.538 164.82 286.552 165.14 285.338 165.14ZM288.318 158.94C288.265 157.74 287.972 156.873 287.438 156.34C286.905 155.807 286.205 155.54 285.338 155.54C284.392 155.54 283.638 155.853 283.078 156.48C282.518 157.107 282.218 157.927 282.178 158.94H288.318ZM293.799 165.14C293.465 165.14 293.185 165.027 292.959 164.8C292.745 164.56 292.639 164.28 292.639 163.96C292.639 163.64 292.745 163.373 292.959 163.16C293.185 162.933 293.465 162.82 293.799 162.82C294.132 162.82 294.405 162.933 294.619 163.16C294.845 163.373 294.959 163.64 294.959 163.96C294.959 164.28 294.845 164.56 294.619 164.8C294.392 165.027 294.119 165.14 293.799 165.14ZM304.807 150.42C304.021 150.78 303.627 151.3 303.627 151.98C303.627 152.22 303.661 152.393 303.727 152.5C303.794 152.607 303.867 152.673 303.947 152.7C304.041 152.713 304.174 152.727 304.347 152.74C304.681 152.753 304.914 152.853 305.047 153.04C305.194 153.213 305.267 153.427 305.267 153.68C305.267 154.027 305.161 154.307 304.947 154.52C304.734 154.72 304.434 154.82 304.047 154.82C303.114 154.82 302.647 154.327 302.647 153.34V152.62C302.647 151.82 302.847 151.187 303.247 150.72C303.647 150.24 304.167 149.907 304.807 149.72V150.42ZM300.347 150.46C299.561 150.82 299.167 151.34 299.167 152.02C299.167 152.26 299.201 152.433 299.267 152.54C299.334 152.647 299.407 152.713 299.487 152.74C299.581 152.753 299.714 152.767 299.887 152.78C300.221 152.793 300.454 152.893 300.587 153.08C300.734 153.253 300.807 153.467 300.807 153.72C300.807 154.067 300.701 154.347 300.487 154.56C300.274 154.76 299.974 154.86 299.587 154.86C298.654 154.86 298.187 154.367 298.187 153.38V152.66C298.187 151.86 298.387 151.227 298.787 150.76C299.187 150.28 299.707 149.947 300.347 149.76V150.46Z" fill="#A71BA7"/>
</svg>
