<svg width="275" height="185" viewBox="0 0 275 185" fill="none" xmlns="http://www.w3.org/2000/svg">
<g clip-path="url(#clip0_1010_72)">
<path d="M-4.8828e-05 74.9681C-4.8828e-05 109.15 61.587 136.868 137.543 136.868C151.194 136.868 164.338 135.963 176.773 134.295C214.332 161.366 267.223 159.27 267.223 159.27C275.116 154.885 267.223 151.307 267.223 151.307C239.869 141.444 229.079 130.957 225.324 122.614C255.746 111.26 275.116 94.1301 275.116 74.9594C275.116 40.7749 213.516 13.0625 137.53 13.0625C61.5742 13.0625 -0.0129395 40.7749 -0.0129395 74.9681" fill="#EBE3D6" fill-opacity="0.33"/>
</g>
<path d="M46.7683 56.48C45.9816 56.8133 45.5883 57.3333 45.5883 58.04C45.5883 58.36 45.6416 58.5667 45.7483 58.66C45.8683 58.74 46.0349 58.78 46.2483 58.78C46.6083 58.78 46.8616 58.8733 47.0083 59.06C47.1549 59.2467 47.2283 59.4733 47.2283 59.74C47.2283 60.0867 47.1216 60.3667 46.9083 60.58C46.6949 60.78 46.3949 60.88 46.0083 60.88C45.0749 60.88 44.6083 60.3867 44.6083 59.4V58.68C44.6083 57.88 44.8083 57.2467 45.2083 56.78C45.6083 56.3 46.1283 55.96 46.7683 55.76V56.48ZM42.3083 56.54C41.5216 56.9 41.1283 57.42 41.1283 58.1C41.1283 58.34 41.1616 58.5133 41.2283 58.62C41.2949 58.7267 41.3683 58.7933 41.4483 58.82C41.5416 58.8333 41.6749 58.8467 41.8483 58.86C42.1816 58.8733 42.4149 58.9733 42.5483 59.16C42.6949 59.3333 42.7683 59.5467 42.7683 59.8C42.7683 60.1467 42.6616 60.4267 42.4483 60.64C42.2349 60.84 41.9349 60.94 41.5483 60.94C40.6149 60.94 40.1483 60.4467 40.1483 59.46V58.74C40.1483 57.94 40.3483 57.3067 40.7483 56.84C41.1483 56.36 41.6683 56.0267 42.3083 55.84V56.54ZM50.1655 57H51.9055V71H50.1655V57ZM57.652 61.84V67.96C57.652 68.4533 57.672 68.82 57.712 69.06C57.7654 69.2867 57.892 69.4667 58.092 69.6C58.3054 69.7333 58.6454 69.8 59.112 69.8C59.432 69.8 59.7787 69.7533 60.152 69.66V70.9C60.0587 70.94 59.852 70.98 59.532 71.02C59.2254 71.06 58.9054 71.08 58.572 71.08C57.7987 71.08 57.2187 70.9733 56.832 70.76C56.4587 70.5333 56.212 70.2333 56.092 69.86C55.9854 69.4733 55.932 68.9667 55.932 68.34V61.84H53.972V60.46H55.932V57H57.652V60.46H60.152V61.84H57.652ZM71.193 71.14C70.2596 71.14 69.4596 70.9 68.793 70.42C68.1396 69.94 67.6396 69.2867 67.293 68.46C66.9463 67.6333 66.773 66.7 66.773 65.66C66.773 64.6067 66.9463 63.6667 67.293 62.84C67.6396 62.0133 68.1463 61.3667 68.813 60.9C69.4796 60.42 70.2863 60.18 71.233 60.18C72.1663 60.18 72.9196 60.4067 73.493 60.86C74.0796 61.3 74.513 61.82 74.793 62.42H74.953V56H76.673V71H74.953V68.84H74.793C74.473 69.48 74.0196 70.0267 73.433 70.48C72.8596 70.92 72.113 71.14 71.193 71.14ZM71.713 69.66C72.753 69.66 73.5463 69.28 74.093 68.52C74.6396 67.7467 74.913 66.7933 74.913 65.66C74.913 64.5267 74.6396 63.58 74.093 62.82C73.5463 62.06 72.753 61.68 71.713 61.68C70.6596 61.68 69.8663 62.06 69.333 62.82C68.7996 63.58 68.533 64.5267 68.533 65.66C68.533 66.8067 68.7996 67.76 69.333 68.52C69.8796 69.28 70.673 69.66 71.713 69.66ZM84.1358 71.14C83.0691 71.14 82.1624 70.8867 81.4158 70.38C80.6824 69.86 80.1291 69.1867 79.7558 68.36C79.3824 67.52 79.1958 66.62 79.1958 65.66C79.1958 64.7 79.3824 63.8067 79.7558 62.98C80.1291 62.14 80.6824 61.4667 81.4158 60.96C82.1624 60.44 83.0691 60.18 84.1358 60.18C85.2024 60.18 86.1024 60.44 86.8358 60.96C87.5824 61.4667 88.1358 62.14 88.4958 62.98C88.8691 63.82 89.0558 64.7133 89.0558 65.66C89.0558 66.6067 88.8691 67.5 88.4958 68.34C88.1224 69.18 87.5624 69.86 86.8158 70.38C86.0824 70.8867 85.1891 71.14 84.1358 71.14ZM84.1358 69.66C84.7891 69.66 85.3558 69.48 85.8358 69.12C86.3291 68.76 86.7024 68.28 86.9558 67.68C87.2091 67.0667 87.3358 66.3867 87.3358 65.64C87.3358 64.4933 87.0491 63.54 86.4758 62.78C85.9024 62.02 85.1224 61.64 84.1358 61.64C83.4691 61.64 82.8891 61.82 82.3958 62.18C81.9158 62.54 81.5491 63.0267 81.2958 63.64C81.0424 64.24 80.9158 64.9067 80.9158 65.64C80.9158 66.7867 81.2024 67.7467 81.7758 68.52C82.3491 69.28 83.1358 69.66 84.1358 69.66ZM96.0103 71.14C94.9303 71.14 94.017 70.88 93.2703 70.36C92.537 69.84 91.9903 69.16 91.6303 68.32C91.2703 67.48 91.0903 66.5933 91.0903 65.66C91.0903 64.7133 91.2703 63.8267 91.6303 63C91.9903 62.16 92.5436 61.48 93.2903 60.96C94.037 60.44 94.9503 60.18 96.0303 60.18C97.4436 60.18 98.5703 60.6533 99.4103 61.6C100.264 62.5467 100.69 63.9067 100.69 65.68V66.16H92.8103V66.3C92.8103 66.8867 92.9436 67.44 93.2103 67.96C93.477 68.48 93.8503 68.9 94.3303 69.22C94.8103 69.54 95.3636 69.7 95.9903 69.7C96.6703 69.7 97.257 69.5267 97.7503 69.18C98.2436 68.8333 98.6103 68.3667 98.8503 67.78H100.55C100.27 68.74 99.7436 69.54 98.9703 70.18C98.2103 70.82 97.2236 71.14 96.0103 71.14ZM98.9903 64.94C98.937 63.74 98.6436 62.8733 98.1103 62.34C97.577 61.8067 96.877 61.54 96.0103 61.54C95.0636 61.54 94.3103 61.8533 93.7503 62.48C93.1903 63.1067 92.8903 63.9267 92.8503 64.94H98.9903ZM106.83 71.14C105.977 71.14 105.237 70.9733 104.61 70.64C103.984 70.2933 103.504 69.8533 103.17 69.32C102.85 68.7867 102.69 68.2267 102.69 67.64V67.54H104.41V67.62C104.41 67.9533 104.504 68.2867 104.69 68.62C104.877 68.94 105.157 69.2067 105.53 69.42C105.904 69.62 106.357 69.72 106.89 69.72C107.53 69.72 108.057 69.5667 108.47 69.26C108.897 68.94 109.11 68.5067 109.11 67.96C109.11 67.5067 108.944 67.1467 108.61 66.88C108.29 66.6133 107.884 66.44 107.39 66.36L106.01 66.16C105.144 66.0267 104.417 65.7333 103.83 65.28C103.244 64.8133 102.95 64.14 102.95 63.26C102.95 62.2867 103.297 61.5333 103.99 61C104.697 60.4533 105.597 60.18 106.69 60.18C107.504 60.18 108.197 60.3333 108.77 60.64C109.357 60.9333 109.804 61.3267 110.11 61.82C110.417 62.3 110.57 62.8267 110.57 63.4V63.48H108.85V63.44C108.85 63.1733 108.777 62.8933 108.63 62.6C108.497 62.3067 108.264 62.0533 107.93 61.84C107.597 61.6267 107.17 61.52 106.65 61.52C106.01 61.52 105.497 61.68 105.11 62C104.724 62.3067 104.53 62.7133 104.53 63.22C104.53 63.6333 104.684 63.9733 104.99 64.24C105.297 64.5067 105.684 64.68 106.15 64.76L107.65 65C108.53 65.1467 109.27 65.4533 109.87 65.92C110.47 66.3733 110.77 67.0467 110.77 67.94C110.77 68.58 110.597 69.14 110.25 69.62C109.917 70.1 109.45 70.4733 108.85 70.74C108.25 71.0067 107.577 71.14 106.83 71.14ZM113.152 60.46H114.872V62.36H115.032C115.299 61.7467 115.732 61.2333 116.332 60.82C116.932 60.3933 117.666 60.18 118.532 60.18C119.426 60.18 120.172 60.3933 120.772 60.82C121.372 61.2333 121.812 61.7867 122.092 62.48C122.386 63.16 122.532 63.9 122.532 64.7V71H120.812V64.92C120.812 63.88 120.539 63.0867 119.992 62.54C119.459 61.9933 118.759 61.72 117.892 61.72C116.972 61.72 116.239 62.02 115.692 62.62C115.146 63.2067 114.872 63.9733 114.872 64.92V71H113.152V60.46ZM126.098 61.12C126.898 60.7733 127.298 60.2533 127.298 59.56C127.298 59.24 127.238 59.04 127.118 58.96C127.012 58.8667 126.852 58.82 126.638 58.82C126.292 58.82 126.038 58.7267 125.878 58.54C125.718 58.34 125.638 58.1133 125.638 57.86C125.638 57.5133 125.745 57.24 125.958 57.04C126.172 56.8267 126.478 56.72 126.878 56.72C127.798 56.72 128.258 57.2133 128.258 58.2V58.92C128.258 59.72 128.058 60.36 127.658 60.84C127.258 61.3067 126.738 61.64 126.098 61.84V61.12ZM133.531 61.84V67.96C133.531 68.4533 133.551 68.82 133.591 69.06C133.644 69.2867 133.771 69.4667 133.971 69.6C134.184 69.7333 134.524 69.8 134.991 69.8C135.311 69.8 135.658 69.7533 136.031 69.66V70.9C135.938 70.94 135.731 70.98 135.411 71.02C135.104 71.06 134.784 71.08 134.451 71.08C133.678 71.08 133.098 70.9733 132.711 70.76C132.338 70.5333 132.091 70.2333 131.971 69.86C131.864 69.4733 131.811 68.9667 131.811 68.34V61.84H129.851V60.46H131.811V57H133.531V60.46H136.031V61.84H133.531ZM147.612 71.14C146.532 71.14 145.619 70.88 144.872 70.36C144.139 69.84 143.592 69.16 143.232 68.32C142.872 67.48 142.692 66.5933 142.692 65.66C142.692 64.7133 142.872 63.8267 143.232 63C143.592 62.16 144.145 61.48 144.892 60.96C145.639 60.44 146.552 60.18 147.632 60.18C149.045 60.18 150.172 60.6533 151.012 61.6C151.865 62.5467 152.292 63.9067 152.292 65.68V66.16H144.412V66.3C144.412 66.8867 144.545 67.44 144.812 67.96C145.079 68.48 145.452 68.9 145.932 69.22C146.412 69.54 146.965 69.7 147.592 69.7C148.272 69.7 148.859 69.5267 149.352 69.18C149.845 68.8333 150.212 68.3667 150.452 67.78H152.152C151.872 68.74 151.345 69.54 150.572 70.18C149.812 70.82 148.825 71.14 147.612 71.14ZM150.592 64.94C150.539 63.74 150.245 62.8733 149.712 62.34C149.179 61.8067 148.479 61.54 147.612 61.54C146.665 61.54 145.912 61.8533 145.352 62.48C144.792 63.1067 144.492 63.9267 144.452 64.94H150.592ZM153.913 60.46H155.593L158.753 69.18H158.853L162.013 60.46H163.693L159.853 71H157.733L153.913 60.46ZM169.936 71.14C168.856 71.14 167.943 70.88 167.196 70.36C166.463 69.84 165.916 69.16 165.556 68.32C165.196 67.48 165.016 66.5933 165.016 65.66C165.016 64.7133 165.196 63.8267 165.556 63C165.916 62.16 166.469 61.48 167.216 60.96C167.963 60.44 168.876 60.18 169.956 60.18C171.369 60.18 172.496 60.6533 173.336 61.6C174.189 62.5467 174.616 63.9067 174.616 65.68V66.16H166.736V66.3C166.736 66.8867 166.869 67.44 167.136 67.96C167.403 68.48 167.776 68.9 168.256 69.22C168.736 69.54 169.289 69.7 169.916 69.7C170.596 69.7 171.183 69.5267 171.676 69.18C172.169 68.8333 172.536 68.3667 172.776 67.78H174.476C174.196 68.74 173.669 69.54 172.896 70.18C172.136 70.82 171.149 71.14 169.936 71.14ZM172.916 64.94C172.863 63.74 172.569 62.8733 172.036 62.34C171.503 61.8067 170.803 61.54 169.936 61.54C168.989 61.54 168.236 61.8533 167.676 62.48C167.116 63.1067 166.816 63.9267 166.776 64.94H172.916ZM177.156 60.46H178.876V62.36H179.036C179.303 61.7467 179.736 61.2333 180.336 60.82C180.936 60.3933 181.67 60.18 182.536 60.18C183.43 60.18 184.176 60.3933 184.776 60.82C185.376 61.2333 185.816 61.7867 186.096 62.48C186.39 63.16 186.536 63.9 186.536 64.7V71H184.816V64.92C184.816 63.88 184.543 63.0867 183.996 62.54C183.463 61.9933 182.763 61.72 181.896 61.72C180.976 61.72 180.243 62.02 179.696 62.62C179.15 63.2067 178.876 63.9733 178.876 64.92V71H177.156V60.46ZM196.712 71.08C195.925 71.08 195.338 70.9533 194.952 70.7C194.565 70.4467 194.318 70.12 194.212 69.72C194.118 69.3067 194.072 68.7733 194.072 68.12L194.092 56H195.812V67.86C195.812 68.3667 195.832 68.7467 195.872 69C195.925 69.24 196.052 69.4333 196.252 69.58C196.465 69.7267 196.798 69.8 197.252 69.8C197.532 69.8 197.778 69.78 197.992 69.74V70.98C197.632 71.0467 197.205 71.08 196.712 71.08ZM204.761 71.14C203.694 71.14 202.787 70.8867 202.041 70.38C201.307 69.86 200.754 69.1867 200.381 68.36C200.007 67.52 199.821 66.62 199.821 65.66C199.821 64.7 200.007 63.8067 200.381 62.98C200.754 62.14 201.307 61.4667 202.041 60.96C202.787 60.44 203.694 60.18 204.761 60.18C205.827 60.18 206.727 60.44 207.461 60.96C208.207 61.4667 208.761 62.14 209.121 62.98C209.494 63.82 209.681 64.7133 209.681 65.66C209.681 66.6067 209.494 67.5 209.121 68.34C208.747 69.18 208.187 69.86 207.441 70.38C206.707 70.8867 205.814 71.14 204.761 71.14ZM204.761 69.66C205.414 69.66 205.981 69.48 206.461 69.12C206.954 68.76 207.327 68.28 207.581 67.68C207.834 67.0667 207.961 66.3867 207.961 65.64C207.961 64.4933 207.674 63.54 207.101 62.78C206.527 62.02 205.747 61.64 204.761 61.64C204.094 61.64 203.514 61.82 203.021 62.18C202.541 62.54 202.174 63.0267 201.921 63.64C201.667 64.24 201.541 64.9067 201.541 65.64C201.541 66.7867 201.827 67.7467 202.401 68.52C202.974 69.28 203.761 69.66 204.761 69.66ZM216.655 71.14C215.589 71.14 214.682 70.8867 213.935 70.38C213.202 69.86 212.649 69.1867 212.275 68.36C211.902 67.52 211.715 66.62 211.715 65.66C211.715 64.7 211.902 63.8067 212.275 62.98C212.649 62.14 213.202 61.4667 213.935 60.96C214.682 60.44 215.589 60.18 216.655 60.18C217.722 60.18 218.622 60.44 219.355 60.96C220.102 61.4667 220.655 62.14 221.015 62.98C221.389 63.82 221.575 64.7133 221.575 65.66C221.575 66.6067 221.389 67.5 221.015 68.34C220.642 69.18 220.082 69.86 219.335 70.38C218.602 70.8867 217.709 71.14 216.655 71.14ZM216.655 69.66C217.309 69.66 217.875 69.48 218.355 69.12C218.849 68.76 219.222 68.28 219.475 67.68C219.729 67.0667 219.855 66.3867 219.855 65.64C219.855 64.4933 219.569 63.54 218.995 62.78C218.422 62.02 217.642 61.64 216.655 61.64C215.989 61.64 215.409 61.82 214.915 62.18C214.435 62.54 214.069 63.0267 213.815 63.64C213.562 64.24 213.435 64.9067 213.435 65.64C213.435 66.7867 213.722 67.7467 214.295 68.52C214.869 69.28 215.655 69.66 216.655 69.66ZM224.15 56.06H225.89V64.46H225.97L229.97 60.46H231.93L227.27 65.2L232.13 71H230.15L225.97 65.86H225.89V71H224.15V56.06ZM68.8113 100.08C68.0247 100.08 67.438 99.9533 67.0513 99.7C66.6647 99.4467 66.418 99.12 66.3113 98.72C66.218 98.3067 66.1713 97.7733 66.1713 97.12L66.1913 85H67.9113V96.86C67.9113 97.3667 67.9313 97.7467 67.9713 98C68.0247 98.24 68.1513 98.4333 68.3513 98.58C68.5647 98.7267 68.898 98.8 69.3513 98.8C69.6313 98.8 69.878 98.78 70.0913 98.74V99.98C69.7313 100.047 69.3047 100.08 68.8113 100.08ZM72.5404 89.46H74.2604V100H72.5404V89.46ZM73.3804 87.5C73.0604 87.5 72.7937 87.3933 72.5804 87.18C72.3671 86.9533 72.2604 86.6867 72.2604 86.38C72.2604 86.0733 72.3671 85.8133 72.5804 85.6C72.7937 85.3733 73.0604 85.26 73.3804 85.26C73.7004 85.26 73.9671 85.3733 74.1804 85.6C74.4071 85.8133 74.5204 86.0733 74.5204 86.38C74.5204 86.6867 74.4071 86.9533 74.1804 87.18C73.9671 87.3933 73.7004 87.5 73.3804 87.5ZM77.519 85.06H79.259V93.46H79.339L83.339 89.46H85.299L80.639 94.2L85.499 100H83.519L79.339 94.86H79.259V100H77.519V85.06ZM91.6451 100.14C90.5651 100.14 89.6517 99.88 88.9051 99.36C88.1717 98.84 87.6251 98.16 87.2651 97.32C86.9051 96.48 86.7251 95.5933 86.7251 94.66C86.7251 93.7133 86.9051 92.8267 87.2651 92C87.6251 91.16 88.1784 90.48 88.9251 89.96C89.6717 89.44 90.5851 89.18 91.6651 89.18C93.0784 89.18 94.2051 89.6533 95.0451 90.6C95.8984 91.5467 96.3251 92.9067 96.3251 94.68V95.16H88.4451V95.3C88.4451 95.8867 88.5784 96.44 88.8451 96.96C89.1117 97.48 89.4851 97.9 89.9651 98.22C90.4451 98.54 90.9984 98.7 91.6251 98.7C92.3051 98.7 92.8917 98.5267 93.3851 98.18C93.8784 97.8333 94.2451 97.3667 94.4851 96.78H96.1851C95.9051 97.74 95.3784 98.54 94.6051 99.18C93.8451 99.82 92.8584 100.14 91.6451 100.14ZM94.6251 93.94C94.5717 92.74 94.2784 91.8733 93.7451 91.34C93.2117 90.8067 92.5117 90.54 91.6451 90.54C90.6984 90.54 89.9451 90.8533 89.3851 91.48C88.8251 92.1067 88.5251 92.9267 88.4851 93.94H94.6251ZM103.615 89.46H105.335V100H103.615V89.46ZM104.455 87.5C104.135 87.5 103.868 87.3933 103.655 87.18C103.441 86.9533 103.335 86.6867 103.335 86.38C103.335 86.0733 103.441 85.8133 103.655 85.6C103.868 85.3733 104.135 85.26 104.455 85.26C104.775 85.26 105.041 85.3733 105.255 85.6C105.481 85.8133 105.595 86.0733 105.595 86.38C105.595 86.6867 105.481 86.9533 105.255 87.18C105.041 87.3933 104.775 87.5 104.455 87.5ZM108.533 89.46H110.253V91.36H110.413C110.68 90.7467 111.113 90.2333 111.713 89.82C112.313 89.3933 113.047 89.18 113.913 89.18C114.807 89.18 115.553 89.3933 116.153 89.82C116.753 90.2333 117.193 90.7867 117.473 91.48C117.767 92.16 117.913 92.9 117.913 93.7V100H116.193V93.92C116.193 92.88 115.92 92.0867 115.373 91.54C114.84 90.9933 114.14 90.72 113.273 90.72C112.353 90.72 111.62 91.02 111.073 91.62C110.527 92.2067 110.253 92.9733 110.253 93.92V100H108.533V89.46ZM124.379 100.14C123.526 100.14 122.786 99.9733 122.159 99.64C121.533 99.2933 121.053 98.8533 120.719 98.32C120.399 97.7867 120.239 97.2267 120.239 96.64V96.54H121.959V96.62C121.959 96.9533 122.053 97.2867 122.239 97.62C122.426 97.94 122.706 98.2067 123.079 98.42C123.453 98.62 123.906 98.72 124.439 98.72C125.079 98.72 125.606 98.5667 126.019 98.26C126.446 97.94 126.659 97.5067 126.659 96.96C126.659 96.5067 126.493 96.1467 126.159 95.88C125.839 95.6133 125.433 95.44 124.939 95.36L123.559 95.16C122.693 95.0267 121.966 94.7333 121.379 94.28C120.793 93.8133 120.499 93.14 120.499 92.26C120.499 91.2867 120.846 90.5333 121.539 90C122.246 89.4533 123.146 89.18 124.239 89.18C125.053 89.18 125.746 89.3333 126.319 89.64C126.906 89.9333 127.353 90.3267 127.659 90.82C127.966 91.3 128.119 91.8267 128.119 92.4V92.48H126.399V92.44C126.399 92.1733 126.326 91.8933 126.179 91.6C126.046 91.3067 125.813 91.0533 125.479 90.84C125.146 90.6267 124.719 90.52 124.199 90.52C123.559 90.52 123.046 90.68 122.659 91C122.273 91.3067 122.079 91.7133 122.079 92.22C122.079 92.6333 122.233 92.9733 122.539 93.24C122.846 93.5067 123.233 93.68 123.699 93.76L125.199 94C126.079 94.1467 126.819 94.4533 127.419 94.92C128.019 95.3733 128.319 96.0467 128.319 96.94C128.319 97.58 128.146 98.14 127.799 98.62C127.466 99.1 126.999 99.4733 126.399 99.74C125.799 100.007 125.126 100.14 124.379 100.14ZM139.881 100H138.141V98H138.021C137.741 98.6133 137.308 99.1333 136.721 99.56C136.148 99.9733 135.441 100.18 134.601 100.18C133.721 100.18 132.988 99.9667 132.401 99.54C131.815 99.1133 131.381 98.56 131.101 97.88C130.835 97.2 130.701 96.46 130.701 95.66V89.46H132.421V95.44C132.421 96.4667 132.681 97.26 133.201 97.82C133.721 98.3667 134.401 98.64 135.241 98.64C136.121 98.64 136.821 98.3467 137.341 97.76C137.875 97.16 138.141 96.3867 138.141 95.44V89.46H139.881V100ZM142.652 89.46H144.372V91.14H144.492C144.666 90.6733 144.972 90.28 145.412 89.96C145.866 89.6267 146.432 89.46 147.112 89.46C147.326 89.46 147.492 89.4733 147.612 89.5C147.746 89.5133 147.892 89.5467 148.052 89.6L147.992 91.28C147.779 91.2133 147.592 91.1667 147.432 91.14C147.286 91.1133 147.092 91.1 146.852 91.1C145.199 91.1 144.372 92.08 144.372 94.04V100H142.652V89.46ZM153.506 100.14C152.573 100.14 151.773 99.9 151.106 99.42C150.453 98.94 149.953 98.2867 149.606 97.46C149.26 96.6333 149.086 95.7 149.086 94.66C149.086 93.62 149.26 92.6867 149.606 91.86C149.966 91.02 150.48 90.3667 151.146 89.9C151.826 89.42 152.633 89.18 153.566 89.18C154.5 89.18 155.253 89.4 155.826 89.84C156.4 90.28 156.833 90.8067 157.126 91.42H157.266V89.46H159.006V100H157.266V97.84H157.126C156.806 98.4667 156.353 99.0067 155.766 99.46C155.18 99.9133 154.426 100.14 153.506 100.14ZM154.046 98.66C155.073 98.66 155.86 98.28 156.406 97.52C156.953 96.7467 157.226 95.7933 157.226 94.66C157.226 93.5267 156.953 92.58 156.406 91.82C155.86 91.0467 155.073 90.66 154.046 90.66C152.993 90.66 152.193 91.04 151.646 91.8C151.113 92.56 150.846 93.5067 150.846 94.64C150.846 95.7867 151.113 96.7467 151.646 97.52C152.193 98.28 152.993 98.66 154.046 98.66ZM162.049 89.46H163.769V91.36H163.929C164.195 90.7467 164.629 90.2333 165.229 89.82C165.829 89.3933 166.562 89.18 167.429 89.18C168.322 89.18 169.069 89.3933 169.669 89.82C170.269 90.2333 170.709 90.7867 170.989 91.48C171.282 92.16 171.429 92.9 171.429 93.7V100H169.709V93.92C169.709 92.88 169.435 92.0867 168.889 91.54C168.355 90.9933 167.655 90.72 166.789 90.72C165.869 90.72 165.135 91.02 164.589 91.62C164.042 92.2067 163.769 92.9733 163.769 93.92V100H162.049V89.46ZM178.854 100.14C177.76 100.14 176.834 99.88 176.074 99.36C175.327 98.84 174.774 98.1667 174.414 97.34C174.054 96.5 173.874 95.6067 173.874 94.66C173.874 93.7133 174.054 92.8267 174.414 92C174.774 91.16 175.327 90.48 176.074 89.96C176.834 89.44 177.76 89.18 178.854 89.18C180.214 89.18 181.28 89.5733 182.054 90.36C182.84 91.1467 183.314 92.1133 183.474 93.26H181.794C181.674 92.4867 181.367 91.86 180.874 91.38C180.38 90.8867 179.714 90.64 178.874 90.64C177.807 90.64 176.994 91.0267 176.434 91.8C175.887 92.56 175.614 93.5133 175.614 94.66C175.614 95.8067 175.887 96.7667 176.434 97.54C176.994 98.3 177.807 98.68 178.874 98.68C179.714 98.68 180.38 98.44 180.874 97.96C181.367 97.48 181.674 96.8467 181.794 96.06H183.474C183.314 97.2067 182.84 98.1733 182.054 98.96C181.28 99.7467 180.214 100.14 178.854 100.14ZM190.317 100.14C189.237 100.14 188.324 99.88 187.577 99.36C186.844 98.84 186.297 98.16 185.937 97.32C185.577 96.48 185.397 95.5933 185.397 94.66C185.397 93.7133 185.577 92.8267 185.937 92C186.297 91.16 186.85 90.48 187.597 89.96C188.344 89.44 189.257 89.18 190.337 89.18C191.75 89.18 192.877 89.6533 193.717 90.6C194.57 91.5467 194.997 92.9067 194.997 94.68V95.16H187.117V95.3C187.117 95.8867 187.25 96.44 187.517 96.96C187.784 97.48 188.157 97.9 188.637 98.22C189.117 98.54 189.67 98.7 190.297 98.7C190.977 98.7 191.564 98.5267 192.057 98.18C192.55 97.8333 192.917 97.3667 193.157 96.78H194.857C194.577 97.74 194.05 98.54 193.277 99.18C192.517 99.82 191.53 100.14 190.317 100.14ZM193.297 93.94C193.244 92.74 192.95 91.8733 192.417 91.34C191.884 90.8067 191.184 90.54 190.317 90.54C189.37 90.54 188.617 90.8533 188.057 91.48C187.497 92.1067 187.197 92.9267 187.157 93.94H193.297ZM197.537 87.34V84.94H199.417V87.34L199.077 96.32H197.897L197.537 87.34ZM198.477 100.18C198.17 100.18 197.91 100.073 197.697 99.86C197.484 99.6333 197.377 99.3667 197.377 99.06C197.377 98.7533 197.484 98.4933 197.697 98.28C197.91 98.0667 198.17 97.96 198.477 97.96C198.797 97.96 199.064 98.0667 199.277 98.28C199.49 98.4933 199.597 98.7533 199.597 99.06C199.597 99.3667 199.49 99.6333 199.277 99.86C199.064 100.073 198.797 100.18 198.477 100.18ZM203 89.84C203.787 89.5067 204.18 88.9867 204.18 88.28C204.18 87.96 204.12 87.76 204 87.68C203.893 87.5867 203.733 87.54 203.52 87.54C203.16 87.54 202.907 87.4467 202.76 87.26C202.613 87.0733 202.54 86.8467 202.54 86.58C202.54 86.2333 202.647 85.96 202.86 85.76C203.073 85.5467 203.373 85.44 203.76 85.44C204.693 85.44 205.16 85.9333 205.16 86.92V87.64C205.16 88.44 204.96 89.08 204.56 89.56C204.16 90.0267 203.64 90.36 203 90.56V89.84ZM207.44 89.86C208.227 89.5267 208.62 89.0133 208.62 88.32C208.62 87.9867 208.56 87.78 208.44 87.7C208.333 87.6067 208.173 87.56 207.96 87.56C207.6 87.56 207.347 87.4733 207.2 87.3C207.053 87.1133 206.98 86.8867 206.98 86.62C206.98 86.2733 207.087 85.9933 207.3 85.78C207.513 85.5667 207.813 85.46 208.2 85.46C209.133 85.46 209.6 85.96 209.6 86.96V87.66C209.6 89.1533 208.88 90.1267 207.44 90.58V89.86Z" fill="#A71BA7"/>
<defs>
<clipPath id="clip0_1010_72">
<rect width="275" height="185" fill="white"/>
</clipPath>
</defs>
</svg>
