<svg width="235" height="158" viewBox="0 0 235 158" fill="none" xmlns="http://www.w3.org/2000/svg">
<g clip-path="url(#clip0_886_1344)">
<path d="M2.9297e-05 64.027C2.9297e-05 93.22 52.629 116.893 117.537 116.893C129.202 116.893 140.435 116.12 151.061 114.696C183.157 137.815 228.354 136.026 228.354 136.026C235.099 132.281 228.354 129.224 228.354 129.224C204.979 120.801 195.759 111.844 192.549 104.719C218.546 95.0222 235.099 80.3923 235.099 64.0196C235.099 34.8242 182.459 11.1562 117.526 11.1562C52.618 11.1562 -0.0109863 34.8242 -0.0109863 64.027" fill="#EAD7E6" fill-opacity="0.52"/>
</g>
<path d="M46.4695 53.48C45.6828 53.8133 45.2895 54.3333 45.2895 55.04C45.2895 55.36 45.3428 55.5667 45.4495 55.66C45.5695 55.74 45.7361 55.78 45.9495 55.78C46.3095 55.78 46.5628 55.8733 46.7095 56.06C46.8561 56.2467 46.9295 56.4733 46.9295 56.74C46.9295 57.0867 46.8228 57.3667 46.6095 57.58C46.3961 57.78 46.0961 57.88 45.7095 57.88C44.7761 57.88 44.3095 57.3867 44.3095 56.4V55.68C44.3095 54.88 44.5095 54.2467 44.9095 53.78C45.3095 53.3 45.8295 52.96 46.4695 52.76V53.48ZM42.0095 53.54C41.2228 53.9 40.8295 54.42 40.8295 55.1C40.8295 55.34 40.8628 55.5133 40.9295 55.62C40.9961 55.7267 41.0695 55.7933 41.1495 55.82C41.2428 55.8333 41.3761 55.8467 41.5495 55.86C41.8828 55.8733 42.1161 55.9733 42.2495 56.16C42.3961 56.3333 42.4695 56.5467 42.4695 56.8C42.4695 57.1467 42.3628 57.4267 42.1495 57.64C41.9361 57.84 41.6361 57.94 41.2495 57.94C40.3161 57.94 39.8495 57.4467 39.8495 56.46V55.74C39.8495 54.94 40.0495 54.3067 40.4495 53.84C40.8495 53.36 41.3695 53.0267 42.0095 52.84V53.54ZM49.8666 54H51.6066V68H49.8666V54ZM57.3532 58.84V64.96C57.3532 65.4533 57.3732 65.82 57.4132 66.06C57.4665 66.2867 57.5932 66.4667 57.7932 66.6C58.0065 66.7333 58.3465 66.8 58.8132 66.8C59.1332 66.8 59.4799 66.7533 59.8532 66.66V67.9C59.7599 67.94 59.5532 67.98 59.2332 68.02C58.9265 68.06 58.6065 68.08 58.2732 68.08C57.4999 68.08 56.9199 67.9733 56.5332 67.76C56.1599 67.5333 55.9132 67.2333 55.7932 66.86C55.6865 66.4733 55.6332 65.9667 55.6332 65.34V58.84H53.6732V57.46H55.6332V54H57.3532V57.46H59.8532V58.84H57.3532ZM63.0848 58.12C63.8848 57.7733 64.2848 57.2533 64.2848 56.56C64.2848 56.24 64.2248 56.04 64.1048 55.96C63.9981 55.8667 63.8381 55.82 63.6248 55.82C63.2781 55.82 63.0248 55.7267 62.8648 55.54C62.7048 55.34 62.6248 55.1133 62.6248 54.86C62.6248 54.5133 62.7314 54.24 62.9448 54.04C63.1581 53.8267 63.4648 53.72 63.8648 53.72C64.7848 53.72 65.2448 54.2133 65.2448 55.2V55.92C65.2448 56.72 65.0448 57.36 64.6448 57.84C64.2448 58.3067 63.7248 58.64 63.0848 58.84V58.12ZM71.2973 68.14C70.4439 68.14 69.7039 67.9733 69.0773 67.64C68.4506 67.2933 67.9706 66.8533 67.6373 66.32C67.3173 65.7867 67.1573 65.2267 67.1573 64.64V64.54H68.8773V64.62C68.8773 64.9533 68.9706 65.2867 69.1573 65.62C69.3439 65.94 69.6239 66.2067 69.9973 66.42C70.3706 66.62 70.8239 66.72 71.3573 66.72C71.9973 66.72 72.5239 66.5667 72.9373 66.26C73.3639 65.94 73.5773 65.5067 73.5773 64.96C73.5773 64.5067 73.4106 64.1467 73.0773 63.88C72.7573 63.6133 72.3506 63.44 71.8573 63.36L70.4773 63.16C69.6106 63.0267 68.8839 62.7333 68.2973 62.28C67.7106 61.8133 67.4173 61.14 67.4173 60.26C67.4173 59.2867 67.7639 58.5333 68.4573 58C69.1639 57.4533 70.0639 57.18 71.1573 57.18C71.9706 57.18 72.6639 57.3333 73.2373 57.64C73.8239 57.9333 74.2706 58.3267 74.5773 58.82C74.8839 59.3 75.0373 59.8267 75.0373 60.4V60.48H73.3173V60.44C73.3173 60.1733 73.2439 59.8933 73.0973 59.6C72.9639 59.3067 72.7306 59.0533 72.3973 58.84C72.0639 58.6267 71.6373 58.52 71.1173 58.52C70.4773 58.52 69.9639 58.68 69.5773 59C69.1906 59.3067 68.9973 59.7133 68.9973 60.22C68.9973 60.6333 69.1506 60.9733 69.4573 61.24C69.7639 61.5067 70.1506 61.68 70.6173 61.76L72.1173 62C72.9973 62.1467 73.7373 62.4533 74.3373 62.92C74.9373 63.3733 75.2373 64.0467 75.2373 64.94C75.2373 65.58 75.0639 66.14 74.7173 66.62C74.3839 67.1 73.9173 67.4733 73.3173 67.74C72.7173 68.0067 72.0439 68.14 71.2973 68.14ZM81.3685 57.46H83.0485L86.2085 66.18H86.3085L89.4685 57.46H91.1485L87.3085 68H85.1885L81.3685 57.46ZM97.3912 68.14C96.3112 68.14 95.3978 67.88 94.6512 67.36C93.9178 66.84 93.3712 66.16 93.0112 65.32C92.6512 64.48 92.4712 63.5933 92.4712 62.66C92.4712 61.7133 92.6512 60.8267 93.0112 60C93.3712 59.16 93.9245 58.48 94.6712 57.96C95.4178 57.44 96.3312 57.18 97.4112 57.18C98.8245 57.18 99.9512 57.6533 100.791 58.6C101.645 59.5467 102.071 60.9067 102.071 62.68V63.16H94.1912V63.3C94.1912 63.8867 94.3245 64.44 94.5912 64.96C94.8578 65.48 95.2312 65.9 95.7112 66.22C96.1912 66.54 96.7445 66.7 97.3712 66.7C98.0512 66.7 98.6378 66.5267 99.1312 66.18C99.6245 65.8333 99.9912 65.3667 100.231 64.78H101.931C101.651 65.74 101.125 66.54 100.351 67.18C99.5912 67.82 98.6045 68.14 97.3912 68.14ZM100.371 61.94C100.318 60.74 100.025 59.8733 99.4912 59.34C98.9578 58.8067 98.2578 58.54 97.3912 58.54C96.4445 58.54 95.6912 58.8533 95.1312 59.48C94.5712 60.1067 94.2712 60.9267 94.2312 61.94H100.371ZM104.531 57.46H106.251V59.14H106.371C106.545 58.6733 106.851 58.28 107.291 57.96C107.745 57.6267 108.311 57.46 108.991 57.46C109.205 57.46 109.371 57.4733 109.491 57.5C109.625 57.5133 109.771 57.5467 109.931 57.6L109.871 59.28C109.658 59.2133 109.471 59.1667 109.311 59.14C109.165 59.1133 108.971 59.1 108.731 59.1C107.078 59.1 106.251 60.08 106.251 62.04V68H104.531V57.46ZM115.718 69.46C115.505 69.9667 115.298 70.38 115.098 70.7C114.912 71.0333 114.598 71.3467 114.158 71.64C113.718 71.9333 113.145 72.08 112.438 72.08C112.065 72.08 111.665 72.0267 111.238 71.92V70.64C111.558 70.6933 111.838 70.72 112.078 70.72C112.518 70.72 112.872 70.6333 113.138 70.46C113.405 70.3 113.612 70.0867 113.758 69.82C113.918 69.5533 114.105 69.1667 114.318 68.66L114.798 67.48L110.898 57.46H112.698L115.638 65.58H115.758L118.838 57.46H120.638L115.718 69.46ZM127.17 53.06H128.89V59.36H129.05C129.317 58.7467 129.75 58.2333 130.35 57.82C130.95 57.3933 131.683 57.18 132.55 57.18C133.443 57.18 134.19 57.3933 134.79 57.82C135.39 58.2333 135.83 58.7867 136.11 59.48C136.403 60.16 136.55 60.9 136.55 61.7V68H134.83V61.92C134.83 60.88 134.557 60.0867 134.01 59.54C133.477 58.9933 132.763 58.72 131.87 58.72C131.017 58.72 130.303 59.0067 129.73 59.58C129.17 60.1533 128.89 60.9333 128.89 61.92V68H127.17V53.06ZM148.596 68H146.856V66H146.736C146.456 66.6133 146.023 67.1333 145.436 67.56C144.863 67.9733 144.156 68.18 143.316 68.18C142.436 68.18 141.703 67.9667 141.116 67.54C140.529 67.1133 140.096 66.56 139.816 65.88C139.549 65.2 139.416 64.46 139.416 63.66V57.46H141.136V63.44C141.136 64.4667 141.396 65.26 141.916 65.82C142.436 66.3667 143.116 66.64 143.956 66.64C144.836 66.64 145.536 66.3467 146.056 65.76C146.589 65.16 146.856 64.3867 146.856 63.44V57.46H148.596V68ZM151.506 57.46H153.206V59.4H153.366C153.393 59.2667 153.526 59.0267 153.766 58.68C154.006 58.32 154.373 57.98 154.866 57.66C155.359 57.34 155.973 57.18 156.706 57.18C157.479 57.18 158.119 57.36 158.626 57.72C159.146 58.08 159.533 58.4667 159.786 58.88C160.039 59.2933 160.166 59.5533 160.166 59.66H160.326C160.513 59.1933 160.879 58.6667 161.426 58.08C161.986 57.48 162.839 57.18 163.986 57.18C164.839 57.18 165.553 57.4 166.126 57.84C166.699 58.2667 167.119 58.82 167.386 59.5C167.666 60.18 167.806 60.9067 167.806 61.68V68H166.106V61.84C166.106 60.8267 165.839 60.06 165.306 59.54C164.786 59.02 164.139 58.76 163.366 58.76C162.566 58.76 161.886 59.0333 161.326 59.58C160.779 60.1133 160.506 60.8667 160.506 61.84V68H158.806V61.84C158.806 60.8267 158.539 60.06 158.006 59.54C157.486 59.02 156.839 58.76 156.066 58.76C155.266 58.76 154.586 59.0333 154.026 59.58C153.479 60.1133 153.206 60.8667 153.206 61.84V68H151.506V57.46ZM174.585 68.14C173.651 68.14 172.851 67.9 172.185 67.42C171.531 66.94 171.031 66.2867 170.685 65.46C170.338 64.6333 170.165 63.7 170.165 62.66C170.165 61.62 170.338 60.6867 170.685 59.86C171.045 59.02 171.558 58.3667 172.225 57.9C172.905 57.42 173.711 57.18 174.645 57.18C175.578 57.18 176.331 57.4 176.905 57.84C177.478 58.28 177.911 58.8067 178.205 59.42H178.345V57.46H180.085V68H178.345V65.84H178.205C177.885 66.4667 177.431 67.0067 176.845 67.46C176.258 67.9133 175.505 68.14 174.585 68.14ZM175.125 66.66C176.151 66.66 176.938 66.28 177.485 65.52C178.031 64.7467 178.305 63.7933 178.305 62.66C178.305 61.5267 178.031 60.58 177.485 59.82C176.938 59.0467 176.151 58.66 175.125 58.66C174.071 58.66 173.271 59.04 172.725 59.8C172.191 60.56 171.925 61.5067 171.925 62.64C171.925 63.7867 172.191 64.7467 172.725 65.52C173.271 66.28 174.071 66.66 175.125 66.66ZM183.127 57.46H184.847V59.36H185.007C185.274 58.7467 185.707 58.2333 186.307 57.82C186.907 57.3933 187.64 57.18 188.507 57.18C189.4 57.18 190.147 57.3933 190.747 57.82C191.347 58.2333 191.787 58.7867 192.067 59.48C192.36 60.16 192.507 60.9 192.507 61.7V68H190.787V61.92C190.787 60.88 190.514 60.0867 189.967 59.54C189.434 58.9933 188.734 58.72 187.867 58.72C186.947 58.72 186.214 59.02 185.667 59.62C185.12 60.2067 184.847 60.9733 184.847 61.92V68H183.127V57.46ZM196.613 68.14C196.28 68.14 196 68.0267 195.773 67.8C195.56 67.56 195.453 67.28 195.453 66.96C195.453 66.64 195.56 66.3733 195.773 66.16C196 65.9333 196.28 65.82 196.613 65.82C196.946 65.82 197.22 65.9333 197.433 66.16C197.66 66.3733 197.773 66.64 197.773 66.96C197.773 67.28 197.66 67.56 197.433 67.8C197.206 68.0267 196.933 68.14 196.613 68.14ZM201.422 57.84C202.208 57.5067 202.602 56.9867 202.602 56.28C202.602 55.96 202.542 55.76 202.422 55.68C202.315 55.5867 202.155 55.54 201.942 55.54C201.582 55.54 201.328 55.4467 201.182 55.26C201.035 55.0733 200.962 54.8467 200.962 54.58C200.962 54.2333 201.068 53.96 201.282 53.76C201.495 53.5467 201.795 53.44 202.182 53.44C203.115 53.44 203.582 53.9333 203.582 54.92V55.64C203.582 56.44 203.382 57.08 202.982 57.56C202.582 58.0267 202.062 58.36 201.422 58.56V57.84ZM205.862 57.86C206.648 57.5267 207.042 57.0133 207.042 56.32C207.042 55.9867 206.982 55.78 206.862 55.7C206.755 55.6067 206.595 55.56 206.382 55.56C206.022 55.56 205.768 55.4733 205.622 55.3C205.475 55.1133 205.402 54.8867 205.402 54.62C205.402 54.2733 205.508 53.9933 205.722 53.78C205.935 53.5667 206.235 53.46 206.622 53.46C207.555 53.46 208.022 53.96 208.022 54.96V55.66C208.022 57.1533 207.302 58.1267 205.862 58.58V57.86Z" fill="#A71BA7"/>
<defs>
<clipPath id="clip0_886_1344">
<rect width="235" height="158" fill="white"/>
</clipPath>
</defs>
</svg>
