<svg width="52" height="52" viewBox="0 0 52 52" fill="none" xmlns="http://www.w3.org/2000/svg">
<path d="M47.6666 26.0006C47.6666 14.0342 37.9664 4.33398 25.9999 4.33398C14.0334 4.33398 4.33325 14.0342 4.33325 26.0006C4.33325 37.9671 14.0334 47.6673 25.9999 47.6673C37.9664 47.6673 47.6666 37.9671 47.6666 26.0006ZM35.2126 22.7507H16.7959C16.3649 22.7507 15.9516 22.5794 15.6469 22.2747C15.3421 21.97 15.1709 21.5566 15.1709 21.1257C15.1709 20.6947 15.3421 20.2813 15.6469 19.9766C15.9516 19.6719 16.3649 19.5007 16.7959 19.5007H35.2126C35.6436 19.5007 36.0569 19.6719 36.3616 19.9766C36.6664 20.2813 36.8376 20.6947 36.8376 21.1257C36.8376 21.5566 36.6664 21.97 36.3616 22.2747C36.0569 22.5794 35.6436 22.7507 35.2126 22.7507ZM35.2126 32.5006H16.7959C16.3649 32.5006 15.9516 32.3294 15.6469 32.0247C15.3421 31.7199 15.1709 31.3066 15.1709 30.8756C15.1709 30.4447 15.3421 30.0313 15.6469 29.7266C15.9516 29.4219 16.3649 29.2506 16.7959 29.2506H35.2126C35.6436 29.2506 36.0569 29.4219 36.3616 29.7266C36.6664 30.0313 36.8376 30.4447 36.8376 30.8756C36.8376 31.3066 36.6664 31.7199 36.3616 32.0247C36.0569 32.3294 35.6436 32.5006 35.2126 32.5006Z" fill="#A71BA7"/>
</svg>
