<svg width="75" height="175" viewBox="0 0 75 175" fill="none" xmlns="http://www.w3.org/2000/svg">
<path d="M48.3342 14.8785C48.4555 15.9213 48.5161 17.007 48.5161 18.125V157.875C48.5161 162.152 47.5577 166.253 45.8517 169.277C44.1458 172.301 41.832 174 39.4194 174H9.09677C6.68416 174 4.37036 172.301 2.66438 169.277C0.958406 166.253 0 162.152 0 157.875V18.125C0 13.8484 0.958406 9.74693 2.66438 6.72291C4.37036 3.69888 6.68416 2 9.09677 2H39.4194C41.5147 1.99823 43.5462 3.27878 45.1705 5.62526C46.7948 7.97174 47.9123 11.2403 48.3342 14.8785V14.8785ZM6.06452 136.375V147.125H15.1613C15.9655 147.125 16.7368 146.559 17.3054 145.551C17.8741 144.543 18.1935 143.176 18.1935 141.75C18.1935 140.324 17.8741 138.957 17.3054 137.949C16.7368 136.941 15.9655 136.375 15.1613 136.375H6.06452ZM6.06452 28.875V39.625H15.1613C15.9655 39.625 16.7368 39.0587 17.3054 38.0507C17.8741 37.0427 18.1935 35.6755 18.1935 34.25C18.1935 32.8245 17.8741 31.4573 17.3054 30.4493C16.7368 29.4413 15.9655 28.875 15.1613 28.875H6.06452ZM6.06452 55.75V66.5H21.2258C22.03 66.5 22.8013 65.9337 23.3699 64.9257C23.9386 63.9177 24.2581 62.5505 24.2581 61.125C24.2581 59.6995 23.9386 58.3323 23.3699 57.3243C22.8013 56.3163 22.03 55.75 21.2258 55.75H6.06452ZM6.06452 82.625V93.375H15.1613C15.9655 93.375 16.7368 92.8087 17.3054 91.8007C17.8741 90.7927 18.1935 89.4255 18.1935 88C18.1935 86.5745 17.8741 85.2073 17.3054 84.1993C16.7368 83.1913 15.9655 82.625 15.1613 82.625H6.06452ZM6.06452 109.543V120.293H21.2258C22.03 120.293 22.8013 119.727 23.3699 118.719C23.9386 117.711 24.2581 116.344 24.2581 114.918C24.2581 113.492 23.9386 112.125 23.3699 111.117C22.8013 110.109 22.03 109.543 21.2258 109.543H6.06452Z" fill="#3D3D3D"/>
<path d="M64.5413 0.934249C63.9538 0.351266 63.0041 0.355807 62.42 0.944391L52.9029 10.5359C52.3188 11.1245 52.3217 12.0743 52.9092 12.6572C53.4968 13.2402 54.4465 13.2357 55.0305 12.6471L63.4902 4.12129L72.0009 12.566C72.5884 13.1489 73.5382 13.1444 74.1222 12.5558C74.7062 11.9672 74.7034 11.0175 74.1158 10.4345L64.5413 0.934249ZM65.5 173.993L64.9839 1.9928L61.9839 2.00715L62.5 174.007L65.5 173.993Z" fill="#3D3D3D"/>
</svg>
