<svg width="237" height="207" viewBox="0 0 237 207" fill="none" xmlns="http://www.w3.org/2000/svg">
<path d="M53.05 64.2762V64.625H47.6C44.5855 64.625 42.15 67.2504 42.15 70.5V86.6563C42.15 90.7137 39.1014 94 35.3375 94H25.817C25.5616 94 25.3061 93.9816 25.0506 93.9633C24.8463 93.9816 24.6419 94 24.4375 94H21.7125C17.9503 94 14.9 90.7137 14.9 86.6563V66.0938C14.9 65.9285 14.9051 65.7449 14.9153 65.5797V52.8016H9.45852C6.38778 52.8016 4 50.2129 4 46.9082C4 45.2559 4.51162 43.7871 5.70483 42.502L49.3712 1.47169C50.5634 0.183961 51.9259 0 53.1181 0C54.3103 0 55.6728 0.367922 56.7117 1.28773L80.1808 23.5184C78.0689 23.3531 75.923 24.0691 74.2539 25.6848C68.2248 31.4863 63.0814 38.1141 59.3856 44.5582C55.8261 50.7637 53.05 57.8137 53.05 64.2762ZM90.6891 40.666C92.0345 38.8484 93.5503 36.8656 95.2023 35.0848C96.1561 34.3137 97.6548 34.3137 98.6086 35.25C102.815 39.4176 106.375 44.9254 108.878 50.1578C111.365 55.2984 113 60.5676 113 64.2762C113 80.3957 100.857 94 85.75 94C70.473 94 58.5 80.3773 58.5 64.2762C58.5 59.4293 60.663 53.5176 64.0181 47.6426C67.4244 41.7125 72.2102 35.507 77.8816 30.0543C78.8353 29.1363 80.1467 29.1547 81.2367 30.0727C84.6089 33.3406 87.7597 36.8473 90.6891 40.666ZM97.6719 61.7059C97.3313 60.9715 96.9906 60.2371 96.4797 59.5027L90.3484 67.3789C90.3484 67.3789 80.4703 53.793 79.7891 52.875C74.6797 59.5027 72.125 63.5234 72.125 67.9297C72.125 76.9258 78.2563 82.25 85.9203 82.25C88.9859 82.25 91.7109 81.332 94.2656 79.3309C99.375 75.6406 100.738 67.9297 97.6719 61.7059Z" fill="#FFA800"/>
<path d="M214.373 8.30291C215.072 7.6701 215.568 6.83017 215.795 5.8958C216.021 4.96142 215.968 3.97728 215.642 3.07537C214.809 1.22679 213.101 0 211.204 0L141.582 0.00611523C139.115 0.00611523 137.092 2.05373 137.028 4.61819C136.893 9.92641 137.254 14.6411 137.936 18.9336H205.084C206.802 15.9312 209.743 12.4948 214.373 8.30291ZM210.559 38.6443C206.381 33.6476 203.167 29.793 203.159 25.2441H139.284C141.46 33.2136 145.048 39.317 149.368 44.1816H214.98C213.538 42.2346 212.02 40.4 210.559 38.6443ZM194.602 95.733C194.498 96.7076 194.687 97.6918 195.144 98.5497C195.601 99.4076 196.302 100.097 197.152 100.523C197.763 100.836 198.436 101 199.118 101C200.298 101 201.459 100.525 202.332 99.6191C210.629 91.0164 216.243 83.1218 219.285 75.75H191.09C194.071 80.6027 195.57 86.7969 194.602 95.733V95.733ZM218.907 50.3225H156.066C161.113 54.5045 166.559 57.5227 171.606 60.3238C176.945 63.2848 181.859 66.0248 185.785 69.4257H221.228C221.696 67.2873 221.829 65.1766 222 63.125C222 58.2723 220.748 54.1691 218.907 50.3225V50.3225Z" fill="#7ED1FF"/>
<path d="M67.8976 186.14C67.6143 185.678 67.0478 185.391 66.4329 185.391H55.6138L59.1262 177.95C59.3314 177.518 59.2687 177.026 58.96 176.639C58.6513 176.253 58.0803 176.023 57.5897 176.023H45.4303C44.5992 176.023 43.8973 176.545 43.7874 177.244L41.5766 191.295C41.5447 191.493 41.5635 191.695 41.6317 191.886C41.6998 192.078 41.8158 192.255 41.9717 192.405C42.1274 192.556 42.3193 192.676 42.5345 192.759C42.7497 192.842 42.9832 192.885 43.2195 192.885H53.327L50.4406 204.249C50.2743 204.906 50.6802 205.57 51.4078 205.835C51.6206 205.965 51.8416 206 52.0627 206C52.596 206 53.1142 205.78 53.4314 205.388L67.8016 187.59C68.1463 187.159 68.1878 186.603 67.8976 186.14Z" fill="#FFC700"/>
<path d="M89.2542 131.177C83.7848 118.801 69.8486 110 53.5239 110C37.1992 110 23.2629 118.79 17.7935 131.166C7.55926 133.471 0 141.463 0 150.98C0 162.301 10.6881 171.47 23.872 171.47H83.128C96.3119 171.47 107 162.301 107 150.98C107 141.483 99.4646 133.492 89.2542 131.177Z" fill="#727272"/>
<path d="M16.3594 182.796C16.3594 183.547 16.5836 184.25 17.0419 184.895C17.5001 185.541 18.1144 186.063 18.8944 186.447C19.6744 186.831 20.5129 187.027 21.4197 187.027C22.3265 187.027 23.1747 186.831 23.9645 186.447C24.738 186.074 25.383 185.539 25.8365 184.895C26.2948 184.242 26.5288 183.547 26.5288 182.796C26.5288 182.306 26.363 181.726 26.0218 181.048C25.6805 180.369 25.271 179.74 24.7933 179.169C24.3643 178.703 23.8573 178.188 23.2722 177.633C22.6872 177.077 21.6635 176.219 21.4295 176.023L20.1814 177.077C19.5769 177.567 18.9919 178.131 18.4362 178.776C17.8804 179.422 17.3929 180.116 16.9834 180.86C16.5544 181.603 16.3594 182.248 16.3594 182.796Z" fill="#3498F4"/>
<path d="M26.5293 195.697C26.5293 196.449 26.7536 197.151 27.2118 197.797C27.6701 198.442 28.2843 198.965 29.0643 199.349C29.8444 199.733 30.6829 199.929 31.5896 199.929C32.4964 199.929 33.3447 199.733 34.1344 199.349C34.908 198.976 35.5529 198.441 36.0065 197.797C36.4647 197.143 36.6987 196.449 36.6987 195.697C36.6987 195.207 36.533 194.627 36.1917 193.949C35.8505 193.271 35.4409 192.642 34.9632 192.07C34.5342 191.604 34.0272 191.09 33.4422 190.534C32.8572 189.979 31.8334 189.121 31.5994 188.925L30.3514 189.979C29.7469 190.469 29.1618 191.032 28.6061 191.678C28.0503 192.323 27.5628 193.018 27.1533 193.761C26.7243 194.504 26.5293 195.15 26.5293 195.697Z" fill="#3498F4"/>
<path d="M70.7432 182.796C70.7432 183.548 70.9674 184.25 71.4257 184.896C71.8839 185.541 72.4982 186.064 73.2782 186.448C74.0582 186.832 74.8967 187.028 75.8035 187.028C76.7103 187.028 77.5585 186.832 78.3483 186.448C79.1218 186.075 79.7668 185.54 80.2203 184.896C80.6786 184.242 80.9126 183.548 80.9126 182.796C80.9126 182.306 80.7468 181.726 80.4056 181.048C80.0643 180.37 79.6548 179.741 79.1771 179.169C78.748 178.703 78.241 178.189 77.656 177.633C77.071 177.078 76.0473 176.22 75.8132 176.024L74.5652 177.078C73.9607 177.568 73.3757 178.132 72.8199 178.777C72.2642 179.422 71.7767 180.117 71.3672 180.86C70.9382 181.604 70.7432 182.249 70.7432 182.796Z" fill="#3498F4"/>
<path d="M80.9121 195.698C80.9121 196.449 81.1364 197.152 81.5946 197.797C82.0529 198.442 82.6671 198.965 83.4472 199.349C84.2272 199.733 85.0657 199.929 85.9724 199.929C86.8792 199.929 87.7275 199.733 88.5172 199.349C89.2908 198.976 89.9357 198.441 90.3893 197.797C90.8475 197.144 91.0815 196.449 91.0815 195.698C91.0815 195.207 90.9158 194.627 90.5745 193.949C90.2333 193.271 89.8238 192.642 89.346 192.07C88.917 191.605 88.41 191.09 87.825 190.535C87.24 189.979 86.2162 189.121 85.9822 188.925L84.7342 189.979C84.1297 190.469 83.5447 191.033 82.9889 191.678C82.4331 192.324 81.9456 193.018 81.5361 193.761C81.1071 194.505 80.9121 195.15 80.9121 195.698Z" fill="#3498F4"/>
<path d="M218.062 133.928C220.337 135.513 221.292 138.297 220.418 140.849C219.545 143.401 217.067 145.122 214.244 145.122H210.872L210.933 159.275C210.608 159.449 210.303 159.642 210.019 159.836C206.363 162.233 201.854 163.78 197.995 163.78C194.014 163.78 189.708 162.291 185.971 159.836C181.502 156.839 175.51 156.839 171.022 159.836C167.528 162.117 163.303 163.78 158.997 163.78C154.956 163.78 150.629 162.233 146.994 159.836C146.669 159.623 146.344 159.256 145.998 159.236V145.122H142.749C139.933 145.122 137.439 143.401 136.568 140.849C135.696 138.297 136.649 135.513 138.926 133.928L174.678 109.183C176.952 107.606 180.04 107.606 182.315 109.183L218.062 133.928ZM174.739 167.918C176.993 166.39 179.999 166.39 182.254 167.918C186.641 170.914 192.409 172.964 197.995 172.964C203.459 172.964 209.247 170.876 213.716 167.918H213.736C216.153 166.274 219.423 166.41 221.698 168.246C224.602 170.547 228.299 172.307 231.975 173.119C235.469 173.892 237.642 177.237 236.83 180.562C236.017 183.888 232.341 185.957 229.01 185.183C224.034 184.062 219.911 181.974 217.189 180.35C211.299 183.347 204.698 185.338 197.995 185.338C191.516 185.338 185.686 183.424 181.665 181.684C180.466 181.181 179.41 180.659 178.496 180.195C177.582 180.659 176.526 181.181 175.328 181.684C171.306 183.424 165.477 185.338 158.997 185.338C152.112 185.338 145.694 183.347 139.803 180.35C137.086 181.974 132.957 184.062 127.976 185.183C124.481 185.957 120.986 183.888 120.171 180.562C119.356 177.237 121.53 173.892 125.025 173.119C128.701 172.307 132.382 170.547 135.296 168.246C137.561 166.41 140.839 166.274 143.256 167.918H143.277C147.765 170.876 153.534 172.964 158.997 172.964C164.583 172.964 170.169 170.914 174.739 167.918ZM213.716 189.572H213.736C216.153 187.929 219.423 188.064 221.698 189.901C224.602 192.202 228.299 193.961 231.975 194.773C235.469 195.547 237.642 198.891 236.83 202.217C236.017 205.543 232.341 207.611 229.01 206.838C224.034 205.717 219.911 203.628 217.189 202.004C211.299 205.001 204.698 206.993 197.995 206.993C191.516 206.993 185.686 205.079 181.665 203.338C180.466 202.836 179.41 202.314 178.496 201.85C177.582 202.314 176.526 202.836 175.328 203.338C171.306 205.079 165.477 206.993 158.997 206.993C152.112 206.993 145.694 205.001 139.803 202.004C137.086 203.628 132.957 205.717 127.976 206.838C124.481 207.611 120.986 205.543 120.171 202.217C119.356 198.891 121.53 195.547 125.025 194.773C128.701 193.961 132.382 192.202 135.296 189.901C137.561 188.064 140.839 187.929 143.256 189.572H143.277C147.765 192.53 153.534 194.619 158.997 194.619C164.583 194.619 170.169 192.569 174.739 189.572C176.993 188.045 179.999 188.045 182.254 189.572C186.641 192.569 192.409 194.619 197.995 194.619C203.459 194.619 209.247 192.53 213.716 189.572Z" fill="#5667FF"/>
</svg>
