<svg width="82" height="72" viewBox="0 0 82 72" fill="none" xmlns="http://www.w3.org/2000/svg">
<path d="M36.9 49.2328V49.5H32.8C30.5322 49.5 28.7 51.5109 28.7 54V66.375C28.7 69.4828 26.4066 72 23.575 72H16.4128C16.2206 72 16.0284 71.9859 15.8362 71.9719C15.6825 71.9859 15.5287 72 15.375 72H13.325C10.4947 72 8.2 69.4828 8.2 66.375V50.625C8.2 50.4984 8.20384 50.3578 8.21153 50.2313V40.4438H4.10641C1.79631 40.4438 0 38.4609 0 35.9297C0 34.6641 0.384888 33.5391 1.28253 32.5547L34.1325 1.12725C35.0294 0.140906 36.0544 0 36.9512 0C37.8481 0 38.8731 0.281812 39.6547 0.986344L57.3103 18.0141C55.7216 17.8875 54.1072 18.4359 52.8516 19.6734C48.3159 24.1172 44.4466 29.1937 41.6663 34.1297C38.9884 38.8828 36.9 44.2828 36.9 49.2328ZM65.2156 31.1484C66.2278 29.7563 67.3681 28.2375 68.6109 26.8734C69.3284 26.2828 70.4559 26.2828 71.1734 27C74.3381 30.1922 77.0159 34.4109 78.8994 38.4188C80.77 42.3563 82 46.3922 82 49.2328C82 61.5797 72.8647 72 61.5 72C50.0072 72 41 61.5656 41 49.2328C41 45.5203 42.6272 40.9922 45.1512 36.4922C47.7137 31.95 51.3141 27.1969 55.5806 23.0203C56.2981 22.3172 57.2847 22.3313 58.1047 23.0344C60.6416 25.5375 63.0119 28.2234 65.2156 31.1484V31.1484ZM70.4687 47.2641C70.2125 46.7016 69.9562 46.1391 69.5719 45.5766L64.9594 51.6094C64.9594 51.6094 57.5281 41.2031 57.0156 40.5C53.1719 45.5766 51.25 48.6562 51.25 52.0312C51.25 58.9219 55.8625 63 61.6281 63C63.9344 63 65.9844 62.2969 67.9062 60.7641C71.75 57.9375 72.775 52.0313 70.4687 47.2641Z" fill="#3D3D3D"/>
</svg>
