<svg width="129" height="113" viewBox="0 0 129 113" fill="none" xmlns="http://www.w3.org/2000/svg">
<path d="M58.05 77.2682V77.6875H51.6C48.0323 77.6875 45.15 80.8436 45.15 84.75V104.172C45.15 109.049 41.542 113 37.0875 113H25.8202C25.5178 113 25.2155 112.978 24.9131 112.956C24.6713 112.978 24.4294 113 24.1875 113H20.9625C16.51 113 12.9 109.049 12.9 104.172V79.4531C12.9 79.2545 12.906 79.0338 12.9181 78.8352V63.4742H6.46008C2.82591 63.4742 0 60.3623 0 56.3897C0 54.4033 0.605494 52.6377 2.01764 51.0928L53.6963 1.76916C55.1072 0.221145 56.7197 0 58.1306 0C59.5416 0 61.1541 0.442289 62.3836 1.54801L90.1589 28.2721C87.6595 28.0734 85.1198 28.9342 83.1445 30.8764C76.0092 37.8506 69.922 45.818 65.5481 53.5647C61.3355 61.0244 58.05 69.4994 58.05 77.2682ZM102.595 48.8857C104.188 46.7008 105.982 44.3172 107.937 42.1764C109.065 41.2494 110.839 41.2494 111.968 42.375C116.947 47.385 121.159 54.0061 124.122 60.2961C127.065 66.4758 129 72.81 129 77.2682C129 96.6459 114.629 113 96.75 113C78.6698 113 64.5 96.6238 64.5 77.2682C64.5 71.4416 67.0598 64.335 71.0306 57.2725C75.0619 50.1438 80.7258 42.684 87.4378 36.1291C88.5666 35.0256 90.1186 35.0477 91.4086 36.1512C95.3995 40.0797 99.1284 44.2951 102.595 48.8857ZM110.859 74.1783C110.456 73.2955 110.053 72.4127 109.448 71.5299L102.192 80.9981C102.192 80.9981 90.5016 64.666 89.6953 63.5625C83.6484 71.5299 80.625 76.3633 80.625 81.6602C80.625 92.4746 87.8813 98.875 96.9516 98.875C100.58 98.875 103.805 97.7715 106.828 95.3658C112.875 90.9297 114.488 81.6602 110.859 74.1783Z" fill="#FFA800"/>
</svg>
