<svg width="73" height="70" viewBox="0 0 73 70" fill="none" xmlns="http://www.w3.org/2000/svg">
<path d="M24.3638 70C20.7746 70 18.4325 69.4049 17.3375 68.2148C16.2425 67.0247 14.5392 66.4296 12.2275 66.4296C10.4633 66.4296 9.09458 66.8307 8.12125 67.6328C7.14792 68.4374 5.77917 69.0777 4.015 69.5537C2.98083 69.8512 2.05373 69.643 1.2337 68.9289C0.411234 68.2148 0 67.2627 0 66.0726C0 65.3585 0.27375 64.6444 0.82125 63.9304C1.36875 63.2163 2.12917 62.6212 3.1025 62.1452C4.25833 61.6096 5.42877 61.0003 6.6138 60.3172C7.80127 59.6316 9.6725 59.2889 12.2275 59.2889C15.8167 59.2889 18.1588 59.884 19.2538 61.0741C20.3488 62.2642 22.0521 62.8593 24.3638 62.8593C26.6754 62.8593 28.3788 62.2642 29.4738 61.0741C30.5688 59.884 32.9108 59.2889 36.5 59.2889C39.9675 59.2889 42.3254 59.884 43.5737 61.0741C44.8196 62.2642 46.5375 62.8593 48.7275 62.8593C51.0392 62.8593 52.7425 62.2642 53.8375 61.0741C54.9325 59.884 57.2746 59.2889 60.8637 59.2889C63.4187 59.2889 65.2742 59.6316 66.43 60.3172C67.5858 61.0003 68.7417 61.6096 69.8975 62.1452C70.8708 62.6212 71.6313 63.202 72.1788 63.8875C72.7263 64.5707 73 65.299 73 66.0726C73 67.2627 72.59 68.2005 71.77 68.886C70.9475 69.5692 70.0192 69.762 68.985 69.4645C67.2208 68.9884 65.8679 68.3636 64.9262 67.59C63.9821 66.8164 62.6279 66.4296 60.8637 66.4296C58.6129 66.4296 56.9096 67.0247 55.7538 68.2148C54.5979 69.4049 52.2558 70 48.7275 70C45.1992 70 42.8425 69.4049 41.6575 68.2148C40.47 67.0247 38.7508 66.4296 36.5 66.4296C34.1883 66.4296 32.485 67.0247 31.39 68.2148C30.295 69.4049 27.9529 70 24.3638 70ZM4.015 53.3978C2.98083 53.6953 2.05373 53.487 1.2337 52.773C0.411234 52.0589 0 51.1068 0 49.9167C0 49.2026 0.27375 48.5028 0.82125 47.8173C1.36875 47.1342 2.12917 46.5546 3.1025 46.0785C4.25833 45.543 5.41417 44.9324 6.57 44.2469C7.72583 43.5638 9.58125 43.2222 12.1363 43.2222C12.5013 43.2222 12.8663 43.2365 13.2313 43.2651C13.5963 43.296 13.9308 43.3412 14.235 43.4008L10.7675 30.9045L8.03 34.4748C7.36083 35.3079 6.5554 35.784 5.6137 35.903C4.66957 36.022 3.77167 35.7542 2.92 35.0996C2.06833 34.4451 1.59748 33.6263 1.50745 32.6432C1.41498 31.6626 1.70333 30.7854 2.3725 30.0119L25.0025 2.60928C26.0367 1.41915 27.3142 0.630101 28.835 0.242121C30.3558 -0.143479 31.8463 -0.0685009 33.3063 0.467055L66.9775 13.0526C67.9508 13.4096 68.6662 14.0345 69.1237 14.9271C69.5787 15.8196 69.5933 16.7122 69.1675 17.6048C68.7417 18.5569 68.0725 19.2258 67.16 19.6114C66.2475 19.9994 65.3046 20.0148 64.3313 19.6578L60.1338 17.9619L67.525 44.8289L68.7113 45.4966C69.0763 45.706 69.4717 45.9 69.8975 46.0785C70.8708 46.4951 71.6313 47.0604 72.1788 47.7745C72.7263 48.4885 73 49.2324 73 50.0059C73 51.1961 72.59 52.1339 71.77 52.8194C70.9475 53.5025 70.0192 53.6953 68.985 53.3978C67.2208 52.9217 65.8521 52.2969 64.8788 51.5233C63.9054 50.7498 62.5671 50.363 60.8637 50.363C58.5521 50.363 56.8488 50.958 55.7538 52.1482C54.6588 53.3383 52.3167 53.9333 48.7275 53.9333C45.26 53.9333 42.9033 53.3383 41.6575 52.1482C40.4092 50.958 38.69 50.363 36.5 50.363C34.1883 50.363 32.485 50.958 31.39 52.1482C30.295 53.3383 27.9529 53.9333 24.3638 53.9333C20.8963 53.9333 18.5542 53.3383 17.3375 52.1482C16.1208 50.958 14.4175 50.363 12.2275 50.363C10.585 50.363 9.24667 50.7498 8.2125 51.5233C7.17833 52.2969 5.77917 52.9217 4.015 53.3978ZM49.0925 46.7033L43.9825 27.7804L29.8388 31.44L33.215 43.5793C33.7017 43.4603 34.2041 43.371 34.7224 43.3115C35.2383 43.252 35.8308 43.2222 36.5 43.2222C39.9675 43.2222 42.4471 43.8768 43.9387 45.1859C45.4279 46.4951 47.1458 47.0009 49.0925 46.7033Z" fill="#3D3D3D"/>
</svg>
