<svg width="117" height="106" viewBox="0 0 117 106" fill="none" xmlns="http://www.w3.org/2000/svg">
<path d="M98.0622 27.7608C100.337 29.4583 101.292 32.4394 100.418 35.172C99.545 37.9046 97.067 39.747 94.2437 39.747H90.8721L90.933 54.9006C90.6081 55.0869 90.3034 55.2939 90.019 55.5009C86.363 58.0679 81.8539 59.7241 77.9948 59.7241C74.0138 59.7241 69.7079 58.13 65.9706 55.5009C61.5022 52.2922 55.5104 52.2922 51.0216 55.5009C47.5281 57.9437 43.3034 59.7241 38.9974 59.7241C34.9555 59.7241 30.6292 58.0679 26.9935 55.5009C26.6686 55.2732 26.3436 54.8799 25.9983 54.8592V39.747H22.7485C19.9334 39.747 17.4392 37.9046 16.5678 35.172C15.6965 32.4394 16.6491 29.4583 18.926 27.7608L54.6776 1.26694C56.9525 -0.422312 60.0398 -0.422312 62.3146 1.26694L98.0622 27.7608ZM54.7386 64.1542C56.9931 62.5188 59.9992 62.5188 62.2537 64.1542C66.6409 67.3629 72.4093 69.5573 77.9948 69.5573C83.4585 69.5573 89.2472 67.3215 93.7157 64.1542H93.736C96.153 62.3946 99.4231 62.5395 101.698 64.5061C104.602 66.9696 108.299 68.8535 111.975 69.7229C115.469 70.551 117.642 74.1324 116.83 77.693C116.017 81.2537 112.341 83.4688 109.01 82.6407C104.034 81.44 99.9106 79.2042 97.1889 77.4653C91.2986 80.6741 84.6975 82.8063 77.9948 82.8063C71.5156 82.8063 65.6863 80.7569 61.6647 78.8937C60.4663 78.3555 59.4101 77.7965 58.4961 77.2997C57.5821 77.7965 56.526 78.3555 55.3276 78.8937C51.306 80.7569 45.4767 82.8063 38.9974 82.8063C32.112 82.8063 25.6936 80.6741 19.8034 77.4653C17.0858 79.2042 12.9565 81.44 7.97623 82.6407C4.48068 83.4688 0.985948 81.2537 0.171268 77.693C-0.643615 74.1324 1.52988 70.551 5.02502 69.7229C8.70134 68.8535 12.3817 66.9696 15.2964 64.5061C17.5611 62.5395 20.8393 62.3946 23.2563 64.1542H23.2766C27.7654 67.3215 33.5337 69.5573 38.9974 69.5573C44.583 69.5573 50.1686 67.3629 54.7386 64.1542V64.1542ZM93.7157 87.34H93.736C96.153 85.5803 99.4231 85.7252 101.698 87.6919C104.602 90.1554 108.299 92.0392 111.975 92.9087C115.469 93.7368 117.642 97.3181 116.83 100.879C116.017 104.439 112.341 106.655 109.01 105.826C104.034 104.626 99.9106 102.39 97.1889 100.651C91.2986 103.86 84.6975 105.992 77.9948 105.992C71.5156 105.992 65.6863 103.943 61.6647 102.079C60.4663 101.541 59.4101 100.982 58.4961 100.485C57.5821 100.982 56.526 101.541 55.3276 102.079C51.306 103.943 45.4767 105.992 38.9974 105.992C32.112 105.992 25.6936 103.86 19.8034 100.651C17.0858 102.39 12.9565 104.626 7.97623 105.826C4.48068 106.655 0.985745 104.439 0.171065 100.879C-0.643615 97.3181 1.52988 93.7368 5.02502 92.9087C8.70134 92.0392 12.3817 90.1554 15.2964 87.6919C17.5611 85.7252 20.8393 85.5803 23.2563 87.34H23.2766C27.7654 90.5073 33.5337 92.7431 38.9974 92.7431C44.583 92.7431 50.1686 90.5487 54.7386 87.34C56.9931 85.7045 59.9992 85.7045 62.2537 87.34C66.6409 90.5487 72.4093 92.7431 77.9948 92.7431C83.4585 92.7431 89.2472 90.5073 93.7157 87.34V87.34Z" fill="#5667FF"/>
</svg>
