<svg width="292" height="295" viewBox="0 0 292 295" fill="none" xmlns="http://www.w3.org/2000/svg">
<circle cx="122.5" cy="210.5" r="84.5" fill="#F1EFEF"/>
<circle cx="84.5" cy="84.5" r="84.5" fill="#EAD7E6"/>
<circle cx="207.5" cy="141.5" r="84.5" fill="#EBE3D6" fill-opacity="0.33"/>
<path d="M73.2323 66V80H71.4923V73.66H64.3723V80H62.6523V66H64.3723V72.26H71.4923V66H73.2323ZM76.3666 69.46H78.0866V80H76.3666V69.46ZM77.2066 67.5C76.8866 67.5 76.6199 67.3933 76.4066 67.18C76.1932 66.9533 76.0866 66.6867 76.0866 66.38C76.0866 66.0733 76.1932 65.8133 76.4066 65.6C76.6199 65.3733 76.8866 65.26 77.2066 65.26C77.5266 65.26 77.7932 65.3733 78.0066 65.6C78.2332 65.8133 78.3466 66.0733 78.3466 66.38C78.3466 66.6867 78.2332 66.9533 78.0066 67.18C77.7932 67.3933 77.5266 67.5 77.2066 67.5ZM82.0666 73.04H89.4066V74.46H82.0666V73.04ZM102.578 80H100.858V70.84H95.8583V80H94.1383L94.1183 70.84H92.6783V69.46H94.1183V67.96C94.1183 67.24 94.3116 66.6067 94.6983 66.06C95.0849 65.5133 95.8316 65.24 96.9383 65.24C97.2049 65.24 97.4716 65.26 97.7383 65.3C98.0183 65.3267 98.2249 65.36 98.3583 65.4V66.6C98.0649 66.5333 97.7316 66.5 97.3583 66.5C96.8916 66.5 96.5449 66.5933 96.3183 66.78C96.1049 66.9533 95.9716 67.1667 95.9183 67.42C95.8783 67.66 95.8583 67.9733 95.8583 68.36V69.46H102.578V80ZM101.758 67.5C101.438 67.5 101.172 67.3933 100.958 67.18C100.745 66.9533 100.638 66.6867 100.638 66.38C100.638 66.0733 100.745 65.8133 100.958 65.6C101.172 65.3733 101.438 65.26 101.758 65.26C102.078 65.26 102.345 65.3733 102.558 65.6C102.772 65.8133 102.878 66.0733 102.878 66.38C102.878 66.6867 102.772 66.9533 102.558 67.18C102.345 67.3933 102.078 67.5 101.758 67.5ZM45.232 109.14C44.312 109.14 43.5586 108.913 42.972 108.46C42.3853 108.007 41.932 107.467 41.612 106.84H41.472V113.06H39.732V98.46H41.472V100.42H41.612C41.9053 99.8067 42.3386 99.28 42.912 98.84C43.4853 98.4 44.2386 98.18 45.172 98.18C46.1186 98.18 46.9253 98.42 47.592 98.9C48.272 99.3667 48.7853 100.02 49.132 100.86C49.4786 101.687 49.652 102.62 49.652 103.66C49.652 104.7 49.4786 105.633 49.132 106.46C48.7853 107.287 48.2786 107.94 47.612 108.42C46.9453 108.9 46.152 109.14 45.232 109.14ZM44.692 107.66C45.732 107.66 46.5186 107.28 47.052 106.52C47.5986 105.76 47.872 104.807 47.872 103.66C47.872 102.527 47.6053 101.58 47.072 100.82C46.5386 100.06 45.7453 99.68 44.692 99.68C43.652 99.68 42.8586 100.06 42.312 100.82C41.7786 101.58 41.512 102.527 41.512 103.66C41.512 104.793 41.7853 105.747 42.332 106.52C42.8786 107.28 43.6653 107.66 44.692 107.66ZM52.1134 98.46H53.8334V100.14H53.9534C54.1267 99.6733 54.4334 99.28 54.8734 98.96C55.3267 98.6267 55.8934 98.46 56.5734 98.46C56.7867 98.46 56.9534 98.4733 57.0734 98.5C57.2067 98.5133 57.3534 98.5467 57.5134 98.6L57.4534 100.28C57.24 100.213 57.0534 100.167 56.8934 100.14C56.7467 100.113 56.5534 100.1 56.3134 100.1C54.66 100.1 53.8334 101.08 53.8334 103.04V109H52.1134V98.46ZM63.5674 109.14C62.5008 109.14 61.5941 108.887 60.8474 108.38C60.1141 107.86 59.5608 107.187 59.1874 106.36C58.8141 105.52 58.6274 104.62 58.6274 103.66C58.6274 102.7 58.8141 101.807 59.1874 100.98C59.5608 100.14 60.1141 99.4667 60.8474 98.96C61.5941 98.44 62.5008 98.18 63.5674 98.18C64.6341 98.18 65.5341 98.44 66.2674 98.96C67.0141 99.4667 67.5674 100.14 67.9274 100.98C68.3008 101.82 68.4874 102.713 68.4874 103.66C68.4874 104.607 68.3008 105.5 67.9274 106.34C67.5541 107.18 66.9941 107.86 66.2474 108.38C65.5141 108.887 64.6208 109.14 63.5674 109.14ZM63.5674 107.66C64.2208 107.66 64.7874 107.48 65.2674 107.12C65.7608 106.76 66.1341 106.28 66.3874 105.68C66.6408 105.067 66.7674 104.387 66.7674 103.64C66.7674 102.493 66.4808 101.54 65.9074 100.78C65.3341 100.02 64.5541 99.64 63.5674 99.64C62.9008 99.64 62.3208 99.82 61.8274 100.18C61.3474 100.54 60.9808 101.027 60.7274 101.64C60.4741 102.24 60.3474 102.907 60.3474 103.64C60.3474 104.787 60.6341 105.747 61.2074 106.52C61.7808 107.28 62.5674 107.66 63.5674 107.66ZM73.822 99.84V105.96C73.822 106.453 73.842 106.82 73.882 107.06C73.9353 107.287 74.062 107.467 74.262 107.6C74.4753 107.733 74.8153 107.8 75.282 107.8C75.602 107.8 75.9486 107.753 76.322 107.66V108.9C76.2286 108.94 76.022 108.98 75.702 109.02C75.3953 109.06 75.0753 109.08 74.742 109.08C73.9686 109.08 73.3886 108.973 73.002 108.76C72.6286 108.533 72.382 108.233 72.262 107.86C72.1553 107.473 72.102 106.967 72.102 106.34V99.84H70.142V98.46H72.102V95H73.822V98.46H76.322V99.84H73.822ZM83.3135 109.14C82.2468 109.14 81.3402 108.887 80.5935 108.38C79.8602 107.86 79.3068 107.187 78.9335 106.36C78.5602 105.52 78.3735 104.62 78.3735 103.66C78.3735 102.7 78.5602 101.807 78.9335 100.98C79.3068 100.14 79.8602 99.4667 80.5935 98.96C81.3402 98.44 82.2468 98.18 83.3135 98.18C84.3802 98.18 85.2802 98.44 86.0135 98.96C86.7602 99.4667 87.3135 100.14 87.6735 100.98C88.0468 101.82 88.2335 102.713 88.2335 103.66C88.2335 104.607 88.0468 105.5 87.6735 106.34C87.3002 107.18 86.7402 107.86 85.9935 108.38C85.2602 108.887 84.3668 109.14 83.3135 109.14ZM83.3135 107.66C83.9668 107.66 84.5335 107.48 85.0135 107.12C85.5068 106.76 85.8802 106.28 86.1335 105.68C86.3868 105.067 86.5135 104.387 86.5135 103.64C86.5135 102.493 86.2268 101.54 85.6535 100.78C85.0802 100.02 84.3002 99.64 83.3135 99.64C82.6468 99.64 82.0668 99.82 81.5735 100.18C81.0935 100.54 80.7268 101.027 80.4735 101.64C80.2202 102.24 80.0935 102.907 80.0935 103.64C80.0935 104.787 80.3802 105.747 80.9535 106.52C81.5268 107.28 82.3135 107.66 83.3135 107.66ZM93.568 99.84V105.96C93.568 106.453 93.588 106.82 93.628 107.06C93.6814 107.287 93.808 107.467 94.008 107.6C94.2214 107.733 94.5614 107.8 95.028 107.8C95.348 107.8 95.6947 107.753 96.068 107.66V108.9C95.9747 108.94 95.768 108.98 95.448 109.02C95.1414 109.06 94.8214 109.08 94.488 109.08C93.7147 109.08 93.1347 108.973 92.748 108.76C92.3747 108.533 92.128 108.233 92.008 107.86C91.9014 107.473 91.848 106.967 91.848 106.34V99.84H89.888V98.46H91.848V95H93.568V98.46H96.068V99.84H93.568ZM102.168 110.46C101.954 110.967 101.748 111.38 101.548 111.7C101.361 112.033 101.048 112.347 100.608 112.64C100.168 112.933 99.5942 113.08 98.8876 113.08C98.5142 113.08 98.1142 113.027 97.6876 112.92V111.64C98.0076 111.693 98.2876 111.72 98.5276 111.72C98.9676 111.72 99.3209 111.633 99.5876 111.46C99.8542 111.3 100.061 111.087 100.208 110.82C100.368 110.553 100.554 110.167 100.768 109.66L101.248 108.48L97.3476 98.46H99.1476L102.088 106.58H102.208L105.288 98.46H107.088L102.168 110.46ZM114.626 109.14C113.706 109.14 112.953 108.913 112.366 108.46C111.78 108.007 111.326 107.467 111.006 106.84H110.866V113.06H109.126V98.46H110.866V100.42H111.006C111.3 99.8067 111.733 99.28 112.306 98.84C112.88 98.4 113.633 98.18 114.566 98.18C115.513 98.18 116.32 98.42 116.986 98.9C117.666 99.3667 118.18 100.02 118.526 100.86C118.873 101.687 119.046 102.62 119.046 103.66C119.046 104.7 118.873 105.633 118.526 106.46C118.18 107.287 117.673 107.94 117.006 108.42C116.34 108.9 115.546 109.14 114.626 109.14ZM114.086 107.66C115.126 107.66 115.913 107.28 116.446 106.52C116.993 105.76 117.266 104.807 117.266 103.66C117.266 102.527 117 101.58 116.466 100.82C115.933 100.06 115.14 99.68 114.086 99.68C113.046 99.68 112.253 100.06 111.706 100.82C111.173 101.58 110.906 102.527 110.906 103.66C110.906 104.793 111.18 105.747 111.726 106.52C112.273 107.28 113.06 107.66 114.086 107.66ZM126.028 109.14C124.948 109.14 124.035 108.88 123.288 108.36C122.555 107.84 122.008 107.16 121.648 106.32C121.288 105.48 121.108 104.593 121.108 103.66C121.108 102.713 121.288 101.827 121.648 101C122.008 100.16 122.561 99.48 123.308 98.96C124.055 98.44 124.968 98.18 126.048 98.18C127.461 98.18 128.588 98.6533 129.428 99.6C130.281 100.547 130.708 101.907 130.708 103.68V104.16H122.828V104.3C122.828 104.887 122.961 105.44 123.228 105.96C123.495 106.48 123.868 106.9 124.348 107.22C124.828 107.54 125.381 107.7 126.008 107.7C126.688 107.7 127.275 107.527 127.768 107.18C128.261 106.833 128.628 106.367 128.868 105.78H130.568C130.288 106.74 129.761 107.54 128.988 108.18C128.228 108.82 127.241 109.14 126.028 109.14ZM129.008 102.94C128.955 101.74 128.661 100.873 128.128 100.34C127.595 99.8067 126.895 99.54 126.028 99.54C125.081 99.54 124.328 99.8533 123.768 100.48C123.208 101.107 122.908 101.927 122.868 102.94H129.008Z" fill="black"/>
<path d="M203.268 140.46V142H196.168V140.46H199.008V130.06H198.928L196.128 132.7V130.64L198.928 128H200.628V140.46H203.268ZM211.471 138.54L205.031 138.52V136.96L210.991 128H213.171V137.14H215.171V138.54H213.171V142H211.471V138.54ZM211.471 137.12V130.06L206.691 137.12H211.471ZM171.94 171H170.2V169H170.08C169.8 169.613 169.366 170.133 168.78 170.56C168.206 170.973 167.5 171.18 166.66 171.18C165.78 171.18 165.046 170.967 164.46 170.54C163.873 170.113 163.44 169.56 163.16 168.88C162.893 168.2 162.76 167.46 162.76 166.66V160.46H164.48V166.44C164.48 167.467 164.74 168.26 165.26 168.82C165.78 169.367 166.46 169.64 167.3 169.64C168.18 169.64 168.88 169.347 169.4 168.76C169.933 168.16 170.2 167.387 170.2 166.44V160.46H171.94V171ZM178.391 171.14C177.538 171.14 176.798 170.973 176.171 170.64C175.544 170.293 175.064 169.853 174.731 169.32C174.411 168.787 174.251 168.227 174.251 167.64V167.54H175.971V167.62C175.971 167.953 176.064 168.287 176.251 168.62C176.438 168.94 176.718 169.207 177.091 169.42C177.464 169.62 177.918 169.72 178.451 169.72C179.091 169.72 179.618 169.567 180.031 169.26C180.458 168.94 180.671 168.507 180.671 167.96C180.671 167.507 180.504 167.147 180.171 166.88C179.851 166.613 179.444 166.44 178.951 166.36L177.571 166.16C176.704 166.027 175.978 165.733 175.391 165.28C174.804 164.813 174.511 164.14 174.511 163.26C174.511 162.287 174.858 161.533 175.551 161C176.258 160.453 177.158 160.18 178.251 160.18C179.064 160.18 179.758 160.333 180.331 160.64C180.918 160.933 181.364 161.327 181.671 161.82C181.978 162.3 182.131 162.827 182.131 163.4V163.48H180.411V163.44C180.411 163.173 180.338 162.893 180.191 162.6C180.058 162.307 179.824 162.053 179.491 161.84C179.158 161.627 178.731 161.52 178.211 161.52C177.571 161.52 177.058 161.68 176.671 162C176.284 162.307 176.091 162.713 176.091 163.22C176.091 163.633 176.244 163.973 176.551 164.24C176.858 164.507 177.244 164.68 177.711 164.76L179.211 165C180.091 165.147 180.831 165.453 181.431 165.92C182.031 166.373 182.331 167.047 182.331 167.94C182.331 168.58 182.158 169.14 181.811 169.62C181.478 170.1 181.011 170.473 180.411 170.74C179.811 171.007 179.138 171.14 178.391 171.14ZM189.153 171.14C188.073 171.14 187.16 170.88 186.413 170.36C185.68 169.84 185.133 169.16 184.773 168.32C184.413 167.48 184.233 166.593 184.233 165.66C184.233 164.713 184.413 163.827 184.773 163C185.133 162.16 185.686 161.48 186.433 160.96C187.18 160.44 188.093 160.18 189.173 160.18C190.586 160.18 191.713 160.653 192.553 161.6C193.406 162.547 193.833 163.907 193.833 165.68V166.16H185.953V166.3C185.953 166.887 186.086 167.44 186.353 167.96C186.62 168.48 186.993 168.9 187.473 169.22C187.953 169.54 188.506 169.7 189.133 169.7C189.813 169.7 190.4 169.527 190.893 169.18C191.386 168.833 191.753 168.367 191.993 167.78H193.693C193.413 168.74 192.886 169.54 192.113 170.18C191.353 170.82 190.366 171.14 189.153 171.14ZM192.133 164.94C192.08 163.74 191.786 162.873 191.253 162.34C190.72 161.807 190.02 161.54 189.153 161.54C188.206 161.54 187.453 161.853 186.893 162.48C186.333 163.107 186.033 163.927 185.993 164.94H192.133ZM196.293 160.46H198.013V162.14H198.133C198.306 161.673 198.613 161.28 199.053 160.96C199.506 160.627 200.073 160.46 200.753 160.46C200.966 160.46 201.133 160.473 201.253 160.5C201.386 160.513 201.533 160.547 201.693 160.6L201.633 162.28C201.42 162.213 201.233 162.167 201.073 162.14C200.926 162.113 200.733 162.1 200.493 162.1C198.84 162.1 198.013 163.08 198.013 165.04V171H196.293V160.46ZM210.853 161.84V167.96C210.853 168.453 210.873 168.82 210.913 169.06C210.967 169.287 211.093 169.467 211.293 169.6C211.507 169.733 211.847 169.8 212.313 169.8C212.633 169.8 212.98 169.753 213.353 169.66V170.9C213.26 170.94 213.053 170.98 212.733 171.02C212.427 171.06 212.107 171.08 211.773 171.08C211 171.08 210.42 170.973 210.033 170.76C209.66 170.533 209.413 170.233 209.293 169.86C209.187 169.473 209.133 168.967 209.133 168.34V161.84H207.173V160.46H209.133V157H210.853V160.46H213.353V161.84H210.853ZM220.325 171.14C219.245 171.14 218.331 170.88 217.585 170.36C216.851 169.84 216.305 169.16 215.945 168.32C215.585 167.48 215.405 166.593 215.405 165.66C215.405 164.713 215.585 163.827 215.945 163C216.305 162.16 216.858 161.48 217.605 160.96C218.351 160.44 219.265 160.18 220.345 160.18C221.758 160.18 222.885 160.653 223.725 161.6C224.578 162.547 225.005 163.907 225.005 165.68V166.16H217.125V166.3C217.125 166.887 217.258 167.44 217.525 167.96C217.791 168.48 218.165 168.9 218.645 169.22C219.125 169.54 219.678 169.7 220.305 169.7C220.985 169.7 221.571 169.527 222.065 169.18C222.558 168.833 222.925 168.367 223.165 167.78H224.865C224.585 168.74 224.058 169.54 223.285 170.18C222.525 170.82 221.538 171.14 220.325 171.14ZM223.305 164.94C223.251 163.74 222.958 162.873 222.425 162.34C221.891 161.807 221.191 161.54 220.325 161.54C219.378 161.54 218.625 161.853 218.065 162.48C217.505 163.107 217.205 163.927 217.165 164.94H223.305ZM231.145 171.14C230.292 171.14 229.552 170.973 228.925 170.64C228.298 170.293 227.818 169.853 227.485 169.32C227.165 168.787 227.005 168.227 227.005 167.64V167.54H228.725V167.62C228.725 167.953 228.818 168.287 229.005 168.62C229.192 168.94 229.472 169.207 229.845 169.42C230.218 169.62 230.672 169.72 231.205 169.72C231.845 169.72 232.372 169.567 232.785 169.26C233.212 168.94 233.425 168.507 233.425 167.96C233.425 167.507 233.258 167.147 232.925 166.88C232.605 166.613 232.198 166.44 231.705 166.36L230.325 166.16C229.458 166.027 228.732 165.733 228.145 165.28C227.558 164.813 227.265 164.14 227.265 163.26C227.265 162.287 227.612 161.533 228.305 161C229.012 160.453 229.912 160.18 231.005 160.18C231.818 160.18 232.512 160.333 233.085 160.64C233.672 160.933 234.118 161.327 234.425 161.82C234.732 162.3 234.885 162.827 234.885 163.4V163.48H233.165V163.44C233.165 163.173 233.092 162.893 232.945 162.6C232.812 162.307 232.578 162.053 232.245 161.84C231.912 161.627 231.485 161.52 230.965 161.52C230.325 161.52 229.812 161.68 229.425 162C229.038 162.307 228.845 162.713 228.845 163.22C228.845 163.633 228.998 163.973 229.305 164.24C229.612 164.507 229.998 164.68 230.465 164.76L231.965 165C232.845 165.147 233.585 165.453 234.185 165.92C234.785 166.373 235.085 167.047 235.085 167.94C235.085 168.58 234.912 169.14 234.565 169.62C234.232 170.1 233.765 170.473 233.165 170.74C232.565 171.007 231.892 171.14 231.145 171.14ZM240.287 161.84V167.96C240.287 168.453 240.307 168.82 240.347 169.06C240.4 169.287 240.527 169.467 240.727 169.6C240.94 169.733 241.28 169.8 241.747 169.8C242.067 169.8 242.413 169.753 242.787 169.66V170.9C242.693 170.94 242.487 170.98 242.167 171.02C241.86 171.06 241.54 171.08 241.207 171.08C240.433 171.08 239.853 170.973 239.467 170.76C239.093 170.533 238.847 170.233 238.727 169.86C238.62 169.473 238.567 168.967 238.567 168.34V161.84H236.607V160.46H238.567V157H240.287V160.46H242.787V161.84H240.287ZM248.918 171.14C248.065 171.14 247.325 170.973 246.698 170.64C246.072 170.293 245.592 169.853 245.258 169.32C244.938 168.787 244.778 168.227 244.778 167.64V167.54H246.498V167.62C246.498 167.953 246.592 168.287 246.778 168.62C246.965 168.94 247.245 169.207 247.618 169.42C247.992 169.62 248.445 169.72 248.978 169.72C249.618 169.72 250.145 169.567 250.558 169.26C250.985 168.94 251.198 168.507 251.198 167.96C251.198 167.507 251.032 167.147 250.698 166.88C250.378 166.613 249.972 166.44 249.478 166.36L248.098 166.16C247.232 166.027 246.505 165.733 245.918 165.28C245.332 164.813 245.038 164.14 245.038 163.26C245.038 162.287 245.385 161.533 246.078 161C246.785 160.453 247.685 160.18 248.778 160.18C249.592 160.18 250.285 160.333 250.858 160.64C251.445 160.933 251.892 161.327 252.198 161.82C252.505 162.3 252.658 162.827 252.658 163.4V163.48H250.938V163.44C250.938 163.173 250.865 162.893 250.718 162.6C250.585 162.307 250.352 162.053 250.018 161.84C249.685 161.627 249.258 161.52 248.738 161.52C248.098 161.52 247.585 161.68 247.198 162C246.812 162.307 246.618 162.713 246.618 163.22C246.618 163.633 246.772 163.973 247.078 164.24C247.385 164.507 247.772 164.68 248.238 164.76L249.738 165C250.618 165.147 251.358 165.453 251.958 165.92C252.558 166.373 252.858 167.047 252.858 167.94C252.858 168.58 252.685 169.14 252.338 169.62C252.005 170.1 251.538 170.473 250.938 170.74C250.338 171.007 249.665 171.14 248.918 171.14Z" fill="black"/>
<path d="M84.1278 197.5C83.6611 197.5 83.3145 197.593 83.0878 197.78C82.8745 197.953 82.7411 198.167 82.6878 198.42C82.6478 198.66 82.6278 198.973 82.6278 199.36V200.46H85.1278V201.84H82.6278V211H80.9078L80.8878 201.84H79.4478V200.46H80.8878V199.08C80.8878 197.187 81.8278 196.24 83.7078 196.24C83.9745 196.24 84.2411 196.26 84.5078 196.3C84.7878 196.327 84.9945 196.36 85.1278 196.4V197.6C84.8345 197.533 84.5011 197.5 84.1278 197.5ZM91.0494 211.14C89.9694 211.14 89.056 210.88 88.3094 210.36C87.576 209.84 87.0294 209.16 86.6694 208.32C86.3094 207.48 86.1294 206.593 86.1294 205.66C86.1294 204.713 86.3094 203.827 86.6694 203C87.0294 202.16 87.5827 201.48 88.3294 200.96C89.076 200.44 89.9894 200.18 91.0694 200.18C92.4827 200.18 93.6094 200.653 94.4494 201.6C95.3027 202.547 95.7294 203.907 95.7294 205.68V206.16H87.8494V206.3C87.8494 206.887 87.9827 207.44 88.2494 207.96C88.516 208.48 88.8894 208.9 89.3694 209.22C89.8494 209.54 90.4027 209.7 91.0294 209.7C91.7094 209.7 92.296 209.527 92.7894 209.18C93.2827 208.833 93.6494 208.367 93.8894 207.78H95.5894C95.3094 208.74 94.7827 209.54 94.0094 210.18C93.2494 210.82 92.2627 211.14 91.0494 211.14ZM94.0294 204.94C93.976 203.74 93.6827 202.873 93.1494 202.34C92.616 201.807 91.916 201.54 91.0494 201.54C90.1027 201.54 89.3494 201.853 88.7894 202.48C88.2294 203.107 87.9294 203.927 87.8894 204.94H94.0294ZM102.71 211.14C101.63 211.14 100.716 210.88 99.9695 210.36C99.2362 209.84 98.6895 209.16 98.3295 208.32C97.9695 207.48 97.7895 206.593 97.7895 205.66C97.7895 204.713 97.9695 203.827 98.3295 203C98.6895 202.16 99.2429 201.48 99.9895 200.96C100.736 200.44 101.65 200.18 102.73 200.18C104.143 200.18 105.27 200.653 106.11 201.6C106.963 202.547 107.39 203.907 107.39 205.68V206.16H99.5095V206.3C99.5095 206.887 99.6429 207.44 99.9095 207.96C100.176 208.48 100.55 208.9 101.03 209.22C101.51 209.54 102.063 209.7 102.69 209.7C103.37 209.7 103.956 209.527 104.45 209.18C104.943 208.833 105.31 208.367 105.55 207.78H107.25C106.97 208.74 106.443 209.54 105.67 210.18C104.91 210.82 103.923 211.14 102.71 211.14ZM105.69 204.94C105.636 203.74 105.343 202.873 104.81 202.34C104.276 201.807 103.576 201.54 102.71 201.54C101.763 201.54 101.01 201.853 100.45 202.48C99.8895 203.107 99.5895 203.927 99.5495 204.94H105.69ZM113.83 211.14C112.896 211.14 112.096 210.9 111.43 210.42C110.776 209.94 110.276 209.287 109.93 208.46C109.583 207.633 109.41 206.7 109.41 205.66C109.41 204.607 109.583 203.667 109.93 202.84C110.276 202.013 110.783 201.367 111.45 200.9C112.116 200.42 112.923 200.18 113.87 200.18C114.803 200.18 115.556 200.407 116.13 200.86C116.716 201.3 117.15 201.82 117.43 202.42H117.59V196H119.31V211H117.59V208.84H117.43C117.11 209.48 116.656 210.027 116.07 210.48C115.496 210.92 114.75 211.14 113.83 211.14ZM114.35 209.66C115.39 209.66 116.183 209.28 116.73 208.52C117.276 207.747 117.55 206.793 117.55 205.66C117.55 204.527 117.276 203.58 116.73 202.82C116.183 202.06 115.39 201.68 114.35 201.68C113.296 201.68 112.503 202.06 111.97 202.82C111.436 203.58 111.17 204.527 111.17 205.66C111.17 206.807 111.436 207.76 111.97 208.52C112.516 209.28 113.31 209.66 114.35 209.66ZM127.929 211.14C127.009 211.14 126.256 210.913 125.669 210.46C125.083 210.007 124.629 209.467 124.309 208.84H124.169V211H122.429V196H124.169V202.42H124.309C124.603 201.807 125.036 201.28 125.609 200.84C126.183 200.4 126.936 200.18 127.869 200.18C128.816 200.18 129.623 200.42 130.289 200.9C130.969 201.367 131.483 202.02 131.829 202.86C132.176 203.687 132.349 204.62 132.349 205.66C132.349 206.7 132.176 207.633 131.829 208.46C131.483 209.287 130.976 209.94 130.309 210.42C129.643 210.9 128.849 211.14 127.929 211.14ZM127.389 209.66C128.429 209.66 129.216 209.28 129.749 208.52C130.296 207.76 130.569 206.807 130.569 205.66C130.569 204.527 130.303 203.58 129.769 202.82C129.236 202.06 128.443 201.68 127.389 201.68C126.349 201.68 125.556 202.06 125.009 202.82C124.476 203.58 124.209 204.527 124.209 205.66C124.209 206.793 124.483 207.747 125.029 208.52C125.576 209.28 126.363 209.66 127.389 209.66ZM138.673 211.14C137.739 211.14 136.939 210.9 136.273 210.42C135.619 209.94 135.119 209.287 134.773 208.46C134.426 207.633 134.253 206.7 134.253 205.66C134.253 204.62 134.426 203.687 134.773 202.86C135.133 202.02 135.646 201.367 136.313 200.9C136.993 200.42 137.799 200.18 138.733 200.18C139.666 200.18 140.419 200.4 140.993 200.84C141.566 201.28 141.999 201.807 142.293 202.42H142.433V200.46H144.173V211H142.433V208.84H142.293C141.973 209.467 141.519 210.007 140.933 210.46C140.346 210.913 139.593 211.14 138.673 211.14ZM139.213 209.66C140.239 209.66 141.026 209.28 141.573 208.52C142.119 207.747 142.393 206.793 142.393 205.66C142.393 204.527 142.119 203.58 141.573 202.82C141.026 202.047 140.239 201.66 139.213 201.66C138.159 201.66 137.359 202.04 136.813 202.8C136.279 203.56 136.013 204.507 136.013 205.64C136.013 206.787 136.279 207.747 136.813 208.52C137.359 209.28 138.159 209.66 139.213 209.66ZM151.656 211.14C150.563 211.14 149.636 210.88 148.876 210.36C148.13 209.84 147.576 209.167 147.216 208.34C146.856 207.5 146.676 206.607 146.676 205.66C146.676 204.713 146.856 203.827 147.216 203C147.576 202.16 148.13 201.48 148.876 200.96C149.636 200.44 150.563 200.18 151.656 200.18C153.016 200.18 154.083 200.573 154.856 201.36C155.643 202.147 156.116 203.113 156.276 204.26H154.596C154.476 203.487 154.17 202.86 153.676 202.38C153.183 201.887 152.516 201.64 151.676 201.64C150.61 201.64 149.796 202.027 149.236 202.8C148.69 203.56 148.416 204.513 148.416 205.66C148.416 206.807 148.69 207.767 149.236 208.54C149.796 209.3 150.61 209.68 151.676 209.68C152.516 209.68 153.183 209.44 153.676 208.96C154.17 208.48 154.476 207.847 154.596 207.06H156.276C156.116 208.207 155.643 209.173 154.856 209.96C154.083 210.747 153.016 211.14 151.656 211.14ZM158.74 196.06H160.48V204.46H160.56L164.56 200.46H166.52L161.86 205.2L166.72 211H164.74L160.56 205.86H160.48V211H158.74V196.06ZM59.9916 229.46H61.7116V240H59.9916V229.46ZM60.8316 227.5C60.5116 227.5 60.2449 227.393 60.0316 227.18C59.8182 226.953 59.7116 226.687 59.7116 226.38C59.7116 226.073 59.8182 225.813 60.0316 225.6C60.2449 225.373 60.5116 225.26 60.8316 225.26C61.1516 225.26 61.4182 225.373 61.6316 225.6C61.8582 225.813 61.9716 226.073 61.9716 226.38C61.9716 226.687 61.8582 226.953 61.6316 227.18C61.4182 227.393 61.1516 227.5 60.8316 227.5ZM64.9102 229.46H66.6102V231.4H66.7702C66.7968 231.267 66.9302 231.027 67.1702 230.68C67.4102 230.32 67.7768 229.98 68.2702 229.66C68.7635 229.34 69.3768 229.18 70.1102 229.18C70.8835 229.18 71.5235 229.36 72.0302 229.72C72.5502 230.08 72.9368 230.467 73.1902 230.88C73.4435 231.293 73.5702 231.553 73.5702 231.66H73.7302C73.9168 231.193 74.2835 230.667 74.8302 230.08C75.3902 229.48 76.2435 229.18 77.3902 229.18C78.2435 229.18 78.9568 229.4 79.5302 229.84C80.1035 230.267 80.5235 230.82 80.7902 231.5C81.0702 232.18 81.2102 232.907 81.2102 233.68V240H79.5102V233.84C79.5102 232.827 79.2435 232.06 78.7102 231.54C78.1902 231.02 77.5435 230.76 76.7702 230.76C75.9702 230.76 75.2902 231.033 74.7302 231.58C74.1835 232.113 73.9102 232.867 73.9102 233.84V240H72.2102V233.84C72.2102 232.827 71.9435 232.06 71.4102 231.54C70.8902 231.02 70.2435 230.76 69.4702 230.76C68.6702 230.76 67.9902 231.033 67.4302 231.58C66.8835 232.113 66.6102 232.867 66.6102 233.84V240H64.9102V229.46ZM89.6089 240.14C88.6889 240.14 87.9356 239.913 87.3489 239.46C86.7622 239.007 86.3089 238.467 85.9889 237.84H85.8489V244.06H84.1089V229.46H85.8489V231.42H85.9889C86.2822 230.807 86.7156 230.28 87.2889 229.84C87.8622 229.4 88.6156 229.18 89.5489 229.18C90.4956 229.18 91.3022 229.42 91.9689 229.9C92.6489 230.367 93.1622 231.02 93.5089 231.86C93.8556 232.687 94.0289 233.62 94.0289 234.66C94.0289 235.7 93.8556 236.633 93.5089 237.46C93.1622 238.287 92.6556 238.94 91.9889 239.42C91.3222 239.9 90.5289 240.14 89.6089 240.14ZM89.0689 238.66C90.1089 238.66 90.8956 238.28 91.4289 237.52C91.9756 236.76 92.2489 235.807 92.2489 234.66C92.2489 233.527 91.9822 232.58 91.4489 231.82C90.9156 231.06 90.1222 230.68 89.0689 230.68C88.0289 230.68 87.2356 231.06 86.6889 231.82C86.1556 232.58 85.8889 233.527 85.8889 234.66C85.8889 235.793 86.1622 236.747 86.7089 237.52C87.2556 238.28 88.0422 238.66 89.0689 238.66ZM99.2703 240.08C98.4836 240.08 97.897 239.953 97.5103 239.7C97.1236 239.447 96.877 239.12 96.7703 238.72C96.677 238.307 96.6303 237.773 96.6303 237.12L96.6503 225H98.3703V236.86C98.3703 237.367 98.3903 237.747 98.4303 238C98.4836 238.24 98.6103 238.433 98.8103 238.58C99.0236 238.727 99.357 238.8 99.8103 238.8C100.09 238.8 100.337 238.78 100.55 238.74V239.98C100.19 240.047 99.7636 240.08 99.2703 240.08ZM107.299 240.14C106.219 240.14 105.306 239.88 104.559 239.36C103.826 238.84 103.279 238.16 102.919 237.32C102.559 236.48 102.379 235.593 102.379 234.66C102.379 233.713 102.559 232.827 102.919 232C103.279 231.16 103.833 230.48 104.579 229.96C105.326 229.44 106.239 229.18 107.319 229.18C108.733 229.18 109.859 229.653 110.699 230.6C111.553 231.547 111.979 232.907 111.979 234.68V235.16H104.099V235.3C104.099 235.887 104.233 236.44 104.499 236.96C104.766 237.48 105.139 237.9 105.619 238.22C106.099 238.54 106.653 238.7 107.279 238.7C107.959 238.7 108.546 238.527 109.039 238.18C109.533 237.833 109.899 237.367 110.139 236.78H111.839C111.559 237.74 111.033 238.54 110.259 239.18C109.499 239.82 108.513 240.14 107.299 240.14ZM110.279 233.94C110.226 232.74 109.933 231.873 109.399 231.34C108.866 230.807 108.166 230.54 107.299 230.54C106.353 230.54 105.599 230.853 105.039 231.48C104.479 232.107 104.179 232.927 104.139 233.94H110.279ZM114.52 229.46H116.22V231.4H116.38C116.406 231.267 116.54 231.027 116.78 230.68C117.02 230.32 117.386 229.98 117.88 229.66C118.373 229.34 118.986 229.18 119.72 229.18C120.493 229.18 121.133 229.36 121.64 229.72C122.16 230.08 122.546 230.467 122.8 230.88C123.053 231.293 123.18 231.553 123.18 231.66H123.34C123.526 231.193 123.893 230.667 124.44 230.08C125 229.48 125.853 229.18 127 229.18C127.853 229.18 128.566 229.4 129.14 229.84C129.713 230.267 130.133 230.82 130.4 231.5C130.68 232.18 130.82 232.907 130.82 233.68V240H129.12V233.84C129.12 232.827 128.853 232.06 128.32 231.54C127.8 231.02 127.153 230.76 126.38 230.76C125.58 230.76 124.9 231.033 124.34 231.58C123.793 232.113 123.52 232.867 123.52 233.84V240H121.82V233.84C121.82 232.827 121.553 232.06 121.02 231.54C120.5 231.02 119.853 230.76 119.08 230.76C118.28 230.76 117.6 231.033 117.04 231.58C116.493 232.113 116.22 232.867 116.22 233.84V240H114.52V229.46ZM138.178 240.14C137.098 240.14 136.185 239.88 135.438 239.36C134.705 238.84 134.158 238.16 133.798 237.32C133.438 236.48 133.258 235.593 133.258 234.66C133.258 233.713 133.438 232.827 133.798 232C134.158 231.16 134.712 230.48 135.458 229.96C136.205 229.44 137.118 229.18 138.198 229.18C139.612 229.18 140.738 229.653 141.578 230.6C142.432 231.547 142.858 232.907 142.858 234.68V235.16H134.978V235.3C134.978 235.887 135.112 236.44 135.378 236.96C135.645 237.48 136.018 237.9 136.498 238.22C136.978 238.54 137.532 238.7 138.158 238.7C138.838 238.7 139.425 238.527 139.918 238.18C140.412 237.833 140.778 237.367 141.018 236.78H142.718C142.438 237.74 141.912 238.54 141.138 239.18C140.378 239.82 139.392 240.14 138.178 240.14ZM141.158 233.94C141.105 232.74 140.812 231.873 140.278 231.34C139.745 230.807 139.045 230.54 138.178 230.54C137.232 230.54 136.478 230.853 135.918 231.48C135.358 232.107 135.058 232.927 135.018 233.94H141.158ZM145.398 229.46H147.118V231.36H147.278C147.545 230.747 147.978 230.233 148.578 229.82C149.178 229.393 149.912 229.18 150.778 229.18C151.672 229.18 152.418 229.393 153.018 229.82C153.618 230.233 154.058 230.787 154.338 231.48C154.632 232.16 154.778 232.9 154.778 233.7V240H153.058V233.92C153.058 232.88 152.785 232.087 152.238 231.54C151.705 230.993 151.005 230.72 150.138 230.72C149.218 230.72 148.485 231.02 147.938 231.62C147.392 232.207 147.118 232.973 147.118 233.92V240H145.398V229.46ZM160.074 230.84V236.96C160.074 237.453 160.094 237.82 160.134 238.06C160.187 238.287 160.314 238.467 160.514 238.6C160.727 238.733 161.067 238.8 161.534 238.8C161.854 238.8 162.201 238.753 162.574 238.66V239.9C162.481 239.94 162.274 239.98 161.954 240.02C161.647 240.06 161.327 240.08 160.994 240.08C160.221 240.08 159.641 239.973 159.254 239.76C158.881 239.533 158.634 239.233 158.514 238.86C158.407 238.473 158.354 237.967 158.354 237.34V230.84H156.394V229.46H158.354V226H160.074V229.46H162.574V230.84H160.074ZM169.545 240.14C168.465 240.14 167.552 239.88 166.805 239.36C166.072 238.84 165.525 238.16 165.165 237.32C164.805 236.48 164.625 235.593 164.625 234.66C164.625 233.713 164.805 232.827 165.165 232C165.525 231.16 166.079 230.48 166.825 229.96C167.572 229.44 168.485 229.18 169.565 229.18C170.979 229.18 172.105 229.653 172.945 230.6C173.799 231.547 174.225 232.907 174.225 234.68V235.16H166.345V235.3C166.345 235.887 166.479 236.44 166.745 236.96C167.012 237.48 167.385 237.9 167.865 238.22C168.345 238.54 168.899 238.7 169.525 238.7C170.205 238.7 170.792 238.527 171.285 238.18C171.779 237.833 172.145 237.367 172.385 236.78H174.085C173.805 237.74 173.279 238.54 172.505 239.18C171.745 239.82 170.759 240.14 169.545 240.14ZM172.525 233.94C172.472 232.74 172.179 231.873 171.645 231.34C171.112 230.807 170.412 230.54 169.545 230.54C168.599 230.54 167.845 230.853 167.285 231.48C166.725 232.107 166.425 232.927 166.385 233.94H172.525ZM180.666 240.14C179.732 240.14 178.932 239.9 178.266 239.42C177.612 238.94 177.112 238.287 176.766 237.46C176.419 236.633 176.246 235.7 176.246 234.66C176.246 233.607 176.419 232.667 176.766 231.84C177.112 231.013 177.619 230.367 178.286 229.9C178.952 229.42 179.759 229.18 180.706 229.18C181.639 229.18 182.392 229.407 182.966 229.86C183.552 230.3 183.986 230.82 184.266 231.42H184.426V225H186.146V240H184.426V237.84H184.266C183.946 238.48 183.492 239.027 182.906 239.48C182.332 239.92 181.586 240.14 180.666 240.14ZM181.186 238.66C182.226 238.66 183.019 238.28 183.566 237.52C184.112 236.747 184.386 235.793 184.386 234.66C184.386 233.527 184.112 232.58 183.566 231.82C183.019 231.06 182.226 230.68 181.186 230.68C180.132 230.68 179.339 231.06 178.806 231.82C178.272 232.58 178.006 233.527 178.006 234.66C178.006 235.807 178.272 236.76 178.806 237.52C179.352 238.28 180.146 238.66 181.186 238.66Z" fill="black"/>
</svg>
