<svg width="120" height="110" viewBox="0 0 120 110" fill="none" xmlns="http://www.w3.org/2000/svg">
<path fill-rule="evenodd" clip-rule="evenodd" d="M65.6558 2.33503C64.1556 0.83991 62.1212 0 60 0C57.8788 0 55.8444 0.83991 54.3442 2.33503L1.17018 55.3381C0.420178 56.0868 -0.000749117 57.102 1.00085e-06 58.1601C0.000751119 59.2183 0.423117 60.2328 1.17418 60.9805C1.92525 61.7282 2.94349 62.1479 4.00491 62.1471C5.06632 62.1464 6.08397 61.7253 6.83397 60.9765L60 7.97348L113.166 60.9765C113.916 61.7253 114.934 62.1464 115.995 62.1471C117.057 62.1479 118.075 61.7282 118.826 60.9805C119.577 60.2328 119.999 59.2183 120 58.1601C120.001 57.102 119.58 56.0868 118.83 55.3381L99.9985 36.5725V10.3102C99.9985 9.25263 99.5771 8.23837 98.827 7.49056C98.0769 6.74274 97.0595 6.32262 95.9987 6.32262H87.999C86.9381 6.32262 85.9208 6.74274 85.1706 7.49056C84.4205 8.23837 83.9991 9.25263 83.9991 10.3102V20.6221L65.6558 2.33503Z" fill="#A71BA7"/>
<path fill-rule="evenodd" clip-rule="evenodd" d="M59.9997 16.6343L107.998 64.4854V98.037C107.998 101.21 106.734 104.252 104.483 106.496C102.233 108.739 99.1808 110 95.9983 110H24.001C20.8185 110 17.7664 108.739 15.5161 106.496C13.2657 104.252 12.0015 101.21 12.0015 98.037V64.4854L59.9997 16.6343V16.6343ZM59.9997 58.0175C73.3112 44.675 106.598 68.0184 59.9997 98.037C13.4014 68.0184 46.6882 44.675 59.9997 58.0175Z" fill="#A71BA7"/>
</svg>
