<svg width="102" height="100" viewBox="0 0 102 100" fill="none" xmlns="http://www.w3.org/2000/svg">
<path fill-rule="evenodd" clip-rule="evenodd" d="M70.125 93.75C76.888 93.75 83.374 91.1161 88.1562 86.4277C92.9384 81.7393 95.625 75.3804 95.625 68.75C95.625 62.1196 92.9384 55.7607 88.1562 51.0723C83.374 46.3839 76.888 43.75 70.125 43.75C63.362 43.75 56.876 46.3839 52.0938 51.0723C47.3116 55.7607 44.625 62.1196 44.625 68.75C44.625 75.3804 47.3116 81.7393 52.0938 86.4277C56.876 91.1161 63.362 93.75 70.125 93.75V93.75ZM102 68.75C102 77.038 98.6418 84.9866 92.664 90.8471C86.6863 96.7076 78.5788 100 70.125 100C61.6712 100 53.5637 96.7076 47.586 90.8471C41.6082 84.9866 38.25 77.038 38.25 68.75C38.25 60.462 41.6082 52.5134 47.586 46.6529C53.5637 40.7924 61.6712 37.5 70.125 37.5C78.5788 37.5 86.6863 40.7924 92.664 46.6529C98.6418 52.5134 102 60.462 102 68.75V68.75Z" fill="#3D3D3D"/>
<path d="M60.1665 74.65C60.4662 78.375 63.4688 81.275 68.8556 81.625V84.375H71.2463V81.6063C76.8244 81.225 80.082 78.3 80.082 74.0625C80.082 70.2 77.5958 68.2125 73.1333 67.1875L71.2463 66.75V59.25C73.6433 59.5187 75.1605 60.8 75.5239 62.575H79.7186C79.419 58.9813 76.2761 56.175 71.2463 55.8688V53.125H68.8556V55.9375C64.0935 56.3937 60.855 59.2 60.855 63.175C60.855 66.6875 63.2648 68.925 67.2747 69.8375L68.8556 70.2187V78.1687C66.4077 77.8062 64.782 76.4813 64.4187 74.65H60.1602H60.1665ZM68.8365 66.1875C66.4842 65.6563 65.2092 64.5625 65.2092 62.925C65.2092 61.0875 66.5862 59.7125 68.8556 59.3125V66.1875H68.8365V66.1875ZM71.5905 70.85C74.4529 71.5 75.7662 72.55 75.7662 74.4062C75.7662 76.525 74.1278 77.975 71.2463 78.2438V70.775L71.5905 70.85V70.85Z" fill="#3D3D3D"/>
<path d="M6.375 0C4.68424 0 3.06274 0.65848 1.86719 1.83058C0.67165 3.00269 0 4.5924 0 6.25L0 56.25C0 57.9076 0.67165 59.4973 1.86719 60.6694C3.06274 61.8415 4.68424 62.5 6.375 62.5H32.4041C32.7739 60.35 33.3285 58.2625 34.0489 56.25H19.125C19.125 52.9348 17.7817 49.7554 15.3906 47.4112C12.9995 45.067 9.75651 43.75 6.375 43.75V18.75C9.75651 18.75 12.9995 17.433 15.3906 15.0888C17.7817 12.7446 19.125 9.56521 19.125 6.25H82.875C82.875 9.56521 84.2183 12.7446 86.6094 15.0888C89.0005 17.433 92.2435 18.75 95.625 18.75V40.8C98.0475 42.925 100.196 45.35 102 48.0125V6.25C102 4.5924 101.328 3.00269 100.133 1.83058C98.9373 0.65848 97.3158 0 95.625 0L6.375 0Z" fill="#3D3D3D"/>
<path d="M63.7373 31.7688L63.75 31.25C63.7487 29.0975 63.1804 26.9817 62.1002 25.1077C61.02 23.2337 59.4645 21.6649 57.5843 20.5532C55.7042 19.4416 53.5631 18.8249 51.3684 18.7627C49.1737 18.7005 46.9998 19.195 45.0573 20.1983C43.1148 21.2016 41.4694 22.6797 40.2806 24.4894C39.0918 26.2991 38.3999 28.3791 38.2717 30.528C38.1436 32.6769 38.5837 34.8218 39.5493 36.755C40.515 38.6882 41.9734 40.3442 43.7835 41.5625C49.29 36.4205 56.2388 33.0098 63.7373 31.7688V31.7688Z" fill="#3D3D3D"/>
</svg>
