<svg width="101" height="122" viewBox="0 0 101 122" fill="none" xmlns="http://www.w3.org/2000/svg">
<path d="M89.2165 45.1849L50.4998 94.9088L11.699 45.2261L12.0778 44.896C12.9615 44.0294 14.0136 43.3279 15.0657 42.7502L45.1553 81.2502L36.1073 53.6441L38.8848 48.7336L50.4998 84.0975L61.9886 48.6924L64.8082 53.6441L55.8444 81.2502L85.8919 42.709C86.944 43.3279 87.954 43.9056 88.7957 44.7722L89.2165 45.1849V45.1849ZM21.0415 37.1382C27.354 37.1382 32.8669 40.687 35.7707 45.8038C37.1956 43.1872 39.3184 40.999 41.9125 39.4728C44.5066 37.9466 47.4746 37.1397 50.4998 37.1382C56.8123 37.1382 62.2832 40.6457 65.229 45.7626C66.6451 43.1418 68.7671 40.952 71.364 39.4314C73.961 37.9108 76.9335 37.1176 79.9582 37.1382C84.5453 37.1382 88.7536 38.8714 91.7836 41.8424C88.1223 22.6956 71.0365 8.25293 50.4998 8.25293C29.8369 8.25293 12.7511 22.6956 9.08984 41.9662C12.1619 38.9951 16.3703 37.1382 21.0415 37.1382Z" fill="#A71BA7"/>
<g clip-path="url(#clip0_1039_70)">
<path d="M54.571 97.2188H46.7948L43.9151 92.9821C43.4838 92.3483 43.9455 91.5 44.7231 91.5H56.6427C57.4203 91.5 57.882 92.3483 57.4507 92.9821L54.571 97.2188ZM46.7948 99.125H54.571C54.8019 99.2739 55.0631 99.4407 55.3061 99.6254C58.8055 101.788 66.2354 106.446 66.2354 116.281C66.2354 119.438 63.6231 122 60.4032 122H40.9626C37.7415 122 35.1304 119.438 35.1304 116.281C35.1304 106.446 42.5604 101.788 46.005 99.6254C46.3027 99.4407 46.5639 99.2739 46.7948 99.125V99.125ZM51.904 104.844C51.904 104.183 51.3573 103.646 50.6282 103.646C50.0086 103.646 49.4618 104.183 49.4618 104.844V105.201C49.1216 105.273 48.7449 105.374 48.4958 105.505C47.5906 105.91 46.8008 106.661 46.6064 107.751C46.4971 108.358 46.5578 108.948 46.813 109.478C47.0682 110.003 47.463 110.372 47.864 110.64C48.5687 111.111 49.4982 111.385 50.209 111.593L50.3427 111.629C51.1932 111.885 51.7643 112.07 52.1227 112.326C52.2746 112.433 52.3293 112.516 52.3475 112.57C52.3718 112.618 52.4083 112.725 52.3657 112.963C52.3293 113.172 52.2139 113.35 51.8797 113.487C51.5091 113.642 50.9077 113.72 50.1301 113.601C49.7656 113.541 49.1155 113.327 48.5384 113.136C48.4047 113.088 48.271 113.047 48.1495 113.005C47.5116 112.796 46.8251 113.136 46.6125 113.761C46.3999 114.387 46.7462 115.06 47.3841 115.215C47.457 115.292 47.5481 115.322 47.6514 115.358C48.0766 115.519 48.8846 115.769 49.4618 115.9V116.281C49.4618 116.942 50.0086 117.479 50.6282 117.479C51.3573 117.479 51.904 116.942 51.904 116.281V115.954C52.226 115.894 52.5419 115.751 52.8335 115.68C53.7934 115.28 54.5589 114.506 54.7594 113.374C54.8687 112.755 54.8201 112.159 54.5771 111.617C54.3402 111.081 53.9574 110.688 53.5504 110.402C52.8153 109.871 51.8311 109.586 51.096 109.365L50.9927 109.353C50.1847 109.097 49.6015 108.918 49.2309 108.668C49.073 108.561 49.0244 108.489 49.0122 108.46C49.0001 108.436 48.9636 108.364 49.0001 108.162C49.0244 108.043 49.1155 107.846 49.4982 107.679C49.8385 107.507 50.4946 107.411 51.2358 107.471C51.5031 107.566 52.3232 107.721 52.5601 107.781C53.2041 107.953 53.8724 107.572 54.0425 106.935C54.2187 106.303 53.8299 105.648 53.1798 105.481C52.9125 105.41 52.305 105.291 51.904 105.219V104.844V104.844Z" fill="#A71BA7"/>
</g>
<defs>
<clipPath id="clip0_1039_70">
<rect width="31.1051" height="30.5" fill="white" transform="translate(35.1304 91.5)"/>
</clipPath>
</defs>
</svg>
