<svg width="259" height="111" viewBox="0 0 259 111" fill="none" xmlns="http://www.w3.org/2000/svg">
<rect x="100" y="18" width="99" height="67" fill="#C4C4C4"/>
<path d="M258.806 51.5609L199.02 85.2467L198.982 17.9184L258.806 51.5609Z" fill="#C4C4C4"/>
<rect x="4" y="17.8469" width="96" height="67.3874" fill="#C4C4C4" fill-opacity="0.39"/>
<line y1="-0.5" x2="56.8165" y2="-0.5" transform="matrix(0.348094 -0.93746 0.972524 0.232803 1 68.3234)" stroke="#A71BA7"/>
<line y1="-0.5" x2="53.7371" y2="-0.5" transform="matrix(0.299033 0.954243 -0.980197 0.198024 19.541 15.0601)" stroke="#A71BA7"/>
<line y1="-0.5" x2="22.7956" y2="-0.5" transform="matrix(0.370538 -0.928818 0.968483 0.249079 36.8467 65.8422)" stroke="#A71BA7"/>
<line y1="-0.5" x2="17.6842" y2="-0.5" transform="matrix(0.267942 0.963435 -0.984304 0.176479 43.8506 44.6691)" stroke="#A71BA7"/>
<line y1="-0.5" x2="42.9905" y2="-0.5" transform="matrix(0.172516 -0.985007 0.993686 0.112198 49.8252 62.0376)" stroke="#A71BA7"/>
<line y1="-0.5" x2="41.3342" y2="-0.5" transform="matrix(0.249207 0.96845 -0.986517 0.163656 56.418 19.6918)" stroke="#A71BA7"/>
<line y1="-0.5" x2="10.2857" y2="-0.5" transform="matrix(0.360527 -0.932749 0.970329 0.241788 68.1611 59.7219)" stroke="#A71BA7"/>
<line y1="-0.5" x2="20.7896" y2="-0.5" transform="matrix(0.297287 0.954788 -0.980443 0.196804 70.4277 50.1278)" stroke="#A71BA7"/>
<line y1="-0.5" x2="64.6537" y2="-0.5" transform="matrix(0.140203 -0.990123 0.995859 0.09091 78.0508 69.6467)" stroke="#A71BA7"/>
<line y1="-0.5" x2="50.5248" y2="-0.5" transform="matrix(0.313968 0.949434 -0.978022 0.208503 85.8779 6.29321)" stroke="#A71BA7"/>
<line y1="-0.5" x2="18.665" y2="-0.5" transform="matrix(0.408387 -0.912809 0.960832 0.27713 102.772 54.7594)" stroke="#A71BA7"/>
<line y1="-0.5" x2="36.5703" y2="-0.5" transform="matrix(0.29857 0.954388 -0.980262 0.1977 109.158 37.8873)" stroke="#A71BA7"/>
<line y1="-0.5" x2="72.7436" y2="-0.5" transform="matrix(0.161428 -0.986884 0.994486 0.104871 121.312 72.7897)" stroke="#A71BA7" stroke-dasharray="14 14"/>
<line y1="-0.5" x2="99.0535" y2="-0.5" transform="matrix(0.189265 0.981926 -0.992368 0.123313 131.613 1)" stroke="#A71BA7" stroke-dasharray="14 14"/>
<line y1="-0.5" x2="37.1808" y2="-0.5" transform="matrix(0.205014 -0.978759 0.991005 0.133822 151.598 98.4286)" stroke="#A71BA7" stroke-dasharray="14 14"/>
<line y1="-0.5" x2="23.9765" y2="-0.5" transform="matrix(0.283548 0.958958 -0.982312 0.18725 158.19 61.7068)" stroke="#A71BA7" stroke-dasharray="14 14"/>
<line y1="-0.5" x2="53.6406" y2="-0.5" transform="matrix(0.195874 -0.980629 0.991811 0.127716 166.431 84.6995)" stroke="#A71BA7" stroke-dasharray="14 14"/>
<line y1="-0.5" x2="81.8338" y2="-0.5" transform="matrix(0.299581 0.954071 -0.98012 0.198407 175.906 32.9247)" stroke="#A71BA7" stroke-dasharray="14 14"/>
<path d="M72.445 83V79.45H73.915C74.0683 79.45 74.2083 79.4817 74.335 79.545C74.465 79.6083 74.5767 79.695 74.67 79.805C74.7633 79.9117 74.8367 80.0317 74.89 80.165C74.9433 80.295 74.97 80.4283 74.97 80.565C74.97 80.7583 74.9267 80.9417 74.84 81.115C74.7567 81.285 74.6383 81.4233 74.485 81.53C74.3317 81.6367 74.1517 81.69 73.945 81.69H72.795V83H72.445ZM72.795 81.38H73.93C74.07 81.38 74.1917 81.3417 74.295 81.265C74.3983 81.1883 74.4783 81.0883 74.535 80.965C74.5917 80.8417 74.62 80.7083 74.62 80.565C74.62 80.4183 74.5867 80.2833 74.52 80.16C74.4533 80.0367 74.365 79.94 74.255 79.87C74.1483 79.7967 74.03 79.76 73.9 79.76H72.795V81.38ZM75.2461 82.25C75.2461 82.0867 75.2927 81.9467 75.3861 81.83C75.4794 81.71 75.6077 81.6183 75.7711 81.555C75.9377 81.4883 76.1294 81.455 76.3461 81.455C76.4727 81.455 76.6044 81.465 76.7411 81.485C76.8777 81.505 76.9994 81.535 77.1061 81.575V81.355C77.1061 81.135 77.0411 80.96 76.9111 80.83C76.7811 80.7 76.6011 80.635 76.3711 80.635C76.2311 80.635 76.0927 80.6617 75.9561 80.715C75.8227 80.765 75.6827 80.84 75.5361 80.94L75.4061 80.7C75.5761 80.5833 75.7427 80.4967 75.9061 80.44C76.0694 80.38 76.2361 80.35 76.4061 80.35C76.7261 80.35 76.9794 80.4417 77.1661 80.625C77.3527 80.8083 77.4461 81.0617 77.4461 81.385V82.59C77.4461 82.6367 77.4561 82.6717 77.4761 82.695C77.4961 82.715 77.5277 82.7267 77.5711 82.73V83C77.5344 83.0033 77.5027 83.0067 77.4761 83.01C77.4494 83.0133 77.4294 83.0133 77.4161 83.01C77.3327 83.0067 77.2694 82.98 77.2261 82.93C77.1827 82.88 77.1594 82.8267 77.1561 82.77L77.1511 82.58C77.0344 82.73 76.8827 82.8467 76.6961 82.93C76.5094 83.01 76.3194 83.05 76.1261 83.05C75.9594 83.05 75.8077 83.015 75.6711 82.945C75.5377 82.8717 75.4327 82.775 75.3561 82.655C75.2827 82.5317 75.2461 82.3967 75.2461 82.25ZM76.9911 82.45C77.0277 82.4033 77.0561 82.3583 77.0761 82.315C77.0961 82.2717 77.1061 82.2333 77.1061 82.2V81.82C76.9927 81.7767 76.8744 81.7433 76.7511 81.72C76.6311 81.6967 76.5094 81.685 76.3861 81.685C76.1427 81.685 75.9461 81.7333 75.7961 81.83C75.6461 81.9267 75.5711 82.0583 75.5711 82.225C75.5711 82.3217 75.5961 82.4133 75.6461 82.5C75.6961 82.5833 75.7694 82.6533 75.8661 82.71C75.9627 82.7633 76.0761 82.79 76.2061 82.79C76.3694 82.79 76.5211 82.7583 76.6611 82.695C76.8044 82.6317 76.9144 82.55 76.9911 82.45ZM79.0357 83.05C78.8223 83.05 78.624 83.015 78.4407 82.945C78.2573 82.875 78.099 82.7683 77.9657 82.625L78.1057 82.385C78.2523 82.5217 78.399 82.6217 78.5457 82.685C78.6957 82.745 78.854 82.775 79.0207 82.775C79.224 82.775 79.389 82.735 79.5157 82.655C79.6423 82.5717 79.7057 82.4533 79.7057 82.3C79.7057 82.1967 79.674 82.1183 79.6107 82.065C79.5507 82.0083 79.4623 81.9633 79.3457 81.93C79.2323 81.8933 79.0957 81.855 78.9357 81.815C78.7557 81.765 78.604 81.7133 78.4807 81.66C78.3607 81.6033 78.269 81.5333 78.2057 81.45C78.1457 81.3633 78.1157 81.2517 78.1157 81.115C78.1157 80.945 78.1573 80.805 78.2407 80.695C78.3273 80.5817 78.444 80.4967 78.5907 80.44C78.7407 80.38 78.9073 80.35 79.0907 80.35C79.2907 80.35 79.4673 80.3817 79.6207 80.445C79.774 80.5083 79.899 80.5967 79.9957 80.71L79.8307 80.94C79.7373 80.8333 79.6257 80.755 79.4957 80.705C79.369 80.6517 79.2273 80.625 79.0707 80.625C78.964 80.625 78.8623 80.64 78.7657 80.67C78.669 80.6967 78.589 80.7433 78.5257 80.81C78.4657 80.8733 78.4357 80.9617 78.4357 81.075C78.4357 81.1683 78.459 81.2417 78.5057 81.295C78.5523 81.345 78.6223 81.3883 78.7157 81.425C78.809 81.4583 78.924 81.495 79.0607 81.535C79.2573 81.5883 79.429 81.6433 79.5757 81.7C79.7223 81.7533 79.8357 81.8233 79.9157 81.91C79.9957 81.9967 80.0357 82.1183 80.0357 82.275C80.0357 82.5183 79.944 82.7083 79.7607 82.845C79.5773 82.9817 79.3357 83.05 79.0357 83.05ZM81.8477 82.875C81.821 82.885 81.7793 82.9033 81.7227 82.93C81.666 82.9567 81.5977 82.98 81.5177 83C81.4377 83.02 81.351 83.03 81.2577 83.03C81.161 83.03 81.0693 83.0117 80.9827 82.975C80.8993 82.9383 80.8327 82.8833 80.7827 82.81C80.7327 82.7333 80.7077 82.64 80.7077 82.53V80.665H80.3477V80.395H80.7077V79.515H81.0477V80.395H81.6477V80.665H81.0477V82.435C81.0543 82.5283 81.0877 82.5983 81.1477 82.645C81.211 82.6917 81.2827 82.715 81.3627 82.715C81.456 82.715 81.541 82.7 81.6177 82.67C81.6943 82.6367 81.741 82.6133 81.7577 82.6L81.8477 82.875Z" fill="black"/>
<path d="M108.445 83V79.45H110.775V79.76H108.795V81.065H110.465V81.355H108.795V83H108.445ZM111.128 81.925V80.395H111.468V81.865C111.468 82.1617 111.518 82.3833 111.618 82.53C111.722 82.6767 111.873 82.75 112.073 82.75C112.207 82.75 112.335 82.7217 112.458 82.665C112.585 82.605 112.697 82.5217 112.793 82.415C112.89 82.305 112.963 82.1783 113.013 82.035V80.395H113.353V82.59C113.353 82.6367 113.363 82.6717 113.383 82.695C113.403 82.715 113.433 82.7267 113.473 82.73V83C113.433 83.0033 113.402 83.005 113.378 83.005C113.355 83.0083 113.333 83.01 113.313 83.01C113.247 83.0033 113.188 82.9767 113.138 82.93C113.092 82.8833 113.067 82.8267 113.063 82.76L113.053 82.41C112.94 82.61 112.785 82.7667 112.588 82.88C112.395 82.9933 112.185 83.05 111.958 83.05C111.685 83.05 111.478 82.955 111.338 82.765C111.198 82.575 111.128 82.295 111.128 81.925ZM115.372 82.875C115.345 82.885 115.304 82.9033 115.247 82.93C115.19 82.9567 115.122 82.98 115.042 83C114.962 83.02 114.875 83.03 114.782 83.03C114.685 83.03 114.594 83.0117 114.507 82.975C114.424 82.9383 114.357 82.8833 114.307 82.81C114.257 82.7333 114.232 82.64 114.232 82.53V80.665H113.872V80.395H114.232V79.515H114.572V80.395H115.172V80.665H114.572V82.435C114.579 82.5283 114.612 82.5983 114.672 82.645C114.735 82.6917 114.807 82.715 114.887 82.715C114.98 82.715 115.065 82.7 115.142 82.67C115.219 82.6367 115.265 82.6133 115.282 82.6L115.372 82.875ZM115.772 81.925V80.395H116.112V81.865C116.112 82.1617 116.162 82.3833 116.262 82.53C116.365 82.6767 116.517 82.75 116.717 82.75C116.85 82.75 116.979 82.7217 117.102 82.665C117.229 82.605 117.34 82.5217 117.437 82.415C117.534 82.305 117.607 82.1783 117.657 82.035V80.395H117.997V82.59C117.997 82.6367 118.007 82.6717 118.027 82.695C118.047 82.715 118.077 82.7267 118.117 82.73V83C118.077 83.0033 118.045 83.005 118.022 83.005C117.999 83.0083 117.977 83.01 117.957 83.01C117.89 83.0033 117.832 82.9767 117.782 82.93C117.735 82.8833 117.71 82.8267 117.707 82.76L117.697 82.41C117.584 82.61 117.429 82.7667 117.232 82.88C117.039 82.9933 116.829 83.05 116.602 83.05C116.329 83.05 116.122 82.955 115.982 82.765C115.842 82.575 115.772 82.295 115.772 81.925ZM120.066 80.695C119.839 80.7017 119.639 80.765 119.466 80.885C119.296 81.005 119.176 81.17 119.106 81.38V83H118.766V80.395H119.086V81.02C119.176 80.8367 119.294 80.6883 119.441 80.575C119.591 80.4617 119.749 80.3983 119.916 80.385C119.949 80.3817 119.977 80.38 120.001 80.38C120.027 80.38 120.049 80.3817 120.066 80.385V80.695ZM121.561 83.05C121.374 83.05 121.201 83.015 121.041 82.945C120.881 82.8717 120.742 82.7733 120.626 82.65C120.509 82.5233 120.417 82.3783 120.351 82.215C120.287 82.0517 120.256 81.8767 120.256 81.69C120.256 81.4467 120.311 81.2233 120.421 81.02C120.534 80.8167 120.689 80.655 120.886 80.535C121.082 80.4117 121.306 80.35 121.556 80.35C121.812 80.35 122.036 80.4117 122.226 80.535C122.419 80.6583 122.571 80.8217 122.681 81.025C122.791 81.225 122.846 81.445 122.846 81.685C122.846 81.7117 122.846 81.7383 122.846 81.765C122.846 81.7883 122.844 81.8067 122.841 81.82H120.611C120.627 82.0067 120.679 82.1733 120.766 82.32C120.856 82.4633 120.971 82.5783 121.111 82.665C121.254 82.7483 121.409 82.79 121.576 82.79C121.746 82.79 121.906 82.7467 122.056 82.66C122.209 82.5733 122.316 82.46 122.376 82.32L122.671 82.4C122.617 82.5233 122.536 82.635 122.426 82.735C122.316 82.835 122.186 82.9133 122.036 82.97C121.889 83.0233 121.731 83.05 121.561 83.05ZM120.601 81.575H122.526C122.512 81.385 122.461 81.2183 122.371 81.075C122.284 80.9317 122.169 80.82 122.026 80.74C121.886 80.6567 121.731 80.615 121.561 80.615C121.391 80.615 121.236 80.6567 121.096 80.74C120.956 80.82 120.841 80.9333 120.751 81.08C120.664 81.2233 120.614 81.3883 120.601 81.575Z" fill="black"/>
</svg>
