<svg width="52" height="52" viewBox="0 0 52 52" fill="none" xmlns="http://www.w3.org/2000/svg">
<path fill-rule="evenodd" clip-rule="evenodd" d="M26.0001 2.16602C12.8376 2.16602 2.16675 12.8369 2.16675 25.9993C2.16675 39.1618 12.8376 49.8327 26.0001 49.8327C39.1626 49.8327 49.8334 39.1618 49.8334 25.9993C49.8334 12.8369 39.1626 2.16602 26.0001 2.16602ZM28.1667 34.666C28.1667 35.2407 27.9385 35.7918 27.5321 36.1981C27.1258 36.6044 26.5747 36.8327 26.0001 36.8327C25.4254 36.8327 24.8743 36.6044 24.468 36.1981C24.0617 35.7918 23.8334 35.2407 23.8334 34.666V28.166H17.3334C16.7588 28.166 16.2077 27.9377 15.8014 27.5314C15.395 27.1251 15.1667 26.574 15.1667 25.9993C15.1667 25.4247 15.395 24.8736 15.8014 24.4673C16.2077 24.061 16.7588 23.8327 17.3334 23.8327H23.8334V17.3327C23.8334 16.758 24.0617 16.2069 24.468 15.8006C24.8743 15.3943 25.4254 15.166 26.0001 15.166C26.5747 15.166 27.1258 15.3943 27.5321 15.8006C27.9385 16.2069 28.1667 16.758 28.1667 17.3327V23.8327H34.6667C35.2414 23.8327 35.7925 24.061 36.1988 24.4673C36.6051 24.8736 36.8334 25.4247 36.8334 25.9993C36.8334 26.574 36.6051 27.1251 36.1988 27.5314C35.7925 27.9377 35.2414 28.166 34.6667 28.166H28.1667V34.666Z" fill="#A71BA7"/>
</svg>
