<svg width="40" height="60" viewBox="0 0 40 60" fill="none" xmlns="http://www.w3.org/2000/svg">
<path d="M18.2 0.0686275C6.6 0.768628 0.5 7.36863 0 19.2686H11.7C11.8 15.1686 14.2 12.0686 18.4 11.5686C22.6 11.1686 26.6 12.1686 27.8 14.9686C29.1 18.0686 26.2 21.6686 24.8 23.1686C22.2 25.9686 18 28.0686 15.8 31.0686C13.7 34.0686 13.3 37.9686 13.1 42.7686H23.4C23.5 39.6686 23.7 36.7686 25.1 34.8686C27.4 31.7686 30.8 30.3686 33.6 27.8686C36.3 25.5686 39.2 22.7686 39.6 18.3686C41.3 5.46863 30.7 -0.731372 18.2 0.0686275Z" fill="#A71BA7"/>
<path d="M18.5 59.9687C22.0899 59.9687 25 57.1033 25 53.5687C25 50.0341 22.0899 47.1687 18.5 47.1687C14.9101 47.1687 12 50.0341 12 53.5687C12 57.1033 14.9101 59.9687 18.5 59.9687Z" fill="#A71BA7"/>
</svg>
