<svg width="131" height="35" viewBox="0 0 131 35" fill="none" xmlns="http://www.w3.org/2000/svg">
<path d="M55.0443 10.5924C57.1396 10.5924 59.0535 11.3306 60.5229 12.5493C61.0444 12.9817 61.829 12.4707 61.5932 11.8504C58.9492 4.93585 52.0511 0 43.9512 0C35.8513 0 29.6154 4.47284 26.7174 10.872C26.4635 11.4355 27.112 11.9989 27.6608 11.6932C28.9034 10.9943 30.3501 10.5924 31.8966 10.5924C33.9375 10.5924 35.806 11.2957 37.2618 12.4576C37.5067 12.6541 37.865 12.6541 38.1053 12.4576C39.5611 11.2913 41.4296 10.5924 43.4705 10.5924C45.5113 10.5924 47.3798 11.2957 48.8356 12.4576C49.0805 12.6541 49.4388 12.6541 49.6792 12.4576C51.135 11.2913 53.0035 10.5924 55.0443 10.5924V10.5924Z" fill="#ED5672"/>
<path d="M79.7104 22.9189C79.7104 18.8436 81.8148 16.8867 85.2797 16.8867C86.9759 16.8867 88.4543 17.59 89.2933 18.7082C89.3841 18.8261 89.4203 18.9484 89.4203 19.0707C89.4203 19.3809 89.1709 19.6211 88.8489 19.6211C88.6902 19.6211 88.5269 19.5687 88.3863 19.3983C87.7786 18.5902 86.6221 17.9525 85.2797 17.9525C82.5314 17.9525 80.9622 19.5512 80.9622 22.9189C80.9622 26.492 82.5314 27.8679 85.2797 27.8679C86.4588 27.8679 87.6879 27.4224 88.3863 26.457C88.5133 26.2867 88.7083 26.2343 88.8489 26.2343C89.1709 26.2343 89.4203 26.4745 89.4203 26.7846C89.4203 26.9244 89.3841 27.0074 89.3115 27.1122C88.5269 28.213 86.9214 28.9337 85.2797 28.9337C81.8193 28.9337 79.7104 27.1472 79.7104 22.9189V22.9189Z" fill="#491148"/>
<path d="M90.6401 22.9189C90.6401 18.8436 92.7445 16.8867 96.2094 16.8867C99.6743 16.8867 101.779 18.848 101.779 22.9189C101.779 26.9899 99.6743 28.9337 96.2094 28.9337C92.7445 28.9337 90.6401 26.9593 90.6401 22.9189ZM91.8873 22.9189C91.8873 26.2692 93.4746 27.8679 96.2048 27.8679C98.935 27.8679 100.522 26.2692 100.522 22.9189C100.522 19.5687 98.935 17.9525 96.2048 17.9525C93.4746 17.9525 91.8873 19.5512 91.8873 22.9189Z" fill="#491148"/>
<path d="M110.99 17.3663C111.045 17.2309 111.222 16.9863 111.562 16.9863C111.902 16.9863 112.17 17.244 112.17 17.5716C112.17 17.6765 112.133 17.7769 112.115 17.8294L107.938 28.4349C107.847 28.6751 107.598 28.828 107.367 28.828C107.135 28.828 106.886 28.6751 106.795 28.4349L102.618 17.8294C102.6 17.7769 102.564 17.6765 102.564 17.5716C102.564 17.244 102.832 16.9863 103.172 16.9863C103.512 16.9863 103.689 17.2266 103.743 17.3663L107.367 26.6134L110.99 17.3663Z" fill="#491148"/>
<path d="M114.541 28.6934C114.201 28.6934 113.934 28.4357 113.934 28.1081V17.7123C113.934 17.3847 114.201 17.127 114.541 17.127H120.269C120.573 17.127 120.823 17.3672 120.823 17.6599C120.823 17.9525 120.573 18.1927 120.269 18.1927H115.149V22.3336H119.077C119.38 22.3336 119.63 22.5739 119.63 22.8665C119.63 23.1592 119.38 23.3994 119.077 23.3994H115.149V27.6277H120.469C120.773 27.6277 121.022 27.8679 121.022 28.1606C121.022 28.4532 120.773 28.6934 120.469 28.6934H114.546H114.541Z" fill="#491148"/>
<path d="M124.065 28.2479C124.065 28.5755 123.797 28.8332 123.457 28.8332C123.117 28.8332 122.85 28.5755 122.85 28.2479V17.7123C122.85 17.3847 123.117 17.127 123.457 17.127H127.008C128.99 17.127 130.419 18.5684 130.419 20.4073C130.419 22.2463 129.154 23.6047 127.226 23.6877L130.491 27.881C130.582 27.9858 130.618 28.1212 130.618 28.2435C130.618 28.5711 130.351 28.8288 130.011 28.8288C129.834 28.8288 129.634 28.759 129.494 28.5537L125.87 23.6877H124.07V28.2435L124.065 28.2479ZM124.065 22.6263H127.045C128.292 22.6263 129.185 21.6478 129.185 20.4073C129.185 19.1668 128.274 18.1884 126.99 18.1884H124.065V22.6219V22.6263Z" fill="#491148"/>
<path d="M0.825824 19.2799C0.825824 11.3695 4.91658 7.56055 11.6423 7.56055C18.368 7.56055 22.4588 11.3651 22.4588 19.2799C22.4588 24.9234 20.3454 28.4921 16.7036 30.0645C17.6061 30.4315 18.5403 30.9993 19.1979 31.7986C19.4383 32.1 19.5426 32.3665 19.5426 32.6329C19.5426 33.2357 19.0211 33.7337 18.3635 33.7337C18.0505 33.7337 17.7739 33.6332 17.4972 33.3668C15.9734 31.7288 14.9666 30.9643 11.6378 30.9643C4.91205 30.9643 0.821289 27.1249 0.821289 19.2799H0.825824ZM3.25216 19.2799C3.25216 25.7883 6.3361 28.8939 11.6423 28.8939C16.9485 28.8939 20.0324 25.7883 20.0324 19.2799C20.0324 12.7716 16.9485 9.63098 11.6423 9.63098C6.3361 9.63098 3.25216 12.7366 3.25216 19.2799Z" fill="#491148"/>
<path d="M18.3631 34.5331C17.8143 34.5331 17.3245 34.3321 16.9118 33.9347L16.88 33.9041C15.5331 32.4583 14.7485 31.7638 11.6373 31.7638C7.9865 31.7638 5.11118 30.7023 3.10208 28.6101C1.0431 26.4566 0 23.3204 0 19.28C0 11.2123 4.13158 6.76562 11.6373 6.76562C19.1431 6.76562 23.2792 11.2079 23.2792 19.28C23.2792 25.4083 20.8801 28.5009 18.422 30.0602C18.9209 30.3835 19.4198 30.7941 19.8415 31.3095C20.1953 31.7507 20.3676 32.1831 20.3676 32.6374C20.3676 33.6813 19.4697 34.5331 18.3631 34.5331V34.5331ZM18.0955 32.8208C18.2179 32.9344 18.286 32.9431 18.3631 32.9431C18.5581 32.9431 18.7168 32.8033 18.7168 32.6374C18.7168 32.6068 18.7168 32.5063 18.5445 32.2923C17.9231 31.5366 17.0252 31.0649 16.3766 30.7984L14.6306 30.0864L16.3585 29.3395C19.8053 27.8544 21.6239 24.3774 21.6239 19.28C21.6239 12.1339 18.168 8.35558 11.6328 8.35558C5.09757 8.35558 1.65082 12.1339 1.65082 19.28C1.65082 26.426 5.10665 30.1694 11.6419 30.1694C15.3471 30.1694 16.5581 31.1697 18.0955 32.8208V32.8208ZM11.6419 29.6889C5.70076 29.6889 2.42634 25.9936 2.42634 19.28C2.42634 12.5663 5.70076 8.83606 11.6419 8.83606C17.583 8.83606 20.8574 12.5445 20.8574 19.28C20.8574 26.0155 17.583 29.6889 11.6419 29.6889V29.6889ZM11.6419 10.426C6.62141 10.426 4.07715 13.405 4.07715 19.28C4.07715 25.155 6.62141 28.099 11.6419 28.099C16.6624 28.099 19.2066 25.1331 19.2066 19.28C19.2066 13.4268 16.6624 10.426 11.6419 10.426V10.426Z" fill="#491148"/>
<path d="M28.1037 16.1444V24.8586C28.1037 27.0295 28.8339 28.899 32.3306 28.899C35.8272 28.899 36.5574 27.0295 36.5574 24.8586V16.1444C36.5574 15.5416 37.0789 15.0742 37.7002 15.0742C38.2898 15.0742 38.7751 15.5416 38.7751 16.1444V24.8586C38.7751 28.0297 37.7002 30.9345 32.326 30.9345C26.9518 30.9345 25.877 28.0297 25.877 24.8586V16.1444C25.877 15.5416 26.3622 15.0742 26.9881 15.0742C27.5777 15.0742 28.0992 15.5416 28.0992 16.1444H28.1037Z" fill="#491148"/>
<path d="M32.3311 31.7295C29.6327 31.7295 27.6599 31.0088 26.4626 29.5848C25.5147 28.4622 25.0566 26.916 25.0566 24.8586V16.1444C25.0566 15.1005 25.9047 14.2793 26.9932 14.2793C28.0816 14.2793 28.9297 15.1136 28.9297 16.1444V24.8586C28.9297 26.8068 29.5102 28.1041 32.3357 28.1041C35.1611 28.1041 35.7371 26.8068 35.7371 24.8586V16.1444C35.7371 15.118 36.6214 14.2793 37.7053 14.2793C38.7893 14.2793 39.6056 15.1136 39.6056 16.1444V24.8586C39.6056 29.48 37.2246 31.7295 32.3311 31.7295V31.7295ZM26.9932 15.8736C26.8254 15.8736 26.7075 15.9872 26.7075 16.1488V24.863C26.7075 27.4751 27.3741 30.1439 32.3311 30.1439C34.5488 30.1439 36.05 29.6372 36.9253 28.5889C37.6146 27.7633 37.9502 26.5447 37.9502 24.8586V16.1444C37.9502 15.9916 37.8414 15.8693 37.7008 15.8693C37.5239 15.8693 37.3833 15.9916 37.3833 16.1444V24.8586C37.3833 28.0647 35.6826 29.694 32.3311 29.694C28.9796 29.694 27.2789 28.0691 27.2789 24.8586V16.1444C27.2789 15.9828 27.1292 15.8693 26.9932 15.8693V15.8736Z" fill="#491148"/>
<path d="M45.1261 29.6983C45.1261 30.3011 44.6408 30.7685 44.0149 30.7685C43.3891 30.7685 42.9038 30.3011 42.9038 29.6983V16.1444C42.9038 15.5416 43.3891 15.0742 44.0149 15.0742C44.6408 15.0742 45.1261 15.5416 45.1261 16.1444V29.6983Z" fill="#491148"/>
<path d="M44.0137 31.5596C42.9298 31.5596 42.0771 30.7428 42.0771 29.6945V16.1405C42.0771 15.0966 42.9252 14.2754 44.0137 14.2754C45.1021 14.2754 45.9502 15.0922 45.9502 16.1405V29.6945C45.9502 30.7384 45.1021 31.5596 44.0137 31.5596ZM44.0137 15.8697C43.8459 15.8697 43.728 15.9833 43.728 16.1449V29.6988C43.728 29.8605 43.8459 29.974 44.0137 29.974C44.1815 29.974 44.2994 29.8605 44.2994 29.6988V16.1449C44.2994 15.9833 44.1815 15.8697 44.0137 15.8697V15.8697Z" fill="#491148"/>
<path d="M55.733 14.873C58.8169 14.873 60.5176 16.4412 61.0709 17.175C61.2433 17.4065 61.3113 17.5768 61.3113 17.8083C61.3113 18.3762 60.8623 18.778 60.3045 18.778C59.9598 18.778 59.7149 18.6426 59.4745 18.3762C58.953 17.8083 58.0187 16.8081 55.733 16.8081C52.5447 16.8081 50.844 18.778 50.844 22.884C50.844 26.9899 52.5447 28.9948 55.733 28.9948C57.7421 28.9948 58.9575 28.1256 59.7557 27.5577C59.9961 27.3918 60.173 27.3262 60.4133 27.3262C60.9666 27.3262 61.4202 27.7587 61.4202 28.2959C61.4202 28.5973 61.3158 28.8288 60.9712 29.1302C60.2093 29.733 58.5448 30.9342 55.7375 30.9342C51.2658 30.9342 48.5991 28.3615 48.5991 22.8883C48.5991 17.4152 51.2704 14.8774 55.7375 14.8774L55.733 14.873Z" fill="#491148"/>
<path d="M55.7334 31.7288C50.595 31.7288 47.7695 28.5882 47.7695 22.8879C47.7695 17.1877 50.5995 14.082 55.7334 14.082C59.5566 14.082 61.4069 16.2748 61.738 16.7116C61.9375 16.9824 62.1371 17.3187 62.1371 17.8123C62.1371 18.7995 61.3344 19.577 60.3049 19.577C59.738 19.577 59.2618 19.3586 58.8536 18.9043C58.3819 18.3889 57.6654 17.607 55.7288 17.607C52.0871 17.607 51.6653 20.6209 51.6653 22.8879C51.6653 27.6534 53.9828 28.2038 55.7288 28.2038C57.4749 28.2038 58.4953 27.4656 59.2527 26.9284L59.2708 26.9153C59.543 26.7274 59.8967 26.5352 60.4092 26.5352C61.4205 26.5352 62.2414 27.3258 62.2414 28.2999C62.2414 28.8503 62.0192 29.2914 61.5158 29.7239L61.484 29.7501C60.8627 30.2393 58.967 31.7332 55.7288 31.7332L55.7334 31.7288ZM55.7334 15.672C51.5428 15.672 49.4158 18.1006 49.4158 22.8879C49.4158 27.6753 51.5428 30.1388 55.7334 30.1388C58.0962 30.1388 59.543 29.2216 60.4273 28.527C60.5906 28.3829 60.5906 28.3436 60.5906 28.2955C60.5906 28.1994 60.509 28.1208 60.4092 28.1208C60.3774 28.1208 60.3548 28.1208 60.2323 28.2082C59.4024 28.7979 58.01 29.7938 55.7334 29.7938C53.1256 29.7938 50.019 28.5969 50.019 22.8879C50.019 17.179 53.1256 16.0171 55.7334 16.0171C58.3411 16.0171 59.5475 17.2576 60.0962 17.856C60.2142 17.987 60.2504 17.987 60.3094 17.987C60.3774 17.987 60.4908 17.9652 60.4908 17.8123C60.4908 17.7817 60.4908 17.7599 60.4001 17.642C60.1552 17.3187 58.7584 15.672 55.7334 15.672V15.672Z" fill="#491148"/>
<path d="M75.0397 30.2658L68.9035 22.6873L66.7901 24.3253V29.7023C66.7901 30.3051 66.3049 30.7725 65.679 30.7725C65.0531 30.7725 64.5679 30.3051 64.5679 29.7023V7.79672C64.5679 7.19394 65.0531 6.72656 65.679 6.72656C66.3049 6.72656 66.7901 7.19394 66.7901 7.79672V21.7831L74.9716 15.3403C75.2483 15.1044 75.5249 15.0738 75.7336 15.0738C76.3594 15.0738 76.8447 15.5412 76.8447 16.144C76.8447 16.4104 76.7404 16.7468 76.3957 17.0132L70.7131 21.3856L76.881 29.0296C77.0896 29.2611 77.1213 29.497 77.1213 29.6979C77.1213 30.3007 76.6361 30.7681 76.0102 30.7681C75.6292 30.7681 75.3163 30.6021 75.0397 30.2658Z" fill="#491148"/>
<path d="M76.0094 31.5588C75.3791 31.5588 74.8348 31.2879 74.3949 30.7594L68.7667 23.8099L67.6148 24.701V29.6936C67.6148 30.7376 66.7667 31.5588 65.6782 31.5588C64.5898 31.5588 63.7417 30.7419 63.7417 29.6936V7.79678C63.7417 6.75283 64.5898 5.93164 65.6782 5.93164C66.7667 5.93164 67.6148 6.74846 67.6148 7.79678V20.1102L74.4403 14.7375C74.8076 14.4318 75.2294 14.2833 75.7328 14.2833C76.8167 14.2833 77.6693 15.1001 77.6693 16.1484C77.6693 16.7294 77.3972 17.2579 76.9074 17.6379L71.8597 21.5211L77.5197 28.5361C77.8054 28.8681 77.946 29.2481 77.946 29.7024C77.946 30.7463 77.0979 31.5675 76.0094 31.5675V31.5588ZM75.6874 29.7722C75.8552 29.9732 75.946 29.9732 76.0094 29.9732C76.1772 29.9732 76.2952 29.8596 76.2952 29.698C76.2952 29.6019 76.2816 29.5844 76.2498 29.5495L76.2226 29.5189L69.5513 21.2546L75.8734 16.393C75.9686 16.3188 76.014 16.2401 76.014 16.144C76.014 15.9824 75.8961 15.8689 75.7283 15.8689C75.6239 15.8689 75.5741 15.882 75.5106 15.9388L75.4879 15.9562L65.9594 23.4605V7.79678C65.9594 7.63516 65.8415 7.5216 65.6737 7.5216C65.5059 7.5216 65.388 7.63516 65.388 7.79678V29.698C65.388 29.8596 65.5059 29.9732 65.6737 29.9732C65.8415 29.9732 65.9594 29.8596 65.9594 29.698V23.9409L69.0343 21.5604L75.6829 29.7722H75.6874Z" fill="#491148"/>
</svg>
