<svg width="31" height="31" viewBox="0 0 31 31" fill="none" xmlns="http://www.w3.org/2000/svg">
<path fill-rule="evenodd" clip-rule="evenodd" d="M5.93243 24.5943C8.39384 27.0557 11.7322 28.4385 15.2132 28.4385C18.6942 28.4385 22.0326 27.0557 24.494 24.5943C26.9554 22.1328 28.3382 18.7944 28.3382 15.3135C28.3382 11.8325 26.9554 8.49412 24.494 6.0327C22.0326 3.57129 18.6942 2.18848 15.2132 2.18848C11.7322 2.18848 8.39384 3.57129 5.93243 6.0327C3.47101 8.49412 2.0882 11.8325 2.0882 15.3135C2.0882 18.7944 3.47101 22.1328 5.93243 24.5943ZM25.8198 4.70688C28.6328 7.51992 30.2132 11.3352 30.2132 15.3135C30.2132 19.2917 28.6328 23.107 25.8198 25.9201C23.0068 28.7331 19.1915 30.3135 15.2132 30.3135C11.235 30.3135 7.41965 28.7331 4.6066 25.9201C1.79356 23.107 0.213204 19.2917 0.213203 15.3135C0.213204 11.3352 1.79356 7.51992 4.6066 4.70688C7.41965 1.89383 11.235 0.313477 15.2132 0.313477C19.1915 0.313477 23.0068 1.89383 25.8198 4.70688ZM8.58408 14.3748C8.33512 14.3748 8.09636 14.4737 7.92033 14.6497C7.74429 14.8258 7.64539 15.0645 7.64539 15.3135C7.64539 15.5624 7.74429 15.8012 7.92033 15.9772C8.09636 16.1533 8.33512 16.2522 8.58408 16.2522L19.4466 16.2508L15.7767 19.9207C15.6009 20.0965 15.5021 20.335 15.5021 20.5836C15.5021 20.8323 15.6009 21.0707 15.7767 21.2465C15.9525 21.4224 16.191 21.5211 16.4396 21.5211C16.6882 21.5211 16.9267 21.4224 17.1025 21.2465L22.3727 15.9764C22.5485 15.8006 22.6472 15.5621 22.6472 15.3135C22.6472 15.0648 22.5485 14.8264 22.3727 14.6506L17.1025 9.38041C16.9267 9.20459 16.6882 9.10582 16.4396 9.10582C16.191 9.10582 15.9525 9.20459 15.7767 9.38041C15.6009 9.55622 15.5021 9.79468 15.5021 10.0433C15.5021 10.292 15.6009 10.5304 15.7767 10.7062L19.4466 14.3761L8.58408 14.3748Z" fill="#A71BA7"/>
</svg>
