<svg width="109" height="92" viewBox="0 0 109 92" fill="none" xmlns="http://www.w3.org/2000/svg">
<path d="M18.0728 63.4072C18.9289 63.6486 19.6365 64.1669 20.0402 64.8483C20.4439 65.5297 20.5106 66.3184 20.2258 67.0413L16.8191 75.6667C16.6908 76.038 16.4751 76.3836 16.1848 76.6828C15.8945 76.9821 15.5357 77.2289 15.1298 77.4084C14.7239 77.5879 14.2792 77.6964 13.8224 77.7275C13.3657 77.7585 12.9062 77.7115 12.4714 77.5892C12.0367 77.4669 11.6357 77.2718 11.2923 77.0157C10.949 76.7595 10.6704 76.4475 10.4733 76.0984C10.2762 75.7493 10.1646 75.3701 10.1451 74.9837C10.1256 74.5973 10.1988 74.2116 10.3601 73.8496L13.7667 65.2243C14.0528 64.5017 14.6669 63.9045 15.4743 63.5638C16.2817 63.2231 17.2162 63.1668 18.0728 63.4072V63.4072ZM82.7997 63.4072C83.6558 63.6486 84.3634 64.1669 84.7671 64.8483C85.1708 65.5297 85.2375 66.3184 84.9527 67.0413L81.546 75.6667C81.2359 76.3627 80.6182 76.9303 79.8228 77.2502C79.0274 77.57 78.116 77.6174 77.2801 77.3822C76.4442 77.1471 75.7487 76.6477 75.3398 75.989C74.9309 75.3303 74.8402 74.5635 75.087 73.8496L78.4936 65.2243C78.7797 64.5017 79.3938 63.9045 80.2012 63.5638C81.0086 63.2231 81.9431 63.1668 82.7997 63.4072V63.4072ZM31.6995 72.0325C32.5556 72.274 33.2632 72.7923 33.6669 73.4737C34.0706 74.155 34.1373 74.9438 33.8525 75.6667L30.4458 84.292C30.3175 84.6633 30.1018 85.0089 29.8115 85.3082C29.5212 85.6074 29.1624 85.8542 28.7565 86.0337C28.3506 86.2132 27.9059 86.3217 27.4492 86.3528C26.9924 86.3839 26.5329 86.3369 26.0981 86.2146C25.6634 86.0923 25.2624 85.8972 24.919 85.641C24.5757 85.3849 24.2972 85.0729 24.1 84.7237C23.9029 84.3746 23.7913 83.9955 23.7718 83.6091C23.7524 83.2227 23.8255 82.8369 23.9868 82.4749L27.3935 73.8496C27.6795 73.1271 28.2937 72.5299 29.101 72.1892C29.9084 71.8485 30.843 71.7921 31.6995 72.0325V72.0325ZM96.4264 72.0325C97.2825 72.274 97.9901 72.7923 98.3938 73.4737C98.7975 74.155 98.8642 74.9438 98.5794 75.6667L95.1727 84.292C94.8626 84.9881 94.2449 85.5556 93.4495 85.8755C92.6541 86.1954 91.7427 86.2427 90.9068 86.0076C90.0709 85.7724 89.3755 85.273 88.9665 84.6143C88.5576 83.9556 88.467 83.1888 88.7137 82.4749L92.1204 73.8496C92.4064 73.1271 93.0206 72.5299 93.8279 72.1892C94.6353 71.8485 95.5699 71.7921 96.4264 72.0325V72.0325ZM48.0175 64.8447C48.3007 64.3678 48.7355 63.9667 49.2734 63.6864C49.8113 63.4062 50.4309 63.2577 51.0631 63.2577H57.8764C58.4159 63.258 58.9476 63.3665 59.4277 63.5742C59.9079 63.7819 60.3227 64.0828 60.638 64.4523C60.9533 64.8217 61.1602 65.2491 61.2416 65.6992C61.3229 66.1494 61.2764 66.6093 61.106 67.0413L59.1982 71.883H64.6898C65.3308 71.8838 65.9586 72.0372 66.5009 72.3256C67.0433 72.614 67.4782 73.0257 67.7558 73.5134C68.0333 74.001 68.1422 74.5449 68.0699 75.0825C67.9975 75.62 67.747 76.1295 67.347 76.5522L53.7203 90.9278C53.2341 91.4375 52.5564 91.792 51.7992 91.9327C51.042 92.0735 50.2506 91.992 49.5557 91.7017C48.8607 91.4115 48.3039 90.9299 47.9772 90.3365C47.6504 89.7431 47.5733 89.0733 47.7586 88.4379L50.1092 80.5084H44.2497C43.6688 80.5084 43.0975 80.383 42.5902 80.1441C42.0828 79.9052 41.6563 79.5609 41.3511 79.1437C41.0459 78.7265 40.8722 78.2504 40.8465 77.7606C40.8208 77.2708 40.9439 76.7835 41.2041 76.3452L48.0175 64.8447V64.8447ZM91.2959 23.1613C89.881 17.1418 86.2215 11.6621 80.8524 7.52347C75.4833 3.38485 68.6863 0.804371 61.4551 0.159327C54.2239 -0.485718 46.9378 0.838507 40.6622 3.93838C34.3866 7.03826 29.4506 11.7512 26.5759 17.3881C23.352 17.0747 20.0863 17.3199 16.9787 18.1087C13.871 18.8974 10.9869 20.2133 8.50272 21.9755C6.01858 23.7378 3.98676 25.9094 2.53166 28.3574C1.07656 30.8054 0.228795 33.4784 0.0402745 36.2125C-0.148246 38.9467 0.326445 41.6845 1.43528 44.2585C2.54412 46.8324 4.26377 49.1883 6.48895 51.1818C8.71413 53.1754 11.398 54.7646 14.3763 55.8523C17.3545 56.94 20.5645 57.5032 23.8096 57.5075H88.5365C93.7222 57.5125 98.7164 55.8538 102.507 52.8674C106.298 49.8811 108.602 45.7903 108.953 41.4238C109.304 37.0573 107.675 32.7414 104.397 29.3505C101.118 25.9596 96.435 23.7472 91.2959 23.1613V23.1613Z" fill="#3D3D3D"/>
</svg>
