<svg width="121" height="109" viewBox="0 0 121 109" fill="none" xmlns="http://www.w3.org/2000/svg">
<path d="M76.7819 86.4514C76.4616 85.9262 75.8209 85.6005 75.1256 85.6005H62.8909L66.8629 77.1514C67.0949 76.6611 67.024 76.1024 66.6749 75.6637C66.3259 75.2249 65.6801 74.9644 65.1254 74.9644H51.375C50.4351 74.9644 49.6414 75.5564 49.5171 76.3497L47.0171 92.3039C46.981 92.5289 47.0022 92.758 47.0793 92.9754C47.1564 93.1929 47.2875 93.3937 47.4638 93.5643C47.64 93.7353 47.8569 93.8723 48.1003 93.9663C48.3436 94.0603 48.6077 94.1091 48.8749 94.1094H60.3049L57.0408 107.012C56.8528 107.758 57.3118 108.512 58.1346 108.813C58.3752 108.96 58.6252 109 58.8752 109C59.4783 109 60.0643 108.751 60.4229 108.306L76.6733 88.0973C77.0632 87.608 77.11 86.9765 76.7819 86.4514Z" fill="#FFC700"/>
<path d="M100.932 24.0442C94.7473 9.99224 78.9876 0 60.527 0C42.0664 0 26.3067 9.98061 20.1217 24.0326C8.54833 26.6499 0 35.7231 0 46.5296C0 59.3835 12.0865 69.7945 26.9954 69.7945H94.0046C108.914 69.7945 121 59.3835 121 46.5296C121 35.7464 112.479 26.6731 100.932 24.0442Z" fill="#727272"/>
<path d="M18.5 82.6537C18.5 83.5071 18.7536 84.3048 19.2718 85.0375C19.79 85.7703 20.4847 86.3639 21.3667 86.7999C22.2488 87.2358 23.197 87.4584 24.2224 87.4584C25.2478 87.4584 26.2071 87.2358 27.1002 86.7999C27.9749 86.3761 28.7043 85.7689 29.2172 85.0375C29.7354 84.2955 30 83.5071 30 82.6537C30 82.0972 29.8126 81.4386 29.4267 80.6688C29.0407 79.8989 28.5777 79.1847 28.0374 78.5354C27.5523 78.0067 26.9789 77.4224 26.3174 76.7916C25.6558 76.1609 24.4981 75.187 24.2335 74.9644L22.8221 76.1609C22.1385 76.7174 21.477 77.3574 20.8485 78.0902C20.22 78.823 19.6687 79.6114 19.2057 80.4554C18.7205 81.2995 18.5 82.0323 18.5 82.6537Z" fill="#3498F4"/>
<path d="M30 97.3022C30 98.1555 30.2536 98.9532 30.7718 99.686C31.29 100.419 31.9847 101.012 32.8667 101.448C33.7488 101.884 34.697 102.107 35.7224 102.107C36.7478 102.107 37.7071 101.884 38.6002 101.448C39.4749 101.025 40.2043 100.417 40.7172 99.686C41.2354 98.9439 41.5 98.1555 41.5 97.3022C41.5 96.7456 41.3126 96.0871 40.9267 95.3172C40.5407 94.5473 40.0777 93.8331 39.5374 93.1839C39.0523 92.6552 38.4789 92.0708 37.8174 91.4401C37.1558 90.8093 35.9981 89.8354 35.7335 89.6128L34.3221 90.8093C33.6385 91.3659 32.977 92.0059 32.3485 92.7386C31.72 93.4714 31.1687 94.2598 30.7057 95.1039C30.2205 95.9479 30 96.6807 30 97.3022Z" fill="#3498F4"/>
<path d="M80 82.6537C80 83.5071 80.2536 84.3048 80.7718 85.0375C81.29 85.7703 81.9847 86.3639 82.8667 86.7999C83.7488 87.2358 84.697 87.4584 85.7224 87.4584C86.7478 87.4584 87.7071 87.2358 88.6002 86.7999C89.4749 86.3761 90.2043 85.7689 90.7172 85.0375C91.2354 84.2955 91.5 83.5071 91.5 82.6537C91.5 82.0972 91.3126 81.4386 90.9267 80.6688C90.5407 79.8989 90.0777 79.1847 89.5374 78.5354C89.0523 78.0067 88.4789 77.4224 87.8174 76.7916C87.1558 76.1609 85.9981 75.187 85.7335 74.9644L84.3221 76.1609C83.6385 76.7174 82.977 77.3574 82.3485 78.0902C81.72 78.823 81.1687 79.6114 80.7057 80.4554C80.2205 81.2995 80 82.0323 80 82.6537Z" fill="#3498F4"/>
<path d="M91.5 97.3022C91.5 98.1555 91.7536 98.9532 92.2718 99.686C92.79 100.419 93.4847 101.012 94.3667 101.448C95.2488 101.884 96.197 102.107 97.2224 102.107C98.2478 102.107 99.2071 101.884 100.1 101.448C100.975 101.025 101.704 100.417 102.217 99.686C102.735 98.9439 103 98.1555 103 97.3022C103 96.7456 102.813 96.0871 102.427 95.3172C102.041 94.5473 101.578 93.8331 101.037 93.1839C100.552 92.6552 99.9789 92.0708 99.3174 91.4401C98.6558 90.8093 97.4981 89.8354 97.2335 89.6128L95.8221 90.8093C95.1385 91.3659 94.477 92.0059 93.8485 92.7386C93.22 93.4714 92.6687 94.2598 92.2057 95.1039C91.7205 95.9479 91.5 96.6807 91.5 97.3022Z" fill="#3498F4"/>
</svg>
