<svg width="79" height="97" viewBox="0 0 79 97" fill="none" xmlns="http://www.w3.org/2000/svg">
<path d="M71.911 7.97408C72.5607 7.36633 73.0218 6.55967 73.2326 5.6623C73.4435 4.76493 73.3938 3.81976 73.0904 2.95357C72.3166 1.17821 70.7295 0 68.966 0L4.25824 0.00587305C1.96576 0.00587305 0.0859318 1.9724 0.0259747 4.43529C-0.0992297 9.53328 0.235648 14.0612 0.869782 18.1837H63.278C64.8748 15.3002 67.6082 12 71.911 7.97408ZM68.3664 37.1139C64.4833 32.315 61.4961 28.6131 61.489 24.2443H2.12271C4.14538 31.8982 7.48005 37.7599 11.4954 42.4318H72.4753C71.135 40.5619 69.7243 38.8 68.3664 37.1139ZM53.5359 91.9416C53.4391 92.8776 53.6151 93.8228 54.0396 94.6467C54.4641 95.4707 55.1163 96.1327 55.906 96.5415C56.4741 96.8429 57.0992 96.9998 57.7329 97C58.8296 97 59.909 96.5442 60.7202 95.6738C68.4317 87.4118 73.6497 79.8299 76.4765 72.75H50.2718C53.0421 77.4105 54.4352 83.3594 53.5359 91.9416V91.9416ZM76.1256 48.3295H17.7204C22.4111 52.3459 27.4722 55.2445 32.163 57.9348C37.1253 60.7785 41.6926 63.41 45.3412 66.6761H78.2823C78.7179 64.6225 78.8413 62.5953 79 60.625C79 55.9645 77.8361 52.0238 76.1256 48.3295V48.3295Z" fill="#7ED1FF"/>
</svg>
