<svg width="84" height="73" viewBox="0 0 84 73" fill="none" xmlns="http://www.w3.org/2000/svg">
<path d="M78.6939 6.00111C79.1803 5.54373 79.5255 4.93666 79.6833 4.26132C79.8411 3.58598 79.8039 2.87467 79.5768 2.22279C78.9975 0.886693 77.8095 0 76.4894 0L28.0509 0.00441992C26.3348 0.00441992 24.9276 1.48438 24.8827 3.3379C24.789 7.17453 25.0397 10.5821 25.5144 13.6846H72.2315C73.4268 11.5146 75.4729 9.0309 78.6939 6.00111ZM76.0406 27.9311C73.1338 24.3195 70.8976 21.5336 70.8923 18.2457H26.4523C27.9664 24.0059 30.4626 28.4172 33.4684 31.9332H79.1163C78.1131 30.526 77.057 29.2 76.0406 27.9311ZM64.9388 69.1932C64.8663 69.8976 64.9981 70.6089 65.3159 71.229C65.6337 71.8491 66.1218 72.3473 66.713 72.655C67.1383 72.8818 67.6062 72.9998 68.0806 73C68.9015 73 69.7095 72.657 70.3168 72.002C76.0894 65.7841 79.9955 60.0781 82.1116 54.75H62.4954C64.5692 58.2574 65.612 62.7344 64.9388 69.1932ZM81.8489 36.3717H38.1283C41.6396 39.3943 45.4282 41.5758 48.9396 43.6004C52.6543 45.7405 56.0733 47.7209 58.8045 50.1789H83.4633C83.7894 48.6334 83.8818 47.1078 84.0006 45.625C84.0006 42.1176 83.1293 39.152 81.8489 36.3717Z" fill="#3D3D3D"/>
<path d="M5.61274 43.3224C6.30006 45.9524 8.45488 48.0568 11.1743 48.4605L11.2405 48.7136C11.2637 48.8181 11.2881 48.9187 11.3125 49.0118L13.2392 56.3845C14.2388 60.2095 18.1362 62.9574 22.4129 61.6535L23.3884 61.356C23.4716 61.3307 23.5519 61.3041 23.6258 61.2784C23.7056 61.2572 23.7928 61.2328 23.8823 61.2055L27.2904 60.1664C30.1755 59.2868 32.0202 56.9338 32.609 54.3219C34.3754 56.2158 37.0869 57.1796 39.9719 56.3L42.3399 55.5781L44.2667 56.0959L45.3181 54.6538C49.2717 53.171 51.0806 48.8223 50.1185 45.1406L49.8973 44.294C49.857 44.0677 49.804 43.8114 49.7309 43.5317L49.7284 43.5218L49.7257 43.5119L48.0461 37.1908C50.0319 35.3976 50.9195 32.5726 50.3499 29.978C49.8955 27.521 48.2564 26.0255 46.7641 25.258C46.7622 25.257 46.7602 25.256 46.7583 25.255L27.3418 15.2287L27.2679 15.1905L27.1927 15.155C25.4188 14.317 23.6158 14.4514 22.3192 14.8467C21.3616 15.1387 19.3916 15.9142 18.1313 18.1804L6.40938 37.55L6.31931 37.6988L6.23918 37.8532C5.29387 39.6747 5.15989 41.5896 5.61274 43.3224Z" fill="#3D3D3D" stroke="#F7F7F7" stroke-width="10"/>
</svg>
