<svg width="35" height="35" viewBox="0 0 35 35" fill="none" xmlns="http://www.w3.org/2000/svg">
<path fill-rule="evenodd" clip-rule="evenodd" d="M17.5 0C17.7901 0 18.0683 0.115234 18.2734 0.320352C18.4785 0.52547 18.5938 0.803669 18.5938 1.09375V2.21813C27.6172 2.70813 35 9.23125 35 17.5C35 17.5 35 18.5938 33.9062 18.5938C33.5803 18.5938 33.1362 18.2766 33.1362 18.2766L33.1275 18.2678L33.0728 18.2175C32.6972 17.8913 32.2906 17.6026 31.8587 17.3556C30.8202 16.7472 29.641 16.42 28.4375 16.4062C27.0419 16.4062 25.8606 16.8722 25.0163 17.3556C24.5844 17.6026 24.1778 17.8913 23.8022 18.2175L23.7475 18.2678L23.7409 18.2744C23.7409 18.2744 23.2947 18.5938 22.9688 18.5938C22.6428 18.5938 22.1987 18.2766 22.1987 18.2766L22.19 18.2678L22.1353 18.2175C21.7597 17.8913 21.3531 17.6026 20.9212 17.3556C20.2004 16.9392 19.413 16.6505 18.5938 16.5025V29.5312H17.5H18.5938V29.6166L18.5828 29.7981C18.5241 30.6364 18.3027 31.4552 17.9309 32.2088C17.5526 32.9854 16.9771 33.6492 16.2619 34.1338C15.4438 34.6741 14.4091 35 13.125 35C11.8409 35 10.8041 34.6763 9.98812 34.1338C9.2728 33.6493 8.69725 32.9855 8.31906 32.2088C7.9207 31.4001 7.69568 30.5172 7.65844 29.6166V29.5619L7.65625 29.5422V29.5356C7.65625 29.5356 7.65625 29.5312 8.75 29.5312H7.65625V28.4375C7.65625 28.1474 7.77148 27.8692 7.9766 27.6641C8.18172 27.459 8.45992 27.3438 8.75 27.3438C9.04008 27.3438 9.31828 27.459 9.5234 27.6641C9.72852 27.8692 9.84375 28.1474 9.84375 28.4375V29.5444L9.85031 29.6406C9.88859 30.1926 10.0334 30.7319 10.2769 31.2288C10.4847 31.6466 10.78 32.0316 11.2022 32.3116C11.6178 32.5894 12.2216 32.8125 13.125 32.8125C14.0284 32.8125 14.6322 32.5894 15.0478 32.3116C15.47 32.0316 15.7653 31.6466 15.9753 31.2288C16.2326 30.7027 16.3793 30.1294 16.4062 29.5444V16.5025C15.587 16.6505 14.7996 16.9392 14.0787 17.3556C13.6257 17.6154 13.2005 17.9211 12.81 18.2678L12.8013 18.2766C12.8013 18.2766 12.3594 18.5938 12.0312 18.5938C11.7053 18.5938 11.2612 18.2766 11.2612 18.2766L11.2525 18.2678C10.862 17.9211 10.4368 17.6154 9.98375 17.3556C8.94521 16.7472 7.76604 16.42 6.5625 16.4062C5.16687 16.4062 3.98781 16.8722 3.14125 17.3556C2.68818 17.6154 2.26303 17.9211 1.8725 18.2678L1.86375 18.2766C1.86375 18.2766 1.42188 18.5938 1.09375 18.5938C0 18.5938 0 17.5 0 17.5C0 9.23125 7.38281 2.70813 16.4062 2.21813V1.09375C16.4062 0.803669 16.5215 0.52547 16.7266 0.320352C16.9317 0.115234 17.2099 0 17.5 0V0Z" fill="#A71BA7"/>
</svg>
