<svg width="54" height="54" viewBox="0 0 54 54" fill="none" xmlns="http://www.w3.org/2000/svg">
<path d="M47.9976 29.4941V27.5763C48.8573 27.8226 49.8125 28.1939 49.8125 28.1939C51.9353 28.1939 52.8955 26.6566 51.9455 24.7775L50.6022 22.1197C51.2663 21.6422 51.4426 20.7765 50.9397 19.7817L49.3822 16.7012C50.1188 16.4109 50.3778 15.6642 49.9331 14.785L47.9512 10.865C47.3833 9.73771 46.4535 9.73771 45.884 10.865L43.9012 14.785C43.4573 15.6634 43.7155 16.4118 44.453 16.7012L42.8954 19.7817C42.3925 20.7773 42.5706 21.6422 43.2321 22.1197L41.8897 24.7775C40.9396 26.6566 41.8998 28.1939 44.0218 28.1939C44.0218 28.1939 44.9786 27.8226 45.8376 27.5763V29.2081C44.3166 28.926 42.8266 28.497 41.3885 27.9273C39.4462 27.1552 36.1834 25.866 33.3247 25.8457C33.3037 25.8457 22.7129 15.6431 22.7129 15.6431L10.0474 4.00696L1.6875 9.18505V28.2977C4.37063 29.2882 10.8101 30.6956 16.7484 30.6956C19.9623 30.6956 23.1179 30.2771 26.1284 29.4494C26.8785 29.2427 27.6126 28.9718 28.3905 28.6858C29.9573 28.1078 31.5782 27.5113 33.264 27.5113H33.318C35.9092 27.529 38.9922 28.7541 40.8324 29.4848C42.2685 30.0561 43.9307 30.5817 45.8409 30.8812V34.1752H47.9976V31.0922C49.3341 31.1647 50.7625 31.1301 52.3125 30.9125V29.3878C50.8825 29.5818 49.4354 29.6174 47.9976 29.4941ZM14.245 12.1778V14.4813L11.977 13.2486L9.37828 14.6171L8.59444 12.1956L5.05912 13.511L5.98472 10.8515L3.59859 10.0187L9.94022 6.03365L17.0471 12.7237L14.245 12.1778Z" fill="#A71BA7"/>
<path d="M18.5625 8.35144H24.0781C24.3775 8.85987 24.8047 9.28116 25.3173 9.57347C25.8299 9.86579 26.4099 10.019 27 10.0178H30.375C32.2355 10.0178 33.75 8.52357 33.75 6.68588C33.75 4.84904 32.2355 3.35391 30.375 3.35391H29.9219C29.6225 2.84548 29.1953 2.4242 28.6827 2.13188C28.1701 1.83956 27.5901 1.68637 27 1.68751H18.5625C16.702 1.68751 15.1875 3.18263 15.1875 5.01947C15.1875 6.85716 16.702 8.35144 18.5625 8.35144ZM18.5625 3.35391H27C27.9315 3.35391 28.6875 4.09979 28.6875 5.02032H30.375C31.3065 5.02032 32.0625 5.76619 32.0625 6.68673C32.0625 7.60726 31.3065 8.35313 30.375 8.35313H27C26.0685 8.35313 25.3125 7.60726 25.3125 6.68673H18.5625C17.631 6.68673 16.875 5.94085 16.875 5.02032C16.875 4.09979 17.631 3.35391 18.5625 3.35391Z" fill="#A71BA7"/>
<path d="M27 13.3499C27 15.1875 28.5145 16.6818 30.375 16.6818H33.75C35.6105 16.6818 37.125 15.1875 37.125 13.3499C37.125 12.7702 36.9613 12.2353 36.6972 11.7602C37.2952 12.2465 38.0417 12.5133 38.8125 12.5162H42.1875C44.048 12.5162 45.5625 11.022 45.5625 9.18426C45.5625 7.34742 44.048 5.85229 42.1875 5.85229H38.8125C36.952 5.85229 35.4375 7.34742 35.4375 9.18426C35.4375 9.76308 35.6012 10.2997 35.8653 10.7747C35.2675 10.2879 34.5209 10.0207 33.75 10.0179H30.375C28.5145 10.0179 27 11.5139 27 13.3499ZM38.8125 7.5187H42.1875C43.119 7.5187 43.875 8.26458 43.875 9.18511C43.875 10.1056 43.119 10.8515 42.1875 10.8515H38.8125C37.881 10.8515 37.125 10.1056 37.125 9.18511C37.125 8.26458 37.881 7.5187 38.8125 7.5187ZM30.375 11.6843H33.75C34.6815 11.6843 35.4375 12.4302 35.4375 13.3507C35.4375 14.2712 34.6815 15.0171 33.75 15.0171H30.375C29.4435 15.0171 28.6875 14.2712 28.6875 13.3507C28.6875 12.4302 29.4435 11.6843 30.375 11.6843ZM15.9258 35.0089C15.6256 35.0135 15.3277 35.0632 15.0424 35.1566C14.4307 33.1392 12.6368 31.677 10.5199 31.677C9.44718 31.6798 8.40964 32.0597 7.58869 32.7502C7.15922 32.1022 6.45047 31.677 5.64216 31.677C4.33013 31.677 3.26869 32.7949 3.26869 34.1761C3.26869 34.5896 3.37331 34.9726 3.54038 35.316C2.44941 35.8417 1.6875 36.9951 1.6875 38.3417C1.6875 40.1811 3.10416 41.6729 4.85241 41.6729C5.86828 41.6729 6.76181 41.1599 7.34063 40.3769C8.18184 41.1793 9.29475 41.6729 10.5199 41.6729C11.6367 41.6702 12.7142 41.2604 13.5506 40.5203C14.1311 41.2206 14.9749 41.6729 15.9258 41.6729C17.6732 41.6729 19.0898 40.1803 19.0898 38.3409C19.0898 36.5015 17.6732 35.0089 15.9258 35.0089ZM25.9099 31.0517L19.7395 43.0802L20.8178 48.5764L31.9537 52.3125L45.117 50.0285L46.3733 43.141L40.4873 31.0517H25.9099ZM23.1061 48.0238L21.9206 47.6264L21.0642 43.2625L25.7673 34.0968C24.6248 38.5662 22.2961 45.4081 22.2961 45.4081L23.1061 48.0238ZM31.4398 50.82L28.1568 49.7189L29.1026 46.0418C27.8269 43.2161 26.9241 36.8964 26.5258 33.6648L28.7221 38.394L31.9022 45.2394L31.4398 50.82ZM44.0277 48.9494L32.7021 50.9144L33.1366 45.6756L33.7778 45.5836L44.9364 43.9738L44.0277 48.9494ZM33.615 44.3442L32.9248 44.4429L29.6215 37.3309L27.2852 32.3013H39.6917L44.7711 42.7335L33.615 44.3442Z" fill="#A71BA7"/>
</svg>
