<svg width="54" height="54" viewBox="0 0 54 54" fill="none" xmlns="http://www.w3.org/2000/svg">
<path d="M27.1375 0.270416L34.3636 4.80084H39.2727L46.5038 0.274516C46.7442 0.125136 47.0294 0.0343519 47.3279 0.012255C47.6263 -0.00984196 47.9262 0.037614 48.1943 0.149348C48.4624 0.261081 48.6881 0.432715 48.8464 0.64517C49.0047 0.857625 49.0893 1.10258 49.0909 1.3528V15.0507C49.0909 18.0108 46.5284 19.905 44.1818 21.4999V37.6003L48.1091 47.4401L51.5749 48.8874C52.304 49.192 52.9171 49.6603 53.3454 50.2396C53.7738 50.8189 54.0004 51.4865 54 52.1673C54 53.18 53.0182 54 51.8056 54H11.0455C4.99255 54 0 49.9001 0 44.6235C0 35.7266 2.22382 29.1134 3.65727 24.665C4.374 22.4387 5.08091 20.7701 5.58655 19.618C5.87127 18.9743 6.15109 18.3757 6.52909 17.7771C8.73327 14.2717 15.0905 16.9161 13.1171 20.5159C12.8854 20.9441 12.6676 21.3775 12.4642 21.8155C12.0175 22.7667 11.4136 24.2468 10.7656 26.2599C9.558 30.0113 8.21782 35.6364 7.64836 43.2049C9.45491 34.759 19.5382 26.2804 27.6627 20.2084C25.9691 18.8718 24.5504 17.2564 24.5504 15.0507V1.3487C24.5504 0.241716 26.0722 -0.393773 27.1375 0.270416Z" fill="#A71BA7"/>
</svg>
