<svg width="54" height="54" viewBox="0 0 54 54" fill="none" xmlns="http://www.w3.org/2000/svg">
<path d="M27 0C30.33 0 33 3.00375 33 6.75C33 10.4963 30.33 13.5 27 13.5C23.67 13.5 21 10.4963 21 6.75C21 3.00375 23.7 0 27 0ZM54 40.5V33.75C47.28 33.75 41.52 30.51 37.2 24.705L33.18 19.305C32.6218 18.5438 31.9208 17.9312 31.1272 17.511C30.3336 17.0909 29.4671 16.8737 28.59 16.875H25.5C23.67 16.875 21.99 17.7525 20.85 19.305L16.83 24.705C12.48 30.51 6.72 33.75 0 33.75V40.5C8.31 40.5 15.57 36.5513 21 29.5312V37.125L9.36 42.3562C7.35 43.2675 6 45.5625 6 47.9587C6 51.3 8.4 54 11.37 54H18V52.3125C18 50.0747 18.7902 47.9286 20.1967 46.3463C21.6032 44.7639 23.5109 43.875 25.5 43.875H34.5C35.34 43.875 36 44.6175 36 45.5625C36 46.5075 35.34 47.25 34.5 47.25H25.5C23.01 47.25 21 49.5112 21 52.3125V54H42.63C45.6 54 48 51.3 48 47.9587C48 45.5625 46.65 43.2675 44.64 42.3562L33 37.125V29.5312C38.43 36.5513 45.69 40.5 54 40.5Z" fill="#A71BA7"/>
</svg>
