<svg width="54" height="54" viewBox="0 0 54 54" fill="none" xmlns="http://www.w3.org/2000/svg">
<path fill-rule="evenodd" clip-rule="evenodd" d="M43.5712 37.4767C46.5362 26.7093 39.5157 15.5882 27.9823 12.5813C14.9579 9.18195 -3.52794 18.0092 0.584433 29.3321C1.94765 33.0769 4.57185 33.953 9.52203 34.0221L9.8316 34.0276C12.4473 34.058 13.1828 34.2238 13.4044 34.5721C13.765 35.1469 13.7707 36.0617 13.3646 38.5794C13.1715 39.7678 13.109 40.1824 13.0352 40.8319C12.5836 44.7867 13.2709 47.871 15.932 50.6623C24.2476 59.3763 40.2228 49.6315 43.5712 37.4767ZM5.94074 27.4859C3.87036 21.7927 17.1191 15.4666 26.5111 17.9152C35.0795 20.1511 40.2172 28.2902 38.0843 36.0424C35.7043 44.6872 24.5032 51.5191 20.0955 46.8982C18.7323 45.4721 18.3943 43.9465 18.6812 41.4399C18.7408 40.9037 18.7976 40.5334 18.9765 39.4334C19.5985 35.5725 19.59 33.8093 18.2438 31.6785C16.5568 29.006 14.5517 28.5555 9.9026 28.4975L9.60155 28.4919C6.86376 28.456 6.21339 28.2377 5.9379 27.4859H5.94074Z" fill="#A71BA7"/>
<path d="M14.5461 26.5435C13.6046 26.5435 12.7016 26.1795 12.0359 25.5316C11.3701 24.8838 10.9961 24.0051 10.9961 23.0888C10.9961 22.1726 11.3701 21.2939 12.0359 20.646C12.7016 19.9982 13.6046 19.6342 14.5461 19.6342C15.4877 19.6342 16.3906 19.9982 17.0564 20.646C17.7222 21.2939 18.0962 22.1726 18.0962 23.0888C18.0962 24.0051 17.7222 24.8838 17.0564 25.5316C16.3906 26.1795 15.4877 26.5435 14.5461 26.5435ZM25.1963 26.5435C24.2547 26.5435 23.3518 26.1795 22.686 25.5316C22.0203 24.8838 21.6462 24.0051 21.6462 23.0888C21.6462 22.1726 22.0203 21.2939 22.686 20.646C23.3518 19.9982 24.2547 19.6342 25.1963 19.6342C26.1378 19.6342 27.0408 19.9982 27.7065 20.646C28.3723 21.2939 28.7463 22.1726 28.7463 23.0888C28.7463 24.0051 28.3723 24.8838 27.7065 25.5316C27.0408 26.1795 26.1378 26.5435 25.1963 26.5435ZM32.2964 34.8346C31.3548 34.8346 30.4519 34.4706 29.7861 33.8227C29.1203 33.1749 28.7463 32.2962 28.7463 31.3799C28.7463 30.4637 29.1203 29.585 29.7861 28.9371C30.4519 28.2893 31.3548 27.9253 32.2964 27.9253C33.2379 27.9253 34.1409 28.2893 34.8066 28.9371C35.4724 29.585 35.8464 30.4637 35.8464 31.3799C35.8464 32.2962 35.4724 33.1749 34.8066 33.8227C34.1409 34.4706 33.2379 34.8346 32.2964 34.8346ZM28.0363 44.5075C27.0948 44.5075 26.1918 44.1436 25.5261 43.4957C24.8603 42.8478 24.4863 41.9691 24.4863 41.0529C24.4863 40.1367 24.8603 39.258 25.5261 38.6101C26.1918 37.9622 27.0948 37.5983 28.0363 37.5983C28.9778 37.5983 29.8808 37.9622 30.5466 38.6101C31.2123 39.258 31.5864 40.1367 31.5864 41.0529C31.5864 41.9691 31.2123 42.8478 30.5466 43.4957C29.8808 44.1436 28.9778 44.5075 28.0363 44.5075ZM38.3173 8.86959C38.654 8.69403 39.0237 8.58638 39.4042 8.55309C39.7847 8.51981 40.1682 8.56157 40.5317 8.67587C40.8952 8.79018 41.2313 8.97468 41.5198 9.21833C41.8084 9.46199 42.0434 9.75979 42.2109 10.0939L53.8352 33.309C54.0293 33.7263 54.0528 34.1998 53.9009 34.6334C53.7491 35.0669 53.4332 35.4279 53.0177 35.643C52.6021 35.858 52.1179 35.911 51.6636 35.7911C51.2093 35.6713 50.819 35.3875 50.572 34.9976L37.2011 12.6946C37.0089 12.3737 36.8853 12.0184 36.8376 11.6499C36.7899 11.2815 36.8192 10.9074 36.9237 10.5502C37.0282 10.193 37.2058 9.86006 37.4457 9.57127C37.6856 9.28248 37.9831 9.04381 38.3201 8.86959H38.3173Z" fill="#A71BA7"/>
<path fill-rule="evenodd" clip-rule="evenodd" d="M33.1111 8.53515C34.4942 11.0639 36.8202 11.7714 39.0695 10.6079C41.316 9.44717 42.0175 7.17264 40.6344 4.64386C39.0553 1.7475 35.67 -0.878018 33.4263 0.279973C31.1827 1.44073 31.5292 5.63879 33.1139 8.53515H33.1111ZM35.6189 7.23621C35.116 6.25354 34.8077 5.18754 34.71 4.09388C34.6678 3.63667 34.685 3.17611 34.7612 2.72309L34.8123 2.74796C34.9543 2.81429 35.3945 3.01327 35.9568 3.44994C36.8145 4.11599 37.6665 5.0971 38.1266 5.94003C38.777 7.12843 38.5924 7.72538 37.7347 8.17034C36.8827 8.61253 36.2692 8.4246 35.6189 7.23897V7.23621Z" fill="#A71BA7"/>
</svg>
