<svg width="54" height="54" viewBox="0 0 54 54" fill="none" xmlns="http://www.w3.org/2000/svg">
<path d="M42.984 31.6809C42.309 31.5781 39.717 30.858 39.042 30.5752L33.453 47.2385L25.11 44.3327L31.05 29.4951L22.815 20.572L29.7 16.8176C30.915 19.7234 32.859 22.1664 35.424 24.1721C37.989 26.1779 40.932 27.4379 44.226 27.9265L47.25 19.1063L43.362 17.8977L41.958 22.0121C40.176 21.2921 38.61 20.212 37.26 18.8234C35.91 17.4091 34.938 15.7633 34.344 13.9118L33.453 11.1346C33.129 10.106 32.508 9.28313 31.617 8.66597C30.726 8.07452 29.7 7.71451 28.701 7.63737C27.648 7.56022 26.622 7.71451 25.65 8.25453L16.2 13.449C15.201 13.989 14.472 14.7604 14.013 15.7376C13.5 16.7148 13.392 17.6919 13.5 18.7463C13.608 19.8006 14.202 20.7263 14.958 21.5235L24.597 31.0638L20.034 42.5327L1.269 36.1296L0 39.7554L37.908 52.9215C41.662 54.1682 45.7176 54.3381 49.572 53.4101C51.165 52.9987 52.65 52.433 54 51.7129L50.949 48.8586C48.924 49.7072 46.818 50.1443 44.631 50.1443C42.849 50.1443 41.067 49.8615 39.285 49.2957L37.26 48.5757L42.984 31.6809ZM45.9 5.14301C45.9 7.99738 43.497 10.286 40.5 10.286C37.503 10.286 35.1 7.99738 35.1 5.14301C35.1 2.28864 37.53 0 40.5 0C43.47 0 45.9 2.31435 45.9 5.14301Z" fill="#A71BA7"/>
</svg>
