<svg width="109" height="97" viewBox="0 0 109 97" fill="none" xmlns="http://www.w3.org/2000/svg">
<path d="M5.32306 97H103.677C107.764 97 110.312 92.5278 108.295 88.9177L59.0913 2.70622C58.629 1.88419 57.9609 1.20088 57.1545 0.725609C56.3482 0.250334 55.4324 0 54.5 0C53.5676 0 52.6518 0.250334 51.8455 0.725609C51.0391 1.20088 50.371 1.88419 49.9087 2.70622L0.705259 88.9177C-1.31171 92.5278 1.23604 97 5.32306 97ZM59.8344 80.8353H49.2187V70.0589H59.8344V80.8353ZM54.5265 59.2825C51.6072 59.2825 49.2187 56.8578 49.2187 53.8943V43.1178C49.2187 40.1543 51.6072 37.7296 54.5265 37.7296C57.4458 37.7296 59.8344 40.1543 59.8344 43.1178V53.8943C59.8344 56.8578 57.4458 59.2825 54.5265 59.2825Z" fill="#A71BA7"/>
</svg>
