<svg width="178" height="179" viewBox="0 0 178 179" fill="none" xmlns="http://www.w3.org/2000/svg">
<path d="M72.477 43.3423C68.5029 44.12 64.1513 46.6977 60.7323 52.7418C60.3722 53.3765 59.8908 53.934 59.3154 54.3824C58.7401 54.8309 58.0821 55.1616 57.3791 55.3555C56.6761 55.5495 55.9418 55.6029 55.2181 55.5129C54.4945 55.4228 53.7956 55.191 53.1615 54.8306C52.5273 54.4702 51.9703 53.9883 51.5223 53.4125C51.0742 52.8366 50.7438 52.1781 50.55 51.4745C50.3562 50.7709 50.3028 50.0359 50.3928 49.3116C50.4828 48.5873 50.7144 47.8879 51.0745 47.2532C55.97 38.6314 62.9302 33.8872 70.3456 32.4428C77.2454 31.1386 84.3814 32.5774 90.2384 36.4537C95.6112 40.0091 99.9517 45.8199 100.085 52.7862C100.229 60.0636 95.8111 66.63 87.663 71.452C82.1348 74.7185 79.9812 76.9406 79.0598 78.4183C78.2828 79.6627 78.1051 80.7959 78.1051 83.3291C78.1051 84.8025 77.5204 86.2155 76.4795 87.2573C75.4386 88.2991 74.0268 88.8844 72.5547 88.8844C71.0826 88.8844 69.6709 88.2991 68.63 87.2573C67.589 86.2155 67.0043 84.8025 67.0043 83.3291C67.0043 80.3071 67.1597 76.5517 69.6352 72.5519C71.9664 68.8076 75.9516 65.4745 82.0127 61.8858C87.9516 58.3637 89.0284 55.0195 88.9951 53.0196C88.9396 50.7197 87.4188 47.9087 84.1107 45.7199C80.6857 43.4521 76.5162 42.5999 72.477 43.3423ZM75.3299 116.661C77.538 116.661 79.6557 115.783 81.2171 114.22C82.7784 112.657 83.6556 110.538 83.6556 108.328C83.6556 106.118 82.7784 103.998 81.2171 102.436C79.6557 100.873 77.538 99.995 75.3299 99.995C73.1218 99.995 71.0042 100.873 69.4428 102.436C67.8814 103.998 67.0043 106.118 67.0043 108.328C67.0043 110.538 67.8814 112.657 69.4428 114.22C71.0042 115.783 73.1218 116.661 75.3299 116.661ZM72.5547 1.96611e-06C59.9717 -0.00293632 47.6067 3.28757 36.6868 9.54496C25.7669 15.8023 16.6717 24.8091 10.3039 35.6713C3.93611 46.5335 0.517059 58.8736 0.386076 71.4668C0.255094 84.0601 3.41673 96.4687 9.55723 107.461L0.732027 130.593C-0.00252938 132.516 -0.188859 134.606 0.193826 136.628C0.57651 138.651 1.51316 140.528 2.89928 142.049C4.2854 143.57 6.06648 144.675 8.04381 145.242C10.0211 145.809 12.117 145.815 14.0975 145.259L41.7054 137.515C51.4851 142.14 62.1786 144.505 72.9949 144.436C83.8111 144.366 94.4733 141.863 104.193 137.113C113.912 132.363 122.44 125.486 129.146 116.992C135.852 108.497 140.564 98.6028 142.934 88.0399C145.303 77.477 145.27 66.516 142.836 55.9678C140.402 45.4195 135.63 35.5539 128.872 27.1007C122.115 18.6475 113.545 11.823 103.797 7.13202C94.0484 2.44103 83.3712 0.00359157 72.5547 1.96611e-06ZM11.4999 72.2186C11.5048 58.9018 15.8559 45.9512 23.8912 35.3371C31.9264 24.723 43.2059 17.0265 56.0135 13.4186C68.821 9.8108 82.4556 10.4891 94.8426 15.3503C107.23 20.2116 117.691 28.9897 124.635 40.3489C131.579 51.7082 134.625 65.0269 133.311 78.2786C131.996 91.5302 126.393 103.989 117.353 113.76C108.313 123.531 96.3311 130.079 83.2309 132.408C70.1307 134.736 56.6291 132.718 44.7803 126.66L42.8488 125.66L11.1002 134.56L21.857 106.384L20.4361 104.05C14.5764 94.4698 11.4833 83.4517 11.4999 72.2186ZM105.447 177.769C95.0598 177.78 84.7936 175.542 75.3526 171.208C65.9117 166.873 57.5196 160.546 50.7526 152.659C57.1279 154.388 63.6871 155.346 70.2901 155.514C80.573 162.784 92.8575 166.678 105.447 166.658C115.46 166.658 124.895 164.247 133.221 159.992L135.153 158.992L166.901 167.892L156.144 139.715L157.565 137.382C163.227 128.116 166.501 117.227 166.501 105.55C166.519 93.2126 162.786 81.1614 155.8 70.9964C155.709 64.3867 154.834 57.8113 153.191 51.4085C160.872 58.1775 167.022 66.5079 171.232 75.8441C175.441 85.1803 177.613 95.3075 177.602 105.55C177.602 118.338 174.272 130.36 168.433 140.793L177.269 163.925C178.003 165.847 178.189 167.935 177.806 169.956C177.424 171.977 176.488 173.853 175.104 175.373C173.719 176.894 171.94 178 169.965 178.568C167.989 179.136 165.895 179.144 163.915 178.591L136.296 170.847C126.938 175.291 116.47 177.769 105.436 177.769H105.447Z" fill="#A71BA7"/>
</svg>
