<svg width="148" height="148" viewBox="0 0 148 148" fill="none" xmlns="http://www.w3.org/2000/svg">
<path d="M86.95 81.4C86.95 78.9467 87.9246 76.594 89.6593 74.8593C91.394 73.1245 93.7467 72.15 96.2 72.15C98.6533 72.15 101.006 73.1245 102.741 74.8593C104.475 76.594 105.45 78.9467 105.45 81.4C105.45 83.8533 104.475 86.206 102.741 87.9407C101.006 89.6755 98.6533 90.65 96.2 90.65C93.7467 90.65 91.394 89.6755 89.6593 87.9407C87.9246 86.206 86.95 83.8533 86.95 81.4ZM148 74V148H0V74C0 33.3 33.3 0 74 0C114.7 0 148 33.3 148 74ZM14.8 74C14.8 106.634 41.366 133.2 74 133.2C106.634 133.2 133.2 106.634 133.2 74C133.2 68.154 132.312 62.53 130.758 57.276C116.452 60.5994 101.48 59.5791 87.7567 54.3457C74.0337 49.1123 62.1841 39.9036 53.724 27.898C46.472 45.584 32.634 59.866 15.17 67.636C14.8 69.708 14.8 71.854 14.8 74ZM51.8 90.65C54.2533 90.65 56.606 89.6755 58.3407 87.9407C60.0755 86.206 61.05 83.8533 61.05 81.4C61.05 78.9467 60.0755 76.594 58.3407 74.8593C56.606 73.1245 54.2533 72.15 51.8 72.15C49.3467 72.15 46.994 73.1245 45.2593 74.8593C43.5246 76.594 42.55 78.9467 42.55 81.4C42.55 83.8533 43.5246 86.206 45.2593 87.9407C46.994 89.6755 49.3467 90.65 51.8 90.65Z" fill="#A71BA7"/>
</svg>
