<svg width="211" height="189" viewBox="0 0 211 189" fill="none" xmlns="http://www.w3.org/2000/svg">
<path d="M165.909 105.21L126.6 136.5H73.85V126H116.736C117.69 126 118.626 125.741 119.445 125.253C120.263 124.765 120.933 124.065 121.383 123.228C121.834 122.391 122.048 121.448 122.002 120.499C121.956 119.551 121.653 118.632 121.125 117.841L111.756 103.855C109.834 100.977 107.226 98.6156 104.165 96.9832C101.104 95.3508 97.6844 94.4977 94.2115 94.5H10.55C7.75197 94.5 5.06853 95.6062 3.09002 97.5754C1.11151 99.5445 0 102.215 0 105V168C0 173.57 2.22303 178.911 6.18005 182.849C10.1371 186.788 15.5039 189 21.1 189H122.791C127.303 189.001 131.762 188.042 135.871 186.188C139.979 184.333 143.642 181.626 146.613 178.248L211 105L195.681 99.918C190.67 98.2553 185.319 97.8685 180.119 98.7929C174.918 99.7173 170.033 101.924 165.909 105.21ZM141.402 94.5C149.796 94.5 157.846 91.1813 163.782 85.2739C169.717 79.3665 173.052 71.3543 173.052 63C173.052 34.566 141.402 0 141.402 0C141.402 0 109.752 34.3455 109.752 63C109.752 71.3543 113.086 79.3665 119.022 85.2739C124.957 91.1813 133.008 94.5 141.402 94.5Z" fill="#A71BA7"/>
</svg>
