<svg width="148" height="148" viewBox="0 0 148 148" fill="none" xmlns="http://www.w3.org/2000/svg">
<path d="M74 0C33.3 0 0 33.3 0 74V148H148V74C148 33.3 114.7 0 74 0ZM74 14.8C95.46 14.8 114.256 26.344 124.616 43.512C121.434 44.03 118.104 44.4 114.7 44.4C93.24 44.4 74.444 32.856 64.084 15.688C67.266 15.17 70.596 14.8 74 14.8ZM44.992 22.422C40.3227 36.3381 30.6774 48.039 17.908 55.278C22.5773 41.3619 32.2226 29.6611 44.992 22.422ZM14.8 72.964C34.04 65.712 49.506 50.838 57.276 31.894C64.2166 40.4271 72.9721 47.3057 82.9056 52.0292C92.8391 56.7527 103.701 59.2024 114.7 59.2C120.25 59.2 125.578 58.534 130.758 57.424C132.312 62.678 133.2 68.228 133.2 74C133.2 106.634 106.634 133.2 74 133.2C41.366 133.2 14.8 106.634 14.8 74V72.964ZM14.8 133.2V118.4C19.018 123.95 24.05 128.982 29.6 133.2H14.8ZM133.2 133.2H118.4C123.95 128.982 128.982 123.95 133.2 118.4V133.2ZM86.95 81.4C86.95 78.9467 87.9246 76.594 89.6593 74.8593C91.394 73.1245 93.7467 72.15 96.2 72.15C98.6533 72.15 101.006 73.1245 102.741 74.8593C104.475 76.594 105.45 78.9467 105.45 81.4C105.45 83.8533 104.475 86.206 102.741 87.9407C101.006 89.6755 98.6533 90.65 96.2 90.65C93.7467 90.65 91.394 89.6755 89.6593 87.9407C87.9246 86.206 86.95 83.8533 86.95 81.4ZM42.55 81.4C42.55 78.9467 43.5246 76.594 45.2593 74.8593C46.994 73.1245 49.3467 72.15 51.8 72.15C54.2533 72.15 56.606 73.1245 58.3407 74.8593C60.0755 76.594 61.05 78.9467 61.05 81.4C61.05 83.8533 60.0755 86.206 58.3407 87.9407C56.606 89.6755 54.2533 90.65 51.8 90.65C49.3467 90.65 46.994 89.6755 45.2593 87.9407C43.5246 86.206 42.55 83.8533 42.55 81.4Z" fill="#A71BA7"/>
</svg>
