<svg width="702" height="370" viewBox="0 0 702 370" fill="none" xmlns="http://www.w3.org/2000/svg">
<g filter="url(#filter0_dd_0_1)">
<path d="M348.024 180.976V0C447.974 0 529 81.0255 529 180.976C529 280.926 447.974 361.951 348.024 361.951C329.034 361.951 310.161 358.962 292.1 353.094L348.024 180.976Z" fill="#A71BA7" fill-opacity="0.7"/>
<path d="M348.024 180.975L292.1 353.093C197.042 322.207 145.02 220.109 175.906 125.05C193.808 69.9546 237.004 26.7587 292.1 8.85693L348.024 180.975Z" fill="#EDDBC0"/>
<path d="M348.024 180.976L292.1 8.85757C310.161 2.9891 329.034 0 348.024 0V180.976Z" fill="#A71BA7" fill-opacity="0.1"/>
</g>
<path d="M439.333 222.5C439.333 223.973 440.527 225.167 442 225.167C443.473 225.167 444.667 223.973 444.667 222.5C444.667 221.027 443.473 219.833 442 219.833C440.527 219.833 439.333 221.027 439.333 222.5ZM442 223H702V222H442V223Z" fill="black"/>
<path d="M551.538 206.371C551.538 207.182 551.342 207.872 550.949 208.442C550.556 208.999 549.993 209.43 549.258 209.734C548.536 210.038 547.681 210.19 546.693 210.19C546.186 210.19 545.699 210.165 545.23 210.114C544.774 210.063 544.356 209.994 543.976 209.905C543.596 209.804 543.26 209.683 542.969 209.544V207.91C543.425 208.113 543.989 208.296 544.66 208.461C545.344 208.626 546.047 208.708 546.769 208.708C547.44 208.708 548.004 208.619 548.46 208.442C548.916 208.265 549.258 208.011 549.486 207.682C549.714 207.353 549.828 206.966 549.828 206.523C549.828 206.08 549.733 205.706 549.543 205.402C549.353 205.098 549.024 204.819 548.555 204.566C548.099 204.3 547.459 204.021 546.636 203.73C546.053 203.515 545.54 203.287 545.097 203.046C544.666 202.793 544.305 202.508 544.014 202.191C543.723 201.874 543.501 201.513 543.349 201.108C543.21 200.703 543.14 200.234 543.14 199.702C543.14 198.98 543.324 198.366 543.691 197.859C544.058 197.34 544.565 196.941 545.211 196.662C545.87 196.383 546.623 196.244 547.472 196.244C548.219 196.244 548.903 196.314 549.524 196.453C550.145 196.592 550.708 196.776 551.215 197.004L550.683 198.467C550.214 198.264 549.701 198.093 549.144 197.954C548.599 197.815 548.029 197.745 547.434 197.745C546.864 197.745 546.389 197.827 546.009 197.992C545.629 198.157 545.344 198.391 545.154 198.695C544.964 198.986 544.869 199.328 544.869 199.721C544.869 200.177 544.964 200.557 545.154 200.861C545.344 201.165 545.654 201.437 546.085 201.678C546.516 201.919 547.098 202.178 547.833 202.457C548.631 202.748 549.302 203.065 549.847 203.407C550.404 203.736 550.822 204.135 551.101 204.604C551.392 205.073 551.538 205.662 551.538 206.371ZM557.444 208.822C557.697 208.822 557.957 208.803 558.223 208.765C558.489 208.714 558.704 208.664 558.869 208.613V209.886C558.691 209.975 558.438 210.044 558.109 210.095C557.779 210.158 557.463 210.19 557.159 210.19C556.627 210.19 556.133 210.101 555.677 209.924C555.233 209.734 554.872 209.411 554.594 208.955C554.315 208.499 554.176 207.859 554.176 207.036V201.108H552.732V200.31L554.195 199.645L554.86 197.479H555.848V199.816H558.793V201.108H555.848V206.998C555.848 207.619 555.993 208.081 556.285 208.385C556.589 208.676 556.975 208.822 557.444 208.822ZM569.762 204.889C569.762 205.738 569.648 206.491 569.42 207.15C569.205 207.796 568.888 208.347 568.47 208.803C568.065 209.259 567.564 209.607 566.969 209.848C566.386 210.076 565.734 210.19 565.012 210.19C564.341 210.19 563.72 210.076 563.15 209.848C562.58 209.607 562.086 209.259 561.668 208.803C561.25 208.347 560.921 207.796 560.68 207.15C560.452 206.491 560.338 205.738 560.338 204.889C560.338 203.762 560.528 202.812 560.908 202.039C561.288 201.254 561.833 200.658 562.542 200.253C563.251 199.835 564.094 199.626 565.069 199.626C565.994 199.626 566.804 199.835 567.501 200.253C568.21 200.658 568.761 201.254 569.154 202.039C569.559 202.812 569.762 203.762 569.762 204.889ZM562.067 204.889C562.067 205.687 562.168 206.384 562.371 206.979C562.586 207.562 562.916 208.011 563.359 208.328C563.802 208.645 564.366 208.803 565.05 208.803C565.734 208.803 566.298 208.645 566.741 208.328C567.184 208.011 567.507 207.562 567.71 206.979C567.925 206.384 568.033 205.687 568.033 204.889C568.033 204.078 567.925 203.388 567.71 202.818C567.495 202.248 567.165 201.811 566.722 201.507C566.291 201.19 565.728 201.032 565.031 201.032C563.992 201.032 563.239 201.374 562.77 202.058C562.301 202.742 562.067 203.686 562.067 204.889ZM577.257 199.626C578.511 199.626 579.518 200.063 580.278 200.937C581.051 201.811 581.437 203.128 581.437 204.889C581.437 206.042 581.26 207.017 580.905 207.815C580.563 208.6 580.075 209.196 579.442 209.601C578.821 209.994 578.087 210.19 577.238 210.19C576.719 210.19 576.256 210.12 575.851 209.981C575.446 209.842 575.097 209.664 574.806 209.449C574.527 209.221 574.287 208.974 574.084 208.708H573.97C573.995 208.923 574.021 209.196 574.046 209.525C574.071 209.854 574.084 210.139 574.084 210.38V214.56H572.412V199.816H573.78L574.008 201.203H574.084C574.287 200.912 574.527 200.646 574.806 200.405C575.097 200.164 575.439 199.974 575.832 199.835C576.237 199.696 576.712 199.626 577.257 199.626ZM576.953 201.032C576.269 201.032 575.718 201.165 575.3 201.431C574.882 201.684 574.578 202.071 574.388 202.59C574.198 203.109 574.097 203.768 574.084 204.566V204.889C574.084 205.725 574.173 206.434 574.35 207.017C574.527 207.6 574.825 208.043 575.243 208.347C575.674 208.651 576.256 208.803 576.991 208.803C577.612 208.803 578.118 208.632 578.511 208.29C578.916 207.948 579.214 207.486 579.404 206.903C579.607 206.308 579.708 205.63 579.708 204.87C579.708 203.705 579.48 202.774 579.024 202.077C578.581 201.38 577.89 201.032 576.953 201.032ZM588.946 199.626C590.2 199.626 591.207 200.063 591.967 200.937C592.74 201.811 593.126 203.128 593.126 204.889C593.126 206.042 592.949 207.017 592.594 207.815C592.252 208.6 591.765 209.196 591.131 209.601C590.511 209.994 589.776 210.19 588.927 210.19C588.408 210.19 587.946 210.12 587.54 209.981C587.135 209.842 586.787 209.664 586.495 209.449C586.217 209.221 585.976 208.974 585.773 208.708H585.659C585.685 208.923 585.71 209.196 585.735 209.525C585.761 209.854 585.773 210.139 585.773 210.38V214.56H584.101V199.816H585.469L585.697 201.203H585.773C585.976 200.912 586.217 200.646 586.495 200.405C586.787 200.164 587.129 199.974 587.521 199.835C587.927 199.696 588.402 199.626 588.946 199.626ZM588.642 201.032C587.958 201.032 587.407 201.165 586.989 201.431C586.571 201.684 586.267 202.071 586.077 202.59C585.887 203.109 585.786 203.768 585.773 204.566V204.889C585.773 205.725 585.862 206.434 586.039 207.017C586.217 207.6 586.514 208.043 586.932 208.347C587.363 208.651 587.946 208.803 588.68 208.803C589.301 208.803 589.808 208.632 590.2 208.29C590.606 207.948 590.903 207.486 591.093 206.903C591.296 206.308 591.397 205.63 591.397 204.87C591.397 203.705 591.169 202.774 590.713 202.077C590.27 201.38 589.58 201.032 588.642 201.032ZM599.724 199.626C600.598 199.626 601.345 199.816 601.966 200.196C602.599 200.576 603.08 201.114 603.41 201.811C603.752 202.495 603.923 203.299 603.923 204.224V205.231H596.95C596.975 206.384 597.266 207.264 597.824 207.872C598.394 208.467 599.185 208.765 600.199 208.765C600.845 208.765 601.415 208.708 601.909 208.594C602.415 208.467 602.935 208.29 603.467 208.062V209.525C602.947 209.753 602.434 209.918 601.928 210.019C601.421 210.133 600.819 210.19 600.123 210.19C599.16 210.19 598.305 209.994 597.558 209.601C596.823 209.208 596.247 208.626 595.829 207.853C595.423 207.068 595.221 206.111 595.221 204.984C595.221 203.869 595.404 202.913 595.772 202.115C596.152 201.317 596.677 200.703 597.349 200.272C598.033 199.841 598.824 199.626 599.724 199.626ZM599.705 200.994C598.907 200.994 598.273 201.254 597.805 201.773C597.349 202.28 597.076 202.989 596.988 203.901H602.175C602.175 203.318 602.086 202.812 601.909 202.381C601.731 201.95 601.459 201.615 601.092 201.374C600.737 201.121 600.275 200.994 599.705 200.994ZM610.125 210.19C608.859 210.19 607.845 209.753 607.085 208.879C606.325 207.992 605.945 206.675 605.945 204.927C605.945 203.179 606.325 201.862 607.085 200.975C607.858 200.076 608.878 199.626 610.144 199.626C610.676 199.626 611.139 199.696 611.531 199.835C611.924 199.962 612.266 200.139 612.557 200.367C612.849 200.595 613.096 200.848 613.298 201.127H613.412C613.4 200.962 613.374 200.722 613.336 200.405C613.311 200.076 613.298 199.816 613.298 199.626V195.56H614.97V210H613.621L613.374 208.632H613.298C613.096 208.923 612.849 209.189 612.557 209.43C612.266 209.658 611.918 209.842 611.512 209.981C611.12 210.12 610.657 210.19 610.125 210.19ZM610.391 208.803C611.468 208.803 612.222 208.512 612.652 207.929C613.096 207.334 613.317 206.441 613.317 205.25V204.946C613.317 203.679 613.108 202.71 612.69 202.039C612.272 201.355 611.5 201.013 610.372 201.013C609.473 201.013 608.795 201.374 608.339 202.096C607.896 202.805 607.674 203.762 607.674 204.965C607.674 206.181 607.896 207.125 608.339 207.796C608.795 208.467 609.479 208.803 610.391 208.803ZM626.75 210.19C625.484 210.19 624.47 209.753 623.71 208.879C622.95 207.992 622.57 206.675 622.57 204.927C622.57 203.179 622.95 201.862 623.71 200.975C624.483 200.076 625.503 199.626 626.769 199.626C627.301 199.626 627.764 199.696 628.156 199.835C628.549 199.962 628.891 200.139 629.182 200.367C629.474 200.595 629.721 200.848 629.923 201.127H630.037C630.025 200.962 629.999 200.722 629.961 200.405C629.936 200.076 629.923 199.816 629.923 199.626V195.56H631.595V210H630.246L629.999 208.632H629.923C629.721 208.923 629.474 209.189 629.182 209.43C628.891 209.658 628.543 209.842 628.137 209.981C627.745 210.12 627.282 210.19 626.75 210.19ZM627.016 208.803C628.093 208.803 628.847 208.512 629.277 207.929C629.721 207.334 629.942 206.441 629.942 205.25V204.946C629.942 203.679 629.733 202.71 629.315 202.039C628.897 201.355 628.125 201.013 626.997 201.013C626.098 201.013 625.42 201.374 624.964 202.096C624.521 202.805 624.299 203.762 624.299 204.965C624.299 206.181 624.521 207.125 624.964 207.796C625.42 208.467 626.104 208.803 627.016 208.803ZM643.684 204.889C643.684 205.738 643.57 206.491 643.342 207.15C643.127 207.796 642.81 208.347 642.392 208.803C641.987 209.259 641.486 209.607 640.891 209.848C640.308 210.076 639.656 210.19 638.934 210.19C638.263 210.19 637.642 210.076 637.072 209.848C636.502 209.607 636.008 209.259 635.59 208.803C635.172 208.347 634.843 207.796 634.602 207.15C634.374 206.491 634.26 205.738 634.26 204.889C634.26 203.762 634.45 202.812 634.83 202.039C635.21 201.254 635.755 200.658 636.464 200.253C637.173 199.835 638.016 199.626 638.991 199.626C639.916 199.626 640.726 199.835 641.423 200.253C642.132 200.658 642.683 201.254 643.076 202.039C643.481 202.812 643.684 203.762 643.684 204.889ZM635.989 204.889C635.989 205.687 636.09 206.384 636.293 206.979C636.508 207.562 636.838 208.011 637.281 208.328C637.724 208.645 638.288 208.803 638.972 208.803C639.656 208.803 640.22 208.645 640.663 208.328C641.106 208.011 641.429 207.562 641.632 206.979C641.847 206.384 641.955 205.687 641.955 204.889C641.955 204.078 641.847 203.388 641.632 202.818C641.417 202.248 641.087 201.811 640.644 201.507C640.213 201.19 639.65 201.032 638.953 201.032C637.914 201.032 637.161 201.374 636.692 202.058C636.223 202.742 635.989 203.686 635.989 204.889ZM651.236 199.626C652.452 199.626 653.37 199.924 653.991 200.519C654.611 201.102 654.922 202.052 654.922 203.369V210H653.269V203.483C653.269 202.66 653.085 202.045 652.718 201.64C652.35 201.235 651.774 201.032 650.989 201.032C649.861 201.032 649.082 201.349 648.652 201.982C648.221 202.615 648.006 203.527 648.006 204.718V210H646.334V199.816H647.683L647.93 201.203H648.025C648.253 200.848 648.531 200.557 648.861 200.329C649.203 200.088 649.576 199.911 649.982 199.797C650.387 199.683 650.805 199.626 651.236 199.626ZM661.936 199.645C663.177 199.645 664.096 199.917 664.691 200.462C665.286 201.007 665.584 201.874 665.584 203.065V210H664.368L664.045 208.556H663.969C663.678 208.923 663.374 209.234 663.057 209.487C662.753 209.728 662.398 209.905 661.993 210.019C661.6 210.133 661.119 210.19 660.549 210.19C659.941 210.19 659.39 210.082 658.896 209.867C658.415 209.652 658.035 209.322 657.756 208.879C657.477 208.423 657.338 207.853 657.338 207.169C657.338 206.156 657.737 205.377 658.535 204.832C659.333 204.275 660.562 203.971 662.221 203.92L663.95 203.863V203.255C663.95 202.406 663.766 201.817 663.399 201.488C663.032 201.159 662.512 200.994 661.841 200.994C661.309 200.994 660.802 201.076 660.321 201.241C659.84 201.393 659.39 201.57 658.972 201.773L658.459 200.519C658.902 200.278 659.428 200.076 660.036 199.911C660.644 199.734 661.277 199.645 661.936 199.645ZM662.43 205.079C661.163 205.13 660.283 205.332 659.789 205.687C659.308 206.042 659.067 206.542 659.067 207.188C659.067 207.758 659.238 208.176 659.58 208.442C659.935 208.708 660.384 208.841 660.929 208.841C661.79 208.841 662.506 208.607 663.076 208.138C663.646 207.657 663.931 206.922 663.931 205.934V205.022L662.43 205.079ZM672.13 208.822C672.384 208.822 672.643 208.803 672.909 208.765C673.175 208.714 673.391 208.664 673.555 208.613V209.886C673.378 209.975 673.125 210.044 672.795 210.095C672.466 210.158 672.149 210.19 671.845 210.19C671.313 210.19 670.819 210.101 670.363 209.924C669.92 209.734 669.559 209.411 669.28 208.955C669.002 208.499 668.862 207.859 668.862 207.036V201.108H667.418V200.31L668.881 199.645L669.546 197.479H670.534V199.816H673.479V201.108H670.534V206.998C670.534 207.619 670.68 208.081 670.971 208.385C671.275 208.676 671.662 208.822 672.13 208.822ZM677.266 199.816V210H675.594V199.816H677.266ZM676.449 195.997C676.703 195.997 676.924 196.086 677.114 196.263C677.317 196.428 677.418 196.694 677.418 197.061C677.418 197.416 677.317 197.682 677.114 197.859C676.924 198.036 676.703 198.125 676.449 198.125C676.171 198.125 675.936 198.036 675.746 197.859C675.556 197.682 675.461 197.416 675.461 197.061C675.461 196.694 675.556 196.428 675.746 196.263C675.936 196.086 676.171 195.997 676.449 195.997ZM685.395 199.626C686.611 199.626 687.529 199.924 688.15 200.519C688.771 201.102 689.081 202.052 689.081 203.369V210H687.428V203.483C687.428 202.66 687.244 202.045 686.877 201.64C686.51 201.235 685.933 201.032 685.148 201.032C684.021 201.032 683.242 201.349 682.811 201.982C682.38 202.615 682.165 203.527 682.165 204.718V210H680.493V199.816H681.842L682.089 201.203H682.184C682.412 200.848 682.691 200.557 683.02 200.329C683.362 200.088 683.736 199.911 684.141 199.797C684.546 199.683 684.964 199.626 685.395 199.626ZM695.848 199.626C696.519 199.626 697.121 199.753 697.653 200.006C698.198 200.259 698.66 200.646 699.04 201.165H699.135L699.363 199.816H700.693V210.171C700.693 211.134 700.528 211.938 700.199 212.584C699.87 213.243 699.369 213.737 698.698 214.066C698.027 214.395 697.172 214.56 696.133 214.56C695.398 214.56 694.721 214.503 694.1 214.389C693.492 214.288 692.947 214.129 692.466 213.914V212.375C692.795 212.54 693.156 212.679 693.549 212.793C693.942 212.92 694.366 213.015 694.822 213.078C695.278 213.141 695.747 213.173 696.228 213.173C697.102 213.173 697.786 212.913 698.28 212.394C698.787 211.887 699.04 211.191 699.04 210.304V209.905C699.04 209.753 699.046 209.538 699.059 209.259C699.072 208.968 699.084 208.765 699.097 208.651H699.021C698.666 209.17 698.223 209.557 697.691 209.81C697.172 210.063 696.564 210.19 695.867 210.19C694.55 210.19 693.517 209.728 692.77 208.803C692.035 207.878 691.668 206.586 691.668 204.927C691.668 203.838 691.833 202.9 692.162 202.115C692.504 201.317 692.985 200.703 693.606 200.272C694.227 199.841 694.974 199.626 695.848 199.626ZM696.076 201.032C695.506 201.032 695.018 201.184 694.613 201.488C694.22 201.792 693.916 202.235 693.701 202.818C693.498 203.401 693.397 204.11 693.397 204.946C693.397 206.2 693.625 207.163 694.081 207.834C694.55 208.493 695.227 208.822 696.114 208.822C696.633 208.822 697.077 208.759 697.444 208.632C697.811 208.493 698.115 208.284 698.356 208.005C698.597 207.714 698.774 207.346 698.888 206.903C699.002 206.46 699.059 205.934 699.059 205.326V204.927C699.059 204.002 698.951 203.255 698.736 202.685C698.533 202.115 698.21 201.697 697.767 201.431C697.324 201.165 696.76 201.032 696.076 201.032Z" fill="black"/>
<path d="M670.225 241.678C671.15 241.678 671.954 241.836 672.638 242.153C673.322 242.47 673.848 242.926 674.215 243.521C674.595 244.104 674.785 244.819 674.785 245.668C674.785 246.605 674.582 247.416 674.177 248.1C673.772 248.771 673.189 249.291 672.429 249.658C671.682 250.013 670.776 250.19 669.712 250.19C669.015 250.19 668.357 250.127 667.736 250C667.128 249.873 666.615 249.69 666.197 249.449V247.872C666.653 248.151 667.204 248.372 667.85 248.537C668.509 248.689 669.136 248.765 669.731 248.765C670.402 248.765 670.985 248.664 671.479 248.461C671.986 248.246 672.378 247.923 672.657 247.492C672.936 247.049 673.075 246.498 673.075 245.839C673.075 244.952 672.803 244.275 672.258 243.806C671.713 243.325 670.852 243.084 669.674 243.084C669.319 243.084 668.914 243.116 668.458 243.179C668.002 243.242 667.635 243.306 667.356 243.369L666.52 242.837L667.033 236.434H673.835V237.954H668.458L668.135 241.887C668.35 241.849 668.642 241.805 669.009 241.754C669.376 241.703 669.782 241.678 670.225 241.678ZM681.098 241.678C682.023 241.678 682.827 241.836 683.511 242.153C684.195 242.47 684.721 242.926 685.088 243.521C685.468 244.104 685.658 244.819 685.658 245.668C685.658 246.605 685.455 247.416 685.05 248.1C684.645 248.771 684.062 249.291 683.302 249.658C682.555 250.013 681.649 250.19 680.585 250.19C679.888 250.19 679.23 250.127 678.609 250C678.001 249.873 677.488 249.69 677.07 249.449V247.872C677.526 248.151 678.077 248.372 678.723 248.537C679.382 248.689 680.009 248.765 680.604 248.765C681.275 248.765 681.858 248.664 682.352 248.461C682.859 248.246 683.251 247.923 683.53 247.492C683.809 247.049 683.948 246.498 683.948 245.839C683.948 244.952 683.676 244.275 683.131 243.806C682.586 243.325 681.725 243.084 680.547 243.084C680.192 243.084 679.787 243.116 679.331 243.179C678.875 243.242 678.508 243.306 678.229 243.369L677.393 242.837L677.906 236.434H684.708V237.954H679.331L679.008 241.887C679.223 241.849 679.515 241.805 679.882 241.754C680.249 241.703 680.655 241.678 681.098 241.678ZM690.451 236.244C691.388 236.244 692.098 236.618 692.579 237.365C693.06 238.1 693.301 239.138 693.301 240.481C693.301 241.824 693.067 242.875 692.598 243.635C692.142 244.382 691.426 244.756 690.451 244.756C689.856 244.756 689.349 244.585 688.931 244.243C688.513 243.901 688.196 243.413 687.981 242.78C687.778 242.134 687.677 241.368 687.677 240.481C687.677 239.138 687.899 238.1 688.342 237.365C688.785 236.618 689.488 236.244 690.451 236.244ZM690.451 237.422C689.97 237.422 689.615 237.682 689.387 238.201C689.172 238.708 689.064 239.468 689.064 240.481C689.064 241.494 689.172 242.261 689.387 242.78C689.615 243.299 689.97 243.559 690.451 243.559C690.945 243.559 691.312 243.306 691.553 242.799C691.794 242.28 691.914 241.507 691.914 240.481C691.914 239.468 691.794 238.708 691.553 238.201C691.312 237.682 690.945 237.422 690.451 237.422ZM699.134 236.434L691.61 250H690.147L697.671 236.434H699.134ZM698.754 241.678C699.375 241.678 699.894 241.849 700.312 242.191C700.73 242.52 701.047 243.002 701.262 243.635C701.49 244.256 701.604 245.016 701.604 245.915C701.604 247.258 701.37 248.309 700.901 249.069C700.445 249.816 699.729 250.19 698.754 250.19C698.159 250.19 697.652 250.019 697.234 249.677C696.816 249.335 696.499 248.847 696.284 248.214C696.081 247.568 695.98 246.802 695.98 245.915C695.98 244.572 696.202 243.534 696.645 242.799C697.088 242.052 697.791 241.678 698.754 241.678ZM698.754 242.875C698.273 242.875 697.918 243.128 697.69 243.635C697.475 244.142 697.367 244.902 697.367 245.915C697.367 246.941 697.475 247.714 697.69 248.233C697.918 248.74 698.273 248.993 698.754 248.993C699.248 248.993 699.615 248.74 699.856 248.233C700.097 247.726 700.217 246.954 700.217 245.915C700.217 244.902 700.097 244.142 699.856 243.635C699.615 243.128 699.248 242.875 698.754 242.875Z" fill="black"/>
<path d="M242.667 210.5C242.667 209.027 241.473 207.833 240 207.833C238.527 207.833 237.333 209.027 237.333 210.5C237.333 211.973 238.527 213.167 240 213.167C241.473 213.167 242.667 211.973 242.667 210.5ZM240 210L4.37114e-08 210L-4.37114e-08 211L240 211L240 210Z" fill="black"/>
<path d="M12.711 194.084C12.711 195.604 12.426 196.877 11.856 197.903C11.2987 198.929 10.4943 199.702 9.443 200.221C8.39167 200.74 7.11867 201 5.624 201H1.843V187.434H6.023C7.391 187.434 8.57533 187.687 9.576 188.194C10.5767 188.701 11.3493 189.448 11.894 190.436C12.4387 191.411 12.711 192.627 12.711 194.084ZM10.906 194.141C10.906 192.938 10.7033 191.95 10.298 191.177C9.90533 190.404 9.32267 189.834 8.55 189.467C7.79 189.087 6.86533 188.897 5.776 188.897H3.553V199.537H5.396C7.23267 199.537 8.607 199.087 9.519 198.188C10.4437 197.276 10.906 195.927 10.906 194.141ZM24.3479 195.889C24.3479 196.738 24.2339 197.491 24.0059 198.15C23.7906 198.796 23.4739 199.347 23.0559 199.803C22.6506 200.259 22.1502 200.607 21.5549 200.848C20.9722 201.076 20.3199 201.19 19.5979 201.19C18.9266 201.19 18.3059 201.076 17.7359 200.848C17.1659 200.607 16.6719 200.259 16.2539 199.803C15.8359 199.347 15.5066 198.796 15.2659 198.15C15.0379 197.491 14.9239 196.738 14.9239 195.889C14.9239 194.762 15.1139 193.812 15.4939 193.039C15.8739 192.254 16.4186 191.658 17.1279 191.253C17.8372 190.835 18.6796 190.626 19.6549 190.626C20.5796 190.626 21.3902 190.835 22.0869 191.253C22.7962 191.658 23.3472 192.254 23.7399 193.039C24.1452 193.812 24.3479 194.762 24.3479 195.889ZM16.6529 195.889C16.6529 196.687 16.7542 197.384 16.9569 197.979C17.1722 198.562 17.5016 199.011 17.9449 199.328C18.3882 199.645 18.9519 199.803 19.6359 199.803C20.3199 199.803 20.8836 199.645 21.3269 199.328C21.7702 199.011 22.0932 198.562 22.2959 197.979C22.5112 197.384 22.6189 196.687 22.6189 195.889C22.6189 195.078 22.5112 194.388 22.2959 193.818C22.0806 193.248 21.7512 192.811 21.3079 192.507C20.8772 192.19 20.3136 192.032 19.6169 192.032C18.5782 192.032 17.8246 192.374 17.3559 193.058C16.8872 193.742 16.6529 194.686 16.6529 195.889ZM31.8998 190.626C33.1158 190.626 34.0341 190.924 34.6548 191.519C35.2755 192.102 35.5858 193.052 35.5858 194.369V201H33.9328V194.483C33.9328 193.66 33.7491 193.045 33.3818 192.64C33.0145 192.235 32.4381 192.032 31.6528 192.032C30.5255 192.032 29.7465 192.349 29.3158 192.982C28.8851 193.615 28.6698 194.527 28.6698 195.718V201H26.9978V190.816H28.3468L28.5938 192.203H28.6888C28.9168 191.848 29.1955 191.557 29.5248 191.329C29.8668 191.088 30.2405 190.911 30.6458 190.797C31.0511 190.683 31.4691 190.626 31.8998 190.626ZM42.5999 190.645C43.8413 190.645 44.7596 190.917 45.3549 191.462C45.9503 192.007 46.2479 192.874 46.2479 194.065V201H45.0319L44.7089 199.556H44.6329C44.3416 199.923 44.0376 200.234 43.7209 200.487C43.4169 200.728 43.0623 200.905 42.6569 201.019C42.2643 201.133 41.7829 201.19 41.2129 201.19C40.6049 201.19 40.0539 201.082 39.5599 200.867C39.0786 200.652 38.6986 200.322 38.4199 199.879C38.1413 199.423 38.0019 198.853 38.0019 198.169C38.0019 197.156 38.4009 196.377 39.1989 195.832C39.9969 195.275 41.2256 194.971 42.8849 194.92L44.6139 194.863V194.255C44.6139 193.406 44.4303 192.817 44.0629 192.488C43.6956 192.159 43.1763 191.994 42.5049 191.994C41.9729 191.994 41.4663 192.076 40.9849 192.241C40.5036 192.393 40.0539 192.57 39.6359 192.773L39.1229 191.519C39.5663 191.278 40.0919 191.076 40.6999 190.911C41.3079 190.734 41.9413 190.645 42.5999 190.645ZM43.0939 196.079C41.8273 196.13 40.9469 196.332 40.4529 196.687C39.9716 197.042 39.7309 197.542 39.7309 198.188C39.7309 198.758 39.9019 199.176 40.2439 199.442C40.5986 199.708 41.0483 199.841 41.5929 199.841C42.4543 199.841 43.1699 199.607 43.7399 199.138C44.3099 198.657 44.5949 197.922 44.5949 196.934V196.022L43.0939 196.079ZM52.7943 199.822C53.0477 199.822 53.3073 199.803 53.5733 199.765C53.8393 199.714 54.0547 199.664 54.2193 199.613V200.886C54.042 200.975 53.7887 201.044 53.4593 201.095C53.13 201.158 52.8133 201.19 52.5093 201.19C51.9773 201.19 51.4833 201.101 51.0273 200.924C50.584 200.734 50.223 200.411 49.9443 199.955C49.6657 199.499 49.5263 198.859 49.5263 198.036V192.108H48.0823V191.31L49.5453 190.645L50.2103 188.479H51.1983V190.816H54.1433V192.108H51.1983V197.998C51.1983 198.619 51.344 199.081 51.6353 199.385C51.9393 199.676 52.3257 199.822 52.7943 199.822ZM60.1916 190.626C61.0656 190.626 61.8129 190.816 62.4336 191.196C63.0669 191.576 63.5482 192.114 63.8776 192.811C64.2196 193.495 64.3906 194.299 64.3906 195.224V196.231H57.4176C57.4429 197.384 57.7342 198.264 58.2916 198.872C58.8616 199.467 59.6532 199.765 60.6666 199.765C61.3126 199.765 61.8826 199.708 62.3766 199.594C62.8832 199.467 63.4026 199.29 63.9346 199.062V200.525C63.4152 200.753 62.9022 200.918 62.3956 201.019C61.8889 201.133 61.2872 201.19 60.5906 201.19C59.6279 201.19 58.7729 200.994 58.0256 200.601C57.2909 200.208 56.7146 199.626 56.2966 198.853C55.8912 198.068 55.6886 197.111 55.6886 195.984C55.6886 194.869 55.8722 193.913 56.2396 193.115C56.6196 192.317 57.1452 191.703 57.8166 191.272C58.5006 190.841 59.2922 190.626 60.1916 190.626ZM60.1726 191.994C59.3746 191.994 58.7412 192.254 58.2726 192.773C57.8166 193.28 57.5442 193.989 57.4556 194.901H62.6426C62.6426 194.318 62.5539 193.812 62.3766 193.381C62.1992 192.95 61.9269 192.615 61.5596 192.374C61.2049 192.121 60.7426 191.994 60.1726 191.994ZM70.5932 201.19C69.3265 201.19 68.3132 200.753 67.5532 199.879C66.7932 198.992 66.4132 197.675 66.4132 195.927C66.4132 194.179 66.7932 192.862 67.5532 191.975C68.3258 191.076 69.3455 190.626 70.6122 190.626C71.1442 190.626 71.6065 190.696 71.9992 190.835C72.3918 190.962 72.7338 191.139 73.0252 191.367C73.3165 191.595 73.5635 191.848 73.7662 192.127H73.8802C73.8675 191.962 73.8422 191.722 73.8042 191.405C73.7788 191.076 73.7662 190.816 73.7662 190.626V186.56H75.4382V201H74.0892L73.8422 199.632H73.7662C73.5635 199.923 73.3165 200.189 73.0252 200.43C72.7338 200.658 72.3855 200.842 71.9802 200.981C71.5875 201.12 71.1252 201.19 70.5932 201.19ZM70.8592 199.803C71.9358 199.803 72.6895 199.512 73.1202 198.929C73.5635 198.334 73.7852 197.441 73.7852 196.25V195.946C73.7852 194.679 73.5762 193.71 73.1582 193.039C72.7402 192.355 71.9675 192.013 70.8402 192.013C69.9408 192.013 69.2632 192.374 68.8072 193.096C68.3638 193.805 68.1422 194.762 68.1422 195.965C68.1422 197.181 68.3638 198.125 68.8072 198.796C69.2632 199.467 69.9472 199.803 70.8592 199.803Z" fill="black"/>
<path d="M10.488 236.922H8.512V240H6.897V236.922H0.399V235.497L6.783 226.358H8.512V235.421H10.488V236.922ZM6.897 231.146C6.897 230.817 6.897 230.519 6.897 230.253C6.90967 229.974 6.92233 229.715 6.935 229.474C6.94767 229.233 6.954 229.005 6.954 228.79C6.96667 228.562 6.97933 228.347 6.992 228.144H6.916C6.81467 228.385 6.688 228.644 6.536 228.923C6.384 229.202 6.23833 229.436 6.099 229.626L2.033 235.421H6.897V231.146ZM20.81 233.198C20.81 234.3 20.7277 235.282 20.563 236.143C20.3984 237.004 20.1324 237.739 19.765 238.347C19.4104 238.942 18.9417 239.398 18.359 239.715C17.789 240.032 17.0987 240.19 16.288 240.19C15.2747 240.19 14.4324 239.911 13.761 239.354C13.1024 238.797 12.6084 237.999 12.279 236.96C11.9624 235.909 11.804 234.655 11.804 233.198C11.804 231.729 11.9497 230.475 12.241 229.436C12.545 228.397 13.0264 227.606 13.685 227.061C14.3437 226.504 15.2114 226.225 16.288 226.225C17.3014 226.225 18.1437 226.504 18.815 227.061C19.4864 227.606 19.9867 228.397 20.316 229.436C20.6454 230.475 20.81 231.729 20.81 233.198ZM13.476 233.198C13.476 234.439 13.5647 235.472 13.742 236.295C13.932 237.118 14.2297 237.739 14.635 238.157C15.053 238.562 15.604 238.765 16.288 238.765C16.972 238.765 17.5167 238.562 17.922 238.157C18.34 237.752 18.644 237.137 18.834 236.314C19.024 235.478 19.119 234.439 19.119 233.198C19.119 231.957 19.024 230.931 18.834 230.12C18.644 229.297 18.34 228.682 17.922 228.277C17.5167 227.859 16.972 227.65 16.288 227.65C15.604 227.65 15.053 227.859 14.635 228.277C14.2297 228.682 13.932 229.297 13.742 230.12C13.5647 230.931 13.476 231.957 13.476 233.198ZM25.4511 226.244C26.3884 226.244 27.0978 226.618 27.5791 227.365C28.0604 228.1 28.3011 229.138 28.3011 230.481C28.3011 231.824 28.0668 232.875 27.5981 233.635C27.1421 234.382 26.4264 234.756 25.4511 234.756C24.8558 234.756 24.3491 234.585 23.9311 234.243C23.5131 233.901 23.1964 233.413 22.9811 232.78C22.7784 232.134 22.6771 231.368 22.6771 230.481C22.6771 229.138 22.8988 228.1 23.3421 227.365C23.7854 226.618 24.4884 226.244 25.4511 226.244ZM25.4511 227.422C24.9698 227.422 24.6151 227.682 24.3871 228.201C24.1718 228.708 24.0641 229.468 24.0641 230.481C24.0641 231.494 24.1718 232.261 24.3871 232.78C24.6151 233.299 24.9698 233.559 25.4511 233.559C25.9451 233.559 26.3124 233.306 26.5531 232.799C26.7938 232.28 26.9141 231.507 26.9141 230.481C26.9141 229.468 26.7938 228.708 26.5531 228.201C26.3124 227.682 25.9451 227.422 25.4511 227.422ZM34.1341 226.434L26.6101 240H25.1471L32.6711 226.434H34.1341ZM33.7541 231.678C34.3748 231.678 34.8941 231.849 35.3121 232.191C35.7301 232.52 36.0468 233.002 36.2621 233.635C36.4901 234.256 36.6041 235.016 36.6041 235.915C36.6041 237.258 36.3698 238.309 35.9011 239.069C35.4451 239.816 34.7294 240.19 33.7541 240.19C33.1588 240.19 32.6521 240.019 32.2341 239.677C31.8161 239.335 31.4994 238.847 31.2841 238.214C31.0814 237.568 30.9801 236.802 30.9801 235.915C30.9801 234.572 31.2018 233.534 31.6451 232.799C32.0884 232.052 32.7914 231.678 33.7541 231.678ZM33.7541 232.875C33.2728 232.875 32.9181 233.128 32.6901 233.635C32.4748 234.142 32.3671 234.902 32.3671 235.915C32.3671 236.941 32.4748 237.714 32.6901 238.233C32.9181 238.74 33.2728 238.993 33.7541 238.993C34.2481 238.993 34.6154 238.74 34.8561 238.233C35.0968 237.726 35.2171 236.954 35.2171 235.915C35.2171 234.902 35.0968 234.142 34.8561 233.635C34.6154 233.128 34.2481 232.875 33.7541 232.875Z" fill="black"/>
<path d="M331.667 66.5C331.667 65.0272 330.473 63.8333 329 63.8333C327.527 63.8333 326.333 65.0272 326.333 66.5C326.333 67.9728 327.527 69.1667 329 69.1667C330.473 69.1667 331.667 67.9728 331.667 66.5ZM329 66L0 66V67L329 67V66Z" fill="black"/>
<path d="M12.711 51.084C12.711 52.604 12.426 53.877 11.856 54.903C11.2987 55.929 10.4943 56.7017 9.443 57.221C8.39167 57.7403 7.11867 58 5.624 58H1.843V44.434H6.023C7.391 44.434 8.57533 44.6873 9.576 45.194C10.5767 45.7007 11.3493 46.448 11.894 47.436C12.4387 48.4113 12.711 49.6273 12.711 51.084ZM10.906 51.141C10.906 49.9377 10.7033 48.9497 10.298 48.177C9.90533 47.4043 9.32267 46.8343 8.55 46.467C7.79 46.087 6.86533 45.897 5.776 45.897H3.553V56.537H5.396C7.23267 56.537 8.607 56.0873 9.519 55.188C10.4437 54.276 10.906 52.927 10.906 51.141ZM24.3479 52.889C24.3479 53.7377 24.2339 54.4913 24.0059 55.15C23.7906 55.796 23.4739 56.347 23.0559 56.803C22.6506 57.259 22.1502 57.6073 21.5549 57.848C20.9722 58.076 20.3199 58.19 19.5979 58.19C18.9266 58.19 18.3059 58.076 17.7359 57.848C17.1659 57.6073 16.6719 57.259 16.2539 56.803C15.8359 56.347 15.5066 55.796 15.2659 55.15C15.0379 54.4913 14.9239 53.7377 14.9239 52.889C14.9239 51.7617 15.1139 50.8117 15.4939 50.039C15.8739 49.2537 16.4186 48.6583 17.1279 48.253C17.8372 47.835 18.6796 47.626 19.6549 47.626C20.5796 47.626 21.3902 47.835 22.0869 48.253C22.7962 48.6583 23.3472 49.2537 23.7399 50.039C24.1452 50.8117 24.3479 51.7617 24.3479 52.889ZM16.6529 52.889C16.6529 53.687 16.7542 54.3837 16.9569 54.979C17.1722 55.5617 17.5016 56.0113 17.9449 56.328C18.3882 56.6447 18.9519 56.803 19.6359 56.803C20.3199 56.803 20.8836 56.6447 21.3269 56.328C21.7702 56.0113 22.0932 55.5617 22.2959 54.979C22.5112 54.3837 22.6189 53.687 22.6189 52.889C22.6189 52.0783 22.5112 51.388 22.2959 50.818C22.0806 50.248 21.7512 49.811 21.3079 49.507C20.8772 49.1903 20.3136 49.032 19.6169 49.032C18.5782 49.032 17.8246 49.374 17.3559 50.058C16.8872 50.742 16.6529 51.6857 16.6529 52.889ZM31.8998 47.626C33.1158 47.626 34.0341 47.9237 34.6548 48.519C35.2755 49.1017 35.5858 50.0517 35.5858 51.369V58H33.9328V51.483C33.9328 50.6597 33.7491 50.0453 33.3818 49.64C33.0145 49.2347 32.4381 49.032 31.6528 49.032C30.5255 49.032 29.7465 49.3487 29.3158 49.982C28.8851 50.6153 28.6698 51.5273 28.6698 52.718V58H26.9978V47.816H28.3468L28.5938 49.203H28.6888C28.9168 48.8483 29.1955 48.557 29.5248 48.329C29.8668 48.0883 30.2405 47.911 30.6458 47.797C31.0511 47.683 31.4691 47.626 31.8998 47.626ZM42.5999 47.645C43.8413 47.645 44.7596 47.9173 45.3549 48.462C45.9503 49.0067 46.2479 49.8743 46.2479 51.065V58H45.0319L44.7089 56.556H44.6329C44.3416 56.9233 44.0376 57.2337 43.7209 57.487C43.4169 57.7277 43.0623 57.905 42.6569 58.019C42.2643 58.133 41.7829 58.19 41.2129 58.19C40.6049 58.19 40.0539 58.0823 39.5599 57.867C39.0786 57.6517 38.6986 57.3223 38.4199 56.879C38.1413 56.423 38.0019 55.853 38.0019 55.169C38.0019 54.1557 38.4009 53.3767 39.1989 52.832C39.9969 52.2747 41.2256 51.9707 42.8849 51.92L44.6139 51.863V51.255C44.6139 50.4063 44.4303 49.8173 44.0629 49.488C43.6956 49.1587 43.1763 48.994 42.5049 48.994C41.9729 48.994 41.4663 49.0763 40.9849 49.241C40.5036 49.393 40.0539 49.5703 39.6359 49.773L39.1229 48.519C39.5663 48.2783 40.0919 48.0757 40.6999 47.911C41.3079 47.7337 41.9413 47.645 42.5999 47.645ZM43.0939 53.079C41.8273 53.1297 40.9469 53.3323 40.4529 53.687C39.9716 54.0417 39.7309 54.542 39.7309 55.188C39.7309 55.758 39.9019 56.176 40.2439 56.442C40.5986 56.708 41.0483 56.841 41.5929 56.841C42.4543 56.841 43.1699 56.6067 43.7399 56.138C44.3099 55.6567 44.5949 54.922 44.5949 53.934V53.022L43.0939 53.079ZM52.7943 56.822C53.0477 56.822 53.3073 56.803 53.5733 56.765C53.8393 56.7143 54.0547 56.6637 54.2193 56.613V57.886C54.042 57.9747 53.7887 58.0443 53.4593 58.095C53.13 58.1583 52.8133 58.19 52.5093 58.19C51.9773 58.19 51.4833 58.1013 51.0273 57.924C50.584 57.734 50.223 57.411 49.9443 56.955C49.6657 56.499 49.5263 55.8593 49.5263 55.036V49.108H48.0823V48.31L49.5453 47.645L50.2103 45.479H51.1983V47.816H54.1433V49.108H51.1983V54.998C51.1983 55.6187 51.344 56.081 51.6353 56.385C51.9393 56.6763 52.3257 56.822 52.7943 56.822ZM60.1916 47.626C61.0656 47.626 61.8129 47.816 62.4336 48.196C63.0669 48.576 63.5482 49.1143 63.8776 49.811C64.2196 50.495 64.3906 51.2993 64.3906 52.224V53.231H57.4176C57.4429 54.3837 57.7342 55.264 58.2916 55.872C58.8616 56.4673 59.6532 56.765 60.6666 56.765C61.3126 56.765 61.8826 56.708 62.3766 56.594C62.8832 56.4673 63.4026 56.29 63.9346 56.062V57.525C63.4152 57.753 62.9022 57.9177 62.3956 58.019C61.8889 58.133 61.2872 58.19 60.5906 58.19C59.6279 58.19 58.7729 57.9937 58.0256 57.601C57.2909 57.2083 56.7146 56.6257 56.2966 55.853C55.8912 55.0677 55.6886 54.1113 55.6886 52.984C55.6886 51.8693 55.8722 50.913 56.2396 50.115C56.6196 49.317 57.1452 48.7027 57.8166 48.272C58.5006 47.8413 59.2922 47.626 60.1916 47.626ZM60.1726 48.994C59.3746 48.994 58.7412 49.2537 58.2726 49.773C57.8166 50.2797 57.5442 50.989 57.4556 51.901H62.6426C62.6426 51.3183 62.5539 50.8117 62.3766 50.381C62.1992 49.9503 61.9269 49.6147 61.5596 49.374C61.2049 49.1207 60.7426 48.994 60.1726 48.994ZM70.5932 58.19C69.3265 58.19 68.3132 57.753 67.5532 56.879C66.7932 55.9923 66.4132 54.675 66.4132 52.927C66.4132 51.179 66.7932 49.8617 67.5532 48.975C68.3258 48.0757 69.3455 47.626 70.6122 47.626C71.1442 47.626 71.6065 47.6957 71.9992 47.835C72.3918 47.9617 72.7338 48.139 73.0252 48.367C73.3165 48.595 73.5635 48.8483 73.7662 49.127H73.8802C73.8675 48.9623 73.8422 48.7217 73.8042 48.405C73.7788 48.0757 73.7662 47.816 73.7662 47.626V43.56H75.4382V58H74.0892L73.8422 56.632H73.7662C73.5635 56.9233 73.3165 57.1893 73.0252 57.43C72.7338 57.658 72.3855 57.8417 71.9802 57.981C71.5875 58.1203 71.1252 58.19 70.5932 58.19ZM70.8592 56.803C71.9358 56.803 72.6895 56.5117 73.1202 55.929C73.5635 55.3337 73.7852 54.4407 73.7852 53.25V52.946C73.7852 51.6793 73.5762 50.7103 73.1582 50.039C72.7402 49.355 71.9675 49.013 70.8402 49.013C69.9408 49.013 69.2632 49.374 68.8072 50.096C68.3638 50.8053 68.1422 51.7617 68.1422 52.965C68.1422 54.181 68.3638 55.1247 68.8072 55.796C69.2632 56.4673 69.9472 56.803 70.8592 56.803ZM87.0771 58.2319L86.3164 59.2524C84.8258 57.3722 84.0806 55.2044 84.0806 52.749C84.0806 50.5967 84.7733 48.6113 86.1587 46.793L86.5298 47.1548C85.5897 48.7567 85.1196 50.4421 85.1196 52.2109C85.1196 54.4684 85.7721 56.4754 87.0771 58.2319ZM95.765 47.626C96.981 47.626 97.8994 47.9237 98.52 48.519C99.1407 49.1017 99.451 50.0517 99.451 51.369V58H97.798V51.483C97.798 50.6597 97.6144 50.0453 97.247 49.64C96.8797 49.2347 96.3034 49.032 95.518 49.032C94.3907 49.032 93.6117 49.3487 93.181 49.982C92.7504 50.6153 92.535 51.5273 92.535 52.718V58H90.863V47.816H92.212L92.459 49.203H92.554C92.782 48.8483 93.0607 48.557 93.39 48.329C93.732 48.0883 94.1057 47.911 94.511 47.797C94.9164 47.683 95.3344 47.626 95.765 47.626ZM111.462 52.889C111.462 53.7377 111.348 54.4913 111.12 55.15C110.905 55.796 110.588 56.347 110.17 56.803C109.765 57.259 109.264 57.6073 108.669 57.848C108.086 58.076 107.434 58.19 106.712 58.19C106.041 58.19 105.42 58.076 104.85 57.848C104.28 57.6073 103.786 57.259 103.368 56.803C102.95 56.347 102.621 55.796 102.38 55.15C102.152 54.4913 102.038 53.7377 102.038 52.889C102.038 51.7617 102.228 50.8117 102.608 50.039C102.988 49.2537 103.533 48.6583 104.242 48.253C104.951 47.835 105.794 47.626 106.769 47.626C107.694 47.626 108.504 47.835 109.201 48.253C109.91 48.6583 110.461 49.2537 110.854 50.039C111.259 50.8117 111.462 51.7617 111.462 52.889ZM103.767 52.889C103.767 53.687 103.868 54.3837 104.071 54.979C104.286 55.5617 104.616 56.0113 105.059 56.328C105.502 56.6447 106.066 56.803 106.75 56.803C107.434 56.803 107.998 56.6447 108.441 56.328C108.884 56.0113 109.207 55.5617 109.41 54.979C109.625 54.3837 109.733 53.687 109.733 52.889C109.733 52.0783 109.625 51.388 109.41 50.818C109.195 50.248 108.865 49.811 108.422 49.507C107.991 49.1903 107.428 49.032 106.731 49.032C105.692 49.032 104.939 49.374 104.47 50.058C104.001 50.742 103.767 51.6857 103.767 52.889ZM117.513 56.822C117.766 56.822 118.026 56.803 118.292 56.765C118.558 56.7143 118.773 56.6637 118.938 56.613V57.886C118.761 57.9747 118.507 58.0443 118.178 58.095C117.849 58.1583 117.532 58.19 117.228 58.19C116.696 58.19 116.202 58.1013 115.746 57.924C115.303 57.734 114.942 57.411 114.663 56.955C114.384 56.499 114.245 55.8593 114.245 55.036V49.108H112.801V48.31L114.264 47.645L114.929 45.479H115.917V47.816H118.862V49.108H115.917V54.998C115.917 55.6187 116.063 56.081 116.354 56.385C116.658 56.6763 117.044 56.822 117.513 56.822ZM130.663 47.626C130.853 47.626 131.056 47.6387 131.271 47.664C131.499 47.6767 131.695 47.702 131.86 47.74L131.651 49.279C131.486 49.241 131.303 49.2093 131.1 49.184C130.91 49.1587 130.726 49.146 130.549 49.146C130.156 49.146 129.783 49.2283 129.428 49.393C129.073 49.5577 128.757 49.792 128.478 50.096C128.199 50.3873 127.978 50.742 127.813 51.16C127.661 51.578 127.585 52.0467 127.585 52.566V58H125.913V47.816H127.281L127.471 49.678H127.547C127.762 49.298 128.022 48.956 128.326 48.652C128.63 48.3353 128.978 48.0883 129.371 47.911C129.764 47.721 130.194 47.626 130.663 47.626ZM137.323 47.626C138.197 47.626 138.945 47.816 139.565 48.196C140.199 48.576 140.68 49.1143 141.009 49.811C141.351 50.495 141.522 51.2993 141.522 52.224V53.231H134.549C134.575 54.3837 134.866 55.264 135.423 55.872C135.993 56.4673 136.785 56.765 137.798 56.765C138.444 56.765 139.014 56.708 139.508 56.594C140.015 56.4673 140.534 56.29 141.066 56.062V57.525C140.547 57.753 140.034 57.9177 139.527 58.019C139.021 58.133 138.419 58.19 137.722 58.19C136.76 58.19 135.905 57.9937 135.157 57.601C134.423 57.2083 133.846 56.6257 133.428 55.853C133.023 55.0677 132.82 54.1113 132.82 52.984C132.82 51.8693 133.004 50.913 133.371 50.115C133.751 49.317 134.277 48.7027 134.948 48.272C135.632 47.8413 136.424 47.626 137.323 47.626ZM137.304 48.994C136.506 48.994 135.873 49.2537 135.404 49.773C134.948 50.2797 134.676 50.989 134.587 51.901H139.774C139.774 51.3183 139.686 50.8117 139.508 50.381C139.331 49.9503 139.059 49.6147 138.691 49.374C138.337 49.1207 137.874 48.994 137.304 48.994ZM147.725 47.626C148.396 47.626 148.998 47.7527 149.53 48.006C150.075 48.2593 150.537 48.6457 150.917 49.165H151.012L151.24 47.816H152.57V58.171C152.57 59.1337 152.405 59.938 152.076 60.584C151.747 61.2427 151.246 61.7367 150.575 62.066C149.904 62.3953 149.049 62.56 148.01 62.56C147.275 62.56 146.598 62.503 145.977 62.389C145.369 62.2877 144.824 62.1293 144.343 61.914V60.375C144.672 60.5397 145.033 60.679 145.426 60.793C145.819 60.9197 146.243 61.0147 146.699 61.078C147.155 61.1413 147.624 61.173 148.105 61.173C148.979 61.173 149.663 60.9133 150.157 60.394C150.664 59.8873 150.917 59.1907 150.917 58.304V57.905C150.917 57.753 150.923 57.5377 150.936 57.259C150.949 56.9677 150.961 56.765 150.974 56.651H150.898C150.543 57.1703 150.1 57.5567 149.568 57.81C149.049 58.0633 148.441 58.19 147.744 58.19C146.427 58.19 145.394 57.7277 144.647 56.803C143.912 55.8783 143.545 54.5863 143.545 52.927C143.545 51.8377 143.71 50.9003 144.039 50.115C144.381 49.317 144.862 48.7027 145.483 48.272C146.104 47.8413 146.851 47.626 147.725 47.626ZM147.953 49.032C147.383 49.032 146.895 49.184 146.49 49.488C146.097 49.792 145.793 50.2353 145.578 50.818C145.375 51.4007 145.274 52.11 145.274 52.946C145.274 54.2 145.502 55.1627 145.958 55.834C146.427 56.4927 147.104 56.822 147.991 56.822C148.51 56.822 148.954 56.7587 149.321 56.632C149.688 56.4927 149.992 56.2837 150.233 56.005C150.474 55.7137 150.651 55.3463 150.765 54.903C150.879 54.4597 150.936 53.934 150.936 53.326V52.927C150.936 52.0023 150.828 51.255 150.613 50.685C150.41 50.115 150.087 49.697 149.644 49.431C149.201 49.165 148.637 49.032 147.953 49.032ZM164.316 47.816V58H162.948L162.701 56.651H162.625C162.41 57.0057 162.131 57.297 161.789 57.525C161.447 57.753 161.074 57.9177 160.668 58.019C160.263 58.133 159.839 58.19 159.395 58.19C158.585 58.19 157.901 58.0633 157.343 57.81C156.799 57.544 156.387 57.1387 156.108 56.594C155.83 56.0493 155.69 55.3463 155.69 54.485V47.816H157.381V54.371C157.381 55.1817 157.565 55.7897 157.932 56.195C158.3 56.6003 158.87 56.803 159.642 56.803C160.402 56.803 160.998 56.6637 161.428 56.385C161.872 56.0937 162.182 55.6757 162.359 55.131C162.549 54.5737 162.644 53.9023 162.644 53.117V47.816H164.316ZM169.222 58H167.55V43.56H169.222V58ZM176.305 47.645C177.546 47.645 178.465 47.9173 179.06 48.462C179.655 49.0067 179.953 49.8743 179.953 51.065V58H178.737L178.414 56.556H178.338C178.047 56.9233 177.743 57.2337 177.426 57.487C177.122 57.7277 176.767 57.905 176.362 58.019C175.969 58.133 175.488 58.19 174.918 58.19C174.31 58.19 173.759 58.0823 173.265 57.867C172.784 57.6517 172.404 57.3223 172.125 56.879C171.846 56.423 171.707 55.853 171.707 55.169C171.707 54.1557 172.106 53.3767 172.904 52.832C173.702 52.2747 174.931 51.9707 176.59 51.92L178.319 51.863V51.255C178.319 50.4063 178.135 49.8173 177.768 49.488C177.401 49.1587 176.881 48.994 176.21 48.994C175.678 48.994 175.171 49.0763 174.69 49.241C174.209 49.393 173.759 49.5703 173.341 49.773L172.828 48.519C173.271 48.2783 173.797 48.0757 174.405 47.911C175.013 47.7337 175.646 47.645 176.305 47.645ZM176.799 53.079C175.532 53.1297 174.652 53.3323 174.158 53.687C173.677 54.0417 173.436 54.542 173.436 55.188C173.436 55.758 173.607 56.176 173.949 56.442C174.304 56.708 174.753 56.841 175.298 56.841C176.159 56.841 176.875 56.6067 177.445 56.138C178.015 55.6567 178.3 54.922 178.3 53.934V53.022L176.799 53.079ZM187.848 47.626C188.038 47.626 188.241 47.6387 188.456 47.664C188.684 47.6767 188.881 47.702 189.045 47.74L188.836 49.279C188.672 49.241 188.488 49.2093 188.285 49.184C188.095 49.1587 187.912 49.146 187.734 49.146C187.342 49.146 186.968 49.2283 186.613 49.393C186.259 49.5577 185.942 49.792 185.663 50.096C185.385 50.3873 185.163 50.742 184.998 51.16C184.846 51.578 184.77 52.0467 184.77 52.566V58H183.098V47.816H184.466L184.656 49.678H184.732C184.948 49.298 185.207 48.956 185.511 48.652C185.815 48.3353 186.164 48.0883 186.556 47.911C186.949 47.721 187.38 47.626 187.848 47.626ZM192.619 58H190.947V43.56H192.619V58ZM194.249 47.816H196.035L198.239 53.611C198.366 53.953 198.48 54.2823 198.581 54.599C198.695 54.9157 198.797 55.226 198.885 55.53C198.974 55.8213 199.044 56.1063 199.094 56.385H199.17C199.246 56.0683 199.367 55.6567 199.531 55.15C199.696 54.6307 199.867 54.1113 200.044 53.592L202.115 47.816H203.92L199.531 59.406C199.291 60.0393 199.006 60.5903 198.676 61.059C198.36 61.5403 197.967 61.9077 197.498 62.161C197.042 62.427 196.485 62.56 195.826 62.56C195.522 62.56 195.256 62.541 195.028 62.503C194.8 62.4777 194.604 62.446 194.439 62.408V61.078C194.579 61.1033 194.743 61.1287 194.933 61.154C195.136 61.1793 195.345 61.192 195.56 61.192C195.953 61.192 196.289 61.116 196.567 60.964C196.859 60.8247 197.106 60.6157 197.308 60.337C197.511 60.071 197.682 59.7543 197.821 59.387L198.353 58.038L194.249 47.816ZM209.028 53.3149C209.028 55.4425 208.332 57.4124 206.94 59.2246L206.579 58.8628C207.513 57.2609 207.979 55.5755 207.979 53.8066C207.979 51.5492 207.33 49.5422 206.031 47.7856L206.783 46.7651C207.605 47.798 208.184 48.8123 208.518 49.8081C208.858 50.7977 209.028 51.9666 209.028 53.3149Z" fill="black"/>
<defs>
<filter id="filter0_dd_0_1" x="163" y="0" width="370" height="369.951" filterUnits="userSpaceOnUse" color-interpolation-filters="sRGB">
<feFlood flood-opacity="0" result="BackgroundImageFix"/>
<feColorMatrix in="SourceAlpha" type="matrix" values="0 0 0 0 0 0 0 0 0 0 0 0 0 0 0 0 0 0 127 0" result="hardAlpha"/>
<feOffset dy="4"/>
<feGaussianBlur stdDeviation="2"/>
<feComposite in2="hardAlpha" operator="out"/>
<feColorMatrix type="matrix" values="0 0 0 0 0 0 0 0 0 0 0 0 0 0 0 0 0 0 0.25 0"/>
<feBlend mode="normal" in2="BackgroundImageFix" result="effect1_dropShadow_0_1"/>
<feColorMatrix in="SourceAlpha" type="matrix" values="0 0 0 0 0 0 0 0 0 0 0 0 0 0 0 0 0 0 127 0" result="hardAlpha"/>
<feOffset dy="4"/>
<feGaussianBlur stdDeviation="2"/>
<feComposite in2="hardAlpha" operator="out"/>
<feColorMatrix type="matrix" values="0 0 0 0 0 0 0 0 0 0 0 0 0 0 0 0 0 0 0.25 0"/>
<feBlend mode="normal" in2="effect1_dropShadow_0_1" result="effect2_dropShadow_0_1"/>
<feBlend mode="normal" in="SourceGraphic" in2="effect2_dropShadow_0_1" result="shape"/>
</filter>
</defs>
</svg>

