<svg width="92" height="93" viewBox="0 0 92 93" fill="none" xmlns="http://www.w3.org/2000/svg">
<path d="M82.82 14.9011C82.82 10.949 81.2493 7.15891 78.4534 4.36442C75.6576 1.56993 71.8656 0 67.9116 0H15.1588C11.2049 0 7.41287 1.56993 4.617 4.36442C1.82114 7.15891 0.250437 10.949 0.250437 14.9011V71.2179C0.250437 77.192 7.45234 80.2135 11.7184 76.0229L30.2048 57.8665C30.2361 57.8351 30.2667 57.803 30.2966 57.7702L39.1269 49.1276L39.5077 48.8021C40.1651 48.3234 40.9709 48.093 41.7821 48.1518C42.5933 48.2105 43.3574 48.5546 43.9389 49.123L53.4803 58.4626L58.3427 53.6025L48.7555 44.2126L48.1637 43.6807C46.2005 42.0347 43.695 41.1775 41.1344 41.2758C38.5739 41.3741 36.1415 42.4209 34.3104 44.2126L13.8882 64.2029H13.934L7.13123 70.8832V14.9011C7.13123 10.472 10.7276 6.87741 15.1588 6.87741H67.9116C72.3474 6.87741 75.9392 10.472 75.9392 14.9011V37.7432C78.1411 36.8721 80.4989 36.5374 82.82 36.7345V14.9011ZM66.7831 26.3726C66.7831 23.6335 65.6945 21.0067 63.7568 19.0699C61.819 17.1331 59.1909 16.045 56.4505 16.045C53.7101 16.045 51.0819 17.1331 49.1442 19.0699C47.2064 21.0067 46.1178 23.6335 46.1178 26.3726C46.1178 29.1116 47.2064 31.7385 49.1442 33.6753C51.0819 35.6121 53.7101 36.7001 56.4505 36.7001C59.1909 36.7001 61.819 35.6121 63.7568 33.6753C65.6945 31.7385 66.7831 29.1116 66.7831 26.3726ZM52.9986 26.3726C52.9986 25.4575 53.3623 24.58 54.0097 23.9329C54.657 23.2859 55.535 22.9224 56.4505 22.9224C57.366 22.9224 58.244 23.2859 58.8913 23.9329C59.5387 24.58 59.9024 25.4575 59.9024 26.3726C59.9024 27.2876 59.5387 28.1652 58.8913 28.8122C58.244 29.4592 57.366 29.8227 56.4505 29.8227C55.535 29.8227 54.657 29.4592 54.0097 28.8122C53.3623 28.1652 52.9986 27.2876 52.9986 26.3726ZM47.0261 71.3967L74.0997 44.3364C75.0732 43.3631 76.229 42.5909 77.501 42.0641C78.773 41.5372 80.1364 41.2659 81.5133 41.2657C82.8902 41.2655 84.2537 41.5364 85.5259 42.0628C86.7981 42.5893 87.9541 43.3611 88.9278 44.3341C89.9016 45.3071 90.6741 46.4622 91.2012 47.7336C91.7284 49.005 91.9998 50.3678 92 51.744C92.0002 53.1202 91.7292 54.4831 91.2025 55.7546C90.6758 57.0262 89.9036 58.1816 88.9301 59.1549L61.8519 86.2152C60.2745 87.7941 58.2972 88.9146 56.1317 89.4567L47.7371 91.5521C47.5113 91.611 47.2812 91.6524 47.049 91.6759C44.3426 92.6112 33.3838 94.3076 29.4938 91.2724C26.8608 89.2183 27.3837 85.1561 28.4938 82.937C28.6773 82.5793 28.4021 82.1117 28.0122 82.1759C24.9846 82.6481 22.3103 84.2391 19.6313 85.8392C16.0396 87.985 12.4294 90.1307 7.93858 89.576C3.44771 89.0166 1.20457 86.2473 0.0944725 83.8219C-0.35966 82.8315 0.920168 81.9833 1.87431 82.506C4.0257 83.6751 6.94775 84.7801 9.35602 84.2483C11.0762 83.8631 13.5029 82.1484 16.2185 80.2273C21.1084 76.7748 26.9388 72.6484 31.3195 74.4136C35.1728 75.9587 38.0168 79.6862 36.0443 84.1015C35.8058 84.6426 36.0443 85.312 36.6269 85.4449C38.5673 85.8897 40.1958 85.7475 41.8242 84.9635L43.7875 77.1141C44.3288 74.95 45.4481 72.9739 47.0261 71.3967Z" fill="#A71BA7"/>
</svg>
