<svg width="148" height="148" viewBox="0 0 148 148" fill="none" xmlns="http://www.w3.org/2000/svg">
<path d="M51.8 72.15C49.3467 72.15 46.994 73.1245 45.2593 74.8593C43.5246 76.594 42.55 78.9467 42.55 81.4C42.55 83.8533 43.5246 86.206 45.2593 87.9407C46.994 89.6755 49.3467 90.65 51.8 90.65C53.0147 90.65 54.2176 90.4107 55.3398 89.9459C56.4621 89.481 57.4818 88.7997 58.3407 87.9407C59.1997 87.0818 59.881 86.0621 60.3459 84.9398C60.8107 83.8176 61.05 82.6147 61.05 81.4C61.05 80.1853 60.8107 78.9824 60.3459 77.8602C59.881 76.7379 59.1997 75.7182 58.3407 74.8593C57.4818 74.0003 56.4621 73.319 55.3398 72.8541C54.2176 72.3893 53.0147 72.15 51.8 72.15ZM96.2 72.15C93.7467 72.15 91.394 73.1245 89.6593 74.8593C87.9246 76.594 86.95 78.9467 86.95 81.4C86.95 83.8533 87.9246 86.206 89.6593 87.9407C91.394 89.6755 93.7467 90.65 96.2 90.65C98.6533 90.65 101.006 89.6755 102.741 87.9407C104.475 86.206 105.45 83.8533 105.45 81.4C105.45 78.9467 104.475 76.594 102.741 74.8593C101.006 73.1245 98.6533 72.15 96.2 72.15ZM74 0C64.2822 0 54.6595 1.91407 45.6814 5.63292C36.7033 9.35176 28.5456 14.8026 21.6741 21.6741C7.79641 35.5518 0 54.374 0 74C0 93.626 7.79641 112.448 21.6741 126.326C28.5456 133.197 36.7033 138.648 45.6814 142.367C54.6595 146.086 64.2822 148 74 148C93.626 148 112.448 140.204 126.326 126.326C140.204 112.448 148 93.626 148 74C148 64.2822 146.086 54.6595 142.367 45.6814C138.648 36.7033 133.197 28.5456 126.326 21.6741C119.454 14.8026 111.297 9.35176 102.319 5.63292C93.3405 1.91407 83.7178 0 74 0ZM74 133.2C41.366 133.2 14.8 106.634 14.8 74C14.8 71.854 14.8 69.708 15.17 67.636C32.634 59.866 46.472 45.584 53.724 27.898C62.1841 39.9036 74.0337 49.1123 87.7567 54.3457C101.48 59.5791 116.452 60.5994 130.758 57.276C132.312 62.53 133.2 68.154 133.2 74C133.2 106.634 106.634 133.2 74 133.2Z" fill="#A71BA7"/>
</svg>
