<svg width="114" height="120" viewBox="0 0 114 120" fill="none" xmlns="http://www.w3.org/2000/svg">
<path d="M92.2215 73.6L103.986 85.3143L69.2092 120H57.3874V108.229L92.2215 73.6ZM103.527 63.6C104.33 63.6 105.076 63.9429 105.708 64.5714L113.053 71.8857C114.316 73.0857 114.316 75.0857 113.053 76.2857L107.314 82L95.55 70.2857L101.289 64.5714C101.92 63.9429 102.723 63.6 103.527 63.6ZM103.297 40H68.8648V80L57.3874 91.4286V80H45.9099V114.286H34.4324V40H0V28.5714H103.297V40ZM51.6486 0C57.9612 0 63.1261 5.14286 63.1261 11.4286C63.1261 17.7143 57.9612 22.8571 51.6486 22.8571C45.336 22.8571 40.1712 17.7143 40.1712 11.4286C40.1712 5.14286 45.336 0 51.6486 0Z" fill="#A71BA7"/>
</svg>
