<svg width="100" height="100" viewBox="0 0 100 100" fill="none" xmlns="http://www.w3.org/2000/svg">
<path d="M20.0001 80H6.66671C4.89913 79.9982 3.20445 79.2953 1.95458 78.0454C0.704716 76.7956 0.00176493 75.1009 0 73.3333V60H6.66671V73.3333H20.0001V80ZM0 33.3333H6.66671V46.6667H0V33.3333ZM80.0006 20H73.3339V6.66667H60.0004V0H73.3339C75.1014 0.00176492 76.7961 0.70471 78.046 1.95457C79.2959 3.20443 79.9988 4.8991 80.0006 6.66667V20ZM33.3336 0H46.667V6.66667H33.3336V0ZM6.66671 20H0V6.66667C0.00176493 4.8991 0.704716 3.20443 1.95458 1.95457C3.20445 0.70471 4.89913 0.00176492 6.66671 0H20.0001V6.66667H6.66671V20ZM83.3339 100C82.8961 100 82.4626 99.9144 82.0581 99.7468C81.6537 99.5792 81.2864 99.3333 80.9772 99.0233L60.5171 78.5633L49.4404 95.1833C49.0893 95.7098 48.5957 96.1254 48.0172 96.3817C47.4387 96.638 46.7992 96.7244 46.1734 96.6307C45.5477 96.537 44.9615 96.2671 44.4834 95.8526C44.0053 95.4382 43.6551 94.8962 43.4736 94.29L23.4735 27.6233C23.3007 27.0469 23.2872 26.4345 23.4344 25.851C23.5816 25.2676 23.884 24.7348 24.3095 24.3093C24.735 23.8838 25.2677 23.5814 25.8512 23.4342C26.4347 23.2871 27.0471 23.3006 27.6235 23.4733L94.2907 43.4733C94.8968 43.6548 95.4388 44.005 95.8533 44.4831C96.2678 44.9612 96.5377 45.5473 96.6314 46.1731C96.7251 46.7989 96.6387 47.4384 96.3824 48.0169C96.1261 48.5954 95.7105 49.089 95.184 49.44L78.5639 60.5167L99.024 80.9767C99.6489 81.6018 100 82.4494 100 83.3333C100 84.2172 99.6489 85.0649 99.024 85.69L85.6906 99.0233C85.3815 99.3333 85.0141 99.5792 84.6097 99.7468C84.2053 99.9144 83.7717 100 83.3339 100ZM83.3339 91.9533L91.954 83.3333L68.1038 59.4833L85.5906 47.8233L31.6402 31.64L47.8237 85.59L59.4838 68.1033L83.3339 91.9533Z" fill="#A71BA7"/>
</svg>
