<svg width="220" height="204" viewBox="0 0 220 204" fill="none" xmlns="http://www.w3.org/2000/svg">
<path fill-rule="evenodd" clip-rule="evenodd" d="M70 0C68.6654 0.000120985 67.3443 0.247957 66.1147 0.728902C64.885 1.20985 63.7715 1.91417 62.84 2.80036L2.84 59.8833C1.01937 61.6148 0.00026154 63.9373 0 66.3556V139.091C0.000566374 141.55 1.05451 143.908 2.93 145.647L62.93 201.283C64.8049 203.022 67.3481 203.999 70 204H150C152.652 203.999 155.195 203.022 157.07 201.283L217.07 145.647C218.945 143.908 219.999 141.55 220 139.091V66.3556C220 63.9373 218.981 61.6148 217.16 59.8833L157.16 2.80036C156.228 1.91417 155.115 1.20985 153.885 0.728902C152.656 0.247957 151.335 0.000120985 150 0H70ZM70 92.7273C67.3478 92.7273 64.8043 93.7042 62.9289 95.4432C61.0536 97.1822 60 99.5407 60 102C60 104.459 61.0536 106.818 62.9289 108.557C64.8043 110.296 67.3478 111.273 70 111.273H150C152.652 111.273 155.196 110.296 157.071 108.557C158.946 106.818 160 104.459 160 102C160 99.5407 158.946 97.1822 157.071 95.4432C155.196 93.7042 152.652 92.7273 150 92.7273H70Z" fill="#A71BA7"/>
</svg>
