<svg width="578" height="259" viewBox="0 0 578 259" fill="none" xmlns="http://www.w3.org/2000/svg">
<line x1="407.855" y1="177.609" x2="436.688" y2="154.609" stroke="#A71BA7" stroke-dasharray="2 2"/>
<path d="M378.311 66.29C378.221 66.67 378.126 67.08 378.026 67.52C377.926 67.96 377.836 68.39 377.756 68.81C377.676 69.23 377.611 69.615 377.561 69.965H376.136L376.031 69.8C376.121 69.45 376.236 69.075 376.376 68.675C376.516 68.265 376.671 67.855 376.841 67.445C377.011 67.035 377.176 66.65 377.336 66.29H378.311ZM375.536 66.29C375.446 66.67 375.351 67.08 375.251 67.52C375.151 67.96 375.061 68.39 374.981 68.81C374.901 69.23 374.836 69.615 374.786 69.965H373.376L373.286 69.8C373.376 69.45 373.491 69.075 373.631 68.675C373.771 68.265 373.921 67.855 374.081 67.445C374.251 67.035 374.416 66.65 374.576 66.29H375.536ZM386.027 74.135C386.027 74.775 385.872 75.32 385.562 75.77C385.252 76.21 384.807 76.55 384.227 76.79C383.657 77.03 382.982 77.15 382.202 77.15C381.802 77.15 381.417 77.13 381.047 77.09C380.687 77.05 380.357 76.995 380.057 76.925C379.757 76.845 379.492 76.75 379.262 76.64V75.35C379.622 75.51 380.067 75.655 380.597 75.785C381.137 75.915 381.692 75.98 382.262 75.98C382.792 75.98 383.237 75.91 383.597 75.77C383.957 75.63 384.227 75.43 384.407 75.17C384.587 74.91 384.677 74.605 384.677 74.255C384.677 73.905 384.602 73.61 384.452 73.37C384.302 73.13 384.042 72.91 383.672 72.71C383.312 72.5 382.807 72.28 382.157 72.05C381.697 71.88 381.292 71.7 380.942 71.51C380.602 71.31 380.317 71.085 380.087 70.835C379.857 70.585 379.682 70.3 379.562 69.98C379.452 69.66 379.397 69.29 379.397 68.87C379.397 68.3 379.542 67.815 379.832 67.415C380.122 67.005 380.522 66.69 381.032 66.47C381.552 66.25 382.147 66.14 382.817 66.14C383.407 66.14 383.947 66.195 384.437 66.305C384.927 66.415 385.372 66.56 385.772 66.74L385.352 67.895C384.982 67.735 384.577 67.6 384.137 67.49C383.707 67.38 383.257 67.325 382.787 67.325C382.337 67.325 381.962 67.39 381.662 67.52C381.362 67.65 381.137 67.835 380.987 68.075C380.837 68.305 380.762 68.575 380.762 68.885C380.762 69.245 380.837 69.545 380.987 69.785C381.137 70.025 381.382 70.24 381.722 70.43C382.062 70.62 382.522 70.825 383.102 71.045C383.732 71.275 384.262 71.525 384.692 71.795C385.132 72.055 385.462 72.37 385.682 72.74C385.912 73.11 386.027 73.575 386.027 74.135ZM394.994 72.965C394.994 73.635 394.904 74.23 394.724 74.75C394.554 75.26 394.304 75.695 393.974 76.055C393.654 76.415 393.259 76.69 392.789 76.88C392.329 77.06 391.814 77.15 391.244 77.15C390.714 77.15 390.224 77.06 389.774 76.88C389.324 76.69 388.934 76.415 388.604 76.055C388.274 75.695 388.014 75.26 387.824 74.75C387.644 74.23 387.554 73.635 387.554 72.965C387.554 72.075 387.704 71.325 388.004 70.715C388.304 70.095 388.734 69.625 389.294 69.305C389.854 68.975 390.519 68.81 391.289 68.81C392.019 68.81 392.659 68.975 393.209 69.305C393.769 69.625 394.204 70.095 394.514 70.715C394.834 71.325 394.994 72.075 394.994 72.965ZM388.919 72.965C388.919 73.595 388.999 74.145 389.159 74.615C389.329 75.075 389.589 75.43 389.939 75.68C390.289 75.93 390.734 76.055 391.274 76.055C391.814 76.055 392.259 75.93 392.609 75.68C392.959 75.43 393.214 75.075 393.374 74.615C393.544 74.145 393.629 73.595 393.629 72.965C393.629 72.325 393.544 71.78 393.374 71.33C393.204 70.88 392.944 70.535 392.594 70.295C392.254 70.045 391.809 69.92 391.259 69.92C390.439 69.92 389.844 70.19 389.474 70.73C389.104 71.27 388.919 72.015 388.919 72.965ZM405.907 68.81C406.817 68.81 407.497 69.045 407.947 69.515C408.397 69.975 408.622 70.725 408.622 71.765V77H407.317V71.825C407.317 71.195 407.182 70.72 406.912 70.4C406.652 70.08 406.242 69.92 405.682 69.92C404.902 69.92 404.342 70.145 404.002 70.595C403.672 71.045 403.507 71.7 403.507 72.56V77H402.202V71.825C402.202 71.405 402.142 71.055 402.022 70.775C401.902 70.485 401.722 70.27 401.482 70.13C401.242 69.99 400.932 69.92 400.552 69.92C400.012 69.92 399.587 70.035 399.277 70.265C398.967 70.485 398.742 70.81 398.602 71.24C398.472 71.67 398.407 72.2 398.407 72.83V77H397.087V68.96H398.152L398.347 70.055H398.422C398.592 69.775 398.797 69.545 399.037 69.365C399.287 69.175 399.562 69.035 399.862 68.945C400.162 68.855 400.472 68.81 400.792 68.81C401.412 68.81 401.927 68.92 402.337 69.14C402.757 69.36 403.062 69.7 403.252 70.16H403.327C403.597 69.7 403.962 69.36 404.422 69.14C404.892 68.92 405.387 68.81 405.907 68.81ZM414.21 68.81C414.9 68.81 415.49 68.96 415.98 69.26C416.48 69.56 416.86 69.985 417.12 70.535C417.39 71.075 417.525 71.71 417.525 72.44V73.235H412.02C412.04 74.145 412.27 74.84 412.71 75.32C413.16 75.79 413.785 76.025 414.585 76.025C415.095 76.025 415.545 75.98 415.935 75.89C416.335 75.79 416.745 75.65 417.165 75.47V76.625C416.755 76.805 416.35 76.935 415.95 77.015C415.55 77.105 415.075 77.15 414.525 77.15C413.765 77.15 413.09 76.995 412.5 76.685C411.92 76.375 411.465 75.915 411.135 75.305C410.815 74.685 410.655 73.93 410.655 73.04C410.655 72.16 410.8 71.405 411.09 70.775C411.39 70.145 411.805 69.66 412.335 69.32C412.875 68.98 413.5 68.81 414.21 68.81ZM414.195 69.89C413.565 69.89 413.065 70.095 412.695 70.505C412.335 70.905 412.12 71.465 412.05 72.185H416.145C416.145 71.725 416.075 71.325 415.935 70.985C415.795 70.645 415.58 70.38 415.29 70.19C415.01 69.99 414.645 69.89 414.195 69.89ZM422.257 76.07C422.457 76.07 422.662 76.055 422.872 76.025C423.082 75.985 423.252 75.945 423.382 75.905V76.91C423.242 76.98 423.042 77.035 422.782 77.075C422.522 77.125 422.272 77.15 422.032 77.15C421.612 77.15 421.222 77.08 420.862 76.94C420.512 76.79 420.227 76.535 420.007 76.175C419.787 75.815 419.677 75.31 419.677 74.66V69.98H418.537V69.35L419.692 68.825L420.217 67.115H420.997V68.96H423.322V69.98H420.997V74.63C420.997 75.12 421.112 75.485 421.342 75.725C421.582 75.955 421.887 76.07 422.257 76.07ZM426.312 68.96V77H424.992V68.96H426.312ZM425.667 65.945C425.867 65.945 426.042 66.015 426.192 66.155C426.352 66.285 426.432 66.495 426.432 66.785C426.432 67.065 426.352 67.275 426.192 67.415C426.042 67.555 425.867 67.625 425.667 67.625C425.447 67.625 425.262 67.555 425.112 67.415C424.962 67.275 424.887 67.065 424.887 66.785C424.887 66.495 424.962 66.285 425.112 66.155C425.262 66.015 425.447 65.945 425.667 65.945ZM437.679 68.81C438.589 68.81 439.269 69.045 439.719 69.515C440.169 69.975 440.394 70.725 440.394 71.765V77H439.089V71.825C439.089 71.195 438.954 70.72 438.684 70.4C438.424 70.08 438.014 69.92 437.454 69.92C436.674 69.92 436.114 70.145 435.774 70.595C435.444 71.045 435.279 71.7 435.279 72.56V77H433.974V71.825C433.974 71.405 433.914 71.055 433.794 70.775C433.674 70.485 433.494 70.27 433.254 70.13C433.014 69.99 432.704 69.92 432.324 69.92C431.784 69.92 431.359 70.035 431.049 70.265C430.739 70.485 430.514 70.81 430.374 71.24C430.244 71.67 430.179 72.2 430.179 72.83V77H428.859V68.96H429.924L430.119 70.055H430.194C430.364 69.775 430.569 69.545 430.809 69.365C431.059 69.175 431.334 69.035 431.634 68.945C431.934 68.855 432.244 68.81 432.564 68.81C433.184 68.81 433.699 68.92 434.109 69.14C434.529 69.36 434.834 69.7 435.024 70.16H435.099C435.369 69.7 435.734 69.36 436.194 69.14C436.664 68.92 437.159 68.81 437.679 68.81ZM445.983 68.81C446.673 68.81 447.263 68.96 447.753 69.26C448.253 69.56 448.633 69.985 448.893 70.535C449.163 71.075 449.298 71.71 449.298 72.44V73.235H443.793C443.813 74.145 444.043 74.84 444.483 75.32C444.933 75.79 445.558 76.025 446.358 76.025C446.868 76.025 447.318 75.98 447.708 75.89C448.108 75.79 448.518 75.65 448.938 75.47V76.625C448.528 76.805 448.123 76.935 447.723 77.015C447.323 77.105 446.848 77.15 446.298 77.15C445.538 77.15 444.863 76.995 444.273 76.685C443.693 76.375 443.238 75.915 442.908 75.305C442.588 74.685 442.428 73.93 442.428 73.04C442.428 72.16 442.573 71.405 442.863 70.775C443.163 70.145 443.578 69.66 444.108 69.32C444.648 68.98 445.273 68.81 445.983 68.81ZM445.968 69.89C445.338 69.89 444.838 70.095 444.468 70.505C444.108 70.905 443.893 71.465 443.823 72.185H447.918C447.918 71.725 447.848 71.325 447.708 70.985C447.568 70.645 447.353 70.38 447.063 70.19C446.783 69.99 446.418 69.89 445.968 69.89ZM456.579 74.78C456.579 75.3 456.449 75.735 456.189 76.085C455.929 76.435 455.559 76.7 455.079 76.88C454.599 77.06 454.029 77.15 453.369 77.15C452.809 77.15 452.324 77.105 451.914 77.015C451.514 76.925 451.159 76.8 450.849 76.64V75.44C451.169 75.6 451.554 75.75 452.004 75.89C452.464 76.02 452.929 76.085 453.399 76.085C454.069 76.085 454.554 75.98 454.854 75.77C455.154 75.55 455.304 75.26 455.304 74.9C455.304 74.7 455.249 74.52 455.139 74.36C455.029 74.2 454.829 74.04 454.539 73.88C454.259 73.72 453.854 73.54 453.324 73.34C452.804 73.14 452.359 72.94 451.989 72.74C451.619 72.54 451.334 72.3 451.134 72.02C450.934 71.74 450.834 71.38 450.834 70.94C450.834 70.26 451.109 69.735 451.659 69.365C452.219 68.995 452.949 68.81 453.849 68.81C454.339 68.81 454.794 68.86 455.214 68.96C455.644 69.05 456.044 69.18 456.414 69.35L455.964 70.4C455.744 70.3 455.509 70.215 455.259 70.145C455.019 70.065 454.774 70.005 454.524 69.965C454.274 69.915 454.019 69.89 453.759 69.89C453.219 69.89 452.804 69.98 452.514 70.16C452.234 70.33 452.094 70.565 452.094 70.865C452.094 71.085 452.159 71.275 452.289 71.435C452.419 71.585 452.634 71.735 452.934 71.885C453.244 72.025 453.654 72.195 454.164 72.395C454.674 72.585 455.109 72.78 455.469 72.98C455.829 73.18 456.104 73.425 456.294 73.715C456.484 73.995 456.579 74.35 456.579 74.78ZM460.127 75.425C460.037 75.775 459.922 76.155 459.782 76.565C459.642 76.975 459.487 77.38 459.317 77.78C459.157 78.19 458.997 78.575 458.837 78.935H457.862C457.962 78.555 458.057 78.145 458.147 77.705C458.247 77.275 458.337 76.85 458.417 76.43C458.497 76 458.562 75.61 458.612 75.26H460.022L460.127 75.425ZM467.752 68.96V77H466.432V68.96H467.752ZM467.107 65.945C467.307 65.945 467.482 66.015 467.632 66.155C467.792 66.285 467.872 66.495 467.872 66.785C467.872 67.065 467.792 67.275 467.632 67.415C467.482 67.555 467.307 67.625 467.107 67.625C466.887 67.625 466.702 67.555 466.552 67.415C466.402 67.275 466.327 67.065 466.327 66.785C466.327 66.495 466.402 66.285 466.552 66.155C466.702 66.015 466.887 65.945 467.107 65.945ZM472.984 76.07C473.184 76.07 473.389 76.055 473.599 76.025C473.809 75.985 473.979 75.945 474.109 75.905V76.91C473.969 76.98 473.769 77.035 473.509 77.075C473.249 77.125 472.999 77.15 472.759 77.15C472.339 77.15 471.949 77.08 471.589 76.94C471.239 76.79 470.954 76.535 470.734 76.175C470.514 75.815 470.404 75.31 470.404 74.66V69.98H469.264V69.35L470.419 68.825L470.944 67.115H471.724V68.96H474.049V69.98H471.724V74.63C471.724 75.12 471.839 75.485 472.069 75.725C472.309 75.955 472.614 76.07 472.984 76.07ZM477.182 66.455C477.092 66.805 476.977 67.185 476.837 67.595C476.697 68.005 476.542 68.415 476.372 68.825C476.212 69.225 476.052 69.605 475.892 69.965H474.917C474.987 69.685 475.057 69.385 475.127 69.065C475.207 68.745 475.277 68.425 475.337 68.105C475.407 67.775 475.467 67.455 475.517 67.145C475.577 66.835 475.627 66.55 475.667 66.29H477.077L477.182 66.455ZM483.415 74.78C483.415 75.3 483.285 75.735 483.025 76.085C482.765 76.435 482.395 76.7 481.915 76.88C481.435 77.06 480.865 77.15 480.205 77.15C479.645 77.15 479.16 77.105 478.75 77.015C478.35 76.925 477.995 76.8 477.685 76.64V75.44C478.005 75.6 478.39 75.75 478.84 75.89C479.3 76.02 479.765 76.085 480.235 76.085C480.905 76.085 481.39 75.98 481.69 75.77C481.99 75.55 482.14 75.26 482.14 74.9C482.14 74.7 482.085 74.52 481.975 74.36C481.865 74.2 481.665 74.04 481.375 73.88C481.095 73.72 480.69 73.54 480.16 73.34C479.64 73.14 479.195 72.94 478.825 72.74C478.455 72.54 478.17 72.3 477.97 72.02C477.77 71.74 477.67 71.38 477.67 70.94C477.67 70.26 477.945 69.735 478.495 69.365C479.055 68.995 479.785 68.81 480.685 68.81C481.175 68.81 481.63 68.86 482.05 68.96C482.48 69.05 482.88 69.18 483.25 69.35L482.8 70.4C482.58 70.3 482.345 70.215 482.095 70.145C481.855 70.065 481.61 70.005 481.36 69.965C481.11 69.915 480.855 69.89 480.595 69.89C480.055 69.89 479.64 69.98 479.35 70.16C479.07 70.33 478.93 70.565 478.93 70.865C478.93 71.085 478.995 71.275 479.125 71.435C479.255 71.585 479.47 71.735 479.77 71.885C480.08 72.025 480.49 72.195 481 72.395C481.51 72.585 481.945 72.78 482.305 72.98C482.665 73.18 482.94 73.425 483.13 73.715C483.32 73.995 483.415 74.35 483.415 74.78ZM492.359 68.81C493.049 68.81 493.639 68.96 494.129 69.26C494.629 69.56 495.009 69.985 495.269 70.535C495.539 71.075 495.674 71.71 495.674 72.44V73.235H490.169C490.189 74.145 490.419 74.84 490.859 75.32C491.309 75.79 491.934 76.025 492.734 76.025C493.244 76.025 493.694 75.98 494.084 75.89C494.484 75.79 494.894 75.65 495.314 75.47V76.625C494.904 76.805 494.499 76.935 494.099 77.015C493.699 77.105 493.224 77.15 492.674 77.15C491.914 77.15 491.239 76.995 490.649 76.685C490.069 76.375 489.614 75.915 489.284 75.305C488.964 74.685 488.804 73.93 488.804 73.04C488.804 72.16 488.949 71.405 489.239 70.775C489.539 70.145 489.954 69.66 490.484 69.32C491.024 68.98 491.649 68.81 492.359 68.81ZM492.344 69.89C491.714 69.89 491.214 70.095 490.844 70.505C490.484 70.905 490.269 71.465 490.199 72.185H494.294C494.294 71.725 494.224 71.325 494.084 70.985C493.944 70.645 493.729 70.38 493.439 70.19C493.159 69.99 492.794 69.89 492.344 69.89ZM500.766 68.825C501.746 68.825 502.471 69.04 502.941 69.47C503.411 69.9 503.646 70.585 503.646 71.525V77H502.686L502.431 75.86H502.371C502.141 76.15 501.901 76.395 501.651 76.595C501.411 76.785 501.131 76.925 500.811 77.015C500.501 77.105 500.121 77.15 499.671 77.15C499.191 77.15 498.756 77.065 498.366 76.895C497.986 76.725 497.686 76.465 497.466 76.115C497.246 75.755 497.136 75.305 497.136 74.765C497.136 73.965 497.451 73.35 498.081 72.92C498.711 72.48 499.681 72.24 500.991 72.2L502.356 72.155V71.675C502.356 71.005 502.211 70.54 501.921 70.28C501.631 70.02 501.221 69.89 500.691 69.89C500.271 69.89 499.871 69.955 499.491 70.085C499.111 70.205 498.756 70.345 498.426 70.505L498.021 69.515C498.371 69.325 498.786 69.165 499.266 69.035C499.746 68.895 500.246 68.825 500.766 68.825ZM501.156 73.115C500.156 73.155 499.461 73.315 499.071 73.595C498.691 73.875 498.501 74.27 498.501 74.78C498.501 75.23 498.636 75.56 498.906 75.77C499.186 75.98 499.541 76.085 499.971 76.085C500.651 76.085 501.216 75.9 501.666 75.53C502.116 75.15 502.341 74.57 502.341 73.79V73.07L501.156 73.115ZM511.364 74.78C511.364 75.3 511.234 75.735 510.974 76.085C510.714 76.435 510.344 76.7 509.864 76.88C509.384 77.06 508.814 77.15 508.154 77.15C507.594 77.15 507.109 77.105 506.699 77.015C506.299 76.925 505.944 76.8 505.634 76.64V75.44C505.954 75.6 506.339 75.75 506.789 75.89C507.249 76.02 507.714 76.085 508.184 76.085C508.854 76.085 509.339 75.98 509.639 75.77C509.939 75.55 510.089 75.26 510.089 74.9C510.089 74.7 510.034 74.52 509.924 74.36C509.814 74.2 509.614 74.04 509.324 73.88C509.044 73.72 508.639 73.54 508.109 73.34C507.589 73.14 507.144 72.94 506.774 72.74C506.404 72.54 506.119 72.3 505.919 72.02C505.719 71.74 505.619 71.38 505.619 70.94C505.619 70.26 505.894 69.735 506.444 69.365C507.004 68.995 507.734 68.81 508.634 68.81C509.124 68.81 509.579 68.86 509.999 68.96C510.429 69.05 510.829 69.18 511.199 69.35L510.749 70.4C510.529 70.3 510.294 70.215 510.044 70.145C509.804 70.065 509.559 70.005 509.309 69.965C509.059 69.915 508.804 69.89 508.544 69.89C508.004 69.89 507.589 69.98 507.299 70.16C507.019 70.33 506.879 70.565 506.879 70.865C506.879 71.085 506.944 71.275 507.074 71.435C507.204 71.585 507.419 71.735 507.719 71.885C508.029 72.025 508.439 72.195 508.949 72.395C509.459 72.585 509.894 72.78 510.254 72.98C510.614 73.18 510.889 73.425 511.079 73.715C511.269 73.995 511.364 74.35 511.364 74.78ZM514.627 68.96V77H513.307V68.96H514.627ZM513.982 65.945C514.182 65.945 514.357 66.015 514.507 66.155C514.667 66.285 514.747 66.495 514.747 66.785C514.747 67.065 514.667 67.275 514.507 67.415C514.357 67.555 514.182 67.625 513.982 67.625C513.762 67.625 513.577 67.555 513.427 67.415C513.277 67.275 513.202 67.065 513.202 66.785C513.202 66.495 513.277 66.285 513.427 66.155C513.577 66.015 513.762 65.945 513.982 65.945ZM520.279 68.81C520.969 68.81 521.559 68.96 522.049 69.26C522.549 69.56 522.929 69.985 523.189 70.535C523.459 71.075 523.594 71.71 523.594 72.44V73.235H518.089C518.109 74.145 518.339 74.84 518.779 75.32C519.229 75.79 519.854 76.025 520.654 76.025C521.164 76.025 521.614 75.98 522.004 75.89C522.404 75.79 522.814 75.65 523.234 75.47V76.625C522.824 76.805 522.419 76.935 522.019 77.015C521.619 77.105 521.144 77.15 520.594 77.15C519.834 77.15 519.159 76.995 518.569 76.685C517.989 76.375 517.534 75.915 517.204 75.305C516.884 74.685 516.724 73.93 516.724 73.04C516.724 72.16 516.869 71.405 517.159 70.775C517.459 70.145 517.874 69.66 518.404 69.32C518.944 68.98 519.569 68.81 520.279 68.81ZM520.264 69.89C519.634 69.89 519.134 70.095 518.764 70.505C518.404 70.905 518.189 71.465 518.119 72.185H522.214C522.214 71.725 522.144 71.325 522.004 70.985C521.864 70.645 521.649 70.38 521.359 70.19C521.079 69.99 520.714 69.89 520.264 69.89ZM529.391 68.81C529.541 68.81 529.701 68.82 529.871 68.84C530.051 68.85 530.206 68.87 530.336 68.9L530.171 70.115C530.041 70.085 529.896 70.06 529.736 70.04C529.586 70.02 529.441 70.01 529.301 70.01C528.991 70.01 528.696 70.075 528.416 70.205C528.136 70.335 527.886 70.52 527.666 70.76C527.446 70.99 527.271 71.27 527.141 71.6C527.021 71.93 526.961 72.3 526.961 72.71V77H525.641V68.96H526.721L526.871 70.43H526.931C527.101 70.13 527.306 69.86 527.546 69.62C527.786 69.37 528.061 69.175 528.371 69.035C528.681 68.885 529.021 68.81 529.391 68.81ZM539.439 69.98H537.414V77H536.094V69.98H534.684V69.365L536.094 68.915V68.45C536.094 67.76 536.194 67.2 536.394 66.77C536.604 66.34 536.904 66.025 537.294 65.825C537.684 65.625 538.154 65.525 538.704 65.525C539.024 65.525 539.314 65.555 539.574 65.615C539.844 65.665 540.074 65.725 540.264 65.795L539.919 66.83C539.759 66.78 539.574 66.73 539.364 66.68C539.154 66.63 538.939 66.605 538.719 66.605C538.279 66.605 537.949 66.755 537.729 67.055C537.519 67.345 537.414 67.805 537.414 68.435V68.96H539.439V69.98ZM547.88 72.965C547.88 73.635 547.79 74.23 547.61 74.75C547.44 75.26 547.19 75.695 546.86 76.055C546.54 76.415 546.145 76.69 545.675 76.88C545.215 77.06 544.7 77.15 544.13 77.15C543.6 77.15 543.11 77.06 542.66 76.88C542.21 76.69 541.82 76.415 541.49 76.055C541.16 75.695 540.9 75.26 540.71 74.75C540.53 74.23 540.44 73.635 540.44 72.965C540.44 72.075 540.59 71.325 540.89 70.715C541.19 70.095 541.62 69.625 542.18 69.305C542.74 68.975 543.405 68.81 544.175 68.81C544.905 68.81 545.545 68.975 546.095 69.305C546.655 69.625 547.09 70.095 547.4 70.715C547.72 71.325 547.88 72.075 547.88 72.965ZM541.805 72.965C541.805 73.595 541.885 74.145 542.045 74.615C542.215 75.075 542.475 75.43 542.825 75.68C543.175 75.93 543.62 76.055 544.16 76.055C544.7 76.055 545.145 75.93 545.495 75.68C545.845 75.43 546.1 75.075 546.26 74.615C546.43 74.145 546.515 73.595 546.515 72.965C546.515 72.325 546.43 71.78 546.26 71.33C546.09 70.88 545.83 70.535 545.48 70.295C545.14 70.045 544.695 69.92 544.145 69.92C543.325 69.92 542.73 70.19 542.36 70.73C541.99 71.27 541.805 72.015 541.805 72.965ZM553.722 68.81C553.872 68.81 554.032 68.82 554.202 68.84C554.382 68.85 554.537 68.87 554.667 68.9L554.502 70.115C554.372 70.085 554.227 70.06 554.067 70.04C553.917 70.02 553.772 70.01 553.632 70.01C553.322 70.01 553.027 70.075 552.747 70.205C552.467 70.335 552.217 70.52 551.997 70.76C551.777 70.99 551.602 71.27 551.472 71.6C551.352 71.93 551.292 72.3 551.292 72.71V77H549.972V68.96H551.052L551.202 70.43H551.262C551.432 70.13 551.637 69.86 551.877 69.62C552.117 69.37 552.392 69.175 552.702 69.035C553.012 68.885 553.352 68.81 553.722 68.81ZM378.983 88.81C379.893 88.81 380.573 89.045 381.023 89.515C381.473 89.975 381.698 90.725 381.698 91.765V97H380.393V91.825C380.393 91.195 380.258 90.72 379.988 90.4C379.728 90.08 379.318 89.92 378.758 89.92C377.978 89.92 377.418 90.145 377.078 90.595C376.748 91.045 376.583 91.7 376.583 92.56V97H375.278V91.825C375.278 91.405 375.218 91.055 375.098 90.775C374.978 90.485 374.798 90.27 374.558 90.13C374.318 89.99 374.008 89.92 373.628 89.92C373.088 89.92 372.663 90.035 372.353 90.265C372.043 90.485 371.818 90.81 371.678 91.24C371.548 91.67 371.483 92.2 371.483 92.83V97H370.163V88.96H371.228L371.423 90.055H371.498C371.668 89.775 371.873 89.545 372.113 89.365C372.363 89.175 372.638 89.035 372.938 88.945C373.238 88.855 373.548 88.81 373.868 88.81C374.488 88.81 375.003 88.92 375.413 89.14C375.833 89.36 376.138 89.7 376.328 90.16H376.403C376.673 89.7 377.038 89.36 377.498 89.14C377.968 88.92 378.463 88.81 378.983 88.81ZM387.286 88.81C387.976 88.81 388.566 88.96 389.056 89.26C389.556 89.56 389.936 89.985 390.196 90.535C390.466 91.075 390.601 91.71 390.601 92.44V93.235H385.096C385.116 94.145 385.346 94.84 385.786 95.32C386.236 95.79 386.861 96.025 387.661 96.025C388.171 96.025 388.621 95.98 389.011 95.89C389.411 95.79 389.821 95.65 390.241 95.47V96.625C389.831 96.805 389.426 96.935 389.026 97.015C388.626 97.105 388.151 97.15 387.601 97.15C386.841 97.15 386.166 96.995 385.576 96.685C384.996 96.375 384.541 95.915 384.211 95.305C383.891 94.685 383.731 93.93 383.731 93.04C383.731 92.16 383.876 91.405 384.166 90.775C384.466 90.145 384.881 89.66 385.411 89.32C385.951 88.98 386.576 88.81 387.286 88.81ZM387.271 89.89C386.641 89.89 386.141 90.095 385.771 90.505C385.411 90.905 385.196 91.465 385.126 92.185H389.221C389.221 91.725 389.151 91.325 389.011 90.985C388.871 90.645 388.656 90.38 388.366 90.19C388.086 89.99 387.721 89.89 387.271 89.89ZM399.23 96.07C399.43 96.07 399.635 96.055 399.845 96.025C400.055 95.985 400.225 95.945 400.355 95.905V96.91C400.215 96.98 400.015 97.035 399.755 97.075C399.495 97.125 399.245 97.15 399.005 97.15C398.585 97.15 398.195 97.08 397.835 96.94C397.485 96.79 397.2 96.535 396.98 96.175C396.76 95.815 396.65 95.31 396.65 94.66V89.98H395.51V89.35L396.665 88.825L397.19 87.115H397.97V88.96H400.295V89.98H397.97V94.63C397.97 95.12 398.085 95.485 398.315 95.725C398.555 95.955 398.86 96.07 399.23 96.07ZM408.954 92.965C408.954 93.635 408.864 94.23 408.684 94.75C408.514 95.26 408.264 95.695 407.934 96.055C407.614 96.415 407.219 96.69 406.749 96.88C406.289 97.06 405.774 97.15 405.204 97.15C404.674 97.15 404.184 97.06 403.734 96.88C403.284 96.69 402.894 96.415 402.564 96.055C402.234 95.695 401.974 95.26 401.784 94.75C401.604 94.23 401.514 93.635 401.514 92.965C401.514 92.075 401.664 91.325 401.964 90.715C402.264 90.095 402.694 89.625 403.254 89.305C403.814 88.975 404.479 88.81 405.249 88.81C405.979 88.81 406.619 88.975 407.169 89.305C407.729 89.625 408.164 90.095 408.474 90.715C408.794 91.325 408.954 92.075 408.954 92.965ZM402.879 92.965C402.879 93.595 402.959 94.145 403.119 94.615C403.289 95.075 403.549 95.43 403.899 95.68C404.249 95.93 404.694 96.055 405.234 96.055C405.774 96.055 406.219 95.93 406.569 95.68C406.919 95.43 407.174 95.075 407.334 94.615C407.504 94.145 407.589 93.595 407.589 92.965C407.589 92.325 407.504 91.78 407.334 91.33C407.164 90.88 406.904 90.535 406.554 90.295C406.214 90.045 405.769 89.92 405.219 89.92C404.399 89.92 403.804 90.19 403.434 90.73C403.064 91.27 402.879 92.015 402.879 92.965ZM420.178 94.78C420.178 95.3 420.048 95.735 419.788 96.085C419.528 96.435 419.158 96.7 418.678 96.88C418.198 97.06 417.628 97.15 416.968 97.15C416.408 97.15 415.923 97.105 415.513 97.015C415.113 96.925 414.758 96.8 414.448 96.64V95.44C414.768 95.6 415.153 95.75 415.603 95.89C416.063 96.02 416.528 96.085 416.998 96.085C417.668 96.085 418.153 95.98 418.453 95.77C418.753 95.55 418.903 95.26 418.903 94.9C418.903 94.7 418.848 94.52 418.738 94.36C418.628 94.2 418.428 94.04 418.138 93.88C417.858 93.72 417.453 93.54 416.923 93.34C416.403 93.14 415.958 92.94 415.588 92.74C415.218 92.54 414.933 92.3 414.733 92.02C414.533 91.74 414.433 91.38 414.433 90.94C414.433 90.26 414.708 89.735 415.258 89.365C415.818 88.995 416.548 88.81 417.448 88.81C417.938 88.81 418.393 88.86 418.813 88.96C419.243 89.05 419.643 89.18 420.013 89.35L419.563 90.4C419.343 90.3 419.108 90.215 418.858 90.145C418.618 90.065 418.373 90.005 418.123 89.965C417.873 89.915 417.618 89.89 417.358 89.89C416.818 89.89 416.403 89.98 416.113 90.16C415.833 90.33 415.693 90.565 415.693 90.865C415.693 91.085 415.758 91.275 415.888 91.435C416.018 91.585 416.233 91.735 416.533 91.885C416.843 92.025 417.253 92.195 417.763 92.395C418.273 92.585 418.708 92.78 419.068 92.98C419.428 93.18 419.703 93.425 419.893 93.715C420.083 93.995 420.178 94.35 420.178 94.78ZM423.426 91.555C423.426 91.715 423.416 91.925 423.396 92.185C423.386 92.445 423.376 92.67 423.366 92.86H423.426C423.486 92.78 423.576 92.665 423.696 92.515C423.816 92.365 423.936 92.215 424.056 92.065C424.186 91.905 424.296 91.775 424.386 91.675L426.951 88.96H428.496L425.241 92.395L428.721 97H427.131L424.341 93.25L423.426 94.045V97H422.121V85.6H423.426V91.555ZM431.453 88.96V97H430.133V88.96H431.453ZM430.808 85.945C431.008 85.945 431.183 86.015 431.333 86.155C431.493 86.285 431.573 86.495 431.573 86.785C431.573 87.065 431.493 87.275 431.333 87.415C431.183 87.555 431.008 87.625 430.808 87.625C430.588 87.625 430.403 87.555 430.253 87.415C430.103 87.275 430.028 87.065 430.028 86.785C430.028 86.495 430.103 86.285 430.253 86.155C430.403 86.015 430.588 85.945 430.808 85.945ZM437.826 88.81C438.816 88.81 439.611 89.155 440.211 89.845C440.821 90.535 441.126 91.575 441.126 92.965C441.126 93.875 440.986 94.645 440.706 95.275C440.436 95.895 440.051 96.365 439.551 96.685C439.061 96.995 438.481 97.15 437.811 97.15C437.401 97.15 437.036 97.095 436.716 96.985C436.396 96.875 436.121 96.735 435.891 96.565C435.671 96.385 435.481 96.19 435.321 95.98H435.231C435.251 96.15 435.271 96.365 435.291 96.625C435.311 96.885 435.321 97.11 435.321 97.3V100.6H434.001V88.96H435.081L435.261 90.055H435.321C435.481 89.825 435.671 89.615 435.891 89.425C436.121 89.235 436.391 89.085 436.701 88.975C437.021 88.865 437.396 88.81 437.826 88.81ZM437.586 89.92C437.046 89.92 436.611 90.025 436.281 90.235C435.951 90.435 435.711 90.74 435.561 91.15C435.411 91.56 435.331 92.08 435.321 92.71V92.965C435.321 93.625 435.391 94.185 435.531 94.645C435.671 95.105 435.906 95.455 436.236 95.695C436.576 95.935 437.036 96.055 437.616 96.055C438.106 96.055 438.506 95.92 438.816 95.65C439.136 95.38 439.371 95.015 439.521 94.555C439.681 94.085 439.761 93.55 439.761 92.95C439.761 92.03 439.581 91.295 439.221 90.745C438.871 90.195 438.326 89.92 437.586 89.92ZM450.171 88.825C451.151 88.825 451.876 89.04 452.346 89.47C452.816 89.9 453.051 90.585 453.051 91.525V97H452.091L451.836 95.86H451.776C451.546 96.15 451.306 96.395 451.056 96.595C450.816 96.785 450.536 96.925 450.216 97.015C449.906 97.105 449.526 97.15 449.076 97.15C448.596 97.15 448.161 97.065 447.771 96.895C447.391 96.725 447.091 96.465 446.871 96.115C446.651 95.755 446.541 95.305 446.541 94.765C446.541 93.965 446.856 93.35 447.486 92.92C448.116 92.48 449.086 92.24 450.396 92.2L451.761 92.155V91.675C451.761 91.005 451.616 90.54 451.326 90.28C451.036 90.02 450.626 89.89 450.096 89.89C449.676 89.89 449.276 89.955 448.896 90.085C448.516 90.205 448.161 90.345 447.831 90.505L447.426 89.515C447.776 89.325 448.191 89.165 448.671 89.035C449.151 88.895 449.651 88.825 450.171 88.825ZM450.561 93.115C449.561 93.155 448.866 93.315 448.476 93.595C448.096 93.875 447.906 94.27 447.906 94.78C447.906 95.23 448.041 95.56 448.311 95.77C448.591 95.98 448.946 96.085 449.376 96.085C450.056 96.085 450.621 95.9 451.071 95.53C451.521 95.15 451.746 94.57 451.746 93.79V93.07L450.561 93.115ZM459.404 88.81C460.364 88.81 461.089 89.045 461.579 89.515C462.069 89.975 462.314 90.725 462.314 91.765V97H461.009V91.855C461.009 91.205 460.864 90.72 460.574 90.4C460.284 90.08 459.829 89.92 459.209 89.92C458.319 89.92 457.704 90.17 457.364 90.67C457.024 91.17 456.854 91.89 456.854 92.83V97H455.534V88.96H456.599L456.794 90.055H456.869C457.049 89.775 457.269 89.545 457.529 89.365C457.799 89.175 458.094 89.035 458.414 88.945C458.734 88.855 459.064 88.81 459.404 88.81ZM471.748 88.825C472.728 88.825 473.453 89.04 473.923 89.47C474.393 89.9 474.628 90.585 474.628 91.525V97H473.668L473.413 95.86H473.353C473.123 96.15 472.883 96.395 472.633 96.595C472.393 96.785 472.113 96.925 471.793 97.015C471.483 97.105 471.103 97.15 470.653 97.15C470.173 97.15 469.738 97.065 469.348 96.895C468.968 96.725 468.668 96.465 468.448 96.115C468.228 95.755 468.118 95.305 468.118 94.765C468.118 93.965 468.433 93.35 469.063 92.92C469.693 92.48 470.663 92.24 471.973 92.2L473.338 92.155V91.675C473.338 91.005 473.193 90.54 472.903 90.28C472.613 90.02 472.203 89.89 471.673 89.89C471.253 89.89 470.853 89.955 470.473 90.085C470.093 90.205 469.738 90.345 469.408 90.505L469.003 89.515C469.353 89.325 469.768 89.165 470.248 89.035C470.728 88.895 471.228 88.825 471.748 88.825ZM472.138 93.115C471.138 93.155 470.443 93.315 470.053 93.595C469.673 93.875 469.483 94.27 469.483 94.78C469.483 95.23 469.618 95.56 469.888 95.77C470.168 95.98 470.523 96.085 470.953 96.085C471.633 96.085 472.198 95.9 472.648 95.53C473.098 95.15 473.323 94.57 473.323 93.79V93.07L472.138 93.115ZM480.936 88.81C481.926 88.81 482.721 89.155 483.321 89.845C483.931 90.535 484.236 91.575 484.236 92.965C484.236 93.875 484.096 94.645 483.816 95.275C483.546 95.895 483.161 96.365 482.661 96.685C482.171 96.995 481.591 97.15 480.921 97.15C480.511 97.15 480.146 97.095 479.826 96.985C479.506 96.875 479.231 96.735 479.001 96.565C478.781 96.385 478.591 96.19 478.431 95.98H478.341C478.361 96.15 478.381 96.365 478.401 96.625C478.421 96.885 478.431 97.11 478.431 97.3V100.6H477.111V88.96H478.191L478.371 90.055H478.431C478.591 89.825 478.781 89.615 479.001 89.425C479.231 89.235 479.501 89.085 479.811 88.975C480.131 88.865 480.506 88.81 480.936 88.81ZM480.696 89.92C480.156 89.92 479.721 90.025 479.391 90.235C479.061 90.435 478.821 90.74 478.671 91.15C478.521 91.56 478.441 92.08 478.431 92.71V92.965C478.431 93.625 478.501 94.185 478.641 94.645C478.781 95.105 479.016 95.455 479.346 95.695C479.686 95.935 480.146 96.055 480.726 96.055C481.216 96.055 481.616 95.92 481.926 95.65C482.246 95.38 482.481 95.015 482.631 94.555C482.791 94.085 482.871 93.55 482.871 92.95C482.871 92.03 482.691 91.295 482.331 90.745C481.981 90.195 481.436 89.92 480.696 89.92ZM490.164 88.81C491.154 88.81 491.949 89.155 492.549 89.845C493.159 90.535 493.464 91.575 493.464 92.965C493.464 93.875 493.324 94.645 493.044 95.275C492.774 95.895 492.389 96.365 491.889 96.685C491.399 96.995 490.819 97.15 490.149 97.15C489.739 97.15 489.374 97.095 489.054 96.985C488.734 96.875 488.459 96.735 488.229 96.565C488.009 96.385 487.819 96.19 487.659 95.98H487.569C487.589 96.15 487.609 96.365 487.629 96.625C487.649 96.885 487.659 97.11 487.659 97.3V100.6H486.339V88.96H487.419L487.599 90.055H487.659C487.819 89.825 488.009 89.615 488.229 89.425C488.459 89.235 488.729 89.085 489.039 88.975C489.359 88.865 489.734 88.81 490.164 88.81ZM489.924 89.92C489.384 89.92 488.949 90.025 488.619 90.235C488.289 90.435 488.049 90.74 487.899 91.15C487.749 91.56 487.669 92.08 487.659 92.71V92.965C487.659 93.625 487.729 94.185 487.869 94.645C488.009 95.105 488.244 95.455 488.574 95.695C488.914 95.935 489.374 96.055 489.954 96.055C490.444 96.055 490.844 95.92 491.154 95.65C491.474 95.38 491.709 95.015 491.859 94.555C492.019 94.085 492.099 93.55 492.099 92.95C492.099 92.03 491.919 91.295 491.559 90.745C491.209 90.195 490.664 89.92 489.924 89.92ZM502.558 92.965C502.558 93.635 502.468 94.23 502.288 94.75C502.118 95.26 501.868 95.695 501.538 96.055C501.218 96.415 500.823 96.69 500.353 96.88C499.893 97.06 499.378 97.15 498.808 97.15C498.278 97.15 497.788 97.06 497.338 96.88C496.888 96.69 496.498 96.415 496.168 96.055C495.838 95.695 495.578 95.26 495.388 94.75C495.208 94.23 495.118 93.635 495.118 92.965C495.118 92.075 495.268 91.325 495.568 90.715C495.868 90.095 496.298 89.625 496.858 89.305C497.418 88.975 498.083 88.81 498.853 88.81C499.583 88.81 500.223 88.975 500.773 89.305C501.333 89.625 501.768 90.095 502.078 90.715C502.398 91.325 502.558 92.075 502.558 92.965ZM496.483 92.965C496.483 93.595 496.563 94.145 496.723 94.615C496.893 95.075 497.153 95.43 497.503 95.68C497.853 95.93 498.298 96.055 498.838 96.055C499.378 96.055 499.823 95.93 500.173 95.68C500.523 95.43 500.778 95.075 500.938 94.615C501.108 94.145 501.193 93.595 501.193 92.965C501.193 92.325 501.108 91.78 500.938 91.33C500.768 90.88 500.508 90.535 500.158 90.295C499.818 90.045 499.373 89.92 498.823 89.92C498.003 89.92 497.408 90.19 497.038 90.73C496.668 91.27 496.483 92.015 496.483 92.965ZM505.97 88.96V97H504.65V88.96H505.97ZM505.325 85.945C505.525 85.945 505.7 86.015 505.85 86.155C506.01 86.285 506.09 86.495 506.09 86.785C506.09 87.065 506.01 87.275 505.85 87.415C505.7 87.555 505.525 87.625 505.325 87.625C505.105 87.625 504.92 87.555 504.77 87.415C504.62 87.275 504.545 87.065 504.545 86.785C504.545 86.495 504.62 86.285 504.77 86.155C504.92 86.015 505.105 85.945 505.325 85.945ZM512.387 88.81C513.347 88.81 514.072 89.045 514.562 89.515C515.052 89.975 515.297 90.725 515.297 91.765V97H513.992V91.855C513.992 91.205 513.847 90.72 513.557 90.4C513.267 90.08 512.812 89.92 512.192 89.92C511.302 89.92 510.687 90.17 510.347 90.67C510.007 91.17 509.837 91.89 509.837 92.83V97H508.517V88.96H509.582L509.777 90.055H509.852C510.032 89.775 510.252 89.545 510.512 89.365C510.782 89.175 511.077 89.035 511.397 88.945C511.717 88.855 512.047 88.81 512.387 88.81ZM520.475 96.07C520.675 96.07 520.88 96.055 521.09 96.025C521.3 95.985 521.47 95.945 521.6 95.905V96.91C521.46 96.98 521.26 97.035 521 97.075C520.74 97.125 520.49 97.15 520.25 97.15C519.83 97.15 519.44 97.08 519.08 96.94C518.73 96.79 518.445 96.535 518.225 96.175C518.005 95.815 517.895 95.31 517.895 94.66V89.98H516.755V89.35L517.91 88.825L518.435 87.115H519.215V88.96H521.54V89.98H519.215V94.63C519.215 95.12 519.33 95.485 519.56 95.725C519.8 95.955 520.105 96.07 520.475 96.07ZM532.03 88.81C532.94 88.81 533.62 89.045 534.07 89.515C534.52 89.975 534.745 90.725 534.745 91.765V97H533.44V91.825C533.44 91.195 533.305 90.72 533.035 90.4C532.775 90.08 532.365 89.92 531.805 89.92C531.025 89.92 530.465 90.145 530.125 90.595C529.795 91.045 529.63 91.7 529.63 92.56V97H528.325V91.825C528.325 91.405 528.265 91.055 528.145 90.775C528.025 90.485 527.845 90.27 527.605 90.13C527.365 89.99 527.055 89.92 526.675 89.92C526.135 89.92 525.71 90.035 525.4 90.265C525.09 90.485 524.865 90.81 524.725 91.24C524.595 91.67 524.53 92.2 524.53 92.83V97H523.21V88.96H524.275L524.47 90.055H524.545C524.715 89.775 524.92 89.545 525.16 89.365C525.41 89.175 525.685 89.035 525.985 88.945C526.285 88.855 526.595 88.81 526.915 88.81C527.535 88.81 528.05 88.92 528.46 89.14C528.88 89.36 529.185 89.7 529.375 90.16H529.45C529.72 89.7 530.085 89.36 530.545 89.14C531.015 88.92 531.51 88.81 532.03 88.81ZM540.333 88.81C541.023 88.81 541.613 88.96 542.103 89.26C542.603 89.56 542.983 89.985 543.243 90.535C543.513 91.075 543.648 91.71 543.648 92.44V93.235H538.143C538.163 94.145 538.393 94.84 538.833 95.32C539.283 95.79 539.908 96.025 540.708 96.025C541.218 96.025 541.668 95.98 542.058 95.89C542.458 95.79 542.868 95.65 543.288 95.47V96.625C542.878 96.805 542.473 96.935 542.073 97.015C541.673 97.105 541.198 97.15 540.648 97.15C539.888 97.15 539.213 96.995 538.623 96.685C538.043 96.375 537.588 95.915 537.258 95.305C536.938 94.685 536.778 93.93 536.778 93.04C536.778 92.16 536.923 91.405 537.213 90.775C537.513 90.145 537.928 89.66 538.458 89.32C538.998 88.98 539.623 88.81 540.333 88.81ZM540.318 89.89C539.688 89.89 539.188 90.095 538.818 90.505C538.458 90.905 538.243 91.465 538.173 92.185H542.268C542.268 91.725 542.198 91.325 542.058 90.985C541.918 90.645 541.703 90.38 541.413 90.19C541.133 89.99 540.768 89.89 540.318 89.89ZM549.565 88.81C550.525 88.81 551.25 89.045 551.74 89.515C552.23 89.975 552.475 90.725 552.475 91.765V97H551.17V91.855C551.17 91.205 551.025 90.72 550.735 90.4C550.445 90.08 549.99 89.92 549.37 89.92C548.48 89.92 547.865 90.17 547.525 90.67C547.185 91.17 547.015 91.89 547.015 92.83V97H545.695V88.96H546.76L546.955 90.055H547.03C547.21 89.775 547.43 89.545 547.69 89.365C547.96 89.175 548.255 89.035 548.575 88.945C548.895 88.855 549.225 88.81 549.565 88.81ZM557.652 96.07C557.852 96.07 558.057 96.055 558.267 96.025C558.477 95.985 558.647 95.945 558.777 95.905V96.91C558.637 96.98 558.437 97.035 558.177 97.075C557.917 97.125 557.667 97.15 557.427 97.15C557.007 97.15 556.617 97.08 556.257 96.94C555.907 96.79 555.622 96.535 555.402 96.175C555.182 95.815 555.072 95.31 555.072 94.66V89.98H553.932V89.35L555.087 88.825L555.612 87.115H556.392V88.96H558.717V89.98H556.392V94.63C556.392 95.12 556.507 95.485 556.737 95.725C556.977 95.955 557.282 96.07 557.652 96.07ZM386.686 108.81C386.836 108.81 386.996 108.82 387.166 108.84C387.346 108.85 387.501 108.87 387.631 108.9L387.466 110.115C387.336 110.085 387.191 110.06 387.031 110.04C386.881 110.02 386.736 110.01 386.596 110.01C386.286 110.01 385.991 110.075 385.711 110.205C385.431 110.335 385.181 110.52 384.961 110.76C384.741 110.99 384.566 111.27 384.436 111.6C384.316 111.93 384.256 112.3 384.256 112.71V117H382.936V108.96H384.016L384.166 110.43H384.226C384.396 110.13 384.601 109.86 384.841 109.62C385.081 109.37 385.356 109.175 385.666 109.035C385.976 108.885 386.316 108.81 386.686 108.81ZM391.884 108.825C392.864 108.825 393.589 109.04 394.059 109.47C394.529 109.9 394.764 110.585 394.764 111.525V117H393.804L393.549 115.86H393.489C393.259 116.15 393.019 116.395 392.769 116.595C392.529 116.785 392.249 116.925 391.929 117.015C391.619 117.105 391.239 117.15 390.789 117.15C390.309 117.15 389.874 117.065 389.484 116.895C389.104 116.725 388.804 116.465 388.584 116.115C388.364 115.755 388.254 115.305 388.254 114.765C388.254 113.965 388.569 113.35 389.199 112.92C389.829 112.48 390.799 112.24 392.109 112.2L393.474 112.155V111.675C393.474 111.005 393.329 110.54 393.039 110.28C392.749 110.02 392.339 109.89 391.809 109.89C391.389 109.89 390.989 109.955 390.609 110.085C390.229 110.205 389.874 110.345 389.544 110.505L389.139 109.515C389.489 109.325 389.904 109.165 390.384 109.035C390.864 108.895 391.364 108.825 391.884 108.825ZM392.274 113.115C391.274 113.155 390.579 113.315 390.189 113.595C389.809 113.875 389.619 114.27 389.619 114.78C389.619 115.23 389.754 115.56 390.024 115.77C390.304 115.98 390.659 116.085 391.089 116.085C391.769 116.085 392.334 115.9 392.784 115.53C393.234 115.15 393.459 114.57 393.459 113.79V113.07L392.274 113.115ZM399.933 116.07C400.133 116.07 400.338 116.055 400.548 116.025C400.758 115.985 400.928 115.945 401.058 115.905V116.91C400.918 116.98 400.718 117.035 400.458 117.075C400.198 117.125 399.948 117.15 399.708 117.15C399.288 117.15 398.898 117.08 398.538 116.94C398.188 116.79 397.903 116.535 397.683 116.175C397.463 115.815 397.353 115.31 397.353 114.66V109.98H396.213V109.35L397.368 108.825L397.893 107.115H398.673V108.96H400.998V109.98H398.673V114.63C398.673 115.12 398.788 115.485 399.018 115.725C399.258 115.955 399.563 116.07 399.933 116.07ZM403.988 108.945C403.988 109.135 403.978 109.33 403.958 109.53C403.948 109.73 403.933 109.91 403.913 110.07H404.003C404.173 109.79 404.388 109.56 404.648 109.38C404.908 109.2 405.198 109.065 405.518 108.975C405.838 108.875 406.168 108.825 406.508 108.825C407.158 108.825 407.698 108.93 408.128 109.14C408.568 109.34 408.898 109.655 409.118 110.085C409.338 110.515 409.448 111.075 409.448 111.765V117H408.143V111.855C408.143 111.205 407.998 110.72 407.708 110.4C407.418 110.08 406.963 109.92 406.343 109.92C405.743 109.92 405.273 110.035 404.933 110.265C404.593 110.485 404.348 110.815 404.198 111.255C404.058 111.685 403.988 112.215 403.988 112.845V117H402.668V105.6H403.988V108.945ZM415.045 108.81C415.735 108.81 416.325 108.96 416.815 109.26C417.315 109.56 417.695 109.985 417.955 110.535C418.225 111.075 418.36 111.71 418.36 112.44V113.235H412.855C412.875 114.145 413.105 114.84 413.545 115.32C413.995 115.79 414.62 116.025 415.42 116.025C415.93 116.025 416.38 115.98 416.77 115.89C417.17 115.79 417.58 115.65 418 115.47V116.625C417.59 116.805 417.185 116.935 416.785 117.015C416.385 117.105 415.91 117.15 415.36 117.15C414.6 117.15 413.925 116.995 413.335 116.685C412.755 116.375 412.3 115.915 411.97 115.305C411.65 114.685 411.49 113.93 411.49 113.04C411.49 112.16 411.635 111.405 411.925 110.775C412.225 110.145 412.64 109.66 413.17 109.32C413.71 108.98 414.335 108.81 415.045 108.81ZM415.03 109.89C414.4 109.89 413.9 110.095 413.53 110.505C413.17 110.905 412.955 111.465 412.885 112.185H416.98C416.98 111.725 416.91 111.325 416.77 110.985C416.63 110.645 416.415 110.38 416.125 110.19C415.845 109.99 415.48 109.89 415.03 109.89ZM424.157 108.81C424.307 108.81 424.467 108.82 424.637 108.84C424.817 108.85 424.972 108.87 425.102 108.9L424.937 110.115C424.807 110.085 424.662 110.06 424.502 110.04C424.352 110.02 424.207 110.01 424.067 110.01C423.757 110.01 423.462 110.075 423.182 110.205C422.902 110.335 422.652 110.52 422.432 110.76C422.212 110.99 422.037 111.27 421.907 111.6C421.787 111.93 421.727 112.3 421.727 112.71V117H420.407V108.96H421.487L421.637 110.43H421.697C421.867 110.13 422.072 109.86 422.312 109.62C422.552 109.37 422.827 109.175 423.137 109.035C423.447 108.885 423.787 108.81 424.157 108.81ZM433.185 116.07C433.385 116.07 433.59 116.055 433.8 116.025C434.01 115.985 434.18 115.945 434.31 115.905V116.91C434.17 116.98 433.97 117.035 433.71 117.075C433.45 117.125 433.2 117.15 432.96 117.15C432.54 117.15 432.15 117.08 431.79 116.94C431.44 116.79 431.155 116.535 430.935 116.175C430.715 115.815 430.605 115.31 430.605 114.66V109.98H429.465V109.35L430.62 108.825L431.145 107.115H431.925V108.96H434.25V109.98H431.925V114.63C431.925 115.12 432.04 115.485 432.27 115.725C432.51 115.955 432.815 116.07 433.185 116.07ZM437.24 108.945C437.24 109.135 437.23 109.33 437.21 109.53C437.2 109.73 437.185 109.91 437.165 110.07H437.255C437.425 109.79 437.64 109.56 437.9 109.38C438.16 109.2 438.45 109.065 438.77 108.975C439.09 108.875 439.42 108.825 439.76 108.825C440.41 108.825 440.95 108.93 441.38 109.14C441.82 109.34 442.15 109.655 442.37 110.085C442.59 110.515 442.7 111.075 442.7 111.765V117H441.395V111.855C441.395 111.205 441.25 110.72 440.96 110.4C440.67 110.08 440.215 109.92 439.595 109.92C438.995 109.92 438.525 110.035 438.185 110.265C437.845 110.485 437.6 110.815 437.45 111.255C437.31 111.685 437.24 112.215 437.24 112.845V117H435.92V105.6H437.24V108.945ZM448.237 108.825C449.217 108.825 449.942 109.04 450.412 109.47C450.882 109.9 451.117 110.585 451.117 111.525V117H450.157L449.902 115.86H449.842C449.612 116.15 449.372 116.395 449.122 116.595C448.882 116.785 448.602 116.925 448.282 117.015C447.972 117.105 447.592 117.15 447.142 117.15C446.662 117.15 446.227 117.065 445.837 116.895C445.457 116.725 445.157 116.465 444.937 116.115C444.717 115.755 444.607 115.305 444.607 114.765C444.607 113.965 444.922 113.35 445.552 112.92C446.182 112.48 447.152 112.24 448.462 112.2L449.827 112.155V111.675C449.827 111.005 449.682 110.54 449.392 110.28C449.102 110.02 448.692 109.89 448.162 109.89C447.742 109.89 447.342 109.955 446.962 110.085C446.582 110.205 446.227 110.345 445.897 110.505L445.492 109.515C445.842 109.325 446.257 109.165 446.737 109.035C447.217 108.895 447.717 108.825 448.237 108.825ZM448.627 113.115C447.627 113.155 446.932 113.315 446.542 113.595C446.162 113.875 445.972 114.27 445.972 114.78C445.972 115.23 446.107 115.56 446.377 115.77C446.657 115.98 447.012 116.085 447.442 116.085C448.122 116.085 448.687 115.9 449.137 115.53C449.587 115.15 449.812 114.57 449.812 113.79V113.07L448.627 113.115ZM457.47 108.81C458.43 108.81 459.155 109.045 459.645 109.515C460.135 109.975 460.38 110.725 460.38 111.765V117H459.075V111.855C459.075 111.205 458.93 110.72 458.64 110.4C458.35 110.08 457.895 109.92 457.275 109.92C456.385 109.92 455.77 110.17 455.43 110.67C455.09 111.17 454.92 111.89 454.92 112.83V117H453.6V108.96H454.665L454.86 110.055H454.935C455.115 109.775 455.335 109.545 455.595 109.365C455.865 109.175 456.16 109.035 456.48 108.945C456.8 108.855 457.13 108.81 457.47 108.81ZM468.089 108.375C468.089 108.715 468.079 109.035 468.059 109.335C468.049 109.625 468.034 109.855 468.014 110.025H468.089C468.319 109.685 468.634 109.4 469.034 109.17C469.434 108.94 469.949 108.825 470.579 108.825C471.579 108.825 472.379 109.175 472.979 109.875C473.589 110.565 473.894 111.6 473.894 112.98C473.894 113.9 473.754 114.67 473.474 115.29C473.204 115.91 472.819 116.375 472.319 116.685C471.819 116.995 471.239 117.15 470.579 117.15C469.949 117.15 469.434 117.035 469.034 116.805C468.634 116.575 468.319 116.3 468.089 115.98H467.984L467.714 117H466.769V105.6H468.089V108.375ZM470.354 109.92C469.784 109.92 469.334 110.03 469.004 110.25C468.674 110.46 468.439 110.79 468.299 111.24C468.159 111.68 468.089 112.245 468.089 112.935V112.995C468.089 113.985 468.249 114.745 468.569 115.275C468.899 115.795 469.504 116.055 470.384 116.055C471.104 116.055 471.639 115.79 471.989 115.26C472.349 114.73 472.529 113.965 472.529 112.965C472.529 111.955 472.349 111.195 471.989 110.685C471.639 110.175 471.094 109.92 470.354 109.92ZM482.988 112.965C482.988 113.635 482.898 114.23 482.718 114.75C482.548 115.26 482.298 115.695 481.968 116.055C481.648 116.415 481.253 116.69 480.783 116.88C480.323 117.06 479.808 117.15 479.238 117.15C478.708 117.15 478.218 117.06 477.768 116.88C477.318 116.69 476.928 116.415 476.598 116.055C476.268 115.695 476.008 115.26 475.818 114.75C475.638 114.23 475.548 113.635 475.548 112.965C475.548 112.075 475.698 111.325 475.998 110.715C476.298 110.095 476.728 109.625 477.288 109.305C477.848 108.975 478.513 108.81 479.283 108.81C480.013 108.81 480.653 108.975 481.203 109.305C481.763 109.625 482.198 110.095 482.508 110.715C482.828 111.325 482.988 112.075 482.988 112.965ZM476.913 112.965C476.913 113.595 476.993 114.145 477.153 114.615C477.323 115.075 477.583 115.43 477.933 115.68C478.283 115.93 478.728 116.055 479.268 116.055C479.808 116.055 480.253 115.93 480.603 115.68C480.953 115.43 481.208 115.075 481.368 114.615C481.538 114.145 481.623 113.595 481.623 112.965C481.623 112.325 481.538 111.78 481.368 111.33C481.198 110.88 480.938 110.535 480.588 110.295C480.248 110.045 479.803 109.92 479.253 109.92C478.433 109.92 477.838 110.19 477.468 110.73C477.098 111.27 476.913 112.015 476.913 112.965ZM492.07 112.965C492.07 113.635 491.98 114.23 491.8 114.75C491.63 115.26 491.38 115.695 491.05 116.055C490.73 116.415 490.335 116.69 489.865 116.88C489.405 117.06 488.89 117.15 488.32 117.15C487.79 117.15 487.3 117.06 486.85 116.88C486.4 116.69 486.01 116.415 485.68 116.055C485.35 115.695 485.09 115.26 484.9 114.75C484.72 114.23 484.63 113.635 484.63 112.965C484.63 112.075 484.78 111.325 485.08 110.715C485.38 110.095 485.81 109.625 486.37 109.305C486.93 108.975 487.595 108.81 488.365 108.81C489.095 108.81 489.735 108.975 490.285 109.305C490.845 109.625 491.28 110.095 491.59 110.715C491.91 111.325 492.07 112.075 492.07 112.965ZM485.995 112.965C485.995 113.595 486.075 114.145 486.235 114.615C486.405 115.075 486.665 115.43 487.015 115.68C487.365 115.93 487.81 116.055 488.35 116.055C488.89 116.055 489.335 115.93 489.685 115.68C490.035 115.43 490.29 115.075 490.45 114.615C490.62 114.145 490.705 113.595 490.705 112.965C490.705 112.325 490.62 111.78 490.45 111.33C490.28 110.88 490.02 110.535 489.67 110.295C489.33 110.045 488.885 109.92 488.335 109.92C487.515 109.92 486.92 110.19 486.55 110.73C486.18 111.27 485.995 112.015 485.995 112.965ZM495.467 111.555C495.467 111.715 495.457 111.925 495.437 112.185C495.427 112.445 495.417 112.67 495.407 112.86H495.467C495.527 112.78 495.617 112.665 495.737 112.515C495.857 112.365 495.977 112.215 496.097 112.065C496.227 111.905 496.337 111.775 496.427 111.675L498.992 108.96H500.537L497.282 112.395L500.762 117H499.172L496.382 113.25L495.467 114.045V117H494.162V105.6H495.467V111.555ZM509.116 108.825C510.096 108.825 510.821 109.04 511.291 109.47C511.761 109.9 511.996 110.585 511.996 111.525V117H511.036L510.781 115.86H510.721C510.491 116.15 510.251 116.395 510.001 116.595C509.761 116.785 509.481 116.925 509.161 117.015C508.851 117.105 508.471 117.15 508.021 117.15C507.541 117.15 507.106 117.065 506.716 116.895C506.336 116.725 506.036 116.465 505.816 116.115C505.596 115.755 505.486 115.305 505.486 114.765C505.486 113.965 505.801 113.35 506.431 112.92C507.061 112.48 508.031 112.24 509.341 112.2L510.706 112.155V111.675C510.706 111.005 510.561 110.54 510.271 110.28C509.981 110.02 509.571 109.89 509.041 109.89C508.621 109.89 508.221 109.955 507.841 110.085C507.461 110.205 507.106 110.345 506.776 110.505L506.371 109.515C506.721 109.325 507.136 109.165 507.616 109.035C508.096 108.895 508.596 108.825 509.116 108.825ZM509.506 113.115C508.506 113.155 507.811 113.315 507.421 113.595C507.041 113.875 506.851 114.27 506.851 114.78C506.851 115.23 506.986 115.56 507.256 115.77C507.536 115.98 507.891 116.085 508.321 116.085C509.001 116.085 509.566 115.9 510.016 115.53C510.466 115.15 510.691 114.57 510.691 113.79V113.07L509.506 113.115ZM522.246 108.81C523.206 108.81 523.931 109.045 524.421 109.515C524.911 109.975 525.156 110.725 525.156 111.765V117H523.851V111.855C523.851 111.205 523.706 110.72 523.416 110.4C523.126 110.08 522.671 109.92 522.051 109.92C521.161 109.92 520.546 110.17 520.206 110.67C519.866 111.17 519.696 111.89 519.696 112.83V117H518.376V108.96H519.441L519.636 110.055H519.711C519.891 109.775 520.111 109.545 520.371 109.365C520.641 109.175 520.936 109.035 521.256 108.945C521.576 108.855 521.906 108.81 522.246 108.81ZM530.753 108.81C531.443 108.81 532.033 108.96 532.523 109.26C533.023 109.56 533.403 109.985 533.663 110.535C533.933 111.075 534.068 111.71 534.068 112.44V113.235H528.563C528.583 114.145 528.813 114.84 529.253 115.32C529.703 115.79 530.328 116.025 531.128 116.025C531.638 116.025 532.088 115.98 532.478 115.89C532.878 115.79 533.288 115.65 533.708 115.47V116.625C533.298 116.805 532.893 116.935 532.493 117.015C532.093 117.105 531.618 117.15 531.068 117.15C530.308 117.15 529.633 116.995 529.043 116.685C528.463 116.375 528.008 115.915 527.678 115.305C527.358 114.685 527.198 113.93 527.198 113.04C527.198 112.16 527.343 111.405 527.633 110.775C527.933 110.145 528.348 109.66 528.878 109.32C529.418 108.98 530.043 108.81 530.753 108.81ZM530.738 109.89C530.108 109.89 529.608 110.095 529.238 110.505C528.878 110.905 528.663 111.465 528.593 112.185H532.688C532.688 111.725 532.618 111.325 532.478 110.985C532.338 110.645 532.123 110.38 531.833 110.19C531.553 109.99 531.188 109.89 530.738 109.89ZM541.012 112.455C540.952 112.245 540.892 112.04 540.832 111.84C540.772 111.63 540.717 111.435 540.667 111.255C540.627 111.065 540.587 110.89 540.547 110.73C540.507 110.57 540.477 110.435 540.457 110.325H540.397C540.377 110.435 540.347 110.57 540.307 110.73C540.277 110.89 540.237 111.065 540.187 111.255C540.147 111.445 540.097 111.645 540.037 111.855C539.987 112.055 539.927 112.26 539.857 112.47L538.417 116.985H536.917L534.712 108.945H536.077L537.187 113.235C537.267 113.525 537.342 113.82 537.412 114.12C537.482 114.41 537.542 114.69 537.592 114.96C537.652 115.22 537.692 115.445 537.712 115.635H537.772C537.802 115.515 537.837 115.365 537.877 115.185C537.917 115.005 537.957 114.815 537.997 114.615C538.047 114.415 538.097 114.215 538.147 114.015C538.207 113.815 538.262 113.635 538.312 113.475L539.737 108.945H541.177L542.557 113.475C542.627 113.705 542.697 113.95 542.767 114.21C542.847 114.47 542.917 114.725 542.977 114.975C543.037 115.215 543.077 115.43 543.097 115.62H543.157C543.177 115.45 543.212 115.24 543.262 114.99C543.322 114.73 543.387 114.45 543.457 114.15C543.537 113.84 543.617 113.535 543.697 113.235L544.822 108.945H546.172L543.937 116.985H542.392L541.012 112.455ZM456.232 132.965C456.232 133.635 456.142 134.23 455.962 134.75C455.792 135.26 455.542 135.695 455.212 136.055C454.892 136.415 454.497 136.69 454.027 136.88C453.567 137.06 453.052 137.15 452.482 137.15C451.952 137.15 451.462 137.06 451.012 136.88C450.562 136.69 450.172 136.415 449.842 136.055C449.512 135.695 449.252 135.26 449.062 134.75C448.882 134.23 448.792 133.635 448.792 132.965C448.792 132.075 448.942 131.325 449.242 130.715C449.542 130.095 449.972 129.625 450.532 129.305C451.092 128.975 451.757 128.81 452.527 128.81C453.257 128.81 453.897 128.975 454.447 129.305C455.007 129.625 455.442 130.095 455.752 130.715C456.072 131.325 456.232 132.075 456.232 132.965ZM450.157 132.965C450.157 133.595 450.237 134.145 450.397 134.615C450.567 135.075 450.827 135.43 451.177 135.68C451.527 135.93 451.972 136.055 452.512 136.055C453.052 136.055 453.497 135.93 453.847 135.68C454.197 135.43 454.452 135.075 454.612 134.615C454.782 134.145 454.867 133.595 454.867 132.965C454.867 132.325 454.782 131.78 454.612 131.33C454.442 130.88 454.182 130.535 453.832 130.295C453.492 130.045 453.047 129.92 452.497 129.92C451.677 129.92 451.082 130.19 450.712 130.73C450.342 131.27 450.157 132.015 450.157 132.965ZM462.194 128.81C463.154 128.81 463.879 129.045 464.369 129.515C464.859 129.975 465.104 130.725 465.104 131.765V137H463.799V131.855C463.799 131.205 463.654 130.72 463.364 130.4C463.074 130.08 462.619 129.92 461.999 129.92C461.109 129.92 460.494 130.17 460.154 130.67C459.814 131.17 459.644 131.89 459.644 132.83V137H458.324V128.96H459.389L459.584 130.055H459.659C459.839 129.775 460.059 129.545 460.319 129.365C460.589 129.175 460.884 129.035 461.204 128.945C461.524 128.855 461.854 128.81 462.194 128.81ZM470.702 128.81C471.392 128.81 471.982 128.96 472.472 129.26C472.972 129.56 473.352 129.985 473.612 130.535C473.882 131.075 474.017 131.71 474.017 132.44V133.235H468.512C468.532 134.145 468.762 134.84 469.202 135.32C469.652 135.79 470.277 136.025 471.077 136.025C471.587 136.025 472.037 135.98 472.427 135.89C472.827 135.79 473.237 135.65 473.657 135.47V136.625C473.247 136.805 472.842 136.935 472.442 137.015C472.042 137.105 471.567 137.15 471.017 137.15C470.257 137.15 469.582 136.995 468.992 136.685C468.412 136.375 467.957 135.915 467.627 135.305C467.307 134.685 467.147 133.93 467.147 133.04C467.147 132.16 467.292 131.405 467.582 130.775C467.882 130.145 468.297 129.66 468.827 129.32C469.367 128.98 469.992 128.81 470.702 128.81ZM470.687 129.89C470.057 129.89 469.557 130.095 469.187 130.505C468.827 130.905 468.612 131.465 468.542 132.185H472.637C472.637 131.725 472.567 131.325 472.427 130.985C472.287 130.645 472.072 130.38 471.782 130.19C471.502 129.99 471.137 129.89 470.687 129.89ZM479.847 126.455C479.757 126.805 479.642 127.185 479.502 127.595C479.362 128.005 479.207 128.415 479.037 128.825C478.877 129.225 478.717 129.605 478.557 129.965H477.567C477.667 129.585 477.762 129.18 477.852 128.75C477.952 128.31 478.042 127.88 478.122 127.46C478.212 127.03 478.282 126.64 478.332 126.29H479.742L479.847 126.455ZM477.072 126.455C476.982 126.805 476.867 127.185 476.727 127.595C476.587 128.005 476.432 128.415 476.262 128.825C476.102 129.225 475.942 129.605 475.782 129.965H474.822C474.892 129.685 474.962 129.385 475.032 129.065C475.102 128.745 475.167 128.425 475.227 128.105C475.297 127.775 475.357 127.455 475.407 127.145C475.467 126.835 475.517 126.55 475.557 126.29H476.967L477.072 126.455Z" fill="#A71BA7"/>
<line y1="-0.5" x2="32.7567" y2="-0.5" transform="matrix(0.213697 0.9769 -0.891579 0.452865 400 146)" stroke="#A71BA7" stroke-dasharray="2 2"/>
<path d="M577.849 93.4866C577.916 94.152 577.961 94.8203 577.983 95.4914L577.483 95.5081C577.494 95.8381 577.5 96.1687 577.5 96.5C577.5 96.8313 577.494 97.162 577.483 97.4919L577.983 97.5087C577.961 98.1798 577.916 98.8481 577.849 99.5135L577.351 99.4634C577.285 100.12 577.197 100.774 577.088 101.424L577.581 101.507C577.47 102.167 577.338 102.824 577.184 103.477L576.697 103.362C576.546 104.004 576.374 104.642 576.181 105.277L576.659 105.422C576.466 106.059 576.252 106.693 576.018 107.324L575.55 107.15C575.321 107.765 575.074 108.378 574.807 108.986L575.264 109.187C574.996 109.799 574.709 110.407 574.403 111.012L573.957 110.786C573.662 111.369 573.349 111.949 573.018 112.526L573.452 112.775C573.121 113.352 572.773 113.926 572.408 114.496L571.986 114.227C571.632 114.78 571.261 115.33 570.874 115.877L571.283 116.166C570.9 116.707 570.502 117.244 570.089 117.777L569.693 117.471C569.288 117.994 568.869 118.513 568.435 119.028L568.817 119.351C568.392 119.856 567.952 120.357 567.5 120.855L567.13 120.519C566.686 121.007 566.229 121.492 565.759 121.973L566.116 122.322C565.653 122.797 565.177 123.268 564.688 123.735L564.343 123.374C563.867 123.83 563.379 124.282 562.88 124.73L563.214 125.102C562.718 125.547 562.212 125.988 561.694 126.426L561.371 126.044C560.868 126.469 560.355 126.89 559.832 127.308L560.144 127.699C559.622 128.116 559.09 128.529 558.549 128.938L558.247 128.539C557.722 128.935 557.188 129.329 556.644 129.718L556.935 130.125C556.392 130.514 555.84 130.9 555.278 131.282L554.997 130.869C554.453 131.24 553.9 131.607 553.339 131.97L553.611 132.39C553.05 132.754 552.481 133.114 551.903 133.47L551.641 133.045C551.08 133.392 550.511 133.735 549.934 134.075L550.188 134.505C549.613 134.845 549.03 135.181 548.44 135.513L548.194 135.077C547.619 135.402 547.035 135.723 546.445 136.04L546.682 136.481C546.095 136.797 545.501 137.11 544.9 137.419L544.671 136.975C544.082 137.279 543.486 137.579 542.883 137.876L543.104 138.325C542.507 138.619 541.904 138.91 541.295 139.198L541.081 138.746C540.479 139.031 539.871 139.312 539.257 139.59L539.463 140.045C538.858 140.319 538.248 140.59 537.631 140.857L537.432 140.399C536.819 140.665 536.199 140.928 535.575 141.188L535.767 141.65C535.155 141.904 534.539 142.155 533.917 142.403L533.732 141.939C533.112 142.186 532.488 142.43 531.858 142.671L532.036 143.138C531.415 143.376 530.788 143.611 530.157 143.842L529.985 143.373C529.361 143.602 528.732 143.827 528.098 144.05L528.264 144.522C527.633 144.744 526.997 144.963 526.356 145.179L526.196 144.705C525.568 144.916 524.936 145.125 524.3 145.33L524.454 145.806C523.815 146.012 523.173 146.215 522.526 146.415L522.378 145.937C521.745 146.133 521.108 146.326 520.466 146.516L520.608 146.995C519.968 147.185 519.323 147.371 518.675 147.554L518.539 147.073C517.896 147.255 517.25 147.434 516.6 147.61L516.731 148.092C516.089 148.266 515.443 148.437 514.794 148.604L514.669 148.12C514.021 148.287 513.37 148.451 512.716 148.613L512.835 149.098C512.188 149.257 511.538 149.414 510.884 149.567L510.77 149.08C510.122 149.232 509.471 149.382 508.816 149.528L508.925 150.016C508.27 150.162 507.611 150.306 506.95 150.446L506.846 149.957C506.197 150.094 505.546 150.229 504.891 150.361L504.99 150.851C504.334 150.983 503.674 151.112 503.012 151.239L502.919 150.748C502.263 150.872 501.605 150.994 500.944 151.114L501.033 151.606C500.377 151.724 499.718 151.839 499.057 151.951L498.973 151.459C498.313 151.571 497.651 151.68 496.986 151.786L497.064 152.28C496.406 152.385 495.745 152.487 495.081 152.587L495.007 152.092C494.348 152.191 493.687 152.287 493.023 152.38L493.092 152.875C492.427 152.968 491.759 153.058 491.089 153.145L491.024 152.65C490.366 152.735 489.705 152.818 489.042 152.898L489.102 153.395C488.438 153.475 487.772 153.552 487.103 153.627L487.048 153.13C486.382 153.204 485.715 153.275 485.045 153.343L485.096 153.84C484.433 153.908 483.768 153.973 483.102 154.034L483.055 153.537C482.39 153.598 481.723 153.657 481.054 153.713L481.096 154.211C480.428 154.267 479.758 154.32 479.086 154.37L479.049 153.871C478.386 153.921 477.72 153.967 477.053 154.011L477.086 154.51C476.417 154.554 475.747 154.595 475.075 154.633L475.046 154.133C474.379 154.171 473.71 154.206 473.04 154.238L473.064 154.737C472.397 154.769 471.729 154.798 471.059 154.824L471.04 154.325C470.371 154.351 469.701 154.374 469.03 154.394L469.045 154.894C468.376 154.914 467.705 154.931 467.033 154.946L467.023 154.446C466.356 154.46 465.689 154.472 465.02 154.481L465.026 154.98C464.356 154.989 463.684 154.995 463.011 154.998L463.009 154.498C462.673 154.499 462.337 154.5 462 154.5C461.663 154.5 461.327 154.499 460.991 154.498L460.989 154.998C460.316 154.995 459.644 154.989 458.974 154.98L458.98 154.481C458.311 154.472 457.644 154.46 456.977 154.446L456.967 154.946C456.295 154.931 455.624 154.914 454.955 154.894L454.97 154.394C454.299 154.374 453.629 154.351 452.96 154.325L452.941 154.824C452.271 154.798 451.603 154.769 450.936 154.737L450.96 154.238C450.289 154.206 449.621 154.171 448.954 154.133L448.925 154.633C448.253 154.595 447.583 154.554 446.914 154.51L446.947 154.011C446.28 153.967 445.614 153.921 444.951 153.871L444.914 154.37C444.242 154.32 443.572 154.267 442.904 154.211L442.946 153.713C442.277 153.657 441.61 153.598 440.944 153.537L440.898 154.034C440.232 153.973 439.567 153.908 438.904 153.84L438.955 153.343C438.285 153.275 437.618 153.204 436.952 153.13L436.897 153.627C436.228 153.552 435.562 153.475 434.898 153.395L434.958 152.898C434.295 152.818 433.634 152.735 432.976 152.65L432.911 153.145C432.241 153.058 431.573 152.968 430.908 152.875L430.977 152.38C430.313 152.287 429.652 152.191 428.993 152.092L428.919 152.587C428.255 152.487 427.594 152.385 426.936 152.28L427.014 151.786C426.349 151.68 425.687 151.571 425.027 151.459L424.943 151.951C424.282 151.839 423.623 151.724 422.967 151.606L423.056 151.114C422.395 150.994 421.737 150.872 421.081 150.747L420.988 151.239C420.326 151.112 419.666 150.983 419.01 150.851L419.109 150.361C418.454 150.229 417.802 150.094 417.154 149.957L417.05 150.446C416.389 150.306 415.73 150.162 415.075 150.016L415.184 149.528C414.529 149.382 413.878 149.232 413.23 149.08L413.116 149.567C412.462 149.414 411.812 149.257 411.165 149.098L411.284 148.613C410.63 148.451 409.979 148.287 409.331 148.12L409.206 148.604C408.557 148.437 407.911 148.266 407.269 148.092L407.4 147.61C406.75 147.434 406.104 147.255 405.461 147.073L405.325 147.554C404.677 147.371 404.032 147.185 403.392 146.995L403.534 146.516C402.892 146.326 402.255 146.133 401.622 145.937L401.474 146.415C400.827 146.215 400.185 146.012 399.546 145.806L399.7 145.33C399.064 145.125 398.432 144.916 397.804 144.705L397.644 145.179C397.004 144.963 396.367 144.744 395.736 144.522L395.902 144.05C395.268 143.828 394.639 143.602 394.015 143.373L393.843 143.842C393.212 143.611 392.585 143.376 391.964 143.138L392.142 142.671C391.512 142.43 390.888 142.186 390.268 141.939L390.083 142.403C389.461 142.155 388.845 141.904 388.233 141.65L388.426 141.188C387.801 140.928 387.181 140.665 386.568 140.399L386.369 140.857C385.752 140.59 385.142 140.319 384.537 140.045L384.743 139.59C384.129 139.312 383.521 139.031 382.919 138.746L382.705 139.198C382.096 138.91 381.493 138.619 380.896 138.325L381.117 137.876C380.514 137.579 379.918 137.279 379.329 136.975L379.1 137.419C378.499 137.11 377.905 136.797 377.318 136.481L377.555 136.04C376.965 135.723 376.381 135.402 375.806 135.077L375.56 135.513C374.97 135.181 374.387 134.845 373.812 134.505L374.066 134.075C373.489 133.735 372.92 133.392 372.359 133.045L372.097 133.47C371.519 133.114 370.95 132.754 370.389 132.39L370.661 131.97C370.1 131.607 369.547 131.239 369.003 130.869L368.722 131.282C368.16 130.9 367.608 130.514 367.065 130.125L367.356 129.718C366.812 129.329 366.278 128.935 365.753 128.539L365.451 128.938C364.91 128.529 364.378 128.116 363.856 127.699L364.168 127.308C363.645 126.89 363.132 126.469 362.629 126.044L362.306 126.426C361.788 125.988 361.282 125.547 360.786 125.102L361.12 124.73C360.621 124.282 360.133 123.83 359.657 123.374L359.312 123.735C358.823 123.268 358.347 122.797 357.884 122.322L358.241 121.973C357.771 121.492 357.314 121.007 356.87 120.519L356.5 120.855C356.048 120.357 355.608 119.856 355.183 119.351L355.565 119.028C355.131 118.513 354.712 117.994 354.307 117.471L353.911 117.777C353.498 117.244 353.1 116.707 352.717 116.166L353.126 115.877C352.739 115.33 352.368 114.78 352.013 114.227L351.592 114.496C351.227 113.926 350.879 113.352 350.548 112.775L350.982 112.526C350.651 111.949 350.338 111.369 350.043 110.786L349.597 111.012C349.291 110.407 349.004 109.799 348.735 109.187L349.193 108.986C348.926 108.378 348.679 107.765 348.45 107.15L347.982 107.324C347.748 106.693 347.534 106.059 347.341 105.422L347.819 105.277C347.626 104.642 347.454 104.004 347.303 103.362L346.816 103.477C346.662 102.824 346.53 102.167 346.419 101.507L346.912 101.424C346.803 100.773 346.715 100.12 346.649 99.4634L346.151 99.5134C346.084 98.848 346.039 98.1797 346.017 97.5086L346.517 97.4919C346.506 97.1619 346.5 96.8313 346.5 96.5C346.5 96.1687 346.506 95.838 346.517 95.5081L346.017 95.4913C346.039 94.8202 346.084 94.1519 346.151 93.4865L346.649 93.5366C346.715 92.8801 346.803 92.2265 346.912 91.5758L346.419 91.4929C346.53 90.8331 346.662 90.1764 346.816 89.5231L347.303 89.6377C347.454 88.9964 347.626 88.3581 347.819 87.723L347.341 87.5778C347.534 86.9405 347.748 86.3067 347.982 85.6763L348.45 85.8502C348.679 85.2347 348.926 84.6224 349.193 84.0135L348.736 83.8128C349.004 83.201 349.291 82.5928 349.597 81.9884L350.043 82.2142C350.338 81.6307 350.651 81.0506 350.982 80.4739L350.548 80.2253C350.879 79.6477 351.227 79.0737 351.592 78.5036L352.013 78.7733C352.368 78.2197 352.739 77.6695 353.126 77.123L352.717 76.8342C353.1 76.2933 353.498 75.7561 353.911 75.2227L354.307 75.5289C354.712 75.0062 355.131 74.487 355.565 73.9715L355.183 73.6494C355.608 73.1441 356.048 72.6425 356.5 72.1446L356.87 72.481C357.314 71.9928 357.771 71.5081 358.241 71.027L357.884 70.6776C358.347 70.2029 358.823 69.7319 359.312 69.2646L359.657 69.6259C360.133 69.1704 360.621 68.7184 361.12 68.27L360.786 67.898C361.282 67.453 361.788 67.0117 362.306 66.574L362.629 66.9558C363.132 66.531 363.645 66.1095 364.168 65.6916L363.856 65.3008C364.378 64.8844 364.91 64.4714 365.451 64.0622L365.753 64.4611C366.278 64.0645 366.812 63.6713 367.356 63.2816L367.065 62.8752C367.608 62.4858 368.16 62.1 368.722 61.7177L369.003 62.131C369.547 61.7605 370.1 61.3933 370.661 61.0295L370.389 60.6099C370.95 60.2464 371.519 59.8862 372.097 59.5295L372.359 59.9549C372.92 59.6084 373.489 59.2652 374.066 58.9253L373.812 58.4946C374.387 58.1554 374.97 57.8195 375.56 57.4871L375.806 57.9227C376.381 57.5984 376.965 57.2773 377.555 56.9595L377.318 56.5193C377.905 56.2031 378.499 55.8902 379.1 55.5807L379.329 56.0252C379.918 55.7214 380.514 55.4209 381.117 55.1237L380.896 54.6753C381.493 54.3808 382.096 54.0896 382.705 53.8017L382.919 54.2538C383.521 53.9693 384.129 53.6881 384.743 53.41L384.537 52.9545C385.142 52.6807 385.752 52.41 386.369 52.1426L386.568 52.6013C387.181 52.3349 387.801 52.0717 388.425 51.8118L388.233 51.3501C388.845 51.0958 389.461 50.8446 390.083 50.5966L390.268 51.061C390.888 50.8138 391.512 50.5697 392.142 50.3289L391.964 49.8619C392.585 49.6241 393.212 49.3894 393.843 49.1578L394.015 49.6272C394.639 49.3983 395.268 49.1725 395.902 48.9498L395.736 48.4781C396.367 48.256 397.004 48.037 397.644 47.8212L397.804 48.295C398.432 48.0835 399.064 47.8751 399.7 47.6696L399.546 47.1938C400.185 46.9878 400.827 46.7848 401.474 46.5849L401.622 47.0626C402.255 46.8668 402.892 46.6741 403.534 46.4844L403.392 46.0049C404.032 45.8154 404.677 45.629 405.325 45.4456L405.461 45.9267C406.104 45.7449 406.75 45.5661 407.4 45.3904L407.269 44.9077C407.911 44.7341 408.557 44.5635 409.206 44.3958L409.331 44.88C409.979 44.7128 410.63 44.5486 411.284 44.3874L411.165 43.9019C411.812 43.7426 412.462 43.5862 413.116 43.4328L413.23 43.9196C413.878 43.7675 414.529 43.6183 415.184 43.4721L415.075 42.9841C415.73 42.8378 416.389 42.6945 417.05 42.5541L417.154 43.0432C417.803 42.9056 418.454 42.7709 419.109 42.6391L419.01 42.1489C419.666 42.0168 420.326 41.8876 420.988 41.7613L421.081 42.2525C421.737 42.1275 422.395 42.0055 423.056 41.8864L422.967 41.3943C423.623 41.2762 424.282 41.1609 424.943 41.0485L425.027 41.5414C425.687 41.4293 426.349 41.3202 427.014 41.2139L426.936 40.7202C427.594 40.615 428.255 40.5127 428.919 40.4133L428.993 40.9077C429.652 40.8091 430.313 40.7132 430.977 40.6203L430.908 40.1252C431.573 40.032 432.241 39.9418 432.911 39.8545L432.976 40.3504C433.634 40.2646 434.295 40.1817 434.958 40.1017L434.898 39.6053C435.562 39.5251 436.228 39.4478 436.897 39.3735L436.952 39.8704C437.618 39.7964 438.285 39.7252 438.955 39.657L438.904 39.1596C439.567 39.092 440.232 39.0274 440.898 38.9656L440.945 39.4635C441.61 39.4018 442.277 39.343 442.946 39.2871L442.904 38.7889C443.572 38.7331 444.242 38.6802 444.914 38.6302L444.951 39.1288C445.614 39.0794 446.28 39.0328 446.947 38.9891L446.914 38.4902C447.583 38.4464 448.253 38.4055 448.925 38.3675L448.954 38.8667C449.621 38.8289 450.29 38.7941 450.96 38.7621L450.936 38.2626C451.603 38.2308 452.271 38.2019 452.941 38.1758L452.96 38.6754C453.629 38.6493 454.299 38.6262 454.97 38.6059L454.955 38.1061C455.624 38.0859 456.295 38.0685 456.967 38.0541L456.977 38.554C457.644 38.5396 458.311 38.5281 458.98 38.5195L458.974 38.0195C459.644 38.0109 460.316 38.0051 460.989 38.0022L460.991 38.5022C461.327 38.5007 461.663 38.5 462 38.5C462.337 38.5 462.673 38.5007 463.009 38.5022L463.011 38.0022C463.684 38.0051 464.356 38.0109 465.026 38.0195L465.02 38.5195C465.689 38.5281 466.356 38.5396 467.023 38.554L467.033 38.0541C467.705 38.0686 468.376 38.0859 469.045 38.1061L469.03 38.6059C469.701 38.6262 470.371 38.6494 471.04 38.6754L471.059 38.1758C471.729 38.2019 472.397 38.2308 473.064 38.2626L473.04 38.7621C473.711 38.7941 474.379 38.8289 475.046 38.8667L475.075 38.3675C475.747 38.4055 476.417 38.4464 477.086 38.4902L477.053 38.9891C477.72 39.0328 478.386 39.0794 479.049 39.1288L479.086 38.6302C479.758 38.6802 480.428 38.7331 481.096 38.7889L481.054 39.2871C481.723 39.343 482.39 39.4018 483.056 39.4635L483.102 38.9656C483.768 39.0274 484.433 39.0921 485.096 39.1596L485.045 39.657C485.715 39.7252 486.382 39.7964 487.048 39.8704L487.103 39.3735C487.772 39.4478 488.438 39.5251 489.102 39.6053L489.042 40.1017C489.705 40.1817 490.366 40.2646 491.024 40.3504L491.089 39.8546C491.759 39.9418 492.427 40.032 493.092 40.1252L493.023 40.6203C493.687 40.7132 494.348 40.8091 495.007 40.9078L495.081 40.4133C495.745 40.5127 496.406 40.615 497.064 40.7202L496.986 41.214C497.651 41.3202 498.313 41.4294 498.973 41.5414L499.057 41.0485C499.718 41.1609 500.377 41.2762 501.033 41.3943L500.944 41.8864C501.605 42.0055 502.263 42.1276 502.919 42.2525L503.012 41.7613C503.674 41.8876 504.334 42.0168 504.99 42.1489L504.891 42.6391C505.546 42.7709 506.197 42.9056 506.846 43.0432L506.95 42.5541C507.611 42.6945 508.27 42.8378 508.925 42.9841L508.816 43.4721C509.471 43.6183 510.122 43.7675 510.77 43.9196L510.884 43.4328C511.538 43.5862 512.188 43.7426 512.835 43.9019L512.716 44.3874C513.37 44.5486 514.021 44.7128 514.669 44.88L514.794 44.3958C515.443 44.5635 516.089 44.7341 516.731 44.9077L516.6 45.3904C517.25 45.5661 517.896 45.7449 518.539 45.9267L518.675 45.4455C519.323 45.629 519.968 45.8154 520.608 46.0049L520.466 46.4844C521.108 46.6741 521.745 46.8668 522.378 47.0626L522.526 46.5849C523.173 46.7848 523.815 46.9878 524.454 47.1938L524.3 47.6696C524.936 47.8751 525.568 48.0835 526.196 48.295L526.356 47.8212C526.996 48.037 527.633 48.256 528.264 48.4781L528.098 48.9498C528.732 49.1725 529.361 49.3983 529.985 49.6272L530.157 49.1578C530.788 49.3893 531.415 49.6241 532.036 49.8618L531.858 50.3288C532.488 50.5697 533.112 50.8138 533.732 51.061L533.917 50.5966C534.539 50.8446 535.155 51.0958 535.767 51.3501L535.574 51.8118C536.199 52.0717 536.819 52.3349 537.432 52.6012L537.631 52.1426C538.248 52.41 538.858 52.6807 539.463 52.9545L539.257 53.41C539.871 53.688 540.479 53.9693 541.081 54.2538L541.295 53.8017C541.904 54.0896 542.507 54.3808 543.104 54.6753L542.883 55.1237C543.486 55.4209 544.082 55.7214 544.671 56.0251L544.9 55.5807C545.501 55.8902 546.095 56.2031 546.682 56.5193L546.445 56.9595C547.035 57.2773 547.619 57.5984 548.194 57.9227L548.44 57.4871C549.03 57.8195 549.613 58.1554 550.188 58.4946L549.934 58.9253C550.511 59.2652 551.08 59.6084 551.641 59.9549L551.903 59.5295C552.481 59.8862 553.05 60.2464 553.611 60.61L553.339 61.0295C553.9 61.3933 554.453 61.7605 554.997 62.131L555.278 61.7177C555.84 62.1 556.392 62.4859 556.935 62.8752L556.644 63.2816C557.188 63.6713 557.722 64.0645 558.247 64.4611L558.549 64.0622C559.09 64.4715 559.622 64.8844 560.144 65.3009L559.832 65.6916C560.355 66.1095 560.868 66.531 561.371 66.9559L561.694 66.574C562.212 67.0117 562.718 67.4531 563.214 67.898L562.88 68.27C563.379 68.7184 563.867 69.1704 564.343 69.6259L564.688 69.2646C565.177 69.7319 565.653 70.2029 566.116 70.6776L565.759 71.027C566.229 71.5081 566.686 71.9928 567.13 72.481L567.5 72.1447C567.952 72.6425 568.392 73.1442 568.817 73.6494L568.435 73.9715C568.869 74.487 569.288 75.0062 569.693 75.5289L570.089 75.2227C570.502 75.7561 570.9 76.2933 571.283 76.8342L570.874 77.123C571.261 77.6696 571.632 78.2197 571.987 78.7733L572.408 78.5037C572.773 79.0738 573.121 79.6477 573.452 80.2253L573.018 80.474C573.349 81.0506 573.662 81.6307 573.957 82.2142L574.403 81.9884C574.709 82.5928 574.996 83.201 575.265 83.8128L574.807 84.0136C575.074 84.6225 575.321 85.2348 575.55 85.8503L576.018 85.6764C576.252 86.3067 576.466 86.9406 576.659 87.5779L576.181 87.7231C576.374 88.3581 576.546 88.9964 576.697 89.6378L577.184 89.5231C577.338 90.1765 577.47 90.8332 577.581 91.493L577.088 91.5759C577.197 92.2265 577.285 92.8801 577.351 93.5366L577.849 93.4866Z" stroke="#A71BA7" stroke-dasharray="2 2"/>
<path d="M27.3 59.025C26.0071 59.025 24.7671 59.5386 23.8529 60.4529C22.9386 61.3671 22.425 62.6071 22.425 63.9C22.425 65.1929 22.9386 66.4329 23.8529 67.3471C24.7671 68.2614 26.0071 68.775 27.3 68.775C27.9402 68.775 28.5741 68.6489 29.1656 68.4039C29.757 68.1589 30.2945 67.7998 30.7471 67.3471C31.1998 66.8945 31.5589 66.357 31.8039 65.7656C32.0489 65.1741 32.175 64.5402 32.175 63.9C32.175 63.2598 32.0489 62.6259 31.8039 62.0344C31.5589 61.443 31.1998 60.9055 30.7471 60.4529C30.2945 60.0002 29.757 59.6411 29.1656 59.3961C28.5741 59.1511 27.9402 59.025 27.3 59.025ZM50.7 59.025C49.4071 59.025 48.1671 59.5386 47.2529 60.4529C46.3386 61.3671 45.825 62.6071 45.825 63.9C45.825 65.1929 46.3386 66.4329 47.2529 67.3471C48.1671 68.2614 49.4071 68.775 50.7 68.775C51.9929 68.775 53.2329 68.2614 54.1471 67.3471C55.0614 66.4329 55.575 65.1929 55.575 63.9C55.575 62.6071 55.0614 61.3671 54.1471 60.4529C53.2329 59.5386 51.9929 59.025 50.7 59.025ZM39 21C33.8784 21 28.807 22.0088 24.0753 23.9687C19.3436 25.9286 15.0443 28.8014 11.4228 32.4228C4.10892 39.7368 0 49.6566 0 60C0 70.3434 4.10892 80.2632 11.4228 87.5772C15.0443 91.1987 19.3436 94.0714 24.0753 96.0313C28.807 97.9912 33.8784 99 39 99C49.3434 99 59.2632 94.8911 66.5772 87.5772C73.8911 80.2632 78 70.3434 78 60C78 54.8784 76.9912 49.807 75.0313 45.0753C73.0714 40.3436 70.1987 36.0443 66.5772 32.4228C62.9557 28.8014 58.6564 25.9286 53.9247 23.9687C49.193 22.0088 44.1216 21 39 21ZM39 91.2C21.801 91.2 7.8 77.199 7.8 60C7.8 58.869 7.8 57.738 7.995 56.646C17.199 52.551 24.492 45.024 28.314 35.703C32.7727 42.0303 39.0178 46.8835 46.2501 49.6417C53.4825 52.3998 61.3733 52.9375 68.913 51.186C69.732 53.955 70.2 56.919 70.2 60C70.2 77.199 56.199 91.2 39 91.2Z" fill="#A71BA7"/>
<path d="M26.6588 75.7622C26.7961 76.6035 26.9557 77.5261 26.9557 78.3771C26.9557 79.3597 27.2405 80.4179 27.6981 81.2808C28.2036 82.234 28.8928 83.3543 29.8429 83.9288C30.8133 84.5155 31.7151 84.5969 32.8249 84.5969C34.2946 84.5969 35.7644 84.5969 37.2341 84.5969C40.1376 84.5969 43.7763 84.9439 46.1472 82.9554C47.4733 81.8431 48.0498 79.3962 47.7475 77.7337C47.6433 77.1603 47.7434 76.4959 47.7434 75.9107C47.7434 75.3691 47.6867 74.801 47.8176 74.2773" stroke="#A71BA7" stroke-width="6" stroke-linecap="round"/>
<path d="M367.3 219.025C366.007 219.025 364.767 219.539 363.853 220.453C362.939 221.367 362.425 222.607 362.425 223.9C362.425 225.193 362.939 226.433 363.853 227.347C364.767 228.261 366.007 228.775 367.3 228.775C367.94 228.775 368.574 228.649 369.166 228.404C369.757 228.159 370.294 227.8 370.747 227.347C371.2 226.894 371.559 226.357 371.804 225.766C372.049 225.174 372.175 224.54 372.175 223.9C372.175 223.26 372.049 222.626 371.804 222.034C371.559 221.443 371.2 220.906 370.747 220.453C370.294 220 369.757 219.641 369.166 219.396C368.574 219.151 367.94 219.025 367.3 219.025ZM390.7 219.025C389.407 219.025 388.167 219.539 387.253 220.453C386.339 221.367 385.825 222.607 385.825 223.9C385.825 225.193 386.339 226.433 387.253 227.347C388.167 228.261 389.407 228.775 390.7 228.775C391.993 228.775 393.233 228.261 394.147 227.347C395.061 226.433 395.575 225.193 395.575 223.9C395.575 222.607 395.061 221.367 394.147 220.453C393.233 219.539 391.993 219.025 390.7 219.025ZM379 181C373.878 181 368.807 182.009 364.075 183.969C359.344 185.929 355.044 188.801 351.423 192.423C344.109 199.737 340 209.657 340 220C340 230.343 344.109 240.263 351.423 247.577C355.044 251.199 359.344 254.071 364.075 256.031C368.807 257.991 373.878 259 379 259C389.343 259 399.263 254.891 406.577 247.577C413.891 240.263 418 230.343 418 220C418 214.878 416.991 209.807 415.031 205.075C413.071 200.344 410.199 196.044 406.577 192.423C402.956 188.801 398.656 185.929 393.925 183.969C389.193 182.009 384.122 181 379 181ZM379 251.2C361.801 251.2 347.8 237.199 347.8 220C347.8 218.869 347.8 217.738 347.995 216.646C357.199 212.551 364.492 205.024 368.314 195.703C372.773 202.03 379.018 206.883 386.25 209.642C393.483 212.4 401.373 212.938 408.913 211.186C409.732 213.955 410.2 216.919 410.2 220C410.2 237.199 396.199 251.2 379 251.2Z" fill="#A71BA7"/>
<path d="M368.845 242.537C368.845 239.694 368.758 236.887 371.344 235.096C372.33 234.413 373.055 233.777 374.351 233.743C375.145 233.722 375.943 233.743 376.738 233.743C378.726 233.743 380.715 233.743 382.704 233.743C383.723 233.743 384.694 233.808 385.683 233.902C386.452 233.976 387.126 234.312 387.862 234.41C389.299 234.601 389.69 235.095 390.155 236.374C390.509 237.348 390.502 238.247 391.085 239.155C391.573 239.914 391.339 241.142 391.339 242.03" stroke="#A71BA7" stroke-width="6" stroke-linecap="round"/>
<path d="M184.3 176.025C183.007 176.025 181.767 176.539 180.853 177.453C179.939 178.367 179.425 179.607 179.425 180.9C179.425 182.193 179.939 183.433 180.853 184.347C181.767 185.261 183.007 185.775 184.3 185.775C184.94 185.775 185.574 185.649 186.166 185.404C186.757 185.159 187.294 184.8 187.747 184.347C188.2 183.894 188.559 183.357 188.804 182.766C189.049 182.174 189.175 181.54 189.175 180.9C189.175 180.26 189.049 179.626 188.804 179.034C188.559 178.443 188.2 177.906 187.747 177.453C187.294 177 186.757 176.641 186.166 176.396C185.574 176.151 184.94 176.025 184.3 176.025ZM207.7 176.025C206.407 176.025 205.167 176.539 204.253 177.453C203.339 178.367 202.825 179.607 202.825 180.9C202.825 182.193 203.339 183.433 204.253 184.347C205.167 185.261 206.407 185.775 207.7 185.775C208.993 185.775 210.233 185.261 211.147 184.347C212.061 183.433 212.575 182.193 212.575 180.9C212.575 179.607 212.061 178.367 211.147 177.453C210.233 176.539 208.993 176.025 207.7 176.025ZM196 138C190.878 138 185.807 139.009 181.075 140.969C176.344 142.929 172.044 145.801 168.423 149.423C161.109 156.737 157 166.657 157 177C157 187.343 161.109 197.263 168.423 204.577C172.044 208.199 176.344 211.071 181.075 213.031C185.807 214.991 190.878 216 196 216C206.343 216 216.263 211.891 223.577 204.577C230.891 197.263 235 187.343 235 177C235 171.878 233.991 166.807 232.031 162.075C230.071 157.344 227.199 153.044 223.577 149.423C219.956 145.801 215.656 142.929 210.925 140.969C206.193 139.009 201.122 138 196 138ZM196 208.2C178.801 208.2 164.8 194.199 164.8 177C164.8 175.869 164.8 174.738 164.995 173.646C174.199 169.551 181.492 162.024 185.314 152.703C189.773 159.03 196.018 163.883 203.25 166.642C210.483 169.4 218.373 169.938 225.913 168.186C226.732 170.955 227.2 173.919 227.2 177C227.2 194.199 213.199 208.2 196 208.2Z" fill="#A71BA7"/>
<path d="M185.911 198.443C189.242 198.007 192.584 198.37 195.92 198.053C197.919 197.862 199.865 197.632 201.871 197.632C202.893 197.632 203.889 197.361 204.847 197.361" stroke="#A71BA7" stroke-width="6" stroke-linecap="round"/>
<path d="M349.143 177C337.644 177 328.286 169.555 328.286 160.406C328.286 155.494 331.039 151.119 335.315 148.077L274.134 70.4681C271.485 71.4126 268.617 71.9026 265.714 71.9062C259.68 71.9062 254.285 69.8265 250.468 66.5575L187.389 98.3346C188.557 100.403 189.238 102.682 189.238 105.094C189.238 114.242 179.88 121.688 168.381 121.688C156.882 121.688 147.524 114.242 147.524 105.094C147.524 100.093 150.374 95.6574 154.782 92.6152L106.845 31.9098C104.316 32.7533 101.6 33.1877 98.8571 33.1875C87.3579 33.1875 78 25.7424 78 16.5938C78 7.44507 87.3579 0 98.8571 0C110.356 0 119.714 7.44507 119.714 16.5938C119.714 21.5055 116.968 25.8752 112.692 28.9174L160.692 89.7058C163.076 88.9425 165.663 88.5 168.381 88.5C174.353 88.5 179.706 90.53 183.509 93.7381L246.623 61.9445C245.463 59.855 244.862 57.5966 244.857 55.3125C244.857 46.1638 254.215 38.7188 265.714 38.7188C277.214 38.7188 286.571 46.1638 286.571 55.3125C286.571 60.086 283.992 64.3616 279.918 67.3928L341.168 145.085C343.63 144.272 346.32 143.812 349.143 143.812C360.642 143.812 370 151.258 370 160.406C370 169.555 360.642 177 349.143 177ZM112.762 16.5938C112.762 10.4928 106.526 5.53125 98.8571 5.53125C91.1887 5.53125 84.9524 10.4928 84.9524 16.5938C84.9524 22.6947 91.1887 27.6562 98.8571 27.6562C106.526 27.6562 112.762 22.6947 112.762 16.5938ZM168.381 94.0312C160.712 94.0312 154.476 98.9928 154.476 105.094C154.476 111.195 160.712 116.156 168.381 116.156C176.049 116.156 182.286 111.195 182.286 105.094C182.286 98.9928 176.049 94.0312 168.381 94.0312ZM265.714 44.25C258.046 44.25 251.81 49.2115 251.81 55.3125C251.81 61.4135 258.046 66.375 265.714 66.375C273.383 66.375 279.619 61.4135 279.619 55.3125C279.619 49.2115 273.383 44.25 265.714 44.25ZM349.143 149.344C341.474 149.344 335.238 154.305 335.238 160.406C335.238 166.507 341.474 171.469 349.143 171.469C356.811 171.469 363.048 166.507 363.048 160.406C363.048 154.305 356.811 149.344 349.143 149.344Z" fill="#A71BA7"/>
</svg>
