<svg width="146" height="238" viewBox="0 0 146 238" fill="none" xmlns="http://www.w3.org/2000/svg">
<path d="M11.4444 134H22.8889V150.421H11.4444V134ZM34.3333 134H45.7778V150.421H34.3333V134ZM57.2222 134H68.6667V150.421H57.2222V134ZM91.5556 172.316H80.1111V166.842C80.1111 165.39 79.5082 163.998 78.4351 162.972C77.362 161.945 75.9065 161.368 74.3889 161.368H5.72222C4.20459 161.368 2.74912 161.945 1.676 162.972C0.602875 163.998 0 165.39 0 166.842V221.579C0 225.934 1.80863 230.111 5.028 233.19C8.24738 236.27 12.6138 238 17.1667 238H62.9444C67.4973 238 71.8637 236.27 75.0831 233.19C78.3025 230.111 80.1111 225.934 80.1111 221.579H91.5556C97.8672 221.579 103 216.669 103 210.632V183.263C103 177.226 97.8672 172.316 91.5556 172.316ZM80.1111 210.632V183.263H91.5556L91.567 210.632H80.1111Z" fill="#A71BA7"/>
<path d="M41 0C37.0218 0 33.2064 1.57075 30.3934 4.36671C27.5804 7.16267 26 10.9548 26 14.9089L26 110.274C26.0002 111.011 26.2204 111.732 26.633 112.345C27.0455 112.958 27.6318 113.436 28.3175 113.717C29.0032 113.999 29.7577 114.072 30.4853 113.928C31.2129 113.783 31.881 113.427 32.405 112.905L53.8025 91.6375C55.2087 90.2394 57.116 89.4537 59.105 89.4533H131C134.978 89.4533 138.794 87.8826 141.607 85.0866C144.42 82.2906 146 78.4985 146 74.5444V14.9089C146 10.9548 144.42 7.16267 141.607 4.36671C138.794 1.57075 134.978 0 131 0L41 0ZM86 29.7656C98.48 17.011 129.688 39.3296 86 68.0218C42.3125 39.3222 73.52 17.011 86 29.7656Z" fill="#A71BA7"/>
</svg>
