<svg width="39" height="39" viewBox="0 0 39 39" fill="none" xmlns="http://www.w3.org/2000/svg">
<path fill-rule="evenodd" clip-rule="evenodd" d="M12.1453 8.18041C11.6377 8.68811 11.6377 9.51122 12.1453 10.0189L18.58 16.4536C19.0877 16.9613 19.9108 16.9613 20.4185 16.4536L26.853 10.0189C27.3608 9.51122 27.3608 8.68811 26.853 8.18041L20.4185 1.74575C19.9108 1.23807 19.0877 1.23807 18.58 1.74575L12.1453 8.18041ZM19.4992 13.6958L14.903 9.09967L19.4992 4.50346L24.0954 9.09967L19.4992 13.6958ZM22.5453 18.5804C22.0377 19.0881 22.0377 19.9112 22.5453 20.4189L28.9801 26.8535C29.4876 27.3613 30.3108 27.3613 30.8186 26.8535L37.253 20.4189C37.7608 19.9112 37.7608 19.0881 37.253 18.5804L30.8186 12.1457C30.3108 11.6381 29.4876 11.6381 28.9801 12.1457L22.5453 18.5804ZM29.8992 24.0958L25.303 19.4997L29.8992 14.9035L34.4955 19.4997L29.8992 24.0958ZM12.1453 30.819C11.6377 30.3112 11.6377 29.4881 12.1453 28.9803L18.58 22.5457C19.0877 22.0381 19.9108 22.0381 20.4185 22.5457L26.853 28.9803C27.3608 29.4881 27.3608 30.3112 26.853 30.819L20.4185 37.2535C19.9108 37.7613 19.0877 37.7613 18.58 37.2535L12.1453 30.819ZM14.903 29.8997L19.4992 34.4959L24.0954 29.8997L19.4992 25.3035L14.903 29.8997ZM1.74532 18.5808C1.23764 19.0885 1.23764 19.9116 1.74532 20.4193L8.17999 26.854C8.68767 27.3615 9.5108 27.3615 10.0185 26.854L16.4531 20.4193C16.9608 19.9116 16.9608 19.0885 16.4531 18.5808L10.0185 12.1461C9.5108 11.6385 8.68767 11.6385 8.17999 12.1461L1.74532 18.5808ZM9.09925 24.0962L4.50305 19.5001L9.09925 14.9039L13.6954 19.5001L9.09925 24.0962Z" fill="#A71BA7"/>
</svg>


