<svg width="16" height="16" viewBox="0 0 16 16" fill="none" xmlns="http://www.w3.org/2000/svg">
<path fill-rule="evenodd" clip-rule="evenodd" d="M4.98269 3.35613C4.77442 3.56442 4.77442 3.9021 4.98269 4.11038L7.62255 6.75025C7.83083 6.95853 8.16853 6.95853 8.37681 6.75025L11.0166 4.11038C11.2249 3.9021 11.2249 3.56442 11.0166 3.35613L8.37681 0.716268C8.16853 0.507989 7.83083 0.507989 7.62255 0.716268L4.98269 3.35613ZM7.99967 5.61887L6.11406 3.73326L7.99967 1.84764L9.8853 3.73326L7.99967 5.61887ZM9.24936 7.62279C9.04108 7.83108 9.04108 8.16877 9.24936 8.37705L11.8893 11.0169C12.0975 11.2252 12.4352 11.2252 12.6435 11.0169L15.2833 8.37705C15.4916 8.16877 15.4916 7.83108 15.2833 7.62279L12.6435 4.98293C12.4352 4.77466 12.0975 4.77466 11.8893 4.98293L9.24936 7.62279ZM12.2663 9.88554L10.3807 7.99993L12.2663 6.1143L14.152 7.99993L12.2663 9.88554ZM4.98269 12.6438C4.77442 12.4354 4.77442 12.0977 4.98269 11.8894L7.62255 9.2496C7.83083 9.04132 8.16853 9.04132 8.37681 9.2496L11.0166 11.8894C11.2249 12.0977 11.2249 12.4354 11.0166 12.6438L8.37681 15.2836C8.16853 15.4919 7.83083 15.4919 7.62255 15.2836L4.98269 12.6438ZM6.11406 12.2666L7.99967 14.1522L9.8853 12.2666L7.99967 10.381L6.11406 12.2666ZM0.716024 7.62295C0.507745 7.83123 0.507745 8.16893 0.716024 8.37721L3.35589 11.0171C3.56416 11.2253 3.90186 11.2253 4.11014 11.0171L6.75 8.37721C6.95828 8.16893 6.95828 7.83123 6.75 7.62295L4.11014 4.98309C3.90186 4.77482 3.56416 4.77482 3.35589 4.98309L0.716024 7.62295ZM3.73302 9.8857L1.8474 8.00009L3.73302 6.11446L5.61863 8.00009L3.73302 9.8857Z" fill="#A71BA7"/>
</svg>



