<svg width="59" height="59" viewBox="0 0 59 59" fill="none" xmlns="http://www.w3.org/2000/svg">
<g clip-path="url(#clip0_95_632)">
<path d="M50.2655 50.2778H41.5286V36.5874C41.5286 33.3227 41.4622 29.1214 36.9758 29.1214C32.4205 29.1214 31.7248 32.6737 31.7248 36.3465V50.2778H22.9879V22.125H31.3806V25.9625H31.4937C32.6663 23.75 35.518 21.4145 39.7783 21.4145C48.6307 21.4145 50.268 27.2408 50.268 34.8247V50.2778H50.2655ZM13.1201 18.2728C10.3078 18.2728 8.04858 15.9964 8.04858 13.1963C8.04858 10.3987 10.3102 8.12479 13.1201 8.12479C15.9226 8.12479 18.1941 10.3987 18.1941 13.1963C18.1941 15.9964 15.9202 18.2728 13.1201 18.2728ZM17.5009 50.2778H8.73938V22.125H17.5009V50.2778ZM54.6365 0H4.35371C1.947 0 0 1.90275 0 4.25046V54.7495C0 57.0997 1.947 59 4.35371 59H54.6291C57.0333 59 59 57.0997 59 54.7495V4.25046C59 1.90275 57.0333 0 54.6291 0L54.6365 0Z" fill="#A71BA7"/>
</g>
<defs>
<clipPath id="clip0_95_632">
<rect width="59" height="59" fill="white"/>
</clipPath>
</defs>
</svg>
