<svg width="60" height="60" viewBox="0 0 60 60" fill="none" xmlns="http://www.w3.org/2000/svg">
<g clip-path="url(#clip0_95_632)">
<path d="M51.1175 51.13H42.2325V37.2075C42.2325 33.8875 42.165 29.615 37.6025 29.615C32.97 29.615 32.2625 33.2275 32.2625 36.9625V51.13H23.3775V22.5H31.9125V26.4025H32.0275C33.22 24.1525 36.12 21.7775 40.4525 21.7775C49.455 21.7775 51.12 27.7025 51.12 35.415V51.13H51.1175ZM13.3425 18.5825C10.4825 18.5825 8.185 16.2675 8.185 13.42C8.185 10.575 10.485 8.2625 13.3425 8.2625C16.1925 8.2625 18.5025 10.575 18.5025 13.42C18.5025 16.2675 16.19 18.5825 13.3425 18.5825ZM17.7975 51.13H8.8875V22.5H17.7975V51.13ZM55.5625 0H4.4275C1.98 0 0 1.935 0 4.3225V55.6775C0 58.0675 1.98 60 4.4275 60H55.555C58 60 60 58.0675 60 55.6775V4.3225C60 1.935 58 0 55.555 0L55.5625 0Z" fill="#A71BA7"/>
</g>
<defs>
<clipPath id="clip0_95_632">
<rect width="60" height="60" fill="white"/>
</clipPath>
</defs>
</svg>
