<svg width="161" height="84" viewBox="0 0 161 84" fill="none" xmlns="http://www.w3.org/2000/svg">
<path d="M103.784 0.799995V2.848H93.16V81.952H103.784V84H70.504V81.952H79.848V8.736H78.952L46.44 63.904C46.184 64.16 45.672 65.0133 44.904 66.464C43.4533 69.1093 42.728 71.328 42.728 73.12C42.728 74.8267 43.112 76.2773 43.88 77.472C44.7333 78.6667 45.8 79.264 47.08 79.264C49.5547 79.264 50.792 77.9413 50.792 75.296C50.792 73.6747 50.152 71.584 48.872 69.024L20.456 8.736H19.56V65.696C19.56 71.9253 20.712 76.192 23.016 78.496C25.4053 80.8 29.7147 81.952 35.944 81.952H36.84V84H0.232V81.952C6.46133 81.952 10.8133 80.8 13.288 78.496C15.7627 76.1067 17 71.84 17 65.696V7.96799C16.8293 5.92 16.0187 4.55466 14.568 3.87199C13.2027 3.10399 11.24 2.71999 8.68 2.71999H2.92V0.799995H31.976L57.448 56.352C61.3733 64.2027 63.336 69.7493 63.336 72.992C63.336 76.1493 62.2267 78.624 60.008 80.416C57.8747 82.208 55.1867 83.104 51.944 83.104C48.7867 83.104 46.056 82.2507 43.752 80.544C41.5333 78.8373 40.424 76.192 40.424 72.608C40.424 71.328 40.552 70.3893 40.808 69.792C41.064 69.1093 41.2347 68.64 41.32 68.384C41.4053 68.128 41.576 67.744 41.832 67.232L42.472 66.08C42.8987 65.1413 43.2827 64.416 43.624 63.904C44.648 62.368 45.3307 61.2587 45.672 60.576L80.488 0.799995H103.784Z" fill="#A71BA7"/>
<path fill-rule="evenodd" clip-rule="evenodd" d="M134.145 36.1805C133.638 36.6882 133.638 37.5113 134.145 38.019L140.58 44.4536C141.088 44.9613 141.911 44.9613 142.418 44.4536L148.853 38.019C149.361 37.5113 149.361 36.6882 148.853 36.1805L142.418 29.7458C141.911 29.2381 141.088 29.2381 140.58 29.7458L134.145 36.1805ZM141.499 41.6959L136.903 37.0997L141.499 32.5035L146.095 37.0997L141.499 41.6959ZM144.545 46.5805C144.038 47.0882 144.038 47.9113 144.545 48.419L150.98 54.8536C151.488 55.3613 152.311 55.3613 152.818 54.8536L159.253 48.419C159.761 47.9113 159.761 47.0882 159.253 46.5805L152.818 40.1458C152.311 39.6381 151.488 39.6381 150.98 40.1458L144.545 46.5805ZM151.899 52.0959L147.303 47.4997L151.899 42.9035L156.495 47.4997L151.899 52.0959ZM134.145 58.8191C133.638 58.3113 133.638 57.4881 134.145 56.9804L140.58 50.5458C141.088 50.0381 141.911 50.0381 142.418 50.5458L148.853 56.9804C149.361 57.4881 149.361 58.3113 148.853 58.8191L142.418 65.2536C141.911 65.7613 141.088 65.7613 140.58 65.2536L134.145 58.8191ZM136.903 57.8997L141.499 62.496L146.095 57.8997L141.499 53.3035L136.903 57.8997ZM123.745 46.5809C123.238 47.0885 123.238 47.9117 123.745 48.4193L130.18 54.8541C130.688 55.3616 131.511 55.3616 132.018 54.8541L138.453 48.4193C138.961 47.9117 138.961 47.0885 138.453 46.5809L132.018 40.1462C131.511 39.6385 130.688 39.6385 130.18 40.1462L123.745 46.5809ZM131.099 52.0963L126.503 47.5001L131.099 42.9039L135.695 47.5001L131.099 52.0963Z" fill="#A71BA7"/>
</svg>

