<svg width="39" height="39" viewBox="0 0 39 39" fill="none" xmlns="http://www.w3.org/2000/svg">
<path fill-rule="evenodd" clip-rule="evenodd" d="M12.1453 8.18047C11.6376 8.68817 11.6376 9.51128 12.1453 10.019L18.5799 16.4536C19.0876 16.9613 19.9107 16.9613 20.4184 16.4536L26.853 10.019C27.3608 9.51128 27.3608 8.68817 26.853 8.18047L20.4184 1.74581C19.9107 1.23813 19.0876 1.23813 18.5799 1.74581L12.1453 8.18047ZM19.4992 13.6959L14.903 9.09973L19.4992 4.50353L24.0954 9.09973L19.4992 13.6959ZM22.5453 18.5805C22.0376 19.0882 22.0376 19.9113 22.5453 20.419L28.98 26.8536C29.4876 27.3613 30.3107 27.3613 30.8185 26.8536L37.253 20.419C37.7608 19.9113 37.7608 19.0882 37.253 18.5805L30.8185 12.1458C30.3107 11.6381 29.4876 11.6381 28.98 12.1458L22.5453 18.5805ZM29.8991 24.0959L25.303 19.4997L29.8991 14.9035L34.4954 19.4997L29.8991 24.0959ZM12.1453 30.8191C11.6376 30.3113 11.6376 29.4881 12.1453 28.9804L18.5799 22.5458C19.0876 22.0381 19.9107 22.0381 20.4184 22.5458L26.853 28.9804C27.3608 29.4881 27.3608 30.3113 26.853 30.8191L20.4184 37.2536C19.9107 37.7613 19.0876 37.7613 18.5799 37.2536L12.1453 30.8191ZM14.903 29.8997L19.4992 34.496L24.0954 29.8997L19.4992 25.3035L14.903 29.8997ZM1.74526 18.5809C1.23758 19.0885 1.23758 19.9117 1.74526 20.4193L8.17993 26.8541C8.68761 27.3616 9.51074 27.3616 10.0184 26.8541L16.4531 20.4193C16.9608 19.9117 16.9608 19.0885 16.4531 18.5809L10.0184 12.1462C9.51074 11.6385 8.68761 11.6385 8.17993 12.1462L1.74526 18.5809ZM9.09919 24.0963L4.50298 19.5001L9.09919 14.9039L13.6954 19.5001L9.09919 24.0963Z" fill="#A71BA7"/>
</svg>
