<svg width="72" height="57" viewBox="0 0 72 57" fill="none" xmlns="http://www.w3.org/2000/svg">
<path d="M0.139648 51.329V5.825C0.139648 5.77234 0.209467 5.272 0.349103 4.324L24.0175 27.234L0.418921 52.909C0.232739 52.1717 0.139648 51.645 0.139648 51.329V51.329ZM3.28147 1.164C3.60728 1.006 4.00292 0.927002 4.46838 0.927002H68.2124C68.6313 0.927002 69.0502 1.006 69.4691 1.164L45.7309 24.153L42.5891 26.997L36.3753 32.764L30.1615 26.997L27.0196 24.153L3.28147 1.164ZM3.35128 55.99L27.1593 30.157L36.3753 38.61L45.5913 30.157L69.3993 55.99C69.0269 56.148 68.6313 56.227 68.2124 56.227H4.46838C4.09601 56.227 3.72365 56.148 3.35128 55.99V55.99ZM48.7331 27.234L72.3317 4.324C72.4713 4.798 72.5411 5.29834 72.5411 5.825V51.329C72.5411 51.803 72.4713 52.3297 72.3317 52.909L48.7331 27.234Z" fill="#A71BA7"/>
</svg>
