<svg width="60" height="60" viewBox="0 0 60 60" fill="none" xmlns="http://www.w3.org/2000/svg">
<g clip-path="url(#clip0_95_633)">
<path d="M0.116455 45.06V10.5C0.116455 10.46 0.174637 10.08 0.291001 9.36003L20.0146 26.76L0.349182 46.26C0.194031 45.7 0.116455 45.3 0.116455 45.06ZM2.73464 6.96003C3.00615 6.84003 3.33585 6.78003 3.72373 6.78003H56.8437C57.1928 6.78003 57.5419 6.84003 57.891 6.96003L38.1092 24.42L35.491 26.58L30.3128 30.96L25.1346 26.58L22.5165 24.42L2.73464 6.96003ZM2.79282 48.6L22.6328 28.98L30.3128 35.4L37.9928 28.98L57.8328 48.6C57.5225 48.72 57.1928 48.78 56.8437 48.78H3.72373C3.41342 48.78 3.10312 48.72 2.79282 48.6ZM40.611 26.76L60.2765 9.36003C60.3928 9.72003 60.451 10.1 60.451 10.5V45.06C60.451 45.42 60.3928 45.82 60.2765 46.26L40.611 26.76Z" fill="#A71BA7"/>
</g>
<defs>
<clipPath id="clip0_95_633">
<rect width="60" height="60" fill="white"/>
</clipPath>
</defs>
</svg>
