<svg width="59" height="59" viewBox="0 0 59 59" fill="none" xmlns="http://www.w3.org/2000/svg">
<path d="M0 0V59H59V0H0ZM49.0167 13.9805L45.8479 17.0117C45.7143 17.1138 45.611 17.2503 45.5491 17.4067C45.4872 17.563 45.4689 17.7332 45.4964 17.8991V40.1913C45.4689 40.3572 45.4872 40.5274 45.5491 40.6838C45.611 40.8401 45.7143 40.9766 45.8479 41.0787L48.938 44.1123V44.7761H33.394V44.1123L36.5972 41.005C36.9119 40.6903 36.9119 40.5969 36.9119 40.12V22.1004L28.0127 44.7072H26.8081L16.4462 22.1004V37.2511C16.4036 37.5653 16.433 37.8851 16.5323 38.1862C16.6315 38.4873 16.798 38.7619 17.019 38.9892L21.1835 44.041V44.7048H9.37854V44.041L13.5454 38.9892C13.7647 38.7617 13.9274 38.4859 14.0205 38.184C14.1136 37.8821 14.1344 37.5626 14.0813 37.2511V19.7306C14.1057 19.491 14.0732 19.249 13.9865 19.0244C13.8998 18.7997 13.7613 18.5986 13.5823 18.4375L9.88004 13.9805V13.3143H21.3703L30.2522 32.7917L38.0599 13.3119H49.0142L49.0167 13.9805Z" fill="#A71BA7"/>
</svg>
