<svg width="60" height="60" viewBox="0 0 60 60" fill="none" xmlns="http://www.w3.org/2000/svg">
<path d="M32.925 10L45 22.075V50H15V10H32.925ZM35 5H15C12.25 5 10 7.25 10 10V50C10 52.75 12.25 55 15 55H45C47.75 55 50 52.75 50 50V20L35 5ZM30 35C32.75 35 35 32.75 35 30C35 27.25 32.75 25 30 25C27.25 25 25 27.25 25 30C25 32.75 27.25 35 30 35ZM40 43.575C40 41.55 38.8 39.75 36.95 38.95C34.825 38.025 32.475 37.5 30 37.5C27.525 37.5 25.175 38.025 23.05 38.95C21.2 39.75 20 41.55 20 43.575V45H40V43.575Z" fill="#A71BA7"/>
</svg>
