<svg width="48" height="60" viewBox="0 0 48 60" fill="none" xmlns="http://www.w3.org/2000/svg">
<path d="M27.4125 6.66659L41.5 20.7541V53.3333H6.49996V6.66659H27.4125ZM29.8333 0.833252H6.49996C3.29163 0.833252 0.666626 3.45825 0.666626 6.66659V53.3333C0.666626 56.5416 3.29163 59.1666 6.49996 59.1666H41.5C44.7083 59.1666 47.3333 56.5416 47.3333 53.3333V18.3333L29.8333 0.833252ZM24 35.8333C27.2083 35.8333 29.8333 33.2083 29.8333 29.9999C29.8333 26.7916 27.2083 24.1666 24 24.1666C20.7916 24.1666 18.1666 26.7916 18.1666 29.9999C18.1666 33.2083 20.7916 35.8333 24 35.8333ZM35.6666 45.8374C35.6666 43.4749 34.2666 41.3749 32.1083 40.4416C29.6291 39.3624 26.8875 38.7499 24 38.7499C21.1125 38.7499 18.3708 39.3624 15.8916 40.4416C13.7333 41.3749 12.3333 43.4749 12.3333 45.8374V47.4999H35.6666V45.8374Z" fill="#A71BA7"/>
</svg>
